<?xml version="1.0" encoding="UTF-8"?>
<svg id="Layer_2" xmlns="http://www.w3.org/2000/svg" viewBox="0 0 1166.47 1003.59">
  <defs>
    <style>
      .cls-1 {
        fill: #806462;
      }

      .cls-2 {
        fill: #fbf1eb;
      }

      .cls-3 {
        fill: #fcfcfc;
      }

      .cls-4 {
        fill: #fbf9f8;
      }

      .cls-5 {
        fill: #fdf3ed;
      }

      .cls-6 {
        fill: #241510;
      }

      .cls-7 {
        fill: #f9f5f2;
      }

      .cls-8 {
        fill: #f3dfda;
      }

      .cls-9 {
        fill: #eee;
      }

      .cls-10 {
        fill: #f2f1f1;
      }

      .cls-11 {
        fill: #7e7676;
      }

      .cls-12 {
        fill: #dfdcdc;
      }

      .cls-13 {
        fill: #b5afac;
      }

      .cls-14 {
        fill: #f2ddd8;
      }

      .cls-15 {
        fill: #ebeae9;
      }

      .cls-16 {
        fill: #f5e3de;
      }

      .cls-17 {
        fill: #332823;
      }

      .cls-18 {
        fill: #fdfdfd;
      }

      .cls-19 {
        fill: #b1aba8;
      }

      .cls-20 {
        fill: #f3f3f3;
      }
    </style>
  </defs>
  <g id="Layer_1-2" data-name="Layer_1">
    <g>
      <path class="cls-18" d="M0,1002.59c.33.33.67.67,1,1-.33-.33-.67-.67-1-1Z"/>
      <path class="cls-15" d="M585.38,12.86c-7.06-.32-14.24-1.64-21.14-.76-19.46,2.47-31.01,14.77-37.38,32.6-1,2.8-1.68,5.71-2.5,8.57-3.34-2.71-1.61-5.89-.82-8.98.04-2.64.08-5.28.12-7.91,8.04-18.96,28.43-31.07,48.97-28.73,4.4.5,8.65,2.23,12.97,3.39-.07.61-.15,1.22-.22,1.82Z"/>
      <path class="cls-12" d="M523.54,44.29c-.79,3.09-2.52,6.27.82,8.98-1.46,3.73-5.05,6.5-3.97,11.39.85,3.85,3.86,7.39,8.13,7.68-3.97.99-7.94,1.98-11.91,2.97,1.22-10.38,2.44-20.76,3.66-31.14,1.09.04,2.18.09,3.27.13Z"/>
      <path class="cls-12" d="M585.38,12.86c.07-.61.15-1.22.22-1.82,4.73,3.24,9.46,6.48,14.19,9.72-4.81-2.63-9.61-5.26-14.41-7.9Z"/>
      <path class="cls-13" d="M523.54,44.29c-1.09-.04-2.18-.09-3.27-.13,1.13-2.6,2.26-5.19,3.39-7.79-.04,2.64-.08,5.28-.12,7.91Z"/>
      <path class="cls-15" d="M589.86,71.38c-.05-2.04-.09-4.07-.14-6.11.05,2.04.09,4.07.14,6.11Z"/>
      <path class="cls-12" d="M529.31,63.52c-.11,1.5-.21,2.99-.33,4.49.11-1.5.22-2.99.33-4.49Z"/>
      <g>
        <path class="cls-6" d="M616.34,29.78c5.41,10.9,8.48,22.39,8.84,34.58,0,10.32,0,20.64,0,30.96l-.04,31.92c.02,10.33.04,20.66.06,30.99-.06,5.67-.12,11.34-.18,17.01,0,1,.01,2.01.02,3.01-.06,5.11.06,10.23-.23,15.32-.18,3.14,1.49,4.3,4.03,4.28,10.21-.07,20.42-.34,30.63-.53,9.34.56,10.53-.27,10.18-7.08.05-10.65.1-21.3.15-31.95-.02-.7-.05-1.41-.07-2.11-.04-5.64-.08-11.28-.12-16.92-.06-3.79-.13-7.59-.19-11.38-.41-7.12-.95-14.24-1.17-21.36-.14-4.43,1.17-8.41,5.33-10.85,5.41-2.9,10.97-4.21,16.91-1.62,1.53,1.14,3.06,2.28,4.59,3.42,1,3.94,2.54,7.84,2.88,11.83.49,5.92.13,11.91.13,17.87-.09,8.69-.18,17.39-.27,26.08v43.33c1.09,0,2.07,0,3.05,0,9.38-.04,13.76,3.77,14.81,13.07.3,2.63.31,5.3.35,7.95.24,14.31-2.33,20.68-19.17,19.84-1.18-.06-2.41,1.09-3.62,1.68,0,2.04,0,4.08.01,6.13-.03,10.96-.06,21.92-.1,32.89-.2.6-.4,1.19-.61,1.79-.36,2.11-.72,4.21-1.08,6.32-.17.2-.16.39.05.57-1.03-.01-2.06-.02-3.08-.03-4-.04-8-.08-12.01-.12-3.66-.15-7.33-.31-10.99-.46-.78-.66-1.53-1.83-2.34-1.88-3.74-.2-7.51-.2-11.26,0-.82.04-1.59,1.19-2.38,1.84-.68.17-1.37.35-2.05.52-2.63,0-5.26,0-7.89,0l-6.05-.52c-.17-.41-.33-.82-.5-1.24-.17.41-.33.82-.5,1.23-5,.02-10,.04-15,.06-2.63-2.81-4.45-2.79-6.97.06-.37.2-.73.4-1.1.6-5-.01-10-.02-15-.03-3.64-.19-7.28-.38-10.92-.57.33-1.79.65-3.58.98-5.37l1.66-.78c.08-.32.16-.65.24-.97,0-1.33,0-2.66,0-3.99,0-.67,0-1.35.01-2.02.01-6.65.03-13.31.04-19.96v-15.6h-27.06c-3.07,3.71-5.03,7.79-8.26,9.65-10.89,6.27-23.65.4-26.43-11.78-1.06-4.66-1.36-9.48-2.01-14.23,0-2.34-.02-4.67-.03-7.01.78-3.88.5-8.49,2.57-11.47,3.89-5.62,3.47-11.44,3.27-17.5.02-6.28-.07-12.57.08-18.85.19-7.62,5.26-11.79,13.77-11.55,8.13.23,12.66,4.61,12.63,12.13-.04,8.15-.05,16.3-.04,24.45,0,5.47,1.51,7.01,7.12,7.08,6.48.07,12.97,0,19.45,0,8.25-.01,9.22-1.06,8.57-9.23,0-1.68-.01-3.36-.02-5.04v-2.97c0-.99.02-1.99.03-2.98,0-1.68,0-3.36,0-5.04-.01-.99-.03-1.99-.04-2.98,0-2.99,0-5.97,0-8.96l.03-3.06c-.01-10.31-.03-20.62-.04-30.93,0-10.33-.02-20.66-.03-30.99-.06-8.31-.11-16.62-.17-24.93-.05-2.04-.09-4.07-.14-6.11l-.26-3.93c-.05-1-.1-2-.16-2.99-.28-1.33-.56-2.66-.85-3.99-2.29-4.76-4.58-9.52-6.87-14.28-.42-.5-.78-1.07-1.27-1.48-8.71-7.4-26.8-5.38-33.33,7.67-4.89,9.78-5.72,20.13-5.64,30.82.02,2.96-1.92,5.93-2.96,8.89-.94.4-1.89.8-2.83,1.2-.66.05-1.33.1-1.99.15-5.99-.08-11.98-.17-17.97-.25-5.38-1.68-6.96-5.7-6.68-10.87.05-2.92.09-5.83.14-8.75.04-2.14.08-4.27.11-6.41,1.8-7.89,3.6-15.78,5.39-23.68.84-1.69,1.43-3.57,2.57-5.04,5.41-7.02,10.97-13.93,16.47-20.88,6.99-3.39,13.98-6.77,20.97-10.16,2.66-.42,5.31-.85,7.97-1.27,7.33.74,14.66,1.47,22,2.21,1.97.81,3.93,1.62,5.9,2.42,2.96,1.78,5.93,3.57,8.89,5.35,1.46,1.24,2.92,2.48,4.38,3.72,2.89,3.24,5.77,6.49,8.66,9.73,1.32,2.12,2.65,4.23,3.97,6.35ZM520.28,44.16c-1.22,10.38-2.44,20.76-3.66,31.14-.11,1.91-.94,4.27,2.32,4.3,5.08.05,10.17.01,15.34.01.46-6.94.8-13.05,1.3-19.14.87-10.51,4.7-19.85,12.74-26.74,8.34-7.14,18.11-9.87,28.74-5.44,11.83,4.94,18.16,14.22,19.24,26.86.68,8.08.8,16.22.89,24.33.21,18.93.25,37.86.35,56.79-.08,20.48-.05,40.96-.33,61.43-.06,4.24,1.31,5.87,5.43,5.25.93.02,1.86.03,2.8.05,2.54-.09,5.08-.18,7.62-.27,1.63-.18,3.26-.36,5.4-.59,0-2.08,0-3.87,0-5.66,0-42.92.07-85.84-.07-128.76-.05-14.74-3.68-28.56-12.49-40.66-1.1-1.52-2.76-2.63-4.16-3.93-.64-.79-1.29-1.58-1.93-2.38-4.73-3.24-9.46-6.48-14.19-9.72-4.32-1.16-8.58-2.89-12.97-3.39-20.55-2.34-40.93,9.77-48.97,28.73-1.13,2.6-2.26,5.19-3.39,7.79ZM543.52,201.14c2.77.52,5.07.28,5.03-3.36-.13-10.85-.28-21.7-.42-32.55-.81-1.07-1.61-2.15-2.42-3.22-8.55-2.46-10.62-.95-10.46,7.36.18,9.41.32,18.83.24,28.24-.03,3.76,1.37,5.21,5.03,4.47,1-.31,2-.62,2.99-.94ZM549.76,226.11c-.05-1.96-.1-3.92-.15-5.88v-17.06c-5.23,0-9.86-.24-14.43.15-1.3.11-3.28,1.89-3.54,3.18-2.2,11.01-2.33,21.97,2,32.62,3.42,4.32,8.43,5.45,13.62,3.16,4.98-2.2,3.16-6.06,2.62-9.75-.31-2.1-.09-4.28-.11-6.43ZM677.48,281.21c1.32-.02,2.65-.03,3.97-.05,1.59.09,3.18.17,5.59.31,0-12.58-.39-24.72.11-36.81.48-11.51.13-12.24-11.36-11.09-.31.03-.61.24-1.35.56v4.08c-.02,13.03-.06,26.05-.05,39.08,0,2.03-.63,4.72,3.07,3.94ZM678.35,201.44c1.01.18,2.02.35,3.03.53l4.95-.02c3.57.41,4.57-1.38,4.53-4.7-.08-6.78.18-13.57.21-20.35.08-19.9.12-39.8.17-59.7-.12-4.16-.24-8.33-.37-12.49-.76-1.41-1.16-3.34-2.33-4.14-3.44-2.35-7.19-2.19-10.84-.16-3.93,2.18-2.3,5.74-2.24,8.91.04,1.68.08,3.35.13,5.03.06,1.29.11,2.58.17,3.87.19,26.69.37,53.38.67,80.07.01,1.06,1.26,2.1,1.93,3.16ZM705.4,204.5c-.96-.16-1.92-.47-2.88-.47-21.45.05-42.91,0-64.36.25-10.59.12-21.16.8-31.75,1.23l-16.8-1.06c-7.85.18-15.69.39-23.54.53-3.8.07-7.6-.01-11.4,0-2.41,0-4.08.57-2.5,3.47-.05.88-.1,1.76-.15,2.64,0,3.32,0,6.64,0,9.96v9.34c11.88,0,23.12-.17,34.35.13,2.54.07,5.03,1.78,7.55,2.73v47.89h6.63c1.31,0,2.63-.01,3.94-.02,4.02.03,8.03.06,12.05.09h8.41c0-13.12.3-25.89-.1-38.64-.3-9.8,1.29-12.01,10.91-12.04,21.64-.06,43.28-.11,64.92-.15,7.37-.01,8.73-1.46,8.64-9.22-.27-3.96-.54-7.92-.81-11.88-1.03-1.59-2.07-3.18-3.1-4.77ZM653.46,237.76c-4.32,0-8.63,0-12.95,0h-8.13v42.82h34.75v-42.83c-4.79,0-9.23,0-13.67,0ZM678.75,283.43c-.04.16-.07.32-.11.49h6.76c0-.16,0-.32,0-.49h-6.66Z"/>
        <path class="cls-4" d="M594.43,286.86c5,.01,10,.02,15,.03-1.02,1.18-2.05,2.36-3.07,3.54-.09.55-.17,1.11-.26,1.66,22.42,0,44.84.02,67.26-.03,33.73.36,67.45.79,101.18,1.05,18.63.15,37.26-.06,55.89.09,4.17.03,8.08-2.59,12.58-.25,2.65,1.38,3.53-1.31,3.29-3.8.68-.51,1.36-1.02,2.04-1.54,5.33.13,10.65.26,15.98.39,0,.72,0,1.43,0,2.15-3.81.39-7.63.78-11.44,1.17.02.56.05,1.13.07,1.69,27.43.71,54.86,1.41,82.3,2.12,4,.33,8,.66,12,.99h10.97c9.08,0,18.17-.11,27.25.06,5.61.1,11.22.63,16.83.95,2.15.13,4.14.01,3.89-2.99.61-.61,1.22-1.22,1.84-1.83,4.02.15,8.04.3,12.06.46,2.36,1.12,4.73,2.24,7.09,3.36,2.06,3.93,5.41,1.45,8.21,1.65-.07-.55-.15-1.1-.22-1.65,0-.84.02-1.68.03-2.52,1.66.12,3.32.25,4.98.37-.27,1.51-.54,3.02-.86,4.78,3.88.38,5.09-1.32,4.85-4.49,2.71.15,5.43.29,8.14.44.14,4.77.03,4.55,4.26,2.4,1.24-.63,4.02-.29,4.86.68,4.4,5.08,10.38,4.91,16.1,5.26,6.12.37,6.14.08,4.6-5.97,4.79.44,9.57.88,14.36,1.32-2.3,1.6-4.6,3.2-6.95,4.82,3.14,2.64,9.37.55,9.57,6.88-19.55-1.96-39.06-4.43-58.65-5.73-16.71-1.11-33.51-.89-50.26-1.25-1.75-.32-3.49-.9-5.25-.93-6.57-.11-13.14-.05-19.72-.05-58.63-1-117.26-2-175.88-3-5.66,0-11.31,0-16.97,0h-4.01c-13.64-.32-27.28-.64-40.92-.96-1.36,0-2.71,0-4.07,0-93.58.33-187.15.65-280.73.98-12.67.33-25.33.78-38,.95-32.03.42-64.05.7-96.08,1.03-4.15.04-8.31-.09-12.46.05-1.78.06-3.54.6-5.3.93-16.88.34-33.77.63-50.65,1.07-6.27.16-12.54.55-18.79,1.09-14.12,1.21-28.24,2.43-42.32,3.97-5.19.57-10.29,2.03-15.43,3.08-3.24,1.1-6.48,2.2-9.71,3.31-.67.19-1.34.38-2.01.57-2.46-3.78-5.67-5.16-9.95-3.11-.35-.01-.71-.02-1.06-.03,1.02-5.28,4.89-3.13,7.2-2.09,4.03,1.82,6.21,1,7.33-2.43-1.33-2.73-2.44-5.01-3.55-7.3.31-.42.63-.84.94-1.26,1.68-.27,3.36-.55,5.05-.82.65-.07,1.3-.13,1.95-.2,2.33-.2,4.66-.41,6.99-.61,1.69-.16,3.39-.32,5.08-.48,2.65-.23,5.31-.46,7.96-.68,1.32-.07,2.64-.14,3.95-.21,3.35-.28,6.7-.56,10.05-.84,1.65-.05,3.3-.09,4.94-.14,2.67-.22,5.33-.43,8-.65,2.66-.13,5.32-.26,7.98-.39,2.34-.19,4.67-.38,7.01-.57,2.67-.12,5.33-.24,8-.36,5-.26,10-.53,15-.79,1.66-.07,3.32-.13,4.98-.2,5-.27,10-.53,15-.8,5.01-.12,10.03-.23,15.04-.35,4.99-.24,9.97-.47,14.96-.71.99-.05,1.98-.1,2.96-.15,1.01-.02,2.01-.03,3.02-.05,1.01-.02,2.03-.04,3.04-.06,7.32-.25,14.64-.5,21.96-.74,2.65-.05,5.3-.1,7.95-.15,1.66.04,3.32.13,4.97.1,37.56-.63,75.12-1.43,112.68-1.88,26.75-.32,53.51-.16,80.26-.21-1.74.73-3.47,2.08-5.21,2.09-28.3.13-56.59.06-84.89.17-2.23,0-4.46,1.05-6.69,1.61.17.67.33,1.33.5,2,2.87-.59,5.92-2.12,8.58-1.61,10.77,2.06,21.55.21,32.32.69,12.71.57,25.46.13,38.19.13,10.41,0,20.82,0,31.23,0,15.65,0,31.29.04,46.94-.04,1.82,0,3.63-.68,5.66-1.09-1.61-1.74-2.7-2.92-3.8-4.1ZM428.59,290.38c-.25.35-.51.7-.76,1.05.7.42,1.4.84,2.1,1.26.17-.26.35-.51.52-.77-.62-.51-1.24-1.02-1.86-1.53Z"/>
        <path class="cls-19" d="M708.5,209.27c.27,3.96.54,7.92.81,11.88-6.79-.29-13.57-.76-20.36-.83-13.46-.14-26.93-.08-40.39-.08-9.64,0-19.28-.04-28.92.09-4.94.07-6.34,1.96-6.08,6.32,1.08,18.18,1.99,36.36,2.96,54.55-4.02-.03-8.03-.06-12.05-.09-.26-2.3-.73-4.59-.76-6.89-.15-13.3-.16-26.6-.33-39.9-.02-1.94-.67-3.88-1.02-5.82l-1.83.18v52.44h-6.63c0-15.98,0-31.93,0-47.89,3.75-1.38,3.55-4.78,2.69-7.35-.52-1.54-3.45-3.36-5.15-3.22-13.24,1.04-26.41,1.8-39.44-1.63,0-3.32,0-6.64,0-9.96,18.6-.24,37.19-.51,55.79-.72,33.57-.38,67.13-.73,100.7-1.09Z"/>
        <path class="cls-13" d="M599.8,20.76c.64.79,1.29,1.58,1.93,2.37.38,1.56.36,3.38,1.19,4.65,7.22,11.11,9.71,23.39,9.7,36.44-.05,42.36.01,84.73.06,127.09,0,3.81.24,7.62.37,11.43-2.54.09-5.08.18-7.62.27-.26-23.57-.59-47.14-.76-70.71-.16-21.63-.05-43.27-.33-64.9-.04-2.95-1.66-5.88-2.55-8.83-.42-1.43-1.02-2.83-1.24-4.3-1.49-10.14-5.55-18.8-13.28-25.87-10.59-9.68-23.68-11.35-35.64-3.35-13.62,9.12-19.98,22.68-22.31,38.46l-.33,4.49c-.15,1.44-.31,2.88-.46,4.32-4.27-.29-7.29-3.83-8.13-7.68-1.08-4.89,2.52-7.66,3.97-11.39.83-2.86,1.51-5.77,2.5-8.57,6.37-17.84,17.91-30.13,37.38-32.6,6.9-.88,14.09.44,21.14.76,4.8,2.63,9.61,5.27,14.41,7.9Z"/>
        <path class="cls-11" d="M616.53,281.2c-.97-18.18-1.88-36.37-2.96-54.55-.26-4.36,1.14-6.25,6.08-6.32,9.64-.13,19.28-.09,28.92-.09,13.46,0,26.93-.06,40.39.08,6.79.07,13.57.54,20.36.83.09,7.76-1.28,9.21-8.65,9.22-21.64.04-43.28.08-64.92.15-9.62.03-11.21,2.24-10.91,12.04.39,12.75.1,25.52.1,38.64h-8.41Z"/>
        <path class="cls-11" d="M528.52,72.33c.15-1.44.31-2.88.46-4.32.11-1.49.22-2.99.33-4.49,2.33-15.78,8.7-29.34,22.31-38.46,11.96-8.01,25.05-6.33,35.64,3.35,7.73,7.07,11.79,15.73,13.28,25.87.21,1.46.82,2.86,1.24,4.29.14,24.85.28,49.69.42,74.54-1.56,1.06-3.12,2.11-4.68,3.17-.11-18.93-.14-37.86-.35-56.79-.09-8.11-.21-16.25-.89-24.33-1.07-12.63-7.4-21.92-19.24-26.86-10.64-4.44-20.41-1.7-28.74,5.44-8.04,6.88-11.87,16.23-12.74,26.74-.5,6.09-.83,12.2-1.3,19.14-5.17,0-10.26.04-15.34-.01-3.26-.03-2.43-2.39-2.32-4.3,3.97-.99,7.94-1.98,11.91-2.97Z"/>
        <path class="cls-11" d="M613.05,202.75c-.13-3.81-.36-7.62-.37-11.43-.05-42.36-.11-84.73-.06-127.09.01-13.05-2.48-25.33-9.7-36.44-.83-1.27-.81-3.09-1.19-4.65,1.4,1.3,3.05,2.42,4.16,3.93,8.81,12.11,12.45,25.92,12.49,40.66.14,42.92.06,85.84.07,128.76,0,1.79,0,3.59,0,5.66-2.13.23-3.77.41-5.4.59Z"/>
        <path class="cls-2" d="M846.3,289.16c.24,2.49-.64,5.18-3.29,3.8-4.5-2.34-8.41.29-12.58.25-18.63-.15-37.26.06-55.89-.09-33.73-.27-67.45-.69-101.18-1.05,0-1.28,0-2.55,0-3.83,1.03-.53,2.06-1.05,3.09-1.58,4,.04,8,.08,12.01.12,1.03.01,2.06.02,3.08.03-.2-.17-.22-.36-.05-.57,9.31,0,18.61,0,27.92,0,1.01,0,2.01,0,3.02,0,.66,0,1.32,0,1.97,0,2.01,0,4.01,0,6.02.01,4.32.02,8.63.05,12.95.07,7.34.24,14.67.49,22.01.73,1.76.7,3.51,1.99,5.27,2,25.21.13,50.43.09,75.64.09Z"/>
        <path class="cls-19" d="M690.86,104.7c.12,4.16.24,8.33.37,12.49-.59.85-1.63,1.68-1.69,2.56-.76,11.85-1.56,23.7-2,35.57-.57,15.53-.83,31.08-1.22,46.61l-4.95.02c-.3-4.95-.82-9.89-.86-14.84-.14-17.6-.02-35.19-.18-52.79-.07-8.11-.68-16.2-.81-24.31-.08-5.45,2.54-7.25,7.91-5.91,1.12.28,2.29.4,3.43.59Z"/>
        <path class="cls-12" d="M594.43,286.86c1.1,1.18,2.19,2.37,3.8,4.1-2.03.41-3.84,1.08-5.66,1.09-15.65.08-31.29.04-46.94.04-10.41,0-20.82,0-31.23,0-12.73,0-25.49.44-38.19-.13-10.77-.48-21.55,1.37-32.32-.69-2.66-.51-5.71,1.02-8.58,1.61-.17-.67-.33-1.33-.5-2,2.23-.56,4.46-1.6,6.69-1.61,28.3-.11,56.59-.04,84.89-.17,1.74,0,3.48-1.36,5.21-2.09.96-.01,1.93-.03,2.89-.04,1.32.74,2.63,2.07,3.97,2.12,6.73.22,13.47.19,20.2,0,.97-.03,1.9-1.47,2.84-2.26l4.07-.56c5.98,0,11.97,0,17.95,0,3.64.19,7.28.38,10.92.57Z"/>
        <path class="cls-9" d="M708.5,209.27c-33.57.36-67.13.71-100.7,1.09-18.6.21-37.19.48-55.79.72.05-.88.1-1.76.15-2.64,11.32-.38,22.64-.68,33.95-1.26,1.21-.06,2.33-1.78,3.49-2.73l16.8,1.06c1.72.56,3.44,1.61,5.16,1.61,19.27.09,38.55.05,57.82-.05,3.63-.02,7.26-.65,10.89-.62,7.29.07,14.58.52,21.87.51,1.08,0,2.17-1.61,3.25-2.47,1.03,1.59,2.07,3.18,3.1,4.77Z"/>
        <path class="cls-17" d="M743.38,286.34c-4.32-.02-8.63-.05-12.95-.07.63-.98,1.25-1.96,1.88-2.95-.22-.4-.43-.8-.65-1.2l-7.25,4.14c-.66,0-1.32,0-1.97,0-.5-.66-1.01-1.33-1.51-1.99-.5.66-1.01,1.32-1.51,1.99-9.31,0-18.61,0-27.92,0,.36-2.11.72-4.21,1.08-6.32.62.1,1.25.21,1.87.31.99.05,1.99.1,2.98.15,7.34-.02,14.69-.03,22.03-.05,10.98-.03,21.96-.06,32.95-.09,10.66-.03,21.32-.06,31.97-.09,1.33,0,2.67,0,4,0,.7.21,1.4.42,2.1.63-2.12,1.12-4.19,3.07-6.36,3.18-4.72.23-9.48-.61-14.23-.77-5.03-.16-10.08-.3-15.09.05-3.94.27-8.47-1-11.41,3.12Z"/>
        <path class="cls-13" d="M533.64,239.13c-4.33-10.65-4.19-21.61-2-32.62.26-1.3,2.23-3.07,3.54-3.18,4.57-.39,9.2-.15,14.43-.15v17.06c-2.92-.39-5.98-1.31-7.85,2.15-6.52-.3-8.28,1.35-8.25,7.78.02,2.99.08,5.98.13,8.97ZM533.37,216.61c.68.08,1.35.17,2.03.25.39-2.74.78-5.48,1.17-8.21-.77-.09-1.54-.18-2.32-.27-.29,2.74-.59,5.49-.88,8.23Z"/>
        <path class="cls-11" d="M552.02,221.03c13.03,3.43,26.21,2.67,39.44,1.63,1.7-.13,4.63,1.69,5.15,3.22.86,2.57,1.06,5.96-2.69,7.35-2.52-.95-5.01-2.66-7.55-2.73-11.23-.3-22.47-.13-34.35-.13v-9.34Z"/>
        <path class="cls-20" d="M602.21,133.12c-.14-24.85-.28-49.69-.42-74.54.89,2.94,2.52,5.87,2.55,8.83.28,21.63.17,43.27.33,64.9.17,23.57.5,47.14.76,70.71-.93-.02-1.86-.03-2.8-.05-.04-7.82-.08-15.64-.13-23.46-.1-15.47-.2-30.93-.3-46.4Z"/>
        <path class="cls-19" d="M602.21,133.12c.1,15.47.2,30.93.3,46.4.05,7.82.08,15.64.13,23.46-4.11.62-5.48-1.02-5.43-5.25.27-20.48.25-40.95.33-61.43,1.56-1.06,3.12-2.11,4.68-3.17Z"/>
        <path class="cls-12" d="M673.37,288.24c0,1.28,0,2.55,0,3.83-22.42.04-44.84.03-67.27.02.09-.55.17-1.11.26-1.66,1.02-1.18,2.05-2.36,3.07-3.54.37-.2.73-.4,1.1-.6,2.32-.02,4.65-.04,6.97-.06,5-.02,10-.04,15-.06.33,0,.67,0,1,0l6.05.52c1.4.84,2.77,2.28,4.2,2.34,1.19.05,2.45-1.5,3.69-2.34.68-.17,1.37-.35,2.05-.52,2.01.17,4.01.35,6.02.52,1.39.51,2.76,1.4,4.17,1.46,4.56.2,9.13.09,13.7.1Z"/>
        <path class="cls-11" d="M686.32,201.95c.39-15.54.65-31.08,1.22-46.61.44-11.87,1.24-23.72,2-35.57.06-.89,1.1-1.71,1.69-2.56-.05,19.9-.09,39.8-.17,59.7-.03,6.78-.29,13.57-.21,20.35.04,3.32-.96,5.11-4.53,4.7Z"/>
        <path class="cls-12" d="M690.86,104.7c-1.15-.19-2.31-.31-3.43-.59-5.37-1.34-7.99.46-7.91,5.91.13,8.11.74,16.21.81,24.31.16,17.6.05,35.19.18,52.79.04,4.95.56,9.89.86,14.84-1.01-.18-2.02-.35-3.03-.53.02-26.23.08-52.46-.06-78.69,0-1.52-1.66-3.03-2.54-4.55-.06-1.29-.11-2.58-.17-3.87.93-.94,1.87-1.89,2.8-2.83-.98-.73-1.95-1.47-2.93-2.2-.06-3.17-1.69-6.73,2.24-8.91,3.65-2.03,7.4-2.18,10.84.16,1.17.8,1.58,2.73,2.33,4.14Z"/>
        <path class="cls-11" d="M674.46,238.19v-4.08c.74-.31,1.03-.53,1.35-.56,11.49-1.15,11.84-.41,11.36,11.09-.5,12.1-.11,24.23-.11,36.81-2.41-.13-4-.22-5.59-.31-.03-1.83-.09-3.66-.09-5.49,0-11.31.02-22.63.02-33.94,0-2.59.16-5.42-3.93-3.69-1,.05-2,.1-3,.15Z"/>
        <path class="cls-13" d="M705.4,204.5c-1.08.86-2.17,2.47-3.25,2.47-7.29,0-14.58-.44-21.87-.51-3.63-.04-7.26.6-10.89.62-19.27.1-38.55.14-57.82.05-1.72,0-3.44-1.05-5.16-1.61,10.58-.43,21.16-1.1,31.75-1.23,21.45-.25,42.91-.21,64.36-.25.96,0,1.92.31,2.88.47Z"/>
        <path class="cls-12" d="M540.52,202.08c-3.66.74-5.06-.71-5.03-4.47.08-9.41-.06-18.83-.24-28.24-.16-8.31,1.9-9.82,10.46-7.36-.13.94-.26,1.89-.4,2.83-.22.17-.44.34-.67.5-4.05-.71-5.26,1.2-5.1,5.03.44,10.57.67,21.14.98,31.72Z"/>
        <path class="cls-19" d="M677.45,238.04c4.09-1.73,3.93,1.11,3.93,3.69,0,11.31-.02,22.63-.02,33.94,0,1.83.06,3.66.09,5.49-1.32.02-2.65.03-3.97.05,0-14.39-.02-28.78-.02-43.17Z"/>
        <path class="cls-19" d="M675.75,118.21c.88,1.51,2.53,3.03,2.54,4.55.14,26.23.08,52.46.06,78.69-.67-1.05-1.92-2.1-1.93-3.16-.3-26.69-.47-53.38-.67-80.07Z"/>
        <path class="cls-11" d="M533.64,239.13c-.04-2.99-.11-5.98-.13-8.97-.03-6.43,1.73-8.08,8.25-7.78.02.81.05,1.61.07,2.42-1.23.44-2.6.65-3.65,1.35-2.87,1.94-3.64,4.98-2.11,7.79,1,1.84,3.7,4.26,5.16,3.98,1.88-.36,3.28-3.18,4.89-4.94.41-1.3.67-2.69,1.29-3.89.58-1.1,1.55-2,2.35-2.98.02,2.15-.2,4.33.11,6.43.54,3.69,2.36,7.56-2.62,9.75-5.19,2.29-10.2,1.16-13.62-3.16Z"/>
        <path class="cls-7" d="M600.54,281.12v-52.44l1.83-.18c.36,1.94,1,3.87,1.02,5.82.17,13.3.17,26.6.33,39.9.03,2.3.49,4.59.76,6.89-1.31,0-2.63.01-3.94.02Z"/>
        <path class="cls-11" d="M544.65,165.34c.23-.16.45-.33.67-.5.94.13,1.88.26,2.81.39.14,10.85.29,21.7.42,32.55.04,3.65-2.25,3.88-5.03,3.36.38-11.94.75-23.87,1.13-35.81Z"/>
        <path class="cls-13" d="M544.65,165.34c-.38,11.94-.75,23.87-1.13,35.81-1,.31-2,.62-2.99.94-.31-10.57-.53-21.15-.98-31.72-.16-3.83,1.05-5.73,5.1-5.03Z"/>
        <path class="cls-12" d="M677.45,238.04c0,14.39.02,28.78.02,43.17-3.7.78-3.07-1.92-3.07-3.94-.01-13.03.03-26.05.05-39.08,1-.05,2-.1,3-.15Z"/>
        <path class="cls-19" d="M589.62,204.44c-1.16.95-2.28,2.67-3.49,2.73-11.31.58-22.63.88-33.95,1.26-1.58-2.89.09-3.46,2.5-3.47,3.8,0,7.6.07,11.4,0,7.85-.14,15.69-.35,23.54-.53Z"/>
        <path class="cls-17" d="M583.52,286.29c-5.98,0-11.97,0-17.95,0,.34-1.79.68-3.59,1.02-5.38,5.97,0,11.94.01,17.91.02-.33,1.79-.65,3.58-.98,5.37Z"/>
        <path class="cls-17" d="M549.76,226.11c-.8.99-1.77,1.88-2.35,2.98-.62,1.19-.88,2.58-1.29,3.89-1.43-2.73-2.86-5.46-4.29-8.19-.02-.81-.05-1.61-.07-2.42,1.87-3.45,4.93-2.54,7.85-2.15.05,1.96.1,3.92.15,5.88Z"/>
        <path class="cls-4" d="M673.37,288.24c-4.57-.01-9.14.09-13.7-.1-1.41-.06-2.78-.95-4.17-1.46,3.32-.16,6.64-.32,9.97-.47,3.66.15,7.33.31,10.99.46-1.03.53-2.06,1.05-3.09,1.58Z"/>
        <path class="cls-17" d="M665.46,286.21c-3.32.16-6.64.32-9.97.47-2.01-.17-4.01-.35-6.02-.52.79-.64,1.56-1.79,2.38-1.84,3.74-.2,7.51-.2,11.26,0,.81.04,1.56,1.22,2.34,1.88Z"/>
        <path class="cls-4" d="M647.43,286.68c-1.23.84-2.5,2.4-3.69,2.34-1.43-.07-2.81-1.5-4.2-2.34,2.63,0,5.26,0,7.89,0Z"/>
        <path class="cls-19" d="M675.45,109.31c.98.73,1.95,1.47,2.93,2.2-.93.94-1.87,1.89-2.8,2.83-.04-1.68-.08-3.35-.13-5.03Z"/>
        <path class="cls-17" d="M617.5,286.22c-2.32.02-4.65.04-6.97.06,2.52-2.86,4.34-2.87,6.97-.06Z"/>
        <path class="cls-15" d="M693.27,239.14c0,2.04,0,4.08.01,6.13,0-2.04,0-4.08-.01-6.13Z"/>
        <path class="cls-17" d="M678.75,283.43h6.66c0,.16,0,.32,0,.49h-6.76c.04-.16.07-.32.11-.49Z"/>
        <path class="cls-4" d="M691.55,286.81c-1.03-.01-2.06-.02-3.08-.03,1.03.01,2.06.02,3.08.03Z"/>
        <path class="cls-13" d="M548.13,165.23c-.94-.13-1.88-.26-2.81-.39.13-.95.26-1.89.39-2.83.81,1.07,1.61,2.15,2.42,3.22Z"/>
        <path class="cls-17" d="M633.49,286.16c-.33,0-.67,0-1,0,.17-.41.33-.82.5-1.23.17.41.33.82.5,1.24Z"/>
        <path class="cls-15" d="M586.16,280.14c-.05-.25-.13-.5-.13-.75,0-.08.24-.15.37-.22-.08.32-.16.65-.24.97Z"/>
        <path class="cls-6" d="M121.85,471.28c-1.04-5.45-1.97-10.92-3.18-16.33-.67-3.02-1.79-5.94-2.71-8.91-3.32-13.66-6.64-27.32-9.96-40.98-2.17-8.93-4.33-17.86-6.5-26.79-.46-2.06-.93-4.12-1.39-6.18-2.07-8.66-4.15-17.31-6.22-25.97-.98-2.97-1.85-5.99-2.95-8.91-2.43-6.47-3.82-13.03-2.37-19.94,3.13-4.34,6.26-8.67,9.39-13.01,5.37-2.08,10.61-4.59,16.13-6.12,6.18-1.71,12.6-2.52,18.92-3.72,8.96-1.12,17.91-2.23,26.87-3.35,10.37-.83,20.73-1.66,31.1-2.49,10.96-.72,21.91-1.45,32.87-2.17,5.7-.3,11.39-.6,17.09-.9,2.29-.16,4.58-.32,6.88-.47,1.65-.04,3.31-.08,4.96-.12,3.88-.17,7.77-.33,11.65-.5,17.1-.73,34.19-1.45,51.29-2.18,2.33-.11,4.65-.22,6.98-.33h.15c5.74,0,11.48-.01,17.22-.03,4.23-.1,8.46-.2,12.69-.29,1.36-.04,2.71-.09,4.07-.13,2.97-.12,5.93-.24,8.9-.36,5.99.07,11.98.14,17.96.21,2.35,2.88,4.69,2.95,7.02-.04,5.01-.26,10.02-.52,15.04-.78,1.98-.08,3.96-.16,5.95-.24.66,0,1.32,0,1.99,0,2-.03,4-.05,6-.08.33,0,.67,0,1,0,4.66-.04,9.33-.07,13.99-.11,1.33,0,2.66,0,3.99,0,1.34,0,2.68-.01,4.02-.02,9.99-.03,19.97-.06,29.96-.09,10.66.01,21.32.02,31.97.03,9.99.02,19.98.05,29.96.07,3.34-.02,6.68-.04,10.02-.05,1.99,0,3.97,0,5.96,0,2.34.02,4.68.03,7.03.05,3.67.29,7.34.58,11.01.87-.34,1.79-.68,3.59-1.02,5.38l-4.07.56c-9,.05-18.01.1-27.01.15-.96.01-1.93.03-2.89.04-26.75.05-53.51-.11-80.26.21-37.56.44-75.12,1.24-112.68,1.88-1.66.03-3.31-.06-4.97-.1-2.65.05-5.3.1-7.95.15-7.32.25-14.64.5-21.96.74-1.06-2.39-2.08-2.32-3.04.06-1.01.02-2.01.03-3.02.05-.99.05-1.98.1-2.96.15-4.99.24-9.97.47-14.96.71-5.1-3.65-10.04-.57-15.04.35-5,.27-10,.53-15,.8-1.66.07-3.32.13-4.98.2-5,.26-10,.53-15,.79-2.67.12-5.33.24-8,.36-2.34.19-4.67.38-7.01.57-2.66.13-5.32.26-7.98.39-2.67.22-5.33.43-8,.65-1.65.05-3.3.09-4.94.14-3.35.28-6.7.56-10.05.84-1.32.07-2.64.14-3.95.21-2.65.23-5.31.46-7.96.68-1.95-2.52-3.71-3.06-5.08.48-2.33.2-4.66.41-6.99.61-.65.07-1.3.13-1.95.2-1.68.27-3.36.55-5.05.82-.99.31-1.97.62-2.96.94-.33.12-.65.24-.98.36-2.05.05-4.1.11-6.15.16-1.28.2-2.55.4-3.83.59-.67.06-1.34.12-2,.18-1.03.09-2.06.18-3.09.27-3.3.6-6.6,1.19-9.9,1.79-.99.2-1.98.41-2.97.61-.35.07-.69.15-1.04.22-9.07,1.4-18.13,2.81-24.13,10.96-.26,3.02-.52,6.04-.78,9.05.27,1.93.32,3.92.85,5.78,1.57,5.6,3.59,11.08,4.97,16.73,7.71,31.5,15.09,63.08,22.97,94.53,10.06,40.17,20.48,80.24,35.12,119.07,12.91,34.23,28.45,66.91,51.99,95.43,28.11,34.04,64.27,51.7,107.84,55.23,1.33.22,2.65.45,3.98.67,1.01.08,2.02.16,3.02.24,1.26.2,2.52.41,3.78.61,1.4.11,2.81.22,4.21.33,1.13.28,2.24.7,3.38.81,19.16,1.79,38.29,4.11,57.49,5.19,34.2,1.92,68.43,3.3,102.66,4.49,20.42.71,40.87.62,61.31.89l4.01.05c2.31.16,4.62.44,6.94.45,19.12.08,38.25.2,57.37.14,24.27-.07,48.54-.3,72.81-.45,2.58-.04,5.15-.08,7.73-.12,3.34-.09,6.67-.18,10.01-.28,7.23-.09,14.45-.18,21.68-.27,2.48.07,4.97.26,7.45.18,17.59-.55,35.19-1.16,52.78-1.75,1.02-.05,2.04-.1,3.06-.16.65-.02,1.31-.05,1.96-.07.99.05,1.98.18,2.96.13,26.32-1.47,52.63-2.93,78.94-4.51,2.03-.12,4.02-1.1,6.02-1.68,5.31-.2,10.63-.41,15.94-.61,8.1-.82,16.21-1.55,24.29-2.49,17.05-2,33.91-4.89,49.93-11.38,27.83-11.26,48.3-31.35,65.53-55.16,19.58-27.07,32.64-57.47,43.79-88.67,22.63-63.35,38.02-128.77,54.65-193.84,3.04-11.89,6.87-23.57,10.33-35.35.53-1.36,1.05-2.72,1.58-4.09,1.67-6.27.39-9.49-5.25-13.27-9.02-6.24-19.59-7.15-29.96-8.77-7.99-1.13-15.98-2.27-23.98-3.4l-2.64-.33c-4.79-.44-9.57-.88-14.36-1.32-4.33-.35-8.65-.7-12.98-1.06-1.67-.16-3.33-.31-5-.47-3.95-.28-7.89-.56-11.84-.84-2.71-.15-5.43-.29-8.14-.44-1.33-.1-2.66-.19-3.99-.29-1.66-.12-3.32-.25-4.98-.37-5.04-.28-10.07-.56-15.11-.85-4.02-.15-8.04-.3-12.06-.45-2.62-.1-5.23-.2-7.85-.29-1.71-.12-3.42-.24-5.13-.35-1.54-.07-3.09-.13-4.63-.2-4.07-.11-8.14-.22-12.2-.33-15.9-.69-31.8-1.59-47.71-2-22.06-.57-44.12-.77-66.18-1.13-5.33-.13-10.65-.26-15.98-.39-11.26-.16-22.51-.39-33.77-.46-16.4-.1-32.79-.07-49.19-.09-7.34-.24-14.67-.49-22.01-.73,2.95-4.12,7.47-2.85,11.41-3.12,5.01-.34,10.06-.21,15.09-.05,4.75.15,9.51,1,14.23.77,2.17-.11,4.24-2.06,6.36-3.18,1.27,0,2.53,0,3.8,0,2.52,3.4,6.78,3.42,9.15.04,2.64-.2,5.28-.4,7.93-.59,1.68.25,3.35.5,5.03.74,1.23.72,2.41,1.94,3.69,2.06,3.27.3,6.58.1,9.87.1,5.67,0,11.35.1,17.02-.1,1.14-.04,2.24-1.23,3.36-1.88,4,.04,7.99.08,11.99.12,2.98,3.07,5.99,2.93,9.02.08.67-.16,1.33-.32,2-.47,6.99.11,13.98.22,20.97.33,9,.2,18,.4,26.99.6,5.32.13,10.65.25,15.97.38.65.04,1.31.08,1.96.12.7.06,1.4.11,2.1.17,3.3.09,6.59.17,9.89.26,5.68.12,11.36.24,17.04.36,1.05.03,2.09.05,3.14.08,2.27.1,4.55.19,6.82.29,2.34.11,4.69.22,7.03.33,5.33.17,10.66.35,15.99.52.65.02,1.31.05,1.96.07,8.63.4,17.26.8,25.89,1.2,13.7.88,27.39,1.77,41.08,2.65,8.3.84,16.59,1.68,24.89,2.52,12.41,1.72,24.82,3.44,37.23,5.17,1.81.37,3.62.74,5.43,1.12,4.42,1.38,8.84,2.75,13.25,4.13,2.98,1.82,5.97,3.63,8.95,5.45,2.04,2.86,4.08,5.71,6.13,8.57,1.64,8.17-1.46,14.92-5.3,21.99-3.05,5.62-3.98,12.4-5.75,18.7-.48,1.7-.6,3.51-.88,5.27-.13.63-.26,1.26-.4,1.89-.16.7-.33,1.41-.49,2.11-.18.62-.35,1.24-.53,1.86-.59,2.38-1.19,4.77-1.78,7.15-.35.19-.42.46-.2.8-2.87,11.39-5.73,22.77-8.6,34.16-2.66,9.99-5.32,19.99-7.98,29.98-1.87,6.68-3.75,13.36-5.59,20.04-4.23,15.3-8.43,30.61-12.65,45.92-2.96,9.64-5.93,19.28-8.89,28.91-2.44,6.83-4.75,13.72-7.35,20.49-5.46,14.2-11.07,28.35-16.62,42.52-5.3,10.32-10.6,20.63-15.91,30.95h.02c-.28.33-.55.67-.83,1.02-.06.64-.13,1.28-.19,1.92-2.82,4.31-5.63,8.62-8.45,12.93-1.63,2.32-3.27,4.64-4.9,6.97-.23.31-.47.62-.7.92-4.16,5.33-8.32,10.66-12.49,16-1.81,2.07-3.61,4.13-5.42,6.2-2.63,2.69-5.26,5.38-7.89,8.07-1.4,1.22-2.81,2.44-4.21,3.66-1.64,1.39-3.28,2.77-4.92,4.16-4.65,3.3-9.3,6.6-13.96,9.9-11.69,4.7-23.17,10.04-35.14,13.9-9.27,2.99-19.14,4.13-28.74,6.09-.68.09-1.36.18-2.04.27-.67.1-1.35.21-2.02.31-2.32.3-4.65.59-6.97.89-3.32.36-6.64.71-9.96,1.07l-6.03.72c-1.34.14-2.68.28-4.02.42-.33.05-.65.11-.98.16-3.34.28-6.67.55-10.01.83-.66.09-1.32.17-1.99.26-4.31.33-8.62.65-12.94.98-1.03.09-2.06.17-3.08.25-3.97.28-7.94.55-11.9.83-.7.06-1.39.11-2.09.17-1.66.12-3.32.24-4.99.36-1.65.11-3.3.21-4.95.32-.99.05-1.98.1-2.96.15-1.36.06-2.72.12-4.09.17-.66.09-1.32.18-1.98.27l-3.98.15c-2.32.13-4.63.26-6.95.38-9.01.41-18.02.82-27.03,1.23-8,.24-16,.48-24.01.72-.97.03-1.94.05-2.92.08-2.36.1-4.71.2-7.07.3-4.39.11-8.78.23-13.17.34-3.93.03-7.87.06-11.8.09-2.64.03-5.28.07-7.92.1-6.02.12-12.05.23-18.07.35l-3.98.22c-6.66.04-13.32.08-19.97.12-4,.01-8,.02-12.01.03-.66,0-1.32,0-1.98,0-9,.03-17.99.06-26.99.09-7.99.02-15.98.04-23.98.06-12.66,0-25.32,0-37.98.01-10.69-.08-21.38-.16-32.07-.23-4.59.06-9.19.12-13.78.17-8.72-.23-17.43-.47-26.15-.7-.95-.03-1.91-.06-2.86-.08-1.71-.01-3.42-.03-5.13-.04-1.96-.02-3.92-.04-5.88-.05-1.01-.03-2.01-.06-3.02-.09-1.68-.02-3.35-.04-5.03-.06-5.99-.14-11.99-.28-17.98-.42l-12.95-.47-3.06-.05c-3.32-.09-6.63-.17-9.95-.26-4.39-.23-8.78-.45-13.17-.68l-6.1-.28c-7.58-.34-15.15-.68-22.73-1.02-2.67-.2-5.34-.4-8.01-.6-1.99-.1-3.99-.2-5.98-.3-1.32-.04-2.64-.09-3.96-.13-7.34-.58-14.69-1.17-22.03-1.75-1.99-.13-3.97-.26-5.96-.39-3-.27-6.01-.54-9.01-.82-5.33-.55-10.66-1.1-15.99-1.64-.92-.09-1.84-.17-2.75-.26-.74-.07-1.48-.14-2.22-.2-11.65-1.57-23.31-3.14-34.96-4.71-.67-.07-1.35-.15-2.03-.22-6.96-1.47-13.92-2.94-20.88-4.41-9.96-3.81-19.92-7.61-29.88-11.42-11.01-7.92-22.01-15.84-33.02-23.76-.96-.88-1.91-1.76-2.87-2.64-3.74-4.02-7.48-8.04-11.22-12.05-1.63-1.73-3.27-3.46-4.9-5.18-3.6-4.94-7.19-9.87-10.79-14.81-.93-1.67-1.86-3.33-2.78-5-.43-.64-.86-1.28-1.29-1.91-6.99-13-13.99-26-20.98-39.01-1.77-3.29-3.54-6.59-5.31-9.88-.29-1.56-.3-3.23-.92-4.65-2.43-5.54-5.05-11-7.61-16.49-1.12-3.58-2.24-7.16-3.36-10.74-.21-.76-.42-1.52-.64-2.28-1.15-3.3-2.29-6.6-3.44-9.9-.95-2.52-2.05-4.99-2.82-7.56-3.36-11.12-6.62-22.27-9.91-33.41-.71-2.63-1.43-5.26-2.14-7.88-1.52-5.9-2.95-11.83-4.62-17.69-.51-1.78-1.67-3.36-2.53-5.04ZM528.33,282.7c0,.31,0,.63,0,.95h12.48c0-.31,0-.63,0-.95h-12.49ZM550.87,283.79c-.02-.49-.04-.98-.05-1.47-1.54.12-3.08.24-4.62.35.03.37.06.74.09,1.11h4.59Z"/>
        <path class="cls-17" d="M816.38,280.96c4.33-.19,8.65-.38,12.98-.57,6.99.25,13.97.5,20.96.74-1.12.66-2.22,1.84-3.36,1.88-5.67.2-11.35.1-17.02.1-3.29,0-6.61.2-9.87-.1-1.28-.12-2.46-1.34-3.69-2.06Z"/>
        <path class="cls-17" d="M871.32,281.32c-3.03,2.86-6.04,2.99-9.02-.08,3.01.03,6.01.05,9.02.08Z"/>
        <path class="cls-2" d="M789.36,299.16c58.63,1,117.26,2,175.88,3,1.27.66,2.56,1.91,3.81,1.88,4.72-.12,7.6,2.3,9.02,4.54-1.81,8.39-3.33,15.45-4.85,22.51-12.79.78-25.56,1.8-38.36,2.3-59.37,2.34-118.73,4.83-178.11,6.67-39.09,1.21-78.22,1.42-117.33,2.07.89-15.04-3.89-22.82-17.9-29.1-.49-.6-.94-1.7-1.47-1.74-5.58-.38-11.18-.82-16.76-.67-1.29.03-2.53,2.24-3.79,3.45-10.82,6.25-16.61,15.15-14.8,28.06-20.15-.09-40.3.25-60.43-.36-55.24-1.67-110.48-3.57-165.71-5.71-23.61-.92-47.19-2.67-70.78-4.04-.2-.95-.19-2.01-.63-2.83-6.87-12.93-6.3-17.28,3.66-27.06,1.77-.32,3.53-.87,5.3-.93,4.15-.14,8.31-.01,12.46-.05,32.03-.33,64.05-.61,96.08-1.03,12.67-.16,25.33-.62,38-.95,1.62.66,3.24,1.88,4.87,1.89,19.91.13,39.83.09,59.74.09,27.1,0,54.2-.17,81.3.09,10.06.1,20.11,1.6,30.17,1.72,12.17.14,24.35-.58,36.53-.8,21.57-.39,43.14-.64,64.71-1.14,1.16-.03,2.27-1.85,3.4-2.83,1.36,0,2.71,0,4.06,0-.29,3.04,1.76,2.97,3.86,2.96,11.07-.02,22.15.05,33.22-.1,1.29-.02,2.56-1.24,3.84-1.9,1.34,0,2.67,0,4.01,0,.78.66,1.53,1.84,2.33,1.88,4.09.19,8.21.19,12.3,0,.81-.04,1.56-1.22,2.33-1.88Z"/>
        <path class="cls-1" d="M639.42,342.13c39.11-.66,78.23-.86,117.33-2.07,59.38-1.84,118.75-4.33,178.11-6.67,12.8-.5,25.57-1.52,38.36-2.3,10-.63,19.99-1.27,29.99-1.9,4.96-.3,9.92-.58,14.88-.91,11.06-.73,22.13-1.23,33.16-2.31,9.02-.88,17.97-2.45,26.95-3.72.66-.1,1.32-.2,1.98-.29,5.99-.89,11.97-1.79,17.96-2.68,0,.89,0,1.79,0,2.68-.99.42-1.98.84-2.97,1.26-.67-.04-1.35-.09-2.02-.13-.67.04-1.33.07-2,.11-.67.25-1.34.5-2.01.75-1,.06-2.01.12-3.01.17-.99.28-1.99.55-2.98.83-2.68.37-5.35.74-8.03,1.11-7.88,1.03-15.73,2.23-23.63,3.04-15.54,1.6-31.1,3.01-46.66,4.45-15.81,1.46-31.62,2.86-47.43,4.28-1.56-.24-3.13-.73-4.68-.67-5.96.22-11.91.63-17.87.95-17.86.96-35.73,1.92-53.59,2.87-.65.02-1.29.04-1.94.06-26,.98-51.99,1.97-77.99,2.95-.98.01-1.96.02-2.94.04-10.02.3-20.04.61-30.06.91-1.64.04-3.28.08-4.92.12-15.02.28-30.04.57-45.07.85-38.27.14-76.53.38-114.8.38-36.6,0-73.2-.27-109.8-.42-15.76-.57-31.52-1.25-47.29-1.67-28.23-.76-56.47-1.37-84.7-2.04-1.65-.39-3.31-.78-4.96-1.17-15.27-.98-30.54-1.95-45.81-2.96-22.57-1.49-45.15-2.75-67.69-4.6-21.82-1.8-43.58-4.22-65.37-6.37-5.01-.99-10.02-1.98-15.02-2.96-3.28-1.34-6.56-2.67-9.84-4.01-.37-1.63-.75-3.26-1.12-4.89.67-.19,1.34-.38,2.01-.56.57.87,1.15,1.75,1.73,2.62,6.03,1.67,11.97,4.12,18.11,4.86,21.75,2.6,43.54,4.86,65.36,6.77,16.19,1.42,32.45,2.11,48.67,3.13,23.59,1.37,47.17,3.13,70.78,4.04,55.23,2.15,110.46,4.05,165.71,5.71,20.13.61,40.29.27,60.43.36,1.02-.01,2.05-.02,3.07-.03,1.14-.06,2.29-.12,3.43-.18.96.04,1.91.09,2.87.13,9.71-.04,19.42-.08,29.13-.13,2.41.06,4.83.12,7.24.18,1.03,0,2.05.01,3.08.02,1.08-.02,2.15-.05,3.23-.07.89.03,1.78.05,2.68.08Z"/>
        <path class="cls-14" d="M287.79,332.02c-16.23-1.02-32.48-1.71-48.67-3.13-21.82-1.92-43.61-4.17-65.36-6.77-6.14-.73-12.08-3.19-18.11-4.86,1.49-.92,3.04-1.75,4.45-2.79,1.27-.93,2.37-2.08,3.54-3.14,5.14-1.05,10.24-2.52,15.43-3.08,14.08-1.54,28.2-2.75,42.32-3.97,6.25-.54,12.52-.93,18.79-1.09,16.88-.44,33.76-.72,50.65-1.07-9.96,9.78-10.53,14.13-3.66,27.06.44.82.43,1.88.63,2.83Z"/>
        <path class="cls-14" d="M1078.19,322.26c-8.98,1.26-17.93,2.84-26.95,3.72-11.02,1.07-22.1,1.58-33.16,2.31-4.96.33-9.92.61-14.88.91-.78-.48-1.56-1.35-2.35-1.37-5.14-.12-10.28-.06-16.99-.06,2.65-1.31,4.37-1.68,5.31-2.74,1.3-1.46,2.88-3.47,2.81-5.18-.22-5.58-1.13-11.13-1.78-16.7,16.76.37,33.56.14,50.26,1.25,19.59,1.3,39.1,3.77,58.65,5.73,2.01.65,4.01,1.3,6.02,1.94,1.66.36,3.32.72,4.99,1.08-1.3,1.29-2.6,2.57-3.9,3.86-2.7.76-5.4,1.52-8.1,2.28-5.99.89-11.97,1.79-17.96,2.68-.66.1-1.32.2-1.98.3Z"/>
        <path class="cls-7" d="M162.87,324.11c5.01.99,10.02,1.98,15.02,2.96-2,1.01-4,2.02-6,3.04-13.17-1.02-26.38-1.69-39.5-3.2-8.48-.98-17-2.59-25.15-5.08-4.03-1.23-9.6-1.28-11.48-6.75,6-8.15,15.06-9.56,24.13-10.96.35-.07.69-.15,1.04-.22.99-.2,1.98-.41,2.97-.61,1.56,1.24,3.85,3.84,4.55,3.47,2.12-1.14,3.62-3.42,5.35-5.26,1.03-.09,2.06-.18,3.09-.27.28.5.57,1,.85,1.5.38-.56.77-1.12,1.15-1.68,1.28-.2,2.55-.4,3.83-.59,2.13,3.82,3.75,3.78,6.15-.16.33-.12.65-.24.98-.36.67.11,1.35.21,2.02.32,1.11,2.28,2.22,4.57,3.55,7.3-1.13,3.43-3.3,4.25-7.33,2.43-2.31-1.04-6.18-3.19-7.2,2.09-2.89.64-5.89.97-8.63,2-3.1,1.16-2.99,3.35-.53,5.24,1.14.87,2.62,1.49,4.04,1.79,7.91,1.67,15.83,3.29,23.79,4.69.97.17,2.19-1.08,3.3-1.67Z"/>
        <path class="cls-16" d="M723.39,298.19c-1.13.98-2.25,2.8-3.4,2.83-21.57.5-43.14.75-64.71,1.14-12.18.22-24.36.94-36.53.8-10.06-.12-20.11-1.62-30.17-1.72-27.1-.26-54.2-.09-81.3-.09-19.91,0-39.83.04-59.74-.09-1.63-.01-3.25-1.23-4.87-1.89,93.58-.33,187.15-.65,280.73-.98Z"/>
        <path class="cls-16" d="M990.21,303.13c.65,5.56,1.56,11.12,1.78,16.7.07,1.71-1.51,3.73-2.81,5.18-.94,1.06-2.66,1.43-5.31,2.74,6.71,0,11.85-.06,16.99.06.79.02,1.57.89,2.35,1.37-10,.63-19.99,1.27-29.99,1.9,1.52-7.06,3.04-14.12,4.85-22.51-1.41-2.24-4.3-4.65-9.02-4.54-1.25.03-2.54-1.22-3.81-1.88,6.57,0,13.15-.06,19.72.05,1.75.03,3.5.6,5.25.93Z"/>
        <path class="cls-2" d="M935.25,295.15c-27.43-.71-54.86-1.41-82.3-2.12-.02-.56-.05-1.13-.07-1.69,3.81-.39,7.63-.78,11.44-1.17,23.97.33,47.95.67,71.92,1-.33,1.33-.66,2.65-.99,3.98Z"/>
        <path class="cls-10" d="M936.24,291.16c-23.97-.33-47.95-.67-71.92-1,0-.72,0-1.43,0-2.15,22.06.36,44.13.56,66.18,1.13,15.91.41,31.81,1.32,47.71,2,0,.67,0,1.33,0,2-3.71.26-7.43.83-11.12.68-2.97-.11-5.91-1.09-8.87-1.68-3.99,0-7.98,0-11.97,0-3.34-.33-6.67-.66-10.01-.99Z"/>
        <path class="cls-14" d="M162.87,324.11c-1.1.59-2.33,1.84-3.3,1.67-7.96-1.4-15.88-3.02-23.79-4.69-1.42-.3-2.9-.91-4.04-1.79-2.46-1.88-2.57-4.08.53-5.24,2.74-1.03,5.74-1.36,8.63-2,.35,0,.71.02,1.06.03-.95,1.41-1.9,2.81-3.62,5.35,5.37.97,10.03,1.81,14.69,2.65,3.28,1.34,6.56,2.67,9.84,4.01Z"/>
        <path class="cls-10" d="M765.39,287.07c16.4.03,32.79,0,49.19.09,11.26.07,22.51.3,33.77.46-.68.51-1.36,1.02-2.04,1.54-25.21,0-50.43.04-75.64-.09-1.76,0-3.52-1.3-5.27-2Z"/>
        <path class="cls-7" d="M958.23,292.16c2.95.59,5.89,1.56,8.87,1.68,3.69.14,7.41-.42,11.12-.68,4.07-.56,8.14-1.12,12.21-1.68,1.54.07,3.09.13,4.63.2,1.71.82,3.42,1.65,5.14,2.47,2,0,4,0,6,0,.25,3.01-1.73,3.12-3.89,2.99-5.61-.33-11.22-.85-16.83-.95-9.08-.16-18.17-.05-27.25-.06,0-1.33,0-2.65,0-3.98Z"/>
        <path class="cls-7" d="M1052.31,294.73c3.95.28,7.89.56,11.84.84.67.85,1.44,2.46,2,2.38,1.07-.14,2.01-1.22,3-1.92,4.33.35,8.65.7,12.98,1.06,1.53,6.05,1.52,6.34-4.6,5.97-5.72-.34-11.71-.18-16.1-5.26-.84-.97-3.62-1.31-4.86-.68-4.23,2.15-4.12,2.37-4.26-2.4Z"/>
        <path class="cls-7" d="M1105.14,312.06c-2.01-.65-4.01-1.3-6.02-1.94-.2-6.34-6.44-4.25-9.57-6.88,2.35-1.63,4.65-3.23,6.95-4.82.88.11,1.76.22,2.64.33.66,4.32,3.45,5.51,7.45,5.47,2.46-.03,4.92.6,7.38.93.01.58.02,1.16.04,1.74-1.54.87-3.08,1.72-4.61,2.61-1.43.84-2.83,1.71-4.24,2.57Z"/>
        <path class="cls-16" d="M768.38,299.16c-1.28.66-2.55,1.88-3.84,1.9-11.07.15-22.14.07-33.22.1-2.1,0-4.15.08-3.86-2.96,13.64.32,27.28.64,40.92.96Z"/>
        <path class="cls-7" d="M153.03,320.1c-4.66-.84-9.32-1.68-14.69-2.65,1.72-2.54,2.67-3.94,3.62-5.35,4.28-2.05,7.49-.67,9.95,3.11.37,1.63.75,3.26,1.12,4.89Z"/>
        <path class="cls-7" d="M936.24,291.16c3.34.33,6.67.66,10.01.99.33,1.33.67,2.65,1,3.98-4-.33-8-.66-12-.99.33-1.33.66-2.65.99-3.98Z"/>
        <path class="cls-2" d="M947.25,296.14c-.33-1.33-.67-2.65-1-3.98,3.99,0,7.98,0,11.97,0,0,1.33,0,2.65,0,3.98-3.66,0-7.32,0-10.97,0Z"/>
        <path class="cls-10" d="M1020.09,292.79c5.04.28,10.07.56,15.11.85,0,.84-.02,1.68-.03,2.52-2.66,0-5.33,0-7.99,0-2.36-1.12-4.73-2.24-7.09-3.36Z"/>
        <path class="cls-16" d="M789.36,299.16c-.78.66-1.53,1.84-2.33,1.88-4.09.19-8.21.19-12.3,0-.81-.04-1.56-1.23-2.33-1.88,5.66,0,11.31,0,16.97,0Z"/>
        <path class="cls-17" d="M264.76,291.24c4.99-.91,9.94-4,15.04-.35-5.01.12-10.03.23-15.04.35Z"/>
        <path class="cls-19" d="M163.63,311.33c-1.17,1.06-2.28,2.21-3.54,3.14-1.4,1.03-2.96,1.87-4.45,2.79-.58-.87-1.15-1.74-1.73-2.62,3.24-1.1,6.48-2.21,9.71-3.31Z"/>
        <path class="cls-7" d="M1040.18,294l3.99.29c.24,3.17-.96,4.87-4.85,4.49.32-1.76.59-3.27.86-4.78Z"/>
        <path class="cls-7" d="M1027.18,296.15c2.66,0,5.33,0,7.99,0,.07.55.15,1.1.22,1.65-2.81-.2-6.16,2.28-8.21-1.65Z"/>
        <path class="cls-17" d="M325.74,289.17c2.65-.05,5.3-.1,7.95-.15-2.65.05-5.3.1-7.95.15Z"/>
        <path class="cls-17" d="M221.78,293.39c2.67-.12,5.33-.24,8-.36-2.67.12-5.33.24-8,.36Z"/>
        <path class="cls-17" d="M206.79,294.35c2.66-.13,5.32-.26,7.98-.39-2.66.13-5.32.26-7.98.39Z"/>
        <path class="cls-17" d="M166.81,297.36c1.37-3.54,3.13-3,5.08-.48-1.69.16-3.39.32-5.08.48Z"/>
        <path class="cls-17" d="M193.85,295.14c1.65-.05,3.3-.09,4.94-.14-1.65.05-3.3.09-4.94.14Z"/>
        <path class="cls-17" d="M244.78,292.24c1.66-.07,3.32-.13,4.98-.2-1.66.07-3.32.13-4.98.2Z"/>
        <path class="cls-3" d="M1006.2,294.16c-2,0-4,0-6,0,0-.71,0-1.41,0-2.12,2.62.1,5.23.2,7.85.29-.61.61-1.22,1.22-1.84,1.83Z"/>
        <path class="cls-17" d="M179.84,296.19c1.32-.07,2.64-.14,3.95-.21-1.32.07-2.64.14-3.95.21Z"/>
        <path class="cls-12" d="M428.59,290.38c.62.51,1.24,1.02,1.86,1.53-.17.26-.35.51-.52.77-.7-.42-1.4-.84-2.1-1.26.25-.35.51-.7.76-1.05Z"/>
        <path class="cls-17" d="M294.76,290.18c.99-.05,1.98-.1,2.96-.15-.99.05-1.98.1-2.96.15Z"/>
        <path class="cls-17" d="M300.74,289.98c.96-2.39,1.97-2.46,3.04-.06-1.01.02-2.03.04-3.04.06Z"/>
        <path class="cls-17" d="M151.88,300.25c-.67-.11-1.35-.21-2.02-.32.99-.31,1.97-.62,2.96-.94-.31.42-.63.84-.94,1.26Z"/>
        <path class="cls-17" d="M157.87,298.17c.65-.07,1.3-.13,1.95-.2-.65.07-1.3.13-1.95.2Z"/>
        <path class="cls-6" d="M724.41,286.26l7.25-4.14c.22.4.43.8.65,1.2-.63.98-1.25,1.96-1.88,2.95-2.01,0-4.01,0-6.02-.01Z"/>
        <path class="cls-6" d="M719.41,286.25c.5-.66,1.01-1.32,1.51-1.99.5.66,1.01,1.33,1.51,1.99-1.01,0-2.01,0-3.02,0Z"/>
        <path class="cls-4" d="M534.49,286.99c9-.05,18.01-.1,27.01-.15-.95.79-1.87,2.23-2.84,2.26-6.73.2-13.47.23-20.2,0-1.35-.04-2.65-1.38-3.97-2.12Z"/>
        <path class="cls-15" d="M533.37,216.61c.29-2.74.59-5.49.88-8.23.77.09,1.54.18,2.32.27-.39,2.74-.78,5.48-1.17,8.21-.68-.08-1.35-.17-2.03-.25Z"/>
        <path class="cls-13" d="M541.83,224.8c1.43,2.73,2.86,5.46,4.29,8.19-1.61,1.76-3.01,4.58-4.89,4.94-1.46.28-4.16-2.14-5.16-3.98-1.53-2.81-.76-5.86,2.11-7.79,1.04-.7,2.42-.91,3.65-1.35Z"/>
        <path class="cls-14" d="M908.22,715.16c-5.31.2-10.63.41-15.94.61-1.23-.28-2.47-.89-3.67-.8-7.06.53-14.09,1.42-21.15,1.8-10.07.53-20.15.74-30.23,1.05-3.24.1-6.49-.05-9.72.17-7.72.53-15.43,1.21-23.15,1.83-.67,0-1.34,0-2.01,0-1,.01-2,.02-2.99.03-1.33,0-2.66-.01-3.99-.02.4-3.37,2.39-4.8,5.68-5.04,5.39-.4,6.49-1.99,5.29-8.82-5.08,1.64-10.02,3.25-14.97,4.85h-6c-6.08-5.05-12.1-5.46-14.99,0-1.67,0-3.33,0-5,0-1.89-3.4-4.43-2.28-6.99-1h-16.99c-.76-.6-1.5-1.69-2.29-1.73-10.97-.51-21.95-.92-32.94-1.23-2.94-.08-5.25-.66-5.74-4.03,9.07-.67,18.16-1.12,27.2-2.05,14.94-1.54,29.91-3.01,44.76-5.23,16.49-2.47,32.9-5.56,49.28-8.73,33.17-6.43,64-18.21,90.36-40.1,20.72-17.21,37.07-37.89,49.6-61.65,15.24-28.91,26.61-59.37,35.48-90.73,5.9-20.85,11.38-41.86,15.87-63.05,3.62-17.09,5.89-34.51,7.93-51.88.97-8.22-1.71-16.65-10.75-18.09-6.19-.99-12.45-1.83-18.71-2.13-12.1-.59-24.22-.69-36.33-1.16-1.32-.05-2.59-1.23-3.88-1.88,12.2-1,24.4-1.91,36.59-3.01,17.78-1.61,35.61-2.88,53.31-5.18,21.78-2.82,43.56-5.97,65.13-10.05,16.5-3.12,33.53-4.86,48.59-13.45.9-.51,2.27-.19,3.43-.25-.53,1.36-1.05,2.72-1.58,4.09-1.47,1.14-3.46,1.98-4.3,3.47-2.19,3.9-4.31,7.94-5.67,12.17-6.01,18.77-12.4,37.46-17.43,56.51-11.93,45.22-23.77,90.46-39.78,134.44-7.88,21.64-16.24,43.17-25.71,64.16-9.01,19.98-20.29,38.99-34.95,55.4-12.11,13.56-25.22,26.32-38.69,38.56-12.12,11.02-28.43,11.82-43.59,14.73-11.99,2.3-24.19,3.45-36.27,5.25-.8.12-1.42,1.44-2.13,2.2Z"/>
        <path class="cls-18" d="M1158.32,324.19c-1.15.06-2.53-.26-3.43.25-15.06,8.6-32.1,10.34-48.59,13.45-21.57,4.08-43.35,7.23-65.13,10.05-17.7,2.29-35.53,3.56-53.31,5.18-12.19,1.1-24.39,2.02-36.59,3.01-9.74.68-19.48,1.31-29.21,2.04-17.31,1.29-34.62,2.75-51.94,3.89-13.22.87-26.46,1.45-39.7,2.01-17.73.75-35.46,1.44-53.19,2-14.27.45-28.55.81-42.83,1-30.92.41-61.85.86-92.77.96-16.77.05-33.55-.64-50.32-.91-24.1-.38-48.2-.63-72.29-1.03-12.28-.21-24.56-.59-36.83-.99-19.06-.62-38.13-1.26-57.18-2.01-14.4-.56-28.8-1.31-43.2-1.97-14.73-.67-29.47-1.31-44.2-2.03-5.46-.27-10.91-.64-16.35-1.09-15.15-1.26-30.3-2.59-45.45-3.9-10-1.32-20-2.64-30-3.96-11.5-1.05-23.03-1.8-34.49-3.21-16.35-2.01-32.66-4.36-48.95-6.82-22.19-3.35-44.24-7.36-65.45-15.02-.64-.32-1.28-.64-1.93-.95.26-3.02.52-6.04.78-9.05,1.87,5.47,7.44,5.52,11.48,6.75,8.15,2.49,16.67,4.11,25.15,5.08,13.12,1.51,26.33,2.18,39.5,3.2,2.1.33,4.19.81,6.31.97,6.27.48,12.57.69,18.83,1.28,12.33,1.16,24.63,2.63,36.97,3.72,10.05.89,20.14,1.42,30.21,2.12,13.86.96,27.72,1.93,41.58,2.89,1.32.31,2.64.63,3.95.94.68,0,1.36.02,2.03.03,6.41.68,12.8,1.59,19.22,1.99,18.19,1.13,36.39,2.14,54.6,3.01,17.06.81,34.14,1.36,51.21,2.03,16.57.66,33.14,1.53,49.72,1.94,21.6.54,43.21,1.03,64.82.98,52.91-.12,105.82-.52,158.72-.92,11.12-.08,22.23-.64,33.35-.96,23.57-.68,47.13-1.36,70.7-2,14.94-.4,29.89-.65,44.84-1.08,6.46-.19,12.91-.63,19.36-1.02,21.82-1.3,43.65-2.6,65.47-3.95,10.25-.63,20.5-1.29,30.73-2.08,16-1.23,32-2.53,47.99-3.91,11.2-.96,22.39-2.11,33.59-3.16,13.66-1.29,27.32-2.57,40.98-3.85,3.28-.32,6.57-.51,9.83-.97,11.74-1.66,23.54-3,35.17-5.26,7.57-1.47,10.94-5.93,11-11.94,5.64,3.78,6.92,7,5.25,13.27Z"/>
        <path class="cls-7" d="M94.99,324.13c.64.32,1.28.64,1.93.96.38.89.53,2.05,1.19,2.63,5.95,5.25,9.38,12.3,12.94,19.08,2.96,5.63,4.66,11.92,6.88,17.94,1.72,4.66,3.79,9.23,4.99,14.02,5.65,22.45,10.48,45.13,16.66,67.43,10.9,39.29,21.39,78.8,38.12,116.11,8.53,19.03,18.14,37.7,28.84,55.6,12.53,20.96,28.07,39.86,46.25,56.34,4.88,4.42,10.22,8.5,15.84,11.91,14.79,8.99,31.25,13.52,48.11,16.71-1.33,3.17-.2,5.73,1.99,8.03-43.57-3.52-79.73-21.19-107.84-55.23-23.55-28.52-39.09-61.2-51.99-95.43-14.64-38.83-25.06-78.9-35.12-119.07-7.88-31.45-15.25-63.03-22.97-94.53-1.38-5.64-3.39-11.13-4.97-16.73-.52-1.86-.58-3.85-.85-5.78Z"/>
        <path class="cls-20" d="M908.22,715.16c.71-.76,1.33-2.09,2.13-2.2,12.09-1.8,24.29-2.95,36.27-5.25,15.16-2.91,31.47-3.7,43.59-14.73,13.46-12.24,26.58-25,38.69-38.56,14.66-16.42,25.94-35.42,34.95-55.4,9.47-20.98,17.82-42.52,25.71-64.16,16.02-43.98,27.85-89.22,39.78-134.44,5.03-19.04,11.42-37.73,17.43-56.51,1.36-4.24,3.48-8.28,5.67-12.17.84-1.49,2.83-2.33,4.3-3.47-3.46,11.78-7.3,23.46-10.33,35.35-16.63,65.06-32.01,130.49-54.65,193.84-11.15,31.2-24.2,61.6-43.79,88.67-17.23,23.81-37.7,43.9-65.53,55.16-16.02,6.48-32.88,9.38-49.93,11.38-8.08.95-16.19,1.67-24.29,2.49Z"/>
        <path class="cls-16" d="M765.39,710.82c1.67,0,3.33,0,5,0h20.98c3.7,2.97-.09,6.71,1.01,9.94-17.65.35-35.31.7-52.96,1.05-7.33,0-14.66.02-21.99.02-1.99,0-4.04-.31-5.95.08-1.45.29-2.72,1.47-4.07,2.26-2.58.04-5.15.08-7.73.12-1.64-.5-3.29-1.42-4.93-1.42-42.6-.08-85.19-.08-127.79-.01-1.46,0-2.93.84-4.39,1.29l-4.01-.05c-1.18-.76-2.34-2.16-3.54-2.19-19.14-.47-38.29-.77-57.43-1.1-.21-1.6-.42-3.19-.68-5.25,2-.61,3.83-1.51,5.73-1.71,13.61-1.42,27.22-3.06,40.87-3.92,9.85-.61,19.77-.12,29.66-.12,28.5,0,57.01-.1,85.51.05,12.92.07,25.85.92,38.77.84,7.55-.04,15.09-1.59,22.64-1.77,7.09-.17,14.21.56,21.31.89h16.99c2.33.33,4.66.66,6.99,1Z"/>
        <path class="cls-7" d="M1153.07,310.91c-.06,6-3.43,10.46-11,11.94-11.63,2.26-23.43,3.6-35.17,5.26-3.26.46-6.55.66-9.83.97-.64-1.95-1.27-3.9-1.91-5.86.99-.42,1.98-.84,2.97-1.26.33.06.67.12,1,.18,3.8.66,7.59,1.78,11.41,1.87,4.59.12,9.29-4.31,8.28-8.57-1.36-5.75.3-9.69,4.29-13.29,10.37,1.62,20.95,2.52,29.96,8.77Z"/>
        <path class="cls-15" d="M497.6,720.81c19.15.34,38.29.63,57.43,1.1,1.2.03,2.36,1.43,3.54,2.19-20.44-.27-40.89-.18-61.31-.89-34.23-1.19-68.46-2.57-102.66-4.49-19.2-1.08-38.33-3.39-57.49-5.19-1.14-.11-2.25-.53-3.38-.81,0-.64.02-1.27.03-1.91,16.74,1.66,33.47,3.54,50.24,4.93,15.48,1.29,30.99,2.34,46.51,2.99,22.35.93,44.73,1.4,67.09,2.07Z"/>
        <path class="cls-7" d="M562.58,724.16c1.46-.45,2.93-1.29,4.39-1.29,42.6-.07,85.19-.07,127.79.01,1.64,0,3.29.93,4.93,1.42-24.27.16-48.54.38-72.81.45-19.12.06-38.25-.06-57.37-.14-2.31-.01-4.62-.29-6.94-.45Z"/>
        <path class="cls-4" d="M1123.1,302.14c-3.99,3.6-5.65,7.54-4.29,13.29,1.01,4.27-3.69,8.69-8.28,8.57-3.82-.1-7.61-1.21-11.41-1.87,2.34-.65,4.69-1.3,7.03-1.95,1.27-.29,2.65-.36,3.78-.94,1.38-.7,2.55-1.83,3.82-2.77-1.21-1.11-2.42-2.22-3.63-3.33-1.66-.36-3.32-.72-4.99-1.08,1.41-.86,2.82-1.74,4.24-2.58,1.52-.89,3.07-1.74,4.61-2.61-.01-.58-.02-1.16-.04-1.74-2.46-.33-4.92-.95-7.38-.93-4,.04-6.79-1.15-7.45-5.47,7.99,1.13,15.98,2.27,23.98,3.4Z"/>
        <path class="cls-15" d="M804.37,719.82c7.71-.62,15.43-1.3,23.15-1.83,3.23-.22,6.48-.07,9.72-.17,10.08-.31,20.16-.52,30.23-1.05,7.06-.37,14.09-1.27,21.15-1.8,1.2-.09,2.45.52,3.67.8-2.01.58-3.99,1.56-6.02,1.68-26.31,1.58-52.62,3.04-78.94,4.51-.98.05-1.97-.08-2.96-.13,0-.67,0-1.35.01-2.02Z"/>
        <path class="cls-9" d="M739.42,721.81c17.65-.35,35.31-.7,52.96-1.05,1-.31,1.99-.62,2.99-.94,1.33,0,2.66.01,3.99.02,0,.74-.02,1.47-.02,2.21-17.59.59-35.18,1.19-52.78,1.75-2.48.08-4.97-.11-7.45-.18.11-.6.21-1.21.32-1.81Z"/>
        <path class="cls-15" d="M318.73,710.88c-2.19-2.3-3.31-4.86-1.99-8.03,1.67.64,3.34,1.27,5.01,1.91,1.66,1.36,3.16,3.08,5.04,3.97,1.76.83,3.94.77,5.94,1.1,0,.33,0,.65.01.98-1.07.53-2.15,1.07-3.22,1.6-1.26-.2-2.52-.41-3.78-.61-1.16-.84-2.33-1.67-3.49-2.51-.22.3-.44.61-.66.91.38.45.75.91,1.13,1.36-1.33-.22-2.65-.45-3.98-.67Z"/>
        <path class="cls-4" d="M133.8,301.49c-1.74,1.84-3.24,4.12-5.35,5.26-.69.37-2.99-2.23-4.55-3.47,3.3-.6,6.6-1.19,9.9-1.79Z"/>
        <path class="cls-17" d="M528.33,282.7h12.49c0,.31,0,.63,0,.95h-12.48c0-.31,0-.63,0-.95Z"/>
        <path class="cls-17" d="M799.36,280.14c1.35.22,2.71.44,4.06.66-2.37,3.38-6.62,3.36-9.15-.04,1.69-.21,3.39-.42,5.09-.62Z"/>
        <path class="cls-3" d="M990.42,291.48c-4.07.56-8.14,1.12-12.21,1.68,0-.67,0-1.33,0-2,4.07.11,8.14.22,12.2.33Z"/>
        <path class="cls-7" d="M739.42,721.81c-.11.6-.21,1.21-.32,1.81-7.23.09-14.45.18-21.68.27,0-.69,0-1.37,0-2.06,7.33,0,14.66-.02,21.99-.02Z"/>
        <path class="cls-9" d="M717.43,721.84c0,.69,0,1.37,0,2.06-3.34.09-6.67.18-10.01.28,1.35-.79,2.62-1.96,4.07-2.26,1.91-.39,3.96-.08,5.95-.08Z"/>
        <path class="cls-4" d="M148.88,300.29c-2.4,3.94-4.02,3.98-6.15.16,2.05-.05,4.1-.11,6.15-.16Z"/>
        <path class="cls-17" d="M383.67,280.81c1.68.15,3.35.3,5.03.44-2.32,2.99-4.66,2.92-7.02.04.66-.16,1.33-.32,1.99-.48Z"/>
        <path class="cls-10" d="M1000.19,292.04c0,.71,0,1.41,0,2.12-1.71-.82-3.42-1.65-5.14-2.47,1.71.12,3.42.24,5.13.35Z"/>
        <path class="cls-4" d="M1069.15,296.04c-.99.69-1.94,1.78-3,1.92-.55.07-1.32-1.54-2-2.38,1.67.16,3.33.31,5,.47Z"/>
        <path class="cls-17" d="M550.87,283.79h-4.59c-.03-.37-.06-.74-.09-1.11,1.54-.12,3.08-.24,4.62-.35.02.49.04.98.05,1.47Z"/>
        <path class="cls-15" d="M799.33,722.06c0-.74.02-1.47.02-2.21,1-.01,2-.02,2.99-.03.02.7.03,1.39.05,2.09-1.02.05-2.04.1-3.06.16Z"/>
        <path class="cls-12" d="M852.39,727.56c-1.36.06-2.72.12-4.09.17,1.36-.06,2.72-.12,4.09-.17Z"/>
        <path class="cls-7" d="M329.51,712.4c1.07-.53,2.15-1.07,3.22-1.6.34,0,.68.01,1.01.02,0,.64-.02,1.27-.03,1.91-1.4-.11-2.81-.22-4.21-.33Z"/>
        <path class="cls-7" d="M322.71,711.55c-.38-.45-.75-.91-1.13-1.36.22-.3.44-.61.66-.91,1.16.84,2.33,1.67,3.49,2.51-1.01-.08-2.02-.16-3.02-.24Z"/>
        <path class="cls-12" d="M882.36,725.49c-1.03.08-2.06.17-3.08.25,1.03-.08,2.06-.17,3.08-.25Z"/>
        <path class="cls-12" d="M867.37,726.57c-.7.06-1.39.11-2.09.17.7-.06,1.39-.11,2.09-.17Z"/>
        <path class="cls-4" d="M138.9,301.04c-.38.56-.77,1.12-1.15,1.68-.28-.5-.57-1-.85-1.5.67-.06,1.34-.12,2-.18Z"/>
        <path class="cls-16" d="M802.4,721.91c-.02-.7-.03-1.39-.05-2.09.67,0,1.34,0,2.01,0,0,.67,0,1.35-.01,2.02-.65.02-1.31.05-1.96.07Z"/>
        <path class="cls-12" d="M939.31,719.59c-.68.09-1.36.18-2.04.27.68-.09,1.36-.18,2.04-.27Z"/>
        <path class="cls-4" d="M120.93,303.89c-.35.07-.69.15-1.04.22.35-.07.69-.15,1.04-.22Z"/>
        <path class="cls-10" d="M1067.13,627.85c-.28.34-.55.69-.83,1.03.28-.34.55-.69.83-1.03Z"/>
        <path class="cls-12" d="M599.51,314.07c1.26-1.21,2.5-3.42,3.79-3.45,5.58-.15,11.18.29,16.76.67.53.04.98,1.13,1.47,1.74h-6.67c-.03.45-.06.89-.09,1.34,2.24.6,4.48,1.19,6.72,1.79-2.32.67-4.64,1.34-6.96,2.02-9.34-1.16-16.39,2.62-21.75,10.05l-4.42,3.92c1.7-10.83,9.68-15.33,18.7-19.32-2.51.42-5.02.83-7.53,1.25Z"/>
        <path class="cls-17" d="M599.51,314.07c2.51-.42,5.02-.83,7.53-1.25-9.02,3.99-17.01,8.49-18.7,19.32-.19,3.32-.38,6.64-.56,9.96-1.02.01-2.05.02-3.07.03-1.81-12.91,3.99-21.81,14.8-28.06Z"/>
        <path class="cls-17" d="M621.47,316.16c-2.24-.6-4.48-1.19-6.72-1.79.03-.45.06-.89.09-1.34h6.67c14.01,6.28,18.79,14.06,17.9,29.1-.89-.03-1.78-.05-2.67-.08,2.24-11.68-4.3-22.76-15.28-25.89Z"/>
        <path class="cls-8" d="M1095.16,323.22c.64,1.95,1.27,3.9,1.91,5.86-13.66,1.28-27.32,2.56-40.98,3.85-11.2,1.06-22.39,2.2-33.59,3.16-15.99,1.38-31.99,2.68-47.99,3.91-10.24.79-20.49,1.45-30.73,2.08-21.82,1.35-43.64,2.65-65.47,3.95-6.45.38-12.91.83-19.36,1.02-14.94.43-29.89.68-44.84,1.08-23.57.63-47.13,1.32-70.7,2-11.12.32-22.23.88-33.35.96-52.91.4-105.82.8-158.72.92-21.61.05-43.22-.45-64.82-.98-16.58-.41-33.15-1.29-49.72-1.94-17.07-.68-34.15-1.22-51.21-2.03-18.21-.86-36.41-1.88-54.6-3.01-6.42-.4-12.82-1.31-19.22-1.99.96-.64,1.96-1.88,2.89-1.83,7.07.34,14.11,1.2,21.18,1.35,6.97.15,13.95-.36,20.93-.58,1.65.39,3.31.78,4.96,1.17.73.31,1.46.87,2.21.91,14.88.72,29.76,1.52,44.65,2.01,15.59.51,31.18.71,46.77,1.05.83.02,1.65.19,2.48.2,11.44.23,22.87.46,34.31.62.52,0,1.05-.7,1.57-1.07,36.6.15,73.2.42,109.8.42,38.27,0,76.53-.24,114.8-.38,1.69.4,3.37,1.09,5.07,1.15,12.39.38,24.79.69,37.19.78.93,0,1.87-1.81,2.81-2.78,1.64-.04,3.28-.08,4.92-.12.53.36,1.05,1.02,1.58,1.03,8.73.09,17.46.14,26.19.03.77-.01,1.52-1.28,2.28-1.96.98-.01,1.96-.02,2.94-.03,1.71.37,3.42,1.09,5.11,1.05,10.6-.22,21.19-.63,31.79-.93,12.42-.36,24.85-.62,37.27-1.1,1.29-.05,2.54-1.29,3.81-1.98.65-.02,1.29-.04,1.94-.06,1.7.38,3.41,1.11,5.11,1.08,9.78-.21,19.55-.52,29.32-.96,13.06-.59,26.12-1.31,39.17-2.05.87-.05,1.7-.79,2.55-1.21,15.81-1.42,31.63-2.82,47.43-4.28,15.56-1.44,31.12-2.85,46.66-4.45,7.9-.81,15.76-2.01,23.63-3.04,4.44-.18,8.9-.16,13.31-.65,1.64-.18,3.16-1.52,4.73-2.33.67.04,1.35.09,2.02.13Z"/>
        <path class="cls-16" d="M356.76,341c-6.98.22-13.96.72-20.93.58-7.06-.15-14.11-1.01-21.18-1.35-.93-.04-1.92,1.19-2.89,1.83-.68-.01-1.36-.02-2.03-.03-1.32-.31-2.64-.63-3.95-.94-13.86-.96-27.72-1.93-41.58-2.89-10.07-.7-20.15-1.23-30.21-2.12-12.33-1.09-24.64-2.56-36.97-3.72-6.26-.59-12.56-.8-18.83-1.28-2.12-.16-4.21-.64-6.31-.97,2-1.01,4-2.02,6-3.04,21.79,2.15,43.55,4.57,65.37,6.37,22.54,1.85,45.12,3.11,67.69,4.6,15.27,1.01,30.54,1.97,45.81,2.96Z"/>
        <path class="cls-19" d="M623.2,341.92c-9.71.04-19.42.08-29.13.13-.51-4.74-.56-9.35,3.36-12.94.24,1.94.48,3.87.74,5.99,3.09-3.28,5.85-6.04,8.36-9.01.49-.59,0-2-.03-3.04,6.93-3.01,13.97-1.31,20.24,4.88-1.18,4.67-2.36,9.33-3.54,14Z"/>
        <path class="cls-16" d="M493.72,345.88c-.52.37-1.05,1.08-1.57,1.07-11.44-.16-22.88-.39-34.31-.62-.83-.02-1.65-.19-2.48-.2-15.59-.34-31.19-.54-46.77-1.05-14.89-.49-29.77-1.29-44.65-2.01-.75-.04-1.47-.59-2.21-.91,28.23.67,56.47,1.28,84.7,2.04,15.77.43,31.53,1.11,47.29,1.67Z"/>
        <path class="cls-17" d="M626.74,327.92c-6.27-6.18-13.31-7.88-20.24-4.88-3.02,2.02-6.04,4.04-9.07,6.06-3.91,3.59-3.86,8.21-3.36,12.94-.95-.04-1.91-.09-2.87-.13-3.08-4.97,1.38-9.09,1.55-13.69,5.37-7.43,12.42-11.22,21.75-10.05,15.64,5.98,18.66,9.79,19,23.95-1.03,0-2.05-.01-3.08-.02.81-5.26.57-10.25-3.7-14.18Z"/>
        <path class="cls-16" d="M957.38,337.84c-.85.42-1.68,1.16-2.55,1.21-13.05.74-26.11,1.46-39.17,2.05-9.77.44-19.54.75-29.32.96-1.69.04-3.4-.7-5.11-1.08,17.86-.96,35.73-1.91,53.59-2.88,5.96-.32,11.91-.73,17.87-.95,1.55-.06,3.12.43,4.68.67Z"/>
        <path class="cls-16" d="M879.3,341.05c-1.27.69-2.52,1.93-3.81,1.98-12.42.48-24.85.74-37.27,1.1-10.6.31-21.19.71-31.79.93-1.7.04-3.41-.68-5.11-1.05,26-.99,51.99-1.97,77.99-2.95Z"/>
        <path class="cls-11" d="M633.51,342.12c-.34-14.15-3.36-17.96-19-23.95,2.32-.67,4.64-1.34,6.96-2.02,10.98,3.13,17.52,14.21,15.28,25.89-1.08.02-2.16.05-3.23.07Z"/>
        <path class="cls-16" d="M763.39,345.07c-.94.97-1.88,2.79-2.81,2.78-12.4-.1-24.8-.41-37.19-.78-1.7-.05-3.38-.75-5.07-1.15,15.02-.28,30.04-.57,45.07-.85Z"/>
        <path class="cls-11" d="M626.74,327.92c4.27,3.94,4.5,8.93,3.7,14.18-2.41-.06-4.82-.12-7.24-.18,1.18-4.67,2.36-9.34,3.54-14Z"/>
        <path class="cls-16" d="M798.37,344.04c-.76.68-1.51,1.95-2.28,1.96-8.73.12-17.46.06-26.19-.03-.53,0-1.06-.67-1.58-1.03,10.02-.3,20.04-.61,30.05-.91Z"/>
        <path class="cls-19" d="M592.76,328.23c-.17,4.6-4.63,8.72-1.55,13.69-1.15.06-2.29.12-3.43.18.19-3.32.38-6.64.56-9.96,1.47-1.31,2.95-2.61,4.42-3.92Z"/>
        <path class="cls-7" d="M1093.14,323.09c-1.57.81-3.09,2.15-4.73,2.33-4.41.48-8.87.46-13.31.65,2.68-.37,5.35-.74,8.03-1.11.99-.28,1.99-.55,2.98-.83,1-.06,2.01-.12,3.01-.17.67-.25,1.34-.5,2.01-.75.67-.04,1.33-.07,2-.11Z"/>
        <path class="cls-11" d="M1106.16,320.18c-2.34.65-4.69,1.3-7.03,1.95-.33-.06-.67-.12-1-.18,0-.89,0-1.79,0-2.68,2.7-.76,5.4-1.52,8.1-2.27-.03,1.06-.05,2.12-.07,3.18Z"/>
        <path class="cls-11" d="M1086.12,324.13c-.99.28-1.99.55-2.98.83.99-.28,1.99-.55,2.98-.83Z"/>
        <path class="cls-11" d="M1091.14,323.2c-.67.25-1.34.5-2.01.75.67-.25,1.34-.5,2.01-.75Z"/>
        <path class="cls-11" d="M1078.19,322.26c.66-.1,1.32-.2,1.98-.3-.66.1-1.32.2-1.98.3Z"/>
        <path class="cls-19" d="M1106.16,320.18c.02-1.06.05-2.12.07-3.18,1.3-1.29,2.6-2.57,3.9-3.86,1.21,1.11,2.42,2.22,3.63,3.33-1.26.94-2.43,2.07-3.82,2.77-1.13.57-2.51.64-3.78.94Z"/>
        <path class="cls-5" d="M275.8,354.09c15.15,1.3,30.29,2.63,45.45,3.9,5.44.45,10.9.83,16.35,1.09,14.73.72,29.47,1.35,44.2,2.03,14.4.66,28.8,1.41,43.2,1.97,19.06.75,38.12,1.39,57.18,2.01,12.28.4,24.55.78,36.83.99,24.1.41,48.2.65,72.29,1.03,16.77.27,33.55.96,50.32.91,30.93-.09,61.85-.54,92.77-.96,14.28-.19,28.55-.54,42.83-1,17.73-.57,35.46-1.25,53.19-2,13.24-.56,26.48-1.14,39.7-2.01,17.32-1.14,34.63-2.61,51.94-3.89,9.73-.72,19.47-1.36,29.21-2.04,1.29.66,2.57,1.83,3.88,1.89,12.11.47,24.23.58,36.33,1.16,6.26.3,12.51,1.14,18.71,2.13,9.04,1.44,11.72,9.87,10.75,18.09-2.04,17.37-4.31,34.79-7.93,51.88-4.49,21.19-9.97,42.2-15.87,63.05-8.87,31.36-20.24,61.82-35.48,90.73-12.53,23.77-28.88,44.45-49.6,61.65-26.36,21.89-57.19,33.67-90.36,40.1-16.38,3.17-32.79,6.26-49.28,8.73-14.85,2.23-29.82,3.69-44.76,5.23-9.04.93-18.13,1.38-27.2,2.05-2.62.33-5.23.87-7.86.95-12.44.41-24.88.92-37.32.97-8.86.04-17.73-.63-26.6-.92-21.39-.69-42.77-1.31-64.16-2.04-5.12-.18-10.27-.4-15.34-1.09-20.77-2.83-41.52-5.84-62.27-8.81-27.29-3.9-53.94-10.37-79.76-20.07-26.45-9.95-49.51-25.29-69.8-44.85-14.44-13.92-25.88-30.03-35.97-47.38-13.96-24.02-24.19-49.49-31.5-76.11-6.35-23.12-11.84-46.5-16.99-69.92-3.08-14.01-4.78-28.32-7.1-42.49.34-.89.97-1.78.96-2.67-.05-15.18,7.06-25.01,21.56-29.72,2.71-.88,5.01-3.03,7.49-4.59Z"/>
        <path class="cls-8" d="M245.79,391.07c2.32,14.17,4.02,28.49,7.1,42.49,5.15,23.42,10.64,46.8,16.99,69.92,7.31,26.62,17.54,52.09,31.5,76.11,10.09,17.35,21.52,33.46,35.97,47.38,20.29,19.56,43.34,34.9,69.8,44.85,25.81,9.71,52.47,16.17,79.76,20.07,20.75,2.97,41.5,5.98,62.27,8.81,5.07.69,10.22.92,15.34,1.09,21.38.73,42.77,1.35,64.16,2.04,8.87.29,17.73.95,26.6.92,12.44-.05,24.88-.56,37.32-.97,2.63-.09,5.24-.62,7.86-.95.49,3.37,2.8,3.95,5.74,4.03,10.98.31,21.96.72,32.94,1.23.79.04,1.53,1.13,2.29,1.73-7.11-.33-14.22-1.06-21.31-.89-7.56.18-15.09,1.73-22.64,1.77-12.92.08-25.84-.77-38.77-.84-28.5-.15-57.01-.05-85.51-.05-9.89,0-19.81-.49-29.66.12-13.65.85-27.26,2.49-40.87,3.92-1.9.2-3.72,1.09-5.73,1.71.27,2.05.48,3.65.68,5.25-22.37-.67-44.74-1.14-67.09-2.07-15.52-.65-31.03-1.7-46.51-2.99-16.77-1.39-33.5-3.27-50.24-4.93-.34,0-.68-.01-1.01-.02,0-.33,0-.65,0-.98,8.43.34,16.86.63,25.29,1.03,6.6.32,13.2.75,19.79,1.16,9.06.57,18.11,1.19,27.17,1.74.69.04,1.4-.32,3.59-.87-2.14-.63-2.81-.97-3.5-1.02-9.38-.7-18.76-1.37-28.14-2.04-5.44-.39-10.88-.69-16.3-1.21-12.96-1.23-25.91-2.56-38.87-3.86-1.67-.64-3.34-1.27-5.01-1.91-16.87-3.19-33.32-7.71-48.11-16.71-5.62-3.42-10.96-7.49-15.84-11.91-18.17-16.49-33.71-35.38-46.25-56.34-10.7-17.89-20.31-36.57-28.84-55.6-16.73-37.32-27.23-76.83-38.12-116.11-6.19-22.3-11.02-44.98-16.66-67.43-1.2-4.79-3.27-9.37-4.99-14.02-2.22-6.01-3.92-12.31-6.88-17.94-3.56-6.78-6.99-13.82-12.94-19.08-.66-.58-.8-1.74-1.19-2.63,21.2,7.67,43.26,11.67,65.45,15.02,16.29,2.46,32.6,4.81,48.95,6.82,11.45,1.41,22.99,2.16,34.49,3.21-1.35,3.27-5.03,5.25-4.14,9.85.99,5.13.57,10.52,1.24,15.74.66,5.15,1.9,10.23,2.88,15.34Z"/>
        <path class="cls-8" d="M795.37,719.83c-1,.31-1.99.62-2.99.94-1.11-3.24,2.69-6.97-1.01-9.95,4.95-1.6,9.9-3.21,14.97-4.85,1.19,6.83.1,8.42-5.29,8.82-3.29.24-5.28,1.67-5.68,5.04Z"/>
        <path class="cls-8" d="M785.37,710.82h-14.99c2.89-5.46,8.91-5.05,14.99,0Z"/>
        <path class="cls-8" d="M765.39,710.82c-2.33-.33-4.66-.66-6.99-1,2.56-1.28,5.1-2.4,6.99,1Z"/>
        <path class="cls-16" d="M245.79,391.07c-.99-5.11-2.23-10.19-2.88-15.34-.66-5.22-.25-10.61-1.24-15.74-.89-4.6,2.79-6.58,4.14-9.85,10,1.32,20,2.64,30,3.96-2.49,1.56-4.78,3.71-7.49,4.59-14.5,4.71-21.61,14.54-21.56,29.72,0,.89-.63,1.78-.96,2.67Z"/>
        <path class="cls-8" d="M305.78,341.09c1.32.31,2.64.63,3.95.94-1.32-.32-2.64-.63-3.95-.94Z"/>
        <path class="cls-7" d="M321.75,704.76c12.96,1.29,25.91,2.63,38.87,3.86,5.42.52,10.87.81,16.3,1.21,9.38.68,18.76,1.34,28.14,2.04.69.05,1.36.38,3.5,1.02-2.19.55-2.9.92-3.59.87-9.06-.55-18.11-1.17-27.17-1.74-6.6-.42-13.19-.85-19.79-1.16-8.43-.4-16.86-.7-25.29-1.03-2-.33-4.17-.27-5.94-1.1-1.89-.89-3.38-2.61-5.04-3.97Z"/>
        <path class="cls-15" d="M597.43,329.11c3.02-2.02,6.04-4.04,9.07-6.06.04,1.03.53,2.45.03,3.04-2.51,2.97-5.27,5.73-8.36,9.01-.26-2.12-.5-4.05-.74-5.99Z"/>
      </g>
    </g>
  </g>
</svg>