<svg width="362" height="243" viewBox="0 0 362 243" fill="none" xmlns="http://www.w3.org/2000/svg">
<g clip-path="url(#clip0_23_77)">
<path d="M309.907 8.70203C309.907 16.3656 309.907 24.0423 309.894 31.7059C309.806 31.6534 309.73 31.6534 309.641 31.7059C309.552 31.1407 309.375 30.5623 309.375 29.9971C309.349 24.6602 309.375 19.3364 309.349 13.9995C309.349 13.4343 309.134 12.8822 309.02 12.3169C308.944 11.962 308.881 11.594 308.805 11.239C308.855 11.0813 308.906 10.9104 308.957 10.7527C309.071 9.77993 309.197 8.8072 309.311 7.83446C309.083 7.82131 308.868 7.80817 308.64 7.79502C307.55 3.90408 303.014 1.41966 299.402 1.41966C231.407 1.49853 163.412 1.48538 95.4162 1.48538C84.0752 1.48538 72.7342 1.53797 61.3932 1.48538C57.1355 1.45909 52.9666 5.1923 53.2581 9.0701C53.1567 10.3715 52.9539 11.6728 52.9539 12.9742C53.03 33.2439 53.1313 53.5136 53.22 73.7833C53.1187 74.3749 52.9413 74.9533 52.9539 75.5448C53.03 79.5672 53.1567 83.5896 53.2707 87.6251C53.2707 87.8092 53.4355 87.9932 53.5875 88.3218C55.3108 87.4937 56.9708 86.705 58.6308 85.9163C64.0415 84.2205 69.3636 82.1568 75.1038 81.907C75.4332 81.8939 75.9147 81.276 76.0034 80.8554C76.3836 79.0151 76.7637 77.1485 76.9411 75.2819C77.5367 69.13 78.1196 62.9649 78.5377 56.7999C78.6898 54.4338 78.411 52.0151 78.259 49.6358C78.0942 46.9805 78.0055 44.3121 77.5874 41.6962C77.0045 38.0287 76.1555 34.4007 75.4205 30.7463C75.3825 30.26 75.4079 29.7605 75.3065 29.2741C74.5589 25.37 76.7764 23.2274 80.5652 24.0292C86.4701 25.2648 92.375 26.6582 98.3433 27.4206C105.262 28.3014 112.244 28.9323 119.213 29.0112C129.363 29.1295 139.538 28.7089 149.688 28.4065C152.299 28.3276 154.922 27.9596 157.494 27.4732C163.222 26.3953 168.924 25.1465 174.626 23.9766C177.591 23.3588 179.618 25.0545 179.555 28.1568C179.542 29.1295 179.352 30.1022 179.251 31.075C179.15 31.5088 179.048 31.9557 178.947 32.3895C178.845 32.8364 178.731 33.2702 178.63 33.7171C178.63 33.9275 178.617 34.1509 178.605 34.3612C177.87 40.0531 177.135 45.7449 176.4 51.4367C176.299 52.5277 176.21 53.6188 176.108 54.7098C176.108 56.0243 176.032 57.3388 176.146 58.6402C176.501 62.8598 176.881 67.0794 177.363 71.2726C177.642 73.6387 178.098 75.9786 178.605 78.3053C178.719 78.8179 179.34 79.5146 179.796 79.5803C181.012 79.7644 182.279 79.646 183.623 79.646C183.813 77.8846 183.762 76.2546 184.18 74.7824C185.726 69.2877 185.815 63.6353 186.157 57.9961C185.954 54.1709 185.764 50.3457 185.561 46.5204C185.143 43.5628 184.725 40.6052 184.294 37.6475C183.876 35.3471 183.458 33.0467 183.027 30.7463C183.014 29.9839 182.989 29.2347 182.976 28.4722C183.002 27.6967 183.014 26.9343 183.04 26.1587C184.37 24.0818 186.182 23.5428 188.514 24.0292C194.989 25.37 201.451 26.7634 207.965 27.7887C212.666 28.5248 217.456 29.0243 222.207 29.0243C233.941 29.0243 245.675 28.7614 257.396 28.3934C261.033 28.2751 264.682 27.5652 268.281 26.908C272.97 26.0404 277.62 24.9231 282.296 23.9635C284.868 23.4377 286.883 25.1597 286.883 27.8018C286.883 28.998 286.883 30.2074 286.87 31.4036C286.769 31.7322 286.667 32.0608 286.566 32.3895C286.363 33.165 286.161 33.9275 285.945 34.703C285.945 34.9133 285.933 35.1368 285.92 35.3471C285.286 39.0146 284.399 42.6558 284.082 46.3495C283.702 50.9503 283.652 55.6037 283.74 60.2308C283.804 63.8062 284.222 67.3685 284.627 70.9309C284.957 73.8359 285.502 76.7015 285.958 79.5935C286.313 81.8676 286.655 82.2619 288.834 82.2882C293.688 82.3408 298.084 84.4046 302.672 85.6008C304.547 86.6261 306.422 87.6646 308.539 88.8345C308.703 85.6271 308.843 82.8272 308.995 80.0273C309.185 80.0273 309.362 80.001 309.552 80.001C309.628 80.369 309.704 80.7502 309.793 81.1183C309.793 82.0779 309.793 83.0506 309.793 84.0102C309.818 84.6412 309.831 85.2721 309.856 85.9031C309.932 87.2045 310.008 88.4927 310.084 89.7941C309.92 90.1358 309.742 90.4776 309.578 90.8194C308.057 89.9649 306.562 89.0711 305.029 88.2429C298.439 84.7069 291.318 83.445 284.006 82.9718C283.74 82.9586 283.474 82.9323 283.221 82.9192C283.056 82.906 282.891 82.8797 282.714 82.8666C283.259 82.6037 283.791 82.3408 284.336 82.0647C284.501 81.2103 284.893 80.3165 284.792 79.4883C284.374 76.2415 283.702 73.0209 283.31 69.7741C281.992 58.9557 282.22 48.1767 284.273 37.4503C284.855 34.4007 285.324 31.3379 285.856 28.2751C285.831 25.8432 285.147 25.0545 282.841 25.2386C281.117 25.37 279.381 25.6723 277.696 26.093C269.688 28.1436 261.591 29.721 253.341 29.8656C241.747 30.0759 230.14 30.0234 218.545 29.9051C210.676 29.813 202.896 28.6431 195.217 26.8554C192.341 26.185 189.439 25.646 186.512 25.3043C184.839 25.1071 184.32 25.8301 184.193 27.6047C184.383 29.537 184.383 31.4956 184.788 33.3754C187.576 46.389 187.703 59.4683 185.967 72.6266C185.65 75.0321 185.181 77.4245 184.75 79.9747C185.625 80.0535 186.296 80.1061 186.968 80.1719C186.917 80.4742 186.867 80.7897 186.816 81.092C182.698 81.0789 178.592 81.0526 174.474 81.0394C174.499 80.7371 174.525 80.4348 174.537 80.1324C175.475 80.0798 176.4 80.0404 177.515 79.9747C177.363 78.9494 177.262 78.0555 177.109 77.1616C175.057 65.7517 174.512 54.276 176.007 42.7609C176.539 38.6597 177.376 34.5979 178.073 30.5229C178.174 29.7736 178.351 29.0243 178.389 28.2619C178.503 25.9615 177.768 25.1071 175.538 25.2254C173.967 25.3043 172.37 25.5015 170.862 25.8958C160.649 28.5774 150.284 30.0497 139.767 30.1154C130.238 30.1811 120.696 30.0628 111.167 29.8393C102.525 29.629 93.959 28.6563 85.5071 26.5925C83.2262 26.0404 80.8693 25.7118 78.5377 25.5146C76.7764 25.37 76.4976 25.8301 76.4216 27.8018C76.485 28.7746 76.4216 29.7736 76.637 30.7069C80.4385 46.8491 80.6412 63.0307 77.3466 79.278C77.1819 80.093 77.2072 80.9606 77.1439 81.815H80.7933C80.7933 82.091 80.7806 82.3671 80.7679 82.6431C80.5905 82.6826 80.4258 82.7089 80.2484 82.7483C79.5768 82.906 78.9052 83.0638 78.2336 83.2084C75.6106 83.4055 72.9749 83.4581 70.3773 83.813C64.1936 84.6806 58.4534 86.9153 53.0933 90.2016L51.8262 89.518C51.8769 89.0842 51.9149 88.6504 51.9656 88.2166C52.0669 87.6514 52.257 87.0862 52.257 86.5209C52.257 61.3875 52.257 36.2541 52.2697 11.1207C52.2697 9.43816 52.4597 7.75559 52.5611 6.08616C54.4492 1.65627 58.0732 0.144586 62.2928 0.0788609C71.5177 -0.05259 80.7553 0.0131355 89.9801 0.0131355C158.394 -9.62592e-06 226.807 -9.62592e-06 295.221 -9.62592e-06C297.628 -9.62592e-06 300.074 0.0920059 302.444 0.460068C306.245 1.0516 308.589 3.53602 309.742 7.28237C309.793 7.75559 309.844 8.21567 309.894 8.68889L309.907 8.70203Z" fill="#3A2217"/>
<path d="M351.635 170.295C351.698 170.439 351.774 170.584 351.838 170.728C352.091 171.78 352.256 172.845 352.598 173.857C353.51 176.525 354.638 179.128 355.424 181.823C356.982 187.186 358.592 192.562 359.732 198.031C360.695 202.645 362.216 207.298 360.657 212.175C359.605 215.435 358.275 218.419 354.499 218.682C352.776 218.8 351.014 218.235 349.253 218.011C348.936 217.972 348.607 218.13 348.277 218.195C348.176 218.3 348.074 218.406 347.973 218.498C347.935 220.022 347.91 221.534 347.872 223.059C347.872 223.637 347.872 224.203 347.859 224.781C347.834 224.807 347.77 224.847 347.783 224.86C347.796 224.926 347.834 224.991 347.859 225.07C347.859 225.412 347.859 225.754 347.859 226.109C347.859 228.606 347.859 231.104 347.859 233.601C347.859 234.613 347.859 235.626 347.872 236.651C347.872 237.926 347.872 239.201 347.872 240.476C347.72 240.949 347.555 241.409 347.403 241.883C347.289 241.962 347.187 242.054 347.073 242.132C347.048 242.238 346.972 242.29 346.871 242.264C346.718 242.33 346.566 242.395 346.427 242.461C345.717 242.632 345.021 242.947 344.311 242.961C339.673 243.013 335.023 243.039 330.385 242.987C327.496 242.947 325.405 240.608 325.392 237.584C325.392 234.587 325.392 231.603 325.392 228.58C324.049 228.58 322.997 228.58 321.958 228.58C298.96 228.619 275.961 228.685 252.962 228.698C188.768 228.724 124.574 228.724 60.3802 228.724C53.1574 228.724 45.922 228.646 38.6992 228.514C37.2039 228.488 36.583 229.014 36.5577 230.538C36.5197 232.997 36.4183 235.442 36.3296 237.9C36.2282 240.963 34.5683 242.855 31.6158 242.921C26.7119 243.026 21.808 243.013 16.9042 242.961C14.6233 242.934 13.825 241.948 13.8123 239.359C13.8123 233.614 13.863 227.87 13.8883 222.126C13.8883 221.087 13.9137 220.062 13.9264 219.023C14.0784 217.932 13.901 217.236 12.6085 217.775C12.127 217.972 11.6455 218.248 11.1513 218.287C10.6318 218.327 10.0869 218.13 9.55469 218.037C9.93483 217.959 10.315 217.867 10.6951 217.788C10.8345 217.735 10.9866 217.669 11.126 217.617C12.2664 217.236 13.4195 216.854 14.5599 216.46C14.6867 216.605 14.8134 216.749 14.9274 216.894C14.9274 219.405 14.9274 221.928 14.9401 224.439C14.9401 229.355 14.9401 234.259 14.9147 239.175C14.9147 240.2 15.0541 241.068 16.2579 241.173C17.9306 241.304 19.6032 241.475 21.2758 241.501C25.0646 241.554 28.8534 241.515 32.6422 241.501C34.1628 240.384 35.7087 239.385 35.5313 236.993C35.3792 234.929 35.6073 232.839 35.4553 230.788C35.3792 229.737 34.847 228.711 34.5303 227.673C34.5303 227.463 34.5429 227.252 34.5556 227.029C36.1902 227.029 37.8248 227.042 39.4595 227.042C97.6598 227.042 155.847 227.042 214.048 227.042C251.72 227.042 289.393 227.042 327.065 227.029C327.496 227.029 327.914 227.042 328.345 227.055V228.028C327.635 228.291 326.343 228.527 326.33 228.803C326.254 232.037 326.254 235.284 326.533 238.491C326.609 239.319 327.711 240.069 328.332 240.844H328.345C328.801 242.658 329.967 241.541 330.866 241.501C331.715 241.501 332.564 241.501 333.413 241.488C336.049 241.488 338.672 241.488 341.308 241.501C341.739 241.501 342.157 241.501 342.588 241.488C343.842 241.383 345.109 241.278 346.364 241.186C346.478 240.739 346.579 240.305 346.693 239.858C346.693 234.285 346.693 228.698 346.693 223.125C346.693 222.362 346.693 221.587 346.693 220.824C346.693 220.601 346.693 220.377 346.693 220.154C346.795 219.076 346.896 217.985 346.997 216.907C347.175 216.762 347.352 216.605 347.542 216.46C349.139 216.96 350.723 217.472 352.332 217.959C354.6 218.642 356.488 217.893 357.933 216.066C359.618 213.936 360.264 211.386 360.315 208.665C360.315 208.021 360.315 207.364 360.315 206.72C360.302 206.496 360.277 206.286 360.264 206.062C359.834 203.604 359.491 201.12 358.972 198.675C356.792 188.395 354.017 178.26 349.62 168.796C343.449 155.506 336.885 142.401 330.22 129.361C326.938 122.92 323.061 116.807 319.462 110.537C319.373 110.406 319.272 110.274 319.183 110.156C319.12 110.064 319.095 109.972 319.12 109.853C319.247 109.827 319.386 109.814 319.513 109.788C320.032 110.235 320.565 110.682 321.084 111.129V111.155C321.73 112.141 322.351 113.127 322.985 114.099L324.759 115.821C324.835 115.979 324.924 116.124 325 116.281C325.114 116.571 325.24 116.86 325.354 117.136L325.443 117.267L325.506 117.372C325.62 117.583 325.734 117.806 325.849 118.017C325.912 118.148 325.988 118.293 326.051 118.424C326.127 118.582 326.203 118.74 326.292 118.897C326.368 119.042 326.457 119.186 326.533 119.331C326.609 119.449 326.672 119.581 326.748 119.699C326.976 120.146 327.204 120.593 327.42 121.027C327.483 121.066 327.508 121.119 327.521 121.185C327.61 121.329 327.699 121.474 327.787 121.631C327.876 121.842 327.965 122.052 328.053 122.276C328.142 122.407 328.231 122.538 328.319 122.683C330.752 127.402 333.185 132.108 335.606 136.827C335.694 137.037 335.77 137.235 335.859 137.445C335.973 137.484 336.011 137.55 335.973 137.668C336.227 138.155 336.467 138.628 336.721 139.114C336.771 139.22 336.822 139.325 336.885 139.43C337.962 141.612 339.052 143.794 340.129 145.963C340.205 146.081 340.281 146.213 340.345 146.331C340.547 146.765 340.75 147.199 340.953 147.619L341.054 147.672V147.79C341.625 148.947 342.195 150.091 342.778 151.247C342.879 151.287 342.917 151.352 342.866 151.458C342.93 151.589 342.993 151.721 343.069 151.852C343.12 151.97 343.17 152.089 343.234 152.207C343.918 153.824 344.552 155.467 345.312 157.057C345.654 157.794 346.212 158.425 346.68 159.108L346.782 159.161V159.279C346.896 159.542 347.01 159.805 347.124 160.068L347.099 160.028C347.377 160.593 347.656 161.172 347.935 161.737C348.049 161.777 348.074 161.869 348.036 161.974C348.15 162.223 348.252 162.46 348.366 162.71L348.404 162.815C348.632 163.525 348.809 164.261 349.113 164.945C349.937 166.745 350.811 168.507 351.66 170.295H351.635Z" fill="#3A2217"/>
<path d="M9.80805 171.346C9.8714 171.202 9.92209 171.057 9.98545 170.912C10.0615 170.702 10.1375 170.492 10.2135 170.268C10.2769 170.163 10.3276 170.058 10.3909 169.953C10.619 169.335 10.8598 168.73 11.0879 168.112C11.1639 167.942 11.2399 167.771 11.316 167.613C11.354 167.481 11.4047 167.363 11.4427 167.232C11.4807 167.14 11.506 167.048 11.544 166.956C11.7214 166.509 11.8862 166.062 12.0636 165.615L12.0509 165.641C12.4817 164.747 12.8999 163.867 13.3307 162.973L13.3181 163.012C13.7489 162.131 14.1797 161.238 14.6106 160.357L14.5979 160.396C15.016 159.502 15.4469 158.609 15.865 157.715L15.8397 157.754C15.9791 157.452 16.1185 157.149 16.2452 156.847C18.412 152.312 20.5028 147.724 22.771 143.255C26.7119 135.486 30.7794 127.796 34.7963 120.067C34.923 119.831 35.0877 119.62 35.2271 119.397C35.3031 119.239 35.3665 119.094 35.4425 118.937C35.4425 118.845 35.4805 118.779 35.5439 118.726C35.6199 118.582 35.7086 118.437 35.7847 118.306C36.1015 117.596 36.4309 116.873 36.7477 116.163C36.8237 115.913 36.9124 115.65 36.9885 115.401C37.0138 115.217 37.0265 115.046 37.0518 114.862C37.3052 114.743 37.5587 114.651 37.7994 114.507C38.1162 114.296 38.4203 114.06 38.7245 113.823C39.6621 112.39 40.5998 110.958 41.5502 109.512C42.0697 109.157 42.5893 108.789 43.1088 108.434C42.9187 108.907 42.7413 109.393 42.5513 109.867C42.4372 110.077 42.3105 110.3 42.1965 110.511C40.8406 112.627 39.3454 114.665 38.1416 116.873C34.6062 123.327 31.0455 129.781 27.7636 136.367C22.3529 147.238 16.9675 158.122 11.9115 169.164C7.91999 177.866 5.39836 187.147 3.23153 196.506C3.0668 195.98 2.67398 195.389 2.78802 194.942C3.63702 191.59 4.63807 188.277 5.49973 184.925C5.85453 183.571 5.98125 182.138 6.20933 180.745C6.27269 180.521 6.32338 180.298 6.38673 180.074C6.47544 179.798 6.56414 179.509 6.66551 179.233L6.65284 179.128L6.74154 179.075C6.8936 179.023 7.13435 179.023 7.17237 178.931C8.07205 176.394 8.94638 173.857 9.83339 171.32L9.80805 171.346Z" fill="#3A2217"/>
<path d="M6.18405 180.771C5.95596 182.165 5.82925 183.584 5.47444 184.951C4.61278 188.303 3.61173 191.616 2.76274 194.968C2.6487 195.415 3.04151 196.006 3.20624 196.532C2.83877 198.359 2.30656 200.173 2.12916 202.027C1.86306 204.774 1.86306 207.548 1.73635 210.308C2.40794 215.895 4.90423 218.366 9.56735 218.037C10.0995 218.129 10.6444 218.327 11.164 218.287C11.6581 218.248 12.1397 217.972 12.6212 217.775C13.9137 217.236 14.0911 217.932 13.939 219.023C13.5209 217.801 12.7099 218.314 12.0129 218.59C9.55467 219.562 7.10907 219.865 4.7395 218.366C2.68671 217.052 1.40689 215.106 0.697281 212.727C-0.354455 209.151 -0.0756816 205.51 0.68461 201.987C1.83772 196.637 3.28227 191.34 4.63812 186.029C5.0943 184.268 5.66452 182.533 6.19672 180.784L6.18405 180.771Z" fill="#6B2A01"/>
<path d="M52.5621 6.0336C52.4607 7.71617 52.2706 9.39874 52.2706 11.0682C52.258 36.2016 52.2706 61.335 52.258 86.4684C52.258 87.0336 52.0679 87.5988 51.9665 88.1641C51.9158 84.4046 51.8271 80.6451 51.8271 76.8856C51.8145 54.8281 51.8018 32.7838 51.8398 10.7264C51.8398 9.16213 52.3086 7.59786 52.5621 6.0336Z" fill="#9C6F50"/>
<path d="M348.277 218.195C348.607 218.13 348.936 217.972 349.253 218.011C351.002 218.235 352.776 218.8 354.499 218.682C358.275 218.419 359.606 215.435 360.657 212.175C362.229 207.311 360.695 202.658 359.732 198.031C358.592 192.562 356.983 187.186 355.424 181.823C354.638 179.115 353.511 176.525 352.598 173.857C352.256 172.845 352.091 171.767 351.838 170.728C353.954 176.249 356.248 181.704 357.604 187.515C358.478 191.274 359.466 194.994 360.404 198.741C360.911 200.765 361.633 202.763 361.849 204.827C362.317 209.362 362.001 213.792 358.617 217.301C356.704 219.286 352.991 219.944 350.229 218.787C349.608 218.524 348.936 218.406 348.29 218.208L348.277 218.195Z" fill="#6B2A01"/>
<path d="M38.7117 113.836C38.4076 114.06 38.1035 114.31 37.7867 114.52C37.5586 114.665 37.2925 114.757 37.0391 114.875C38.1035 111.378 38.8511 107.737 40.2956 104.425C42.4878 99.4294 45.643 95.0389 49.812 91.5161C50.5342 90.8982 51.1425 90.149 51.8141 89.4654C52.2322 89.6889 52.663 89.9255 53.0812 90.149C51.4212 91.6212 49.5839 92.9357 48.1266 94.6052C43.6283 99.7054 40.3463 105.568 38.5596 112.272C38.4329 112.745 38.6483 113.324 38.699 113.85L38.7117 113.836Z" fill="#9C6F50"/>
<path d="M324.759 115.821C324.163 115.243 323.568 114.665 322.985 114.099C322.959 113.547 322.947 112.995 322.921 112.43C321.832 107.395 319.475 102.926 316.649 98.7984C314.634 95.8671 311.973 93.4221 309.604 90.7536C309.768 90.4119 309.946 90.0701 310.11 89.7283C312.277 92.0813 314.647 94.2765 316.586 96.8267C320.4 101.835 322.972 107.54 324.569 113.705C324.746 114.375 324.708 115.111 324.771 115.808L324.759 115.821Z" fill="#9C6F50"/>
<path d="M309.819 81.0526C309.743 80.6845 309.667 80.3033 309.578 79.9352C309.603 69.3272 309.616 58.7191 309.641 48.111L309.768 48.0716L309.895 48.111C309.958 48.4791 310.06 48.8471 310.06 49.2152C310.06 59.3632 310.06 69.498 310.047 79.6461C310.047 80.1193 309.895 80.5794 309.819 81.0526Z" fill="#9C6F50"/>
<path d="M309.894 36.6353C309.894 39.8033 309.894 42.9713 309.894 46.1392C309.805 46.1918 309.729 46.1918 309.641 46.1392C309.641 42.9713 309.641 39.7902 309.641 36.6222L309.767 36.5828L309.894 36.6222V36.6353Z" fill="#9C6F50"/>
<path d="M9.80865 171.346C8.92164 173.883 8.04731 176.42 7.14763 178.957C7.10961 179.049 6.86886 179.062 6.7168 179.102C7.74319 176.512 8.78225 173.923 9.80865 171.346Z" fill="#6B2A01"/>
<path d="M351.635 170.295C350.787 168.52 349.899 166.745 349.089 164.945C348.784 164.274 348.607 163.525 348.379 162.815C349.469 165.299 350.558 167.797 351.648 170.281L351.635 170.295Z" fill="#6B2A01"/>
<path d="M346.656 159.108C346.199 158.425 345.629 157.807 345.287 157.057C344.539 155.467 343.893 153.824 343.209 152.207C344.349 154.507 345.503 156.808 346.643 159.108H346.656Z" fill="#6B2A01"/>
<path d="M340.129 145.95C339.052 143.768 337.962 141.586 336.885 139.417C337.962 141.599 339.052 143.781 340.129 145.95Z" fill="#6B2A01"/>
<path d="M342.764 151.247C342.194 150.091 341.624 148.947 341.041 147.79C341.611 148.947 342.181 150.091 342.764 151.247Z" fill="#6B2A01"/>
<path d="M309.641 31.7059C309.729 31.6534 309.805 31.6534 309.894 31.7059C309.894 32.5735 309.894 33.4542 309.894 34.3218C309.805 34.3744 309.729 34.3744 309.641 34.3218C309.641 33.4411 309.641 32.5735 309.641 31.6928V31.7059Z" fill="#9C6F50"/>
<path d="M309.641 34.3218C309.729 34.3744 309.805 34.3612 309.894 34.3218C309.894 35.0974 309.894 35.8598 309.894 36.6353L309.767 36.5959C309.767 36.5959 309.641 36.6353 309.641 36.6222C309.641 35.8598 309.641 35.0842 309.641 34.3218Z" fill="#3A2217"/>
<path d="M309.641 46.1393C309.729 46.1918 309.805 46.1918 309.894 46.1393C309.894 46.7965 309.894 47.4669 309.894 48.1242L309.767 48.0847L309.641 48.1242C309.641 47.4669 309.641 46.8097 309.641 46.1524V46.1393Z" fill="#3A2217"/>
<path d="M327.42 121.027C327.192 120.58 326.963 120.133 326.748 119.699C326.976 120.146 327.204 120.593 327.42 121.027Z" fill="#9C6F50"/>
<path d="M6.6401 179.273C6.5514 179.549 6.4627 179.838 6.36133 180.114C6.45003 179.838 6.53873 179.549 6.6401 179.273Z" fill="#6B2A01"/>
<path d="M325.355 117.136C325.241 116.847 325.114 116.557 325 116.281C325.114 116.571 325.241 116.86 325.355 117.136Z" fill="#9C6F50"/>
<path d="M16.2317 156.847C16.0923 157.149 15.9529 157.452 15.8262 157.754C15.9656 157.452 16.1049 157.149 16.2317 156.847Z" fill="#6B2A01"/>
<path d="M10.2125 170.281C10.1364 170.492 10.0604 170.702 9.98438 170.926C10.0604 170.715 10.1364 170.505 10.2125 170.281Z" fill="#6B2A01"/>
<path d="M343.056 151.865C342.993 151.734 342.93 151.602 342.854 151.471C342.917 151.602 342.98 151.734 343.056 151.865Z" fill="#6B2A01"/>
<path d="M35.772 118.306C35.696 118.45 35.6073 118.595 35.5312 118.726C35.6073 118.582 35.696 118.437 35.772 118.306Z" fill="#9C6F50"/>
<path d="M347.846 225.07C347.82 225.004 347.782 224.939 347.77 224.86C347.77 224.833 347.82 224.807 347.846 224.781C347.934 224.873 347.934 224.978 347.846 225.07Z" fill="#6B2A01"/>
<path d="M325.506 117.372L325.443 117.267L325.557 117.28L325.506 117.372Z" fill="#9C6F50"/>
<path d="M328.319 122.67C328.23 122.538 328.141 122.407 328.053 122.262C328.141 122.394 328.23 122.525 328.319 122.67Z" fill="#9C6F50"/>
<path d="M327.788 121.631C327.699 121.487 327.61 121.342 327.521 121.185C327.61 121.329 327.699 121.474 327.788 121.631Z" fill="#9C6F50"/>
<path d="M346.414 242.448C346.566 242.382 346.718 242.316 346.858 242.251C346.706 242.316 346.553 242.382 346.414 242.448Z" fill="#6B2A01"/>
<path d="M179.251 31.0356C179.352 30.0628 179.542 29.0901 179.555 28.1173C179.606 25.0151 177.591 23.3194 174.626 23.9372C168.911 25.1071 163.221 26.3559 157.494 27.4338C154.922 27.9202 152.299 28.2882 149.688 28.3671C139.526 28.6694 129.363 29.0901 119.213 28.9718C112.244 28.8929 105.262 28.2619 98.3433 27.3812C92.375 26.6188 86.47 25.2254 80.5651 23.9898C76.7763 23.2011 74.5461 25.3306 75.3064 29.2347C75.3951 29.7079 75.3825 30.2074 75.4205 30.7069C75.1037 31.2064 74.5081 31.706 74.5208 32.1923C74.5588 36.1753 74.7869 40.1451 74.8249 44.1281C74.8503 47.6509 74.9009 51.187 74.5715 54.6836C74.2547 57.9961 74.4321 61.4401 72.8862 64.5292C72.5187 65.2522 72.1005 66.0409 71.4923 66.501C70.6433 67.1451 69.6296 67.6183 68.6285 67.9601C68.2357 68.0915 67.6275 67.7235 67.2093 67.4474C66.7405 67.1451 66.3857 66.3564 65.9548 66.3301C64.5103 66.2644 63.0531 66.4484 61.3297 66.5536C61.203 65.9883 60.8989 65.2785 60.9116 64.5687C60.9243 62.9387 61.1904 61.3087 61.1777 59.6918C61.1397 56.3924 60.9496 53.093 60.8989 49.7804C60.7722 40.8024 60.6455 31.8111 60.5948 22.833C60.5821 19.8622 60.5948 16.8652 60.9369 13.9075C61.3171 10.6344 62.6983 9.1227 65.8155 9.05698C72.468 8.89923 79.1332 8.80722 85.7858 8.7152C88.1047 8.67577 90.4236 8.74149 92.7424 8.67577C93.2113 8.66262 93.6675 8.26827 94.1236 8.0448C94.7319 7.93964 95.3528 7.72932 95.961 7.72932C161.84 7.71618 227.732 7.72932 293.611 7.72932C294.22 7.72932 294.841 7.9265 295.449 8.0448C295.918 8.38658 296.361 8.83351 296.881 9.03069C298.971 9.77996 300.758 10.779 300.91 13.4211C300.999 14.9328 301.126 16.4445 301.138 17.9693C301.164 23.0171 301.138 28.0648 301.138 33.1125C301.138 34.5059 301.138 35.8861 301.138 37.2795C300.974 37.4109 300.809 37.5555 300.644 37.687C300.809 37.7658 300.974 37.8579 301.138 37.9367V39.5799C300.163 40.2371 300.163 40.8944 301.138 41.5516C301.138 42.1037 301.138 42.6427 301.138 43.1948C300.125 44.0755 300.125 44.9431 301.138 45.8238C301.138 48.7814 301.138 51.7259 301.138 54.6836C300.834 55.0648 300.34 55.4197 300.251 55.8535C299.96 57.2731 299.504 58.3905 297.932 58.7454C297.476 58.8505 297.058 59.4947 296.779 59.9942C296.095 61.1904 295.499 62.4392 294.841 63.7011C294.118 63.2542 293.827 62.965 293.497 62.8861C290.71 62.1894 289.81 59.613 288.746 57.4046C288.099 56.0506 288.112 54.3286 287.909 52.7512C287.542 49.7673 286.477 46.8491 287.174 43.7337C287.352 42.9581 287.01 42.0643 286.908 41.223V39.5799C287.212 38.9358 287.694 38.3048 287.783 37.6344C287.935 36.4513 287.96 35.2157 287.808 34.0195C287.694 33.1125 287.225 32.2449 286.908 31.3642C286.908 30.168 286.921 28.9586 286.921 27.7624C286.921 25.1203 284.919 23.3983 282.334 23.9241C277.658 24.8837 273.008 26.001 268.319 26.8686C264.72 27.539 261.071 28.2357 257.434 28.354C245.713 28.7352 233.979 28.9849 222.245 28.9849C217.494 28.9849 212.704 28.4854 208.003 27.7493C201.489 26.7371 195.014 25.3306 188.552 23.9898C186.22 23.5034 184.408 24.0424 183.078 26.1193C182.444 26.4216 181.823 26.724 181.19 27.0263C181.544 27.4732 181.861 27.9727 182.267 28.3671C182.406 28.5117 182.761 28.4197 183.014 28.4328C183.027 29.1952 183.052 29.9445 183.065 30.7069C181.798 30.8121 180.543 30.9304 179.276 31.0356H179.251Z" fill="#732B01"/>
<path d="M76.4219 27.7493C76.4979 25.7644 76.7767 25.3174 78.538 25.462C80.8822 25.6592 83.2265 25.9747 85.5074 26.5399C93.9466 28.6037 102.525 29.5764 111.167 29.7868C120.696 30.0102 130.238 30.1285 139.767 30.0628C150.284 29.9839 160.662 28.5117 170.863 25.8432C172.383 25.4489 173.98 25.2386 175.539 25.1728C177.769 25.0677 178.504 25.909 178.39 28.2093C178.352 28.9586 178.187 29.7079 178.073 30.4703C177.845 29.8525 177.617 29.2347 177.338 28.4722C177.046 28.722 176.666 28.906 176.54 29.1952C175.234 32.1529 173.879 35.1105 172.7 38.1207C171.344 41.5648 170.635 45.1534 170.305 48.8866C169.773 54.7361 170.052 60.52 170.875 66.3038C171.268 69.038 171.724 71.7722 171.914 74.5195C172.079 76.8199 170.787 78.187 168.544 77.9898C163.336 77.5297 158.141 76.8593 152.92 76.3335C148.282 75.8734 143.644 75.1899 138.994 75.1373C127.792 75.019 116.578 74.6904 105.414 76.0574C101.575 76.5307 97.7354 77.0828 93.9086 77.5954C91.1589 77.9635 88.4091 78.4499 85.6594 78.6339C83.708 78.7653 82.2128 76.8856 82.3902 74.8612C82.4662 73.9411 82.5676 73.0209 82.7576 72.1139C84.1895 65.3048 85.0639 58.4299 84.5823 51.4499C84.4176 49.0706 84.2022 46.6782 83.708 44.3515C82.5169 38.7254 80.0586 33.5857 77.6383 28.4591C77.4736 28.1042 76.84 27.999 76.4345 27.7756L76.4219 27.7493Z" fill="#FBF3E6"/>
<path d="M184.218 27.5389C184.344 25.7643 184.864 25.0414 186.537 25.2385C189.451 25.5803 192.366 26.1193 195.242 26.7897C202.934 28.5774 210.701 29.7473 218.57 29.8393C230.165 29.9708 241.772 30.0102 253.366 29.7999C261.615 29.6553 269.713 28.0779 277.721 26.0272C279.406 25.5935 281.142 25.3043 282.866 25.1728C285.172 24.9888 285.856 25.7775 285.881 28.2093C285.387 28.4591 284.652 28.5905 284.437 28.998C283.22 31.4036 282.105 33.8749 281.016 36.3461C278.747 41.4596 277.62 46.8622 277.404 52.4489C277.151 59.2317 278.101 65.8963 279.356 72.5214C279.533 73.4679 279.622 74.4669 279.584 75.4396C279.533 77.017 277.873 78.7653 276.517 78.6207C274.591 78.4236 272.678 78.1212 270.764 77.832C266.671 77.2273 262.604 76.4912 258.498 76.0574C254.697 75.6499 250.857 75.4922 247.03 75.3739C241.48 75.1899 235.93 75.0058 230.38 75.0716C224.969 75.1241 219.571 75.387 214.173 75.7288C210.727 75.9523 207.305 76.4912 203.884 76.8593C200.247 77.2536 196.598 77.6611 192.948 77.9635C191.491 78.0818 190.148 76.8461 190.034 75.3739C189.958 74.296 189.971 73.1787 190.161 72.1139C191.415 65.1076 192.619 58.075 192.175 50.9109C191.935 47.0068 191.542 43.0764 189.933 39.4747C188.121 35.4391 186.98 31.0618 184.205 27.5389H184.218Z" fill="#FBF3E6"/>
<path d="M309.603 90.7536C311.972 93.4221 314.633 95.8671 316.648 98.7984C319.487 102.913 321.831 107.382 322.92 112.43C322.312 111.996 321.717 111.575 321.108 111.142L321.096 111.115C321.197 108.644 320.209 106.725 318.511 105.003C313.734 100.179 307.854 97.5759 301.594 95.683C295.626 93.8822 289.531 92.9357 283.347 92.4099C277.29 91.8973 271.246 91.2137 265.176 90.8325C259.297 90.4513 253.417 90.3199 247.525 90.149C241.949 89.9912 236.374 89.8466 230.786 89.8203C218.178 89.7678 205.57 89.7678 192.961 89.8203C171.027 89.8992 149.093 90.0044 127.171 90.149C121.38 90.1884 115.589 90.3461 109.798 90.4644C105.11 90.5565 100.434 90.6616 95.7581 90.8062C93.7687 90.8719 91.7666 90.9771 89.7898 91.1743C85.773 91.5555 81.7688 91.9761 77.7519 92.4494C74.0138 92.8963 70.187 93.0672 66.5629 94.0005C61.545 95.2887 56.5778 96.9581 51.7499 98.8773C47.5303 100.56 44.0457 103.518 41.2579 107.277C40.599 108.171 40.485 108.894 41.524 109.512C40.5863 110.944 39.6486 112.377 38.6983 113.823C38.6476 113.297 38.4322 112.719 38.5589 112.246C40.3456 105.542 43.6275 99.6791 48.1259 94.5789C49.5958 92.9226 51.4205 91.5949 53.0804 90.1227C58.4405 86.8364 64.1807 84.6017 70.3644 83.7342C72.9621 83.3661 75.5977 83.3135 78.2207 83.1295C78.8923 82.9718 79.5639 82.814 80.2355 82.6694C80.4129 82.63 80.5776 82.6037 80.755 82.5643C81.3759 82.5643 82.0095 82.6037 82.6304 82.5643C86.5586 82.3671 90.4741 82.1436 94.4023 81.9333C94.605 81.9333 94.8204 81.9333 95.0232 81.9201C98.2924 81.815 101.574 81.7098 104.844 81.6178C105.376 81.6047 105.895 81.5915 106.428 81.5784C111.712 81.4864 116.983 81.3943 122.267 81.3023C123.116 81.2892 123.952 81.2629 124.801 81.2497C125.587 81.1972 126.373 81.092 127.158 81.092C141.16 81.092 155.15 81.092 169.152 81.092C170.938 81.092 172.712 81.0131 174.499 80.9737C178.617 80.9868 182.723 81.0131 186.841 81.0263C187.348 81.092 187.867 81.2103 188.374 81.2103C205.468 81.2366 222.549 81.2497 239.643 81.2629C240.112 81.2629 240.581 81.1709 241.05 81.1183C243.457 81.1446 245.865 81.1577 248.285 81.184C251.871 81.276 255.457 81.368 259.043 81.4732C259.512 81.4469 259.981 81.4206 260.45 81.3943C262.11 81.5521 263.757 81.7624 265.43 81.8544C271.208 82.1962 276.986 82.4854 282.764 82.8009C282.929 82.814 283.094 82.8403 283.271 82.8534C283.537 82.8666 283.803 82.8929 284.057 82.906C291.368 83.3924 298.49 84.6543 305.079 88.1772C306.612 89.0053 308.107 89.8861 309.628 90.7536H309.603Z" fill="#FBF3E6"/>
<path d="M295.424 8.05794C294.815 7.95277 294.195 7.74245 293.586 7.74245C227.707 7.72931 161.815 7.72931 95.9359 7.74245C95.3277 7.74245 94.7068 7.93963 94.0986 8.05794C90.5252 7.95277 86.9645 7.78189 83.3911 7.7556C77.4862 7.70302 71.5939 7.74245 65.689 7.74245C62.0269 7.74245 59.594 10.2663 59.594 14.0521C59.594 33.073 59.594 52.0808 59.594 71.1017C57.1357 71.1017 55.0449 72.0613 53.2329 73.7571C53.1442 53.4873 53.0428 33.2176 52.9668 12.9479C52.9668 11.6465 53.1569 10.3452 53.2709 9.04382C54.6648 9.13583 54.9689 7.91334 55.4377 7.00633C56.3754 5.16602 57.8707 4.15385 59.7714 3.83836C61.1653 3.60175 62.5972 3.52288 64.0037 3.52288C69.6805 3.49659 75.3574 3.48345 81.0342 3.52288C84.6456 3.54917 88.257 3.77264 91.8557 3.77264C133.14 3.78578 174.423 3.79893 215.707 3.77264C220.814 3.77264 225.92 3.56232 231.027 3.50974C232.332 3.49659 233.65 3.78578 234.955 3.75949C238.719 3.72006 242.495 3.54917 246.258 3.49659C249.249 3.45716 252.239 3.49659 255.242 3.49659C265.848 3.49659 276.454 3.49659 287.048 3.49659C288.087 3.49659 289.139 3.7332 290.178 3.74635C293.903 3.79893 297.629 3.69377 301.341 3.85151C303.609 3.94352 305.7 4.75852 306.689 7.16407C307.094 8.14995 307.36 9.22785 307.449 10.2926C307.538 11.3705 308.032 11.4362 308.817 11.2259C308.894 11.5808 308.957 11.9489 309.033 12.3038C309.033 27.3549 309.033 42.3929 309.008 57.444C309.008 60.2308 308.957 63.0175 308.932 65.8043C308.146 65.9357 307.829 65.6597 307.74 64.779C307.652 63.8062 307.043 63.6222 306.321 64.2663C305.916 64.6212 305.561 65.0156 305.206 65.4099C304.281 66.4484 303.293 66.869 302.114 65.8306C302.114 65.5545 302.114 65.2785 302.114 65.0156C302.114 48.1241 302.114 31.2327 302.102 14.3281C302.102 11.8569 301.519 9.55647 299.136 8.49172C298.047 8.00535 296.691 8.17624 295.462 8.04479L295.424 8.05794Z" fill="#843201"/>
<path d="M76.4228 27.7493C76.8409 27.9727 77.4618 28.091 77.6266 28.4328C80.0468 33.5725 82.4924 38.7123 83.6962 44.3252C84.1904 46.6387 84.4058 49.0443 84.5706 51.4236C85.0521 58.4036 84.1778 65.2785 82.7459 72.0876C82.5558 72.9815 82.4671 73.9148 82.3784 74.8349C82.201 76.8461 83.6962 78.739 85.6476 78.6076C88.41 78.4104 91.1471 77.9372 93.8968 77.5691C97.7363 77.0565 101.563 76.5044 105.403 76.0311C116.566 74.6509 127.793 74.9795 138.982 75.111C143.633 75.1636 148.27 75.8471 152.908 76.3072C158.116 76.833 163.311 77.5165 168.532 77.9635C170.775 78.1607 172.08 76.8067 171.903 74.4932C171.7 71.7459 171.256 69.0117 170.864 66.2775C170.04 60.4937 169.774 54.7098 170.293 48.8603C170.623 45.1402 171.332 41.5385 172.688 38.0944C173.867 35.0711 175.223 32.1266 176.528 29.1689C176.655 28.8797 177.035 28.7088 177.326 28.4459C177.605 29.1952 177.833 29.813 178.061 30.444C177.364 34.519 176.528 38.5808 175.996 42.6821C174.513 54.1972 175.045 65.6728 177.098 77.0828C177.263 77.9766 177.364 78.8705 177.504 79.8958C176.388 79.9484 175.463 80.001 174.526 80.0536C174.057 80.001 173.588 79.9221 173.119 79.9221C166.378 79.9221 159.624 79.8301 152.883 79.9221C131.975 80.2113 111.067 80.5268 90.1587 80.908C87.0162 80.9606 83.8863 81.4601 80.7564 81.7493H77.107C77.1704 80.8948 77.1451 80.0272 77.3098 79.2123C80.6171 62.9649 80.4143 46.7833 76.6002 30.6412C76.3848 29.7079 76.4481 28.7089 76.3848 27.7361L76.4228 27.7493Z" fill="#F8E4CF"/>
<path d="M184.218 27.539C186.993 31.075 188.133 35.4523 189.945 39.4747C191.567 43.0896 191.96 47.02 192.188 50.9109C192.632 58.075 191.428 65.1076 190.173 72.1139C189.983 73.1787 189.971 74.296 190.047 75.3739C190.148 76.8462 191.491 78.0818 192.961 77.9635C196.611 77.6612 200.247 77.2537 203.897 76.8593C207.331 76.4913 210.752 75.9392 214.186 75.7288C219.584 75.3871 224.995 75.1242 230.393 75.0716C235.943 75.019 241.493 75.203 247.043 75.3739C250.87 75.5054 254.697 75.6631 258.511 76.0575C262.616 76.4912 266.697 77.2405 270.777 77.832C272.69 78.1081 274.604 78.4236 276.53 78.6208C277.873 78.7522 279.546 77.0171 279.596 75.4396C279.622 74.4669 279.546 73.481 279.368 72.5214C278.126 65.8832 277.176 59.2186 277.417 52.4489C277.62 46.8491 278.76 41.4465 281.028 36.3462C282.131 33.8749 283.246 31.4036 284.449 28.9981C284.652 28.5906 285.4 28.4591 285.894 28.2094C285.374 31.2722 284.893 34.335 284.31 37.3846C282.257 48.111 282.029 58.89 283.347 69.7084C283.74 72.9552 284.411 76.1758 284.83 79.4226C284.931 80.2507 284.538 81.1315 284.373 81.999C284.082 81.8939 283.803 81.7361 283.499 81.7099C279.102 81.3812 274.692 81 270.295 80.7634C266.95 80.5925 263.592 80.632 260.234 80.5662C257.928 80.4874 255.634 80.4085 253.328 80.3296C252.72 80.2376 252.099 80.0799 251.491 80.0799C237.831 80.001 224.171 79.9484 210.511 79.8827C204.556 79.8564 198.6 79.7775 192.644 79.7907C190.756 79.7907 188.868 79.9878 186.98 80.093C186.309 80.0404 185.637 79.9747 184.763 79.8958C185.193 77.3457 185.662 74.9533 185.979 72.5477C187.715 59.4026 187.588 46.3101 184.801 33.2965C184.395 31.4168 184.395 29.445 184.205 27.5258L184.218 27.539Z" fill="#F8E4CF"/>
<path d="M308.806 11.2259C308.02 11.4231 307.539 11.3573 307.437 10.2926C307.349 9.22784 307.083 8.1368 306.677 7.16406C305.689 4.75851 303.598 3.94352 301.33 3.8515C297.617 3.69376 293.892 3.79892 290.166 3.74634C289.114 3.7332 288.075 3.49659 287.036 3.49659C276.43 3.48344 265.824 3.49659 255.231 3.49659C252.24 3.49659 249.25 3.45715 246.247 3.49659C242.483 3.54917 238.707 3.70691 234.944 3.75949C233.638 3.77263 232.321 3.49659 231.015 3.50973C225.909 3.56231 220.802 3.77263 215.696 3.77263C174.412 3.79892 133.128 3.78578 91.8442 3.77263C88.2328 3.77263 84.6214 3.54917 81.0227 3.52288C75.3458 3.47029 69.669 3.48344 63.9922 3.52288C62.5729 3.52288 61.1411 3.60175 59.7599 3.83836C57.8718 4.16698 56.3639 5.16601 55.4262 7.00632C54.9574 7.91333 54.6532 9.13583 53.2594 9.04381C52.9806 5.16601 57.1369 1.43281 61.3945 1.4591C72.7355 1.51168 84.0765 1.4591 95.4175 1.4591C163.413 1.4591 231.408 1.47224 299.404 1.39337C303.028 1.39337 307.551 3.87779 308.641 7.76874C308.743 8.75462 308.857 9.75364 308.958 10.7395C308.907 10.8973 308.857 11.0682 308.806 11.2259Z" fill="#C35805"/>
<path d="M59.5808 71.1018C59.5808 52.0808 59.5808 33.073 59.5808 14.0521C59.5808 10.2663 62.0264 7.74247 65.6758 7.74247C71.5807 7.74247 77.473 7.70303 83.3779 7.75561C86.9513 7.7819 90.512 7.95279 94.0853 8.05795C93.6292 8.28142 93.173 8.67577 92.7041 8.68891C90.3852 8.75464 88.0664 8.68891 85.7475 8.72835C79.0949 8.82036 72.4297 8.91238 65.7772 9.07012C62.66 9.13585 61.2788 10.6475 60.8986 13.9207C60.5565 16.8652 60.5438 19.8622 60.5565 22.8462C60.6072 31.8243 60.7339 40.8155 60.8606 49.7936C60.9113 53.093 61.1014 56.3924 61.1394 59.705C61.152 61.335 60.8986 62.9518 60.8733 64.5818C60.8733 65.2916 61.1647 66.0015 61.2914 66.5667C63.0148 66.4615 64.472 66.2775 65.9165 66.3432C66.3474 66.3564 66.7022 67.1451 67.171 67.4606C67.6018 67.7366 68.2101 68.1047 68.5902 67.9732C69.5913 67.6315 70.605 67.1714 71.454 66.5141C72.0622 66.0541 72.4804 65.2653 72.8479 64.5424C74.4065 61.4533 74.2291 58.0093 74.5332 54.6967C74.8626 51.2001 74.8119 47.6641 74.7866 44.1412C74.7613 40.1582 74.5332 36.1884 74.4825 32.2055C74.4825 31.706 75.0654 31.2064 75.3822 30.7201C76.1171 34.3613 76.9661 37.9893 77.549 41.6699C77.9672 44.2858 78.0559 46.9543 78.2206 49.6096C78.3726 52.002 78.6514 54.4075 78.4994 56.7736C78.0939 62.9387 77.4983 69.1037 76.9027 75.2556C76.7253 77.1354 76.3452 78.9888 75.9651 80.8291C75.8764 81.2366 75.3948 81.8544 75.0654 81.8807C69.3252 82.1305 64.0031 84.1943 58.5924 85.89C58.5924 84.7858 58.1996 83.3924 58.7064 82.6431C59.5174 81.4207 59.5428 80.2507 59.5428 78.9625C59.5428 76.3466 59.5428 73.7308 59.5428 71.1149L59.5808 71.1018Z" fill="#612400"/>
<path d="M295.424 8.05795C296.653 8.1894 298.022 8.01851 299.099 8.50488C301.481 9.56963 302.064 11.87 302.064 14.3413C302.076 31.2327 302.064 48.1242 302.076 65.0287C302.076 65.3048 302.076 65.5808 302.076 65.8437C302.076 69.5638 302.076 73.2839 302.076 77.0171C302.127 79.1729 301.658 81.3812 303.382 83.2347C304.205 84.1154 303.23 84.8647 302.697 85.5614C298.11 84.3783 293.713 82.3014 288.86 82.2488C286.681 82.2225 286.338 81.8413 285.984 79.5541C285.527 76.6621 284.983 73.7965 284.653 70.8914C284.248 67.3423 283.829 63.7668 283.766 60.1914C283.677 55.5643 283.728 50.9109 284.108 46.3101C284.412 42.6164 285.312 38.9752 285.946 35.3077C286.3 35.8204 286.858 36.2936 286.947 36.8588C287.099 37.7395 286.921 38.6728 286.896 39.593V41.2361C286.579 42.6952 286.022 44.1544 285.984 45.6135C285.87 50.556 285.794 55.5117 286.896 60.3885C287.149 61.4927 287.39 62.61 287.504 63.7274C287.897 67.4737 289.152 70.8914 291.204 73.9674C291.47 74.3749 292.37 74.6772 292.839 74.5195C295.069 73.8097 297.261 72.9947 299.428 72.0877C299.872 71.9036 300.34 71.2464 300.417 70.7337C300.733 68.6436 301.025 66.5404 301.101 64.4372C301.215 61.1904 301.126 57.9304 301.126 54.6836C301.126 51.7259 301.126 48.7814 301.126 45.8238C301.126 44.9431 301.126 44.0755 301.126 43.1948C301.126 42.6427 301.126 42.1037 301.126 41.5516C301.126 40.8944 301.126 40.2371 301.126 39.5799C301.126 39.0278 301.126 38.4888 301.126 37.9367C301.126 37.7133 301.126 37.5029 301.126 37.2795C301.126 35.8861 301.126 34.5059 301.126 33.1125C301.126 28.0648 301.139 23.0171 301.126 17.9693C301.126 16.4577 300.987 14.9328 300.898 13.4211C300.746 10.7921 298.947 9.7931 296.868 9.03068C296.349 8.84665 295.918 8.38657 295.437 8.0448L295.424 8.05795Z" fill="#612400"/>
<path d="M179.251 31.0355C180.518 30.9304 181.773 30.8121 183.04 30.7069C183.458 33.0073 183.876 35.3077 184.307 37.6081C183.344 37.5424 182.938 38.0682 183.052 39.0015C183.319 41.0127 183.521 43.0501 183.977 45.0219C184.117 45.6003 185.016 45.9946 185.561 46.481C185.764 50.3062 185.954 54.1314 186.157 57.9567C184.712 57.6938 183.901 58.2722 183.635 59.8101C183.509 60.5462 183.255 61.3218 182.824 61.9002C182.292 62.6363 181.532 63.1884 180.873 63.8194C180.227 62.9518 179.492 62.15 178.972 61.2166C178.744 60.8092 178.96 60.1519 178.921 59.6129C178.845 58.5876 178.833 57.5492 178.63 56.5633C178.187 54.4075 178.06 54.3549 176.121 54.6704C176.222 53.5794 176.311 52.4883 176.413 51.3973C176.869 51.4499 177.325 51.5156 177.857 51.5813C177.996 51.2395 178.225 50.9109 178.263 50.556C178.719 46.3233 179.188 42.1037 179.53 37.871C179.631 36.6353 179.948 35.2157 178.605 34.3218C178.605 34.1115 178.617 33.888 178.63 33.6777C179.01 33.4805 179.39 33.2965 179.77 33.0993C179.492 32.8496 179.226 32.5998 178.947 32.3632L179.251 31.0487V31.0355Z" fill="#612400"/>
<path d="M176.122 54.6704C178.06 54.3418 178.187 54.3944 178.631 56.5633C178.833 57.5623 178.859 58.6008 178.922 59.613C178.96 60.1519 178.745 60.8092 178.973 61.2167C179.505 62.15 180.227 62.965 180.873 63.8194C181.532 63.1884 182.293 62.6363 182.825 61.9002C183.243 61.3218 183.509 60.5331 183.636 59.8101C183.902 58.2722 184.726 57.6938 186.157 57.9567C185.815 63.5959 185.727 69.2483 184.181 74.7429C183.762 76.2283 183.813 77.8452 183.623 79.6066C182.28 79.6066 181.013 79.7249 179.796 79.5409C179.34 79.4752 178.719 78.7785 178.605 78.2658C178.098 75.9391 177.642 73.5993 177.363 71.2332C176.882 67.0268 176.502 62.8072 176.147 58.6008C176.033 57.2994 176.122 55.9849 176.109 54.6704H176.122Z" fill="#5B2301"/>
<path d="M80.7939 81.7624C83.9237 81.4732 87.0536 80.9737 90.1961 80.9211C111.104 80.5399 132.012 80.2113 152.92 79.9352C159.661 79.8432 166.403 79.9221 173.157 79.9352C173.625 79.9352 174.094 80.0273 174.563 80.0667C174.538 80.369 174.525 80.6714 174.5 80.9737C172.713 81.0131 170.939 81.092 169.152 81.092C155.15 81.092 141.161 81.092 127.159 81.092C126.373 81.092 125.588 81.1972 124.802 81.2498C123.953 81.2629 123.117 81.2892 122.268 81.3023C116.984 81.3943 111.712 81.4864 106.428 81.5784C105.896 81.5915 105.377 81.6047 104.844 81.6178C101.575 81.723 98.2932 81.8281 95.024 81.9201C94.8212 81.9201 94.6058 81.9202 94.4031 81.9333C90.4749 82.1436 86.5594 82.3671 82.6312 82.5643C82.0103 82.5905 81.3894 82.5643 80.7559 82.5643C80.7559 82.2882 80.7685 82.0122 80.7812 81.7361L80.7939 81.7624Z" fill="#9C6F50"/>
<path d="M59.5823 71.1018C59.5823 73.7176 59.5823 76.3335 59.5823 78.9494C59.5823 80.2376 59.5569 81.4207 58.746 82.63C58.2391 83.3793 58.6446 84.7727 58.6319 85.8768C56.9719 86.6655 55.3247 87.4543 53.5887 88.2824C53.4239 87.9406 53.2719 87.7697 53.2719 87.5857C53.1452 83.5633 53.0311 79.5409 52.9551 75.5054C52.9551 74.927 53.1325 74.3355 53.2212 73.7439C55.0205 72.0482 57.124 71.1018 59.5823 71.0886V71.1018Z" fill="#6B2A01"/>
<path d="M186.98 80.1061C188.868 80.001 190.756 79.8038 192.644 79.8038C198.6 79.8038 204.556 79.8695 210.511 79.8958C224.171 79.9615 237.831 80.0141 251.491 80.093C252.099 80.093 252.72 80.2639 253.328 80.3428C252.834 80.4348 252.327 80.6057 251.833 80.6057C248.678 80.6319 245.535 80.6057 242.38 80.6451C241.937 80.6451 241.493 80.9474 241.037 81.1183C240.568 81.1709 240.099 81.2629 239.63 81.2629C222.536 81.2629 205.455 81.2366 188.361 81.2103C187.855 81.2103 187.335 81.092 186.828 81.0263C186.879 80.724 186.929 80.4085 186.98 80.1061Z" fill="#9C6F50"/>
<path d="M302.698 85.5482C303.23 84.8515 304.206 84.1022 303.382 83.2215C301.659 81.3681 302.127 79.1597 302.077 77.0039C304.13 77.4508 305.929 76.4124 306.879 74.5326C307.209 73.8885 308.083 73.5467 308.717 73.0735C308.818 75.3739 308.919 77.6743 309.021 79.9747C308.881 82.7746 308.729 85.5745 308.565 88.7819C306.448 87.612 304.573 86.5867 302.698 85.5482Z" fill="#6B2A01"/>
<path d="M309.021 79.9747C308.92 77.6743 308.818 75.3739 308.717 73.0735C308.78 70.6548 308.856 68.2361 308.92 65.8174C308.945 63.0307 308.996 60.2439 308.996 57.4572C309.008 42.4061 309.008 27.3681 309.021 12.317C309.135 12.8822 309.35 13.4343 309.35 13.9995C309.376 19.3364 309.35 24.6602 309.376 29.9971C309.376 30.5755 309.553 31.1407 309.642 31.706C309.642 32.5867 309.642 33.4542 309.642 34.335C309.642 35.0974 309.642 35.8729 309.642 36.6354C309.642 39.8033 309.642 42.9844 309.642 46.1524C309.642 46.8097 309.642 47.4669 309.642 48.1242C309.616 58.7322 309.604 69.3403 309.578 79.9484C309.388 79.9484 309.211 79.9747 309.021 79.9747Z" fill="#3E1B03"/>
<path d="M260.222 80.5793C263.58 80.6319 266.938 80.6056 270.283 80.7765C274.693 81 279.09 81.3812 283.487 81.723C283.778 81.7493 284.069 81.907 284.361 82.0122C283.816 82.2751 283.284 82.538 282.739 82.814C276.961 82.4985 271.183 82.1962 265.404 81.8676C263.744 81.7755 262.084 81.5652 260.424 81.4075C260.348 81.1446 260.285 80.8685 260.209 80.6056L260.222 80.5793Z" fill="#9C6F50"/>
<path d="M178.604 34.3218C179.935 35.2157 179.631 36.6353 179.529 37.871C179.174 42.1037 178.706 46.3364 178.262 50.556C178.224 50.9109 177.996 51.2395 177.857 51.5813C177.337 51.5156 176.868 51.4498 176.412 51.3973C177.147 45.7054 177.882 40.0136 178.617 34.3218H178.604Z" fill="#5B2301"/>
<path d="M185.561 46.481C185.016 45.9946 184.116 45.6134 183.977 45.0219C183.521 43.0501 183.305 41.0127 183.052 39.0015C182.938 38.0682 183.343 37.5555 184.306 37.6081C184.725 40.5657 185.143 43.5234 185.574 46.481H185.561Z" fill="#5B2301"/>
<path d="M286.884 39.5798C286.922 38.6728 287.087 37.7264 286.935 36.8457C286.846 36.2936 286.276 35.8072 285.934 35.2945C285.934 35.0842 285.946 34.8608 285.959 34.6504C287.454 34.2429 287.619 33.6645 286.58 32.3369C286.681 32.0083 286.783 31.6796 286.884 31.351C287.201 32.2317 287.657 33.0993 287.784 34.0063C287.936 35.1894 287.91 36.425 287.758 37.6212C287.67 38.3048 287.188 38.9226 286.884 39.5667V39.5798Z" fill="#6B2A01"/>
<path d="M182.989 28.4328C182.735 28.4197 182.381 28.4986 182.241 28.3671C181.836 27.9727 181.519 27.4864 181.164 27.0263C181.798 26.724 182.419 26.4216 183.052 26.1193C183.027 26.8949 183.014 27.6573 182.989 28.4328Z" fill="#612400"/>
<path d="M286.58 32.35C287.619 33.6777 287.467 34.2561 285.959 34.6636C286.162 33.888 286.364 33.1256 286.58 32.35Z" fill="#612400"/>
<path d="M308.957 10.7395C308.856 9.75365 308.742 8.75462 308.641 7.76874C308.869 7.78188 309.084 7.79503 309.312 7.80817C309.198 8.78091 309.071 9.75365 308.957 10.7264V10.7395Z" fill="#3E1B03"/>
<path d="M178.948 32.3501C179.226 32.5998 179.493 32.8496 179.771 33.0862C179.391 33.2834 179.011 33.4674 178.631 33.6646C178.732 33.2176 178.846 32.7838 178.948 32.3369V32.3501Z" fill="#5B2301"/>
<path d="M80.2491 82.6826C79.5776 82.8403 78.906 82.998 78.2344 83.1426C78.906 82.9849 79.5776 82.8272 80.2491 82.6826Z" fill="#9C6F50"/>
<path d="M284.032 82.906C283.766 82.8929 283.5 82.8666 283.246 82.8535C283.512 82.8666 283.778 82.8929 284.032 82.906Z" fill="#9C6F50"/>
<path d="M1.73633 210.295C1.85037 207.535 1.86304 204.761 2.12915 202.014C2.30655 200.16 2.83875 198.359 3.20622 196.519C5.37305 187.16 7.89469 177.879 11.8862 169.177C16.9548 158.135 22.3275 147.238 27.7383 136.38C31.0202 129.781 34.5809 123.34 38.1163 116.886C39.3201 114.678 40.8153 112.64 42.1712 110.524C42.2852 110.314 42.4119 110.09 42.526 109.88C42.716 109.407 42.8934 108.92 43.0835 108.447V108.513C43.8565 107.816 44.6294 107.132 45.4024 106.436L45.3517 106.423C45.4911 106.383 45.6178 106.344 45.7572 106.317C46.2134 106.16 46.6695 106.002 47.113 105.844C47.7846 105.332 48.4689 104.806 49.1405 104.293C49.2038 104.24 49.2799 104.214 49.3559 104.227C49.5967 104.043 49.8501 103.846 50.0909 103.662C50.4583 103.518 50.8258 103.36 51.206 103.215C51.6875 102.926 52.1563 102.637 52.6378 102.348C52.9546 102.229 53.2587 102.111 53.5755 102.006C54.2218 101.835 54.906 101.717 55.5269 101.467C57.0095 100.862 58.4667 100.192 59.924 99.5477C60.1394 99.5083 60.3421 99.4688 60.5575 99.4294C61.5079 99.1402 62.4583 98.851 63.396 98.5487C63.7127 98.5092 64.0295 98.4567 64.3336 98.4172C64.7645 98.3384 65.1826 98.2595 65.6135 98.1675C65.8162 98.1412 66.019 98.1149 66.2217 98.1017C66.3611 98.1806 66.5005 98.3384 66.6272 98.3252C71.9746 97.6943 77.322 96.9581 82.682 96.4455C87.6366 95.9722 92.6165 95.6568 97.5964 95.4464C104.743 95.1441 111.89 94.7892 119.037 94.7892C160.105 94.8286 201.186 94.9601 242.254 95.0915C245.41 95.0915 248.552 95.2887 251.707 95.407C260.007 95.7356 268.294 96.038 276.594 96.406C279.471 96.5375 282.36 96.7215 285.211 97.129C289.697 97.76 294.195 98.4567 298.617 99.4162C301.519 100.047 304.332 101.151 307.145 102.177C309.008 102.847 310.782 103.767 312.607 104.569C312.683 104.569 312.759 104.595 312.822 104.648C313.139 104.858 313.443 105.069 313.76 105.279C314.267 105.647 314.812 105.989 315.28 106.396C316.573 107.54 317.84 108.71 319.12 109.867C319.095 109.972 319.12 110.077 319.183 110.169C319.272 110.3 319.373 110.432 319.462 110.55C323.073 116.807 326.938 122.933 330.22 129.374C336.873 142.414 343.449 155.506 349.62 168.809C354.017 178.287 356.792 188.422 358.972 198.688C359.491 201.133 359.834 203.617 360.264 206.075C360.277 206.299 360.302 206.509 360.315 206.733C360.315 207.377 360.315 208.034 360.315 208.678C359.897 208.941 359.251 209.112 359.086 209.506C357.388 213.41 355.272 214.751 351.344 213.305C348.011 212.07 345.008 209.927 341.777 208.389C338.507 206.825 335.225 204.958 331.766 204.235C327.382 203.328 322.807 203.184 318.309 203.17C293.878 203.078 269.448 203.17 245.017 203.118C202.377 203.039 159.738 202.907 117.098 202.815C113.436 202.815 109.786 203.092 106.124 203.105C102.817 203.105 99.4971 202.829 96.1898 202.842C92.5151 202.842 88.8277 203.092 85.1529 203.118C68.8067 203.249 52.4731 203.368 36.1268 203.446C31.6791 203.473 27.4849 204.511 23.5313 206.562C19.5398 208.639 15.7003 211.057 11.6074 212.885C7.85667 214.567 6.57685 214.751 3.58637 211.163C3.19355 210.689 2.3699 210.597 1.73633 210.321V210.295Z" fill="#FFB94D"/>
<path d="M327.078 227.042C289.405 227.042 251.733 227.055 214.06 227.055C155.86 227.055 97.6725 227.055 39.4722 227.055C37.8376 227.055 36.2029 227.055 34.5683 227.042C34.5683 223.545 34.5937 220.036 34.543 216.539C34.543 215.527 34.8978 215.014 35.8608 214.909C38.7246 214.593 41.5757 214.094 44.4394 213.963C49.5841 213.726 54.7414 213.673 59.8987 213.621C61.2038 213.608 62.509 213.923 63.8142 213.91C66.3612 213.87 68.9081 213.66 71.4551 213.621C78.7412 213.502 86.04 213.384 93.3262 213.345C96.8235 213.332 100.308 213.502 103.805 213.608C107.354 213.713 110.902 213.936 114.437 213.897C116.895 213.87 119.341 213.345 121.786 213.318C127.489 213.24 133.203 213.095 138.893 213.384C143.024 213.594 147.117 213.542 151.248 213.358C157.064 213.082 162.893 213.253 168.722 213.305C171.953 213.332 175.184 213.594 178.403 213.594C181.824 213.594 185.245 213.397 188.667 213.279C189.541 213.253 190.403 213.213 191.277 213.24C194.85 213.345 198.424 213.516 201.997 213.581C204.76 213.634 207.535 213.568 210.297 213.608C211.754 213.634 213.199 213.884 214.643 213.87C220.358 213.818 226.06 213.647 231.775 213.647C236.514 213.647 241.253 213.897 245.993 213.897C248.438 213.897 250.871 213.568 253.317 213.516C258.284 213.397 263.264 213.292 268.231 213.305C271.906 213.305 275.593 213.568 279.268 213.594C281.6 213.608 283.944 213.266 286.275 213.332C289.975 213.424 293.676 213.831 297.376 213.91C300.024 213.976 302.672 213.621 305.321 213.634C309.071 213.647 312.835 213.739 316.586 213.963C319.614 214.147 322.63 214.515 325.62 215.014C326.279 215.119 327.268 216.145 327.28 216.762C327.344 220.193 327.141 223.624 327.04 227.055L327.078 227.042Z" fill="#6B2A01"/>
<path d="M327.077 227.042C327.191 223.611 327.381 220.18 327.318 216.749C327.318 216.131 326.304 215.119 325.658 215.001C322.667 214.501 319.639 214.133 316.623 213.949C312.872 213.713 309.109 213.634 305.358 213.621C302.71 213.621 300.061 213.949 297.413 213.897C293.713 213.818 290.013 213.41 286.313 213.318C283.981 213.253 281.65 213.594 279.305 213.581C275.631 213.555 271.943 213.305 268.269 213.292C263.301 213.292 258.321 213.384 253.354 213.502C250.909 213.568 248.476 213.897 246.03 213.884C241.291 213.884 236.552 213.634 231.813 213.634C226.098 213.634 220.396 213.818 214.681 213.857C213.236 213.857 211.779 213.621 210.334 213.594C207.572 213.555 204.797 213.621 202.035 213.568C198.461 213.489 194.888 213.332 191.314 213.226C190.44 213.2 189.578 213.24 188.704 213.266C185.283 213.371 181.861 213.568 178.44 213.581C175.209 213.581 171.978 213.318 168.759 213.292C162.93 213.24 157.101 213.069 151.285 213.345C147.154 213.542 143.061 213.594 138.93 213.371C133.241 213.082 127.526 213.213 121.824 213.305C119.366 213.345 116.92 213.857 114.474 213.884C110.926 213.923 107.378 213.7 103.843 213.594C100.346 213.489 96.8609 213.318 93.3636 213.332C86.0775 213.358 78.7787 213.476 71.4925 213.608C68.9456 213.647 66.3986 213.871 63.8516 213.897C62.5464 213.91 61.2413 213.594 59.9361 213.608C54.7788 213.673 49.6215 213.713 44.4769 213.949C41.6131 214.081 38.762 214.58 35.8982 214.896C34.9225 215.001 34.5677 215.5 34.5804 216.526C34.6184 220.022 34.5931 223.532 34.6057 227.029C34.6057 227.239 34.5931 227.449 34.5804 227.673C34.2763 227.673 33.9595 227.699 33.6554 227.712C33.554 224.229 33.44 220.759 33.3386 217.275C33.2879 215.685 32.3882 215.027 30.969 215.698C26.8508 217.669 22.7072 219.575 19.0705 222.52C17.93 223.44 16.3714 223.808 15.0029 224.426C15.0029 221.915 15.0029 219.391 14.9902 216.881C18.1835 215.369 21.4907 214.068 24.5319 212.28C28.2193 210.111 32.1475 209.125 36.253 209.033C47.6321 208.81 59.0111 208.665 70.4028 208.678C98.7743 208.718 127.146 208.954 155.517 208.954C178.085 208.954 200.653 208.678 223.221 208.678C246.79 208.678 270.359 208.889 293.928 208.981C304.42 209.02 314.925 208.981 325.43 208.981C326.051 208.981 326.659 208.981 327.204 208.981C327.47 209.98 327.685 210.768 327.926 211.636C331.157 209.388 334.579 209.717 337.214 212.346C337.632 212.766 338.013 213.226 338.456 213.608C338.722 213.831 339.052 214.015 339.381 214.094C340.42 214.357 341.472 214.528 342.498 214.817C343.195 215.001 343.88 215.303 344.564 215.553C344.868 215.671 345.185 215.777 345.489 215.895C346.021 216.223 346.541 216.552 347.073 216.881C346.971 217.959 346.87 219.05 346.769 220.128C346.769 220.351 346.769 220.574 346.769 220.798C346.769 221.56 346.769 222.336 346.769 223.098C344.754 223.335 342.917 222.77 341.219 221.679C339.977 220.877 338.786 219.957 337.506 219.234C335.136 217.893 332.729 216.605 330.283 215.395C329.155 214.83 328.686 215.382 328.712 216.67C328.775 219.562 328.75 222.454 328.712 225.346C328.712 225.911 328.522 226.477 328.408 227.042C327.977 227.042 327.559 227.029 327.128 227.016L327.077 227.042Z" fill="#5B2301"/>
<path d="M1.73633 210.295C2.35723 210.571 3.18088 210.663 3.58637 211.136C6.57685 214.725 7.844 214.528 11.6074 212.858C15.7003 211.031 19.5398 208.612 23.5313 206.536C27.4849 204.472 31.6918 203.433 36.1268 203.42C52.4731 203.328 68.8067 203.223 85.1529 203.092C88.8277 203.065 92.5151 202.815 96.1898 202.815C99.4971 202.815 102.817 203.092 106.124 203.078C109.786 203.078 113.436 202.789 117.098 202.789C159.738 202.868 202.377 203.013 245.017 203.092C269.448 203.131 293.878 203.052 318.309 203.144C322.807 203.157 327.382 203.302 331.766 204.209C335.238 204.932 338.507 206.798 341.777 208.363C345.008 209.901 348.011 212.056 351.344 213.279C355.272 214.725 357.388 213.397 359.086 209.48C359.251 209.086 359.897 208.928 360.315 208.652C360.264 211.386 359.618 213.923 357.933 216.053C356.488 217.88 354.6 218.629 352.332 217.945C350.735 217.459 349.139 216.946 347.542 216.447C346.871 216.079 346.199 215.698 345.527 215.33C345.287 215.198 345.046 215.054 344.805 214.922C343.386 214.094 341.979 213.266 340.56 212.438C336.898 210.308 333.033 208.704 328.915 207.955C326.444 207.508 323.872 207.521 321.35 207.521C274.618 207.495 227.872 207.521 181.14 207.508C134.293 207.508 87.4465 207.521 40.5999 207.443C34.2895 207.443 28.3212 208.468 22.7711 211.623C20.0213 213.187 17.3096 214.843 14.5853 216.447C13.4448 216.828 12.2917 217.209 11.1513 217.604C11.0119 217.656 10.8598 217.722 10.7204 217.775C10.3403 217.853 9.96015 217.945 9.58 218.024C4.91688 218.353 2.42059 215.882 1.749 210.295H1.73633Z" fill="#F4830A"/>
<path d="M41.5367 109.525C40.4976 108.894 40.6117 108.184 41.2706 107.29C44.0583 103.531 47.543 100.573 51.7626 98.8904C56.5905 96.9581 61.545 95.3018 66.5756 94.0136C70.2124 93.0803 74.0265 92.8963 77.7646 92.4625C81.7688 91.9893 85.7857 91.5686 89.8025 91.1874C91.792 91.0034 93.7814 90.8851 95.7708 90.8194C100.447 90.6748 105.135 90.5696 109.811 90.4776C115.602 90.3593 121.393 90.1884 127.184 90.1621C149.118 90.0306 171.04 89.9123 192.974 89.8335C205.582 89.794 218.19 89.794 230.799 89.8335C236.374 89.8598 241.962 90.0044 247.538 90.1621C253.417 90.333 259.309 90.4644 265.189 90.8456C271.259 91.2269 277.303 91.9104 283.36 92.4231C289.531 92.9489 295.639 93.8953 301.607 95.6962C307.879 97.5891 313.746 100.192 318.523 105.016C320.221 106.725 321.21 108.644 321.108 111.129C320.589 110.682 320.057 110.235 319.537 109.788C319.347 109.314 319.271 108.71 318.942 108.381C317.522 107.001 316.116 105.581 314.532 104.425C308.348 99.8632 301.227 97.7337 293.865 96.4849C288.277 95.5384 282.612 94.9601 276.986 94.3159C274.908 94.0793 272.805 94.1056 270.701 94.0136C269.345 93.9479 267.977 93.869 266.621 93.8033L265.658 93.7376C260.513 93.5141 255.381 93.2775 250.237 93.054C245.992 92.87 241.747 92.6991 237.502 92.5282C237.223 91.24 236.222 91.8052 235.563 91.8052C198.41 91.7789 161.245 91.7789 124.092 91.7789C123.674 91.7789 123.243 91.7264 122.837 91.8184C122.723 91.8447 122.698 92.2916 122.634 92.5414C122.33 92.5939 122.026 92.6991 121.722 92.7122C116.033 92.8831 110.33 92.9883 104.641 93.2118C100.168 93.3827 95.6948 93.685 91.2217 93.9347C90.9303 93.961 90.6515 93.9742 90.3601 94.0005C90.1066 94.0136 89.8405 94.0268 89.5871 94.0399C89.4224 94.053 89.2577 94.0793 89.0803 94.0925C87.9145 94.1845 86.7487 94.2634 85.5702 94.3554C85.0507 94.3554 84.5312 94.2897 84.0117 94.3554C80.5523 94.7234 77.093 95.0652 73.6337 95.499C66.6517 96.3797 59.733 97.6679 53.3085 100.757C50.4828 102.124 47.9232 104.096 45.2495 105.805C44.9707 106.055 44.6919 106.304 44.4131 106.554C43.9696 107.211 43.5261 107.869 43.0826 108.526V108.46C42.5631 108.815 42.0436 109.183 41.524 109.538L41.5367 109.525Z" fill="#F5DDC5"/>
<path d="M14.5732 216.447C17.2975 214.83 20.0093 213.187 22.759 211.623C28.3091 208.468 34.2901 207.429 40.5878 207.443C87.4344 207.521 134.281 207.508 181.128 207.508C227.86 207.508 274.605 207.508 321.338 207.521C323.86 207.521 326.432 207.521 328.903 207.955C333.021 208.704 336.899 210.321 340.548 212.438C341.967 213.266 343.374 214.094 344.793 214.922C344.692 215.146 344.578 215.356 344.476 215.579C343.792 215.33 343.12 215.027 342.411 214.843C341.384 214.567 340.333 214.396 339.294 214.12C338.964 214.041 338.622 213.857 338.369 213.634C337.925 213.253 337.545 212.793 337.127 212.372C334.491 209.73 331.07 209.401 327.839 211.662C327.598 210.795 327.395 210.006 327.116 209.007C326.584 209.007 325.963 209.007 325.342 209.007C314.838 209.007 304.345 209.033 293.841 209.007C270.272 208.915 246.703 208.718 223.134 208.705C200.566 208.705 177.998 208.994 155.43 208.981C127.058 208.981 98.6867 208.744 70.3152 208.705C58.9362 208.691 47.5445 208.823 36.1654 209.059C32.0599 209.138 28.1317 210.137 24.4443 212.306C21.4031 214.094 18.0959 215.395 14.9026 216.907C14.7759 216.762 14.6492 216.618 14.5352 216.473L14.5732 216.447Z" fill="#3E1B03"/>
<path d="M14.9648 224.439C16.3333 223.821 17.8919 223.453 19.0324 222.533C22.6564 219.589 26.8 217.683 30.9309 215.711C32.3501 215.027 33.2625 215.684 33.3005 217.288C33.4019 220.772 33.5032 224.242 33.6173 227.725C33.5286 228.462 33.2878 229.224 33.3765 229.947C33.8707 233.864 33.782 237.716 32.6669 241.515C28.8781 241.515 25.0893 241.554 21.3006 241.515C19.6279 241.488 17.9553 241.317 16.2826 241.186C15.0788 241.094 14.9395 240.213 14.9395 239.188C14.9648 234.272 14.9648 229.369 14.9648 224.452V224.439Z" fill="#612400"/>
<path d="M328.357 227.068C328.459 226.503 328.649 225.938 328.662 225.372C328.687 222.481 328.712 219.589 328.662 216.697C328.636 215.408 329.105 214.856 330.233 215.422C332.666 216.631 335.073 217.919 337.456 219.26C338.735 219.983 339.927 220.89 341.168 221.705C342.866 222.809 344.704 223.361 346.718 223.125C346.718 228.698 346.718 234.285 346.718 239.858C346.604 240.305 346.503 240.739 346.389 241.186C345.134 241.291 343.867 241.396 342.613 241.488C342.182 241.488 341.764 241.488 341.333 241.501C338.697 241.501 336.074 241.501 333.439 241.488C332.59 241.383 331.741 241.278 330.904 241.186C330.055 241.068 329.219 240.963 328.37 240.844H328.357C328.421 239.556 328.509 238.268 328.547 236.993C328.586 235.823 328.598 234.64 328.573 233.457C328.522 231.643 328.433 229.842 328.37 228.028V227.055L328.357 227.068Z" fill="#6B2A01"/>
<path d="M270.688 94.0136C272.779 94.1056 274.895 94.0793 276.973 94.316C282.612 94.9601 288.263 95.5253 293.852 96.4849C301.201 97.7337 308.323 99.8632 314.519 104.425C316.103 105.581 317.509 107.014 318.929 108.381C319.258 108.697 319.334 109.314 319.524 109.788C319.397 109.814 319.258 109.827 319.131 109.853C317.851 108.697 316.584 107.527 315.292 106.383C314.823 105.962 314.278 105.634 313.771 105.266C313.454 105.055 313.15 104.845 312.834 104.635C312.77 104.582 312.694 104.556 312.618 104.556C310.565 103.386 308.614 101.98 306.46 101.099C298.401 97.8388 289.923 96.5769 281.383 95.7619C276.884 95.3413 272.386 95.0126 267.875 94.6577C268.813 94.4474 269.763 94.2371 270.701 94.0136H270.688Z" fill="#843201"/>
<path d="M328.345 228.028C328.421 229.842 328.51 231.643 328.548 233.457C328.573 234.627 328.561 235.81 328.523 236.993C328.485 238.281 328.396 239.569 328.333 240.844C327.699 240.055 326.597 239.319 326.533 238.491C326.255 235.271 326.267 232.024 326.331 228.803C326.331 228.527 327.636 228.291 328.333 228.028H328.345Z" fill="#3E1B03"/>
<path d="M32.667 241.501C33.7821 237.703 33.8708 233.838 33.3766 229.934C33.2879 229.211 33.5286 228.448 33.6173 227.712C33.9214 227.712 34.2382 227.686 34.5424 227.673C34.8718 228.711 35.3913 229.737 35.4674 230.788C35.6194 232.852 35.3913 234.942 35.5434 236.993C35.7208 239.372 34.1749 240.384 32.6543 241.501H32.667Z" fill="#3E1B03"/>
<path d="M321.109 111.142C321.718 111.575 322.313 111.996 322.921 112.43C322.947 112.982 322.972 113.534 322.985 114.099C322.364 113.113 321.73 112.128 321.109 111.155V111.142Z" fill="#F5DDC5"/>
<path d="M345.526 215.343C346.198 215.711 346.869 216.092 347.541 216.46C347.364 216.605 347.186 216.762 346.996 216.907C346.464 216.578 345.944 216.25 345.412 215.921C345.45 215.724 345.488 215.54 345.514 215.343H345.526Z" fill="#3E1B03"/>
<path d="M330.892 241.186C331.741 241.291 332.59 241.396 333.426 241.488C332.577 241.488 331.728 241.488 330.879 241.501C330.879 241.396 330.879 241.291 330.879 241.173L330.892 241.186Z" fill="#3E1B03"/>
<path d="M330.891 241.186C330.891 241.291 330.891 241.396 330.891 241.515C329.991 241.541 328.825 242.658 328.369 240.857C329.218 240.976 330.054 241.081 330.903 241.199L330.891 241.186Z" fill="#5B2301"/>
<path d="M341.332 241.501C341.763 241.501 342.181 241.501 342.612 241.488C342.181 241.488 341.763 241.488 341.332 241.501Z" fill="#3E1B03"/>
<path d="M319.462 110.537C319.374 110.406 319.272 110.274 319.184 110.156C319.272 110.287 319.374 110.419 319.462 110.537Z" fill="#843201"/>
<path d="M10.707 217.775C10.8464 217.709 10.9985 217.656 11.1379 217.604C10.9985 217.669 10.8464 217.722 10.707 217.775Z" fill="#6B2A01"/>
<path d="M301.126 54.6835C301.126 57.9304 301.202 61.1903 301.101 64.4372C301.025 66.5404 300.733 68.6436 300.417 70.7337C300.341 71.2332 299.872 71.9036 299.428 72.0876C297.261 72.9946 295.069 73.8096 292.839 74.5195C292.37 74.6641 291.47 74.3617 291.204 73.9674C289.152 70.8914 287.897 67.4737 287.504 63.7274C287.39 62.5969 287.15 61.4927 286.896 60.3885C285.794 55.5117 285.87 50.556 285.984 45.6134C286.022 44.1412 286.579 42.6952 286.896 41.2361C286.997 42.0774 287.34 42.9713 287.162 43.7468C286.465 46.8622 287.53 49.7673 287.897 52.7644C288.087 54.3286 288.075 56.0506 288.733 57.4177C289.798 59.6392 290.698 62.2025 293.485 62.8992C293.827 62.9781 294.106 63.2673 294.828 63.7142C295.487 62.4391 296.083 61.2035 296.767 60.0073C297.046 59.5209 297.464 58.8637 297.92 58.7585C299.492 58.4036 299.948 57.2863 300.239 55.8666C300.328 55.4328 300.822 55.091 301.126 54.6967V54.6835Z" fill="#6B2A01"/>
<path d="M301.126 43.1947C301.126 44.0755 301.126 44.943 301.126 45.8237C300.112 44.943 300.112 44.0755 301.126 43.1947Z" fill="#6B2A01"/>
<path d="M301.126 39.5798C301.126 40.2371 301.126 40.8943 301.126 41.5516C300.151 40.8943 300.151 40.2371 301.126 39.5798Z" fill="#6B2A01"/>
<path d="M301.127 37.2794C301.127 37.5029 301.127 37.7132 301.127 37.9367C300.962 37.8578 300.798 37.7658 300.633 37.6869C300.798 37.5555 300.962 37.4109 301.127 37.2794Z" fill="#6B2A01"/>
<path d="M260.222 80.5793C260.298 80.8422 260.361 81.1183 260.437 81.3812C259.968 81.4075 259.5 81.4338 259.031 81.4601C258.258 81.2892 257.497 80.9606 256.737 80.9606C253.911 80.9606 251.098 81.092 248.273 81.1709C245.865 81.1446 243.457 81.1314 241.037 81.1051C241.481 80.9474 241.924 80.6451 242.38 80.6319C245.523 80.5925 248.678 80.6319 251.833 80.5925C252.327 80.5925 252.834 80.4216 253.328 80.3296C255.635 80.4085 257.928 80.4873 260.234 80.5662L260.222 80.5793Z" fill="#843201"/>
<path d="M248.273 81.1709C251.099 81.092 253.912 80.9737 256.738 80.9606C257.498 80.9606 258.271 81.2892 259.032 81.4601C255.446 81.3681 251.859 81.2761 248.273 81.1709Z" fill="#9C6F50"/>
<path d="M94.4023 81.9596C94.6051 81.9596 94.8205 81.9596 95.0232 81.9464C94.8205 81.9464 94.6051 81.9464 94.4023 81.9596Z" fill="#F5DDC5"/>
<path d="M308.919 65.8174C308.855 68.2361 308.779 70.6548 308.716 73.0735C308.095 73.5467 307.208 73.8885 306.879 74.5326C305.928 76.4124 304.129 77.464 302.076 77.0039C302.076 73.2838 302.076 69.5638 302.076 65.8306C303.255 66.869 304.243 66.4484 305.168 65.4099C305.523 65.0156 305.89 64.6081 306.283 64.2663C307.018 63.6222 307.626 63.8062 307.702 64.779C307.778 65.6597 308.108 65.9357 308.893 65.8043L308.919 65.8174Z" fill="#732B01"/>
<path d="M267.863 94.6577C272.361 95.0258 276.872 95.3413 281.37 95.7619C289.924 96.5638 298.401 97.8389 306.447 101.099C308.602 101.966 310.566 103.386 312.606 104.556C310.794 103.754 309.007 102.847 307.144 102.164C304.331 101.138 301.518 100.047 298.616 99.4031C294.181 98.4304 289.696 97.7468 285.21 97.1159C282.359 96.7084 279.47 96.5243 276.593 96.3929C268.306 96.0117 260.006 95.7093 251.706 95.3939C248.551 95.2756 245.409 95.0915 242.253 95.0784C201.185 94.9469 160.104 94.8155 119.036 94.776C111.889 94.776 104.742 95.1178 97.5954 95.4333C92.6155 95.6436 87.6482 95.9591 82.681 96.4323C77.321 96.945 71.9736 97.6811 66.6262 98.3121C66.4995 98.3252 66.3601 98.1675 66.2207 98.0886C66.7022 97.9046 67.1711 97.6154 67.6653 97.5497C71.0359 97.037 74.4192 96.5638 77.7898 96.1037C80.3748 95.7488 82.9598 95.4333 85.5448 95.1047C86.9133 95.0127 88.2945 94.9075 89.663 94.8155C90.6134 94.776 91.5764 94.7498 92.5268 94.7103C93.6799 94.6315 94.8457 94.5657 95.9988 94.4868C96.4169 94.4737 96.8351 94.4606 97.2533 94.4474C108.734 94.1451 120.214 93.6324 131.707 93.5667C155.542 93.4221 179.365 93.3958 203.2 93.5404C221.903 93.6587 240.619 94.1056 259.322 94.4211C261.147 94.4737 262.971 94.5131 264.783 94.5657C265.81 94.6052 266.836 94.6446 267.863 94.684V94.6577Z" fill="#F4830A"/>
<path d="M85.5454 95.0915C82.9604 95.4202 80.3755 95.7356 77.7905 96.0906C74.4072 96.5506 71.0365 97.0239 67.6659 97.5365C67.1717 97.6154 66.7029 97.8914 66.2214 98.0755C66.0186 98.1018 65.8159 98.1281 65.6131 98.1412C65.1823 98.2201 64.7641 98.2989 64.3333 98.391C64.0165 98.4304 63.6997 98.483 63.3956 98.5224C62.4453 98.8116 61.4949 99.1008 60.5572 99.4031C60.3418 99.4426 60.139 99.482 59.9236 99.5214C57.8075 100.336 55.6913 101.165 53.5752 101.98C53.2584 102.098 52.9543 102.216 52.6375 102.321C52.156 102.611 51.6871 102.9 51.2056 103.189C50.8381 103.334 50.4707 103.491 50.0905 103.636C49.8498 103.82 49.5963 104.017 49.3556 104.201C49.2795 104.201 49.2035 104.214 49.1402 104.267C48.4686 104.779 47.7843 105.305 47.1127 105.818C46.6565 105.976 46.2004 106.133 45.7569 106.291C45.6175 106.16 45.4908 106.028 45.3514 105.91C45.3134 105.871 45.288 105.818 45.25 105.778C47.9237 104.083 50.4833 102.098 53.3091 100.731C59.7335 97.6417 66.6395 96.3535 73.6342 95.4727C77.0935 95.039 80.5529 94.6972 84.0122 94.3291C84.5317 94.2765 85.0512 94.3291 85.5708 94.3291C85.5708 94.5789 85.5708 94.8155 85.5581 95.0652L85.5454 95.0915Z" fill="#843201"/>
<path d="M53.5625 101.993C55.6786 101.178 57.7948 100.35 59.9109 99.5346C58.441 100.179 56.9965 100.849 55.5139 101.454C54.893 101.704 54.2214 101.822 53.5625 101.993Z" fill="#F4830A"/>
<path d="M43.084 108.513C43.5275 107.855 43.971 107.198 44.4145 106.541C44.744 106.501 45.0734 106.475 45.4029 106.436C44.6299 107.132 43.8569 107.816 43.084 108.513Z" fill="#3A2217"/>
<path d="M60.5449 99.4162C61.4953 99.127 62.4457 98.8379 63.3833 98.5355C62.433 98.8247 61.4826 99.1139 60.5449 99.4162Z" fill="#F4830A"/>
<path d="M45.4024 106.436C45.073 106.475 44.7435 106.501 44.4141 106.541C44.6928 106.291 44.9716 106.041 45.2504 105.792C45.2884 105.831 45.3137 105.884 45.3518 105.923C45.3518 106.094 45.3518 106.252 45.3518 106.423H45.4024V106.436Z" fill="#843201"/>
<path d="M45.3516 106.423C45.3516 106.252 45.3516 106.094 45.3516 105.923C45.4909 106.055 45.6177 106.186 45.7571 106.304C45.6177 106.344 45.4909 106.383 45.3516 106.409V106.423Z" fill="#3A2217"/>
<path d="M345.526 215.343C345.488 215.54 345.45 215.724 345.425 215.921C345.108 215.803 344.804 215.698 344.5 215.579C344.601 215.356 344.715 215.146 344.817 214.922C345.058 215.054 345.298 215.198 345.539 215.33L345.526 215.343Z" fill="#3A2217"/>
<path d="M85.5449 95.0915C85.5449 94.8418 85.5449 94.6052 85.5576 94.3554C86.7234 94.2634 87.8892 94.1845 89.0676 94.0925C89.2323 94.0794 89.3971 94.0531 89.5745 94.0399C89.8279 94.0268 90.094 94.0136 90.3474 94.0005C90.6389 93.9742 90.9176 93.9611 91.2091 93.9348C95.6821 93.685 100.155 93.3827 104.628 93.2118C110.318 92.9883 116.02 92.8832 121.709 92.7123C122.014 92.7123 122.318 92.6071 122.622 92.5414C123.889 92.5414 125.143 92.5414 126.411 92.5414C161.384 92.5282 196.357 92.5151 231.343 92.502C233.396 92.502 235.449 92.5282 237.502 92.5282C241.747 92.6991 245.992 92.87 250.237 93.054C255.381 93.2775 260.513 93.501 265.658 93.7376C265.975 93.7639 266.304 93.777 266.621 93.8033C267.977 93.869 269.345 93.9479 270.701 94.0136C269.764 94.224 268.813 94.4343 267.875 94.6577C266.849 94.6183 265.823 94.5789 264.796 94.5394C262.972 94.4869 261.147 94.4474 259.335 94.3948C240.632 94.0925 221.916 93.6324 203.213 93.5141C179.378 93.3695 155.555 93.3958 131.72 93.5404C120.24 93.6061 108.746 94.1188 97.2661 94.4211C96.8479 94.4343 96.4298 94.4474 96.0116 94.4606C94.8585 94.5394 93.6927 94.6052 92.5396 94.684C91.5892 94.7235 90.6262 94.7498 89.6758 94.7892C88.3073 94.8812 86.9261 94.9864 85.5576 95.0784L85.5449 95.0915Z" fill="#3A2217"/>
<path d="M237.503 92.5414C235.45 92.5414 233.397 92.5151 231.345 92.5151C196.371 92.5151 161.398 92.5414 126.412 92.5545C125.145 92.5545 123.89 92.5545 122.623 92.5545C122.686 92.3048 122.712 91.8578 122.826 91.8315C123.231 91.7395 123.662 91.7921 124.08 91.7921C161.233 91.7921 198.399 91.7921 235.552 91.8184C236.211 91.8184 237.224 91.2532 237.49 92.5414H237.503Z" fill="#FBF3E6"/>
<path d="M89.5752 94.0399C89.4105 94.0531 89.2458 94.0794 89.0684 94.0925C89.2331 94.0794 89.3978 94.0531 89.5752 94.0399Z" fill="#843201"/>
<path d="M259.322 94.3948C261.147 94.4474 262.972 94.4869 264.784 94.5394C262.959 94.4869 261.134 94.4474 259.322 94.3948Z" fill="#843201"/>
</g>
<defs>
<clipPath id="clip0_23_77">
<rect width="362" height="243" fill="white"/>
</clipPath>
</defs>
</svg>
