<svg width="68" height="69" viewBox="0 0 68 69" fill="none" xmlns="http://www.w3.org/2000/svg">
<path d="M35.9912 38.8488H32.5634V14.8539H35.9912V38.8488Z" fill="#F0F0C9"/>
<path d="M23.8535 51.2917C23.1487 51.9965 22.0061 51.9965 21.3013 51.2917C20.5966 50.5869 20.5966 49.4443 21.3013 48.7395L30.9461 39.0947C31.6509 38.3899 32.7936 38.3899 33.4983 39.0947C34.2031 39.7995 34.2031 40.9421 33.4983 41.6469L23.8535 51.2917Z" fill="#F0F0C9"/>
<path d="M37.7062 37.4205C37.7062 39.1559 36.2994 40.5627 34.5641 40.5627C32.8287 40.5627 31.4219 39.1559 31.4219 37.4205C31.4219 35.6851 32.8287 34.2783 34.5641 34.2783C36.2994 34.2783 37.7062 35.6851 37.7062 37.4205Z" fill="#F0F0C9"/>
<path d="M0 34.8496C3.90708e-05 16.2338 15.0912 1.14265 33.707 1.14261C44.0992 1.14261 53.3943 5.84769 59.5746 13.2373L56.8059 15.553C51.282 8.94824 42.9854 4.75194 33.707 4.75194C17.0845 4.75198 3.60937 18.2272 3.60933 34.8496C3.60933 51.4722 17.0845 64.9473 33.707 64.9473C50.3296 64.9473 63.8047 51.4722 63.8047 34.8496C63.8047 29.9329 62.6273 25.2964 60.5404 21.2019L63.7558 19.5629C66.0955 24.1533 67.414 29.3501 67.4141 34.8496C67.4141 53.4656 52.3229 68.5567 33.707 68.5567C15.0911 68.5566 0 53.4655 0 34.8496Z" fill="#F0F0C9"/>
<path d="M61.1299 14.736C61.1299 15.7477 60.3625 16.5679 59.416 16.5679C58.4694 16.5679 57.702 15.7477 57.702 14.736V1.83183C57.702 0.820138 58.4694 0 59.416 0C60.3625 0 61.1299 0.820138 61.1299 1.83183V14.736Z" fill="#F0F0C9"/>
<path d="M57.6468 12.5687C58.6236 12.5687 59.4155 13.464 59.4155 14.5683C59.4155 15.6726 58.6236 16.5679 57.6468 16.5679H45.1876C44.2108 16.5679 43.4189 15.6726 43.4189 14.5683C43.4189 13.464 44.2108 12.5687 45.1876 12.5687H57.6468Z" fill="#F0F0C9"/>
</svg>
