<svg width="555" height="254" viewBox="0 0 555 254" fill="none" xmlns="http://www.w3.org/2000/svg">
<rect width="555" height="254" rx="26" fill="white"/>
<rect width="555" height="41" rx="20.5" fill="#F0F0C9"/>
<rect width="555" height="41" rx="20.5" transform="matrix(1 0 0 -1 0 254)" fill="#F0F0C9"/>
<rect y="25" width="555" height="16" fill="#F0F0C9"/>
<rect y="213" width="555" height="16" fill="#F0F0C9"/>
<path d="M53.8894 167H53.3767C53.2588 166.85 53.1268 166.71 53.0269 166.55C51.3787 163.934 49.737 161.314 48.0876 158.698C47.0893 157.114 46.0819 155.536 45.0567 153.922C44.544 154.321 44.0878 154.698 43.6085 155.046C42.0231 156.195 40.3622 157.177 38.3501 157.363C37.6516 157.427 37.5568 157.349 37.6234 156.646C37.7452 155.37 38.1592 154.183 38.841 153.109C39.5228 152.035 40.2725 151.005 41.0107 149.93C40.912 149.86 40.7967 149.771 40.6749 149.692C38.2437 148.149 35.81 146.612 33.3814 145.066C31.5846 143.923 29.7929 142.772 28 141.624C28 141.453 28 141.282 28 141.111C28.8612 140.323 29.7276 139.541 30.5798 138.744C31.1732 138.189 31.8486 138.033 32.6445 138.17C37.4991 139.005 42.3576 139.819 47.211 140.659C47.6801 140.739 47.9851 140.661 48.3221 140.295C52.1054 136.176 55.9104 132.076 59.7078 127.97C60.032 127.619 60.3422 127.254 60.6741 126.878C60.5101 126.763 60.4075 126.688 60.3024 126.617C50.4983 119.977 40.6929 113.337 30.8887 106.696C29.9877 106.086 29.9647 105.723 30.8028 105.05C32.0844 104.021 33.3647 102.99 34.6719 101.994C34.886 101.831 35.2717 101.73 35.5229 101.799C40.7005 103.229 45.8705 104.686 51.0417 106.144C58.5505 108.259 66.0593 110.378 73.5656 112.505C73.9206 112.605 74.1397 112.545 74.3935 112.272C77.7679 108.648 81.168 105.047 84.5321 101.411C85.7163 100.13 87.0377 99.036 88.5025 98.1043C90.1186 97.0752 91.8667 96.3717 93.7468 96C94.3017 96 94.8579 96 95.4128 96C95.6333 96.0641 95.8511 96.1487 96.0754 96.1884C97.448 96.4306 98.3323 97.2149 98.7232 98.5529C98.8231 98.8963 98.9077 99.2436 99 99.5884V101.254C98.968 101.308 98.918 101.36 98.9077 101.417C98.331 104.772 96.5842 107.517 94.212 109.827C90.4659 113.474 86.5955 116.995 82.7661 120.556C82.4829 120.82 82.3791 121.032 82.4919 121.425C83.8196 126.099 85.1255 130.779 86.443 135.456C88.696 143.456 90.9542 151.455 93.1995 159.457C93.2572 159.663 93.2828 159.972 93.1726 160.115C92.0205 161.598 90.8529 163.069 89.6547 164.515C89.2945 164.951 88.8934 164.887 88.523 164.437C88.4154 164.306 88.3256 164.159 88.2295 164.018C82.01 154.832 75.7917 145.644 69.5722 136.458C69.098 135.757 68.6199 135.057 68.124 134.329C67.9945 134.435 67.9112 134.496 67.8369 134.565C63.4756 138.588 59.1195 142.617 54.7442 146.626C54.3456 146.991 54.2469 147.324 54.3379 147.844C55.1825 152.696 56.0142 157.551 56.8063 162.412C56.8857 162.902 56.8447 163.564 56.5692 163.928C55.7528 165.01 54.7929 165.982 53.8881 166.997L53.8894 167Z" fill="#502009"/>
<circle cx="389.5" cy="4.5" r="4.5" fill="white"/>
<circle cx="394.5" cy="213.5" r="4.5" fill="white"/>
<circle cx="389.5" cy="16.5" r="4.5" fill="white"/>
<circle cx="394.5" cy="225.5" r="4.5" fill="white"/>
<circle cx="389.5" cy="28.5" r="4.5" fill="white"/>
<circle cx="394.5" cy="237.5" r="4.5" fill="white"/>
<circle cx="389.5" cy="40.5" r="4.5" fill="white"/>
<circle cx="394.5" cy="249.5" r="4.5" fill="white"/>
</svg>
