<svg width="358" height="695" viewBox="0 0 358 695" fill="none" xmlns="http://www.w3.org/2000/svg">
<rect x="11" y="16" width="326" height="668" rx="14" fill="white"/>
<rect x="14" y="16" width="323" height="134" rx="2" fill="#FFB874"/>
<path d="M0 347.704C0 249.807 0 151.934 0 54.0613C0 17.6141 17.7746 -0.0248524 54.1963 2.62799e-05C134.369 0.0497836 214.542 0.0497836 294.714 0.0746622C332.183 0.0746622 349.285 17.3156 349.26 55.0565C349.26 68.3168 349.11 81.602 349.26 94.8623C349.359 103.222 347.066 112.053 355.442 118.796C357.511 120.462 357.038 125.811 357.063 129.444C357.237 145.615 357.437 161.811 357.063 177.957C356.838 187.411 359.506 197.039 350.681 205.697C347.365 208.956 348.163 220.4 351.329 225.5C359.83 239.233 360.652 251.274 351.204 264.684C348.736 268.192 349.31 274.188 349.31 279.039C349.21 398.904 349.26 518.77 349.16 638.61C349.16 645.626 349.035 652.791 347.639 659.632C343.9 678.092 328.593 691.8 309.871 694.413C309.049 694.537 308.226 694.686 307.403 694.686C218.929 694.786 130.455 695.408 42.0059 694.562C17.0517 694.313 0.124647 672.967 0.0997173 646.248C-0.0249293 546.708 0.0498586 447.169 0.0498586 347.629H0V347.704ZM13.9355 385.893C13.9355 461.375 14.1848 536.881 13.6613 612.363C13.5865 624.529 17.3259 627.663 29.1922 627.614C125.569 627.166 221.971 627.365 318.347 627.34C334.427 627.34 334.477 627.34 334.427 610.845C333.804 437.939 333.155 265.007 332.532 92.1008C332.482 79.6615 332.931 67.1973 332.582 54.7828C331.934 31.5959 317.275 16.9673 294.141 16.2707C282.1 15.9224 270.034 16.3453 257.993 16.0468C251.312 15.8726 246.825 17.3902 242.612 23.6099C239.72 27.9139 232.615 31.6208 227.306 31.7203C192.006 32.3671 156.681 32.1681 121.381 31.7203C116.844 31.6705 109.639 29.6554 108.343 26.5704C103.058 14.0813 92.9365 16.0716 83.1642 16.0468C73.6163 16.0468 64.0434 15.7233 54.4955 16.1214C31.6353 17.0917 16.6029 32.193 16.0545 55.1311C15.1321 92.3744 14.1599 129.643 14.0103 166.886C13.6862 239.88 13.9106 312.899 13.9355 385.893ZM134.206 627.34C85.9924 627.34 77.3307 628.484 29.1174 628.086C18.7468 627.987 15.1321 631.32 15.9049 641.695C17.5502 663.737 32.9316 678.59 56.3403 678.714C107.869 678.963 159.398 678.839 210.927 678.864C238.773 678.864 266.619 679.137 294.44 678.714C314.558 678.416 329.042 665.827 331.959 647.317C334.551 630.848 332.432 628.335 315.854 628.31C268.489 628.31 181.596 627.39 134.206 627.34Z" fill="black"/>
<rect x="14" y="613" width="320" height="27" rx="4" fill="white"/>
<path d="M162.889 135H162.377C162.259 134.85 162.127 134.71 162.027 134.55C160.379 131.934 158.737 129.314 157.088 126.698C156.089 125.114 155.082 123.536 154.057 121.922C153.544 122.321 153.088 122.698 152.608 123.046C151.023 124.195 149.362 125.177 147.35 125.363C146.652 125.427 146.557 125.349 146.623 124.646C146.745 123.37 147.159 122.183 147.841 121.109C148.523 120.035 149.272 119.005 150.011 117.93C149.912 117.86 149.797 117.771 149.675 117.692C147.244 116.149 144.81 114.612 142.381 113.066C140.585 111.923 138.793 110.772 137 109.624C137 109.453 137 109.282 137 109.111C137.861 108.323 138.728 107.541 139.58 106.744C140.173 106.189 140.849 106.033 141.644 106.17C146.499 107.005 151.358 107.819 156.211 108.659C156.68 108.739 156.985 108.661 157.322 108.295C161.105 104.176 164.91 100.076 168.708 95.9699C169.032 95.6188 169.342 95.2535 169.674 94.878C169.51 94.7627 169.408 94.6884 169.302 94.6166C159.498 87.9768 149.693 81.337 139.889 74.6959C138.988 74.0859 138.965 73.7232 139.803 73.0504C141.084 72.0213 142.365 70.9897 143.672 69.9939C143.886 69.8311 144.272 69.7299 144.523 69.7991C149.701 71.2293 154.87 72.6865 160.042 74.1436C167.551 76.2595 175.059 78.3779 182.566 80.5053C182.921 80.6052 183.14 80.545 183.393 80.272C186.768 76.6478 190.168 73.0466 193.532 69.4108C194.716 68.1305 196.038 67.036 197.503 66.1043C199.119 65.0752 200.867 64.3717 202.747 64C203.302 64 203.858 64 204.413 64C204.633 64.0641 204.851 64.1487 205.075 64.1884C206.448 64.4306 207.332 65.2149 207.723 66.5529C207.823 66.8963 207.908 67.2436 208 67.5884V69.2544C207.968 69.3082 207.918 69.3595 207.908 69.4172C207.331 72.7723 205.584 75.5174 203.212 77.8268C199.466 81.4741 195.596 84.9946 191.766 88.5561C191.483 88.8201 191.379 89.0315 191.492 89.425C192.82 94.0988 194.126 98.7791 195.443 103.456C197.696 111.456 199.954 119.455 202.2 127.457C202.257 127.663 202.283 127.972 202.173 128.115C201.02 129.598 199.853 131.069 198.655 132.515C198.295 132.951 197.893 132.887 197.523 132.437C197.415 132.306 197.326 132.159 197.23 132.018C191.01 122.832 184.792 113.644 178.572 104.458C178.098 103.757 177.62 103.057 177.124 102.329C176.995 102.435 176.911 102.496 176.837 102.565C172.476 106.588 168.12 110.617 163.744 114.626C163.346 114.991 163.247 115.324 163.338 115.844C164.182 120.696 165.014 125.551 165.806 130.412C165.886 130.902 165.845 131.564 165.569 131.928C164.753 133.01 163.793 133.982 162.888 134.997L162.889 135Z" fill="#502009"/>
</svg>
