<svg width="325" height="228" viewBox="0 0 325 228" fill="none" xmlns="http://www.w3.org/2000/svg">
<g clip-path="url(#clip0_24_4346)">
<path d="M325 98.7763V213.17C324.099 213.844 322.842 214.327 322.334 215.229C317.484 223.743 310.096 227.975 300.46 227.975C231.931 227.975 163.389 227.911 94.8594 227.86C94.8594 188.035 94.8594 148.196 94.8594 106.706C103.771 114.267 111.186 120.494 118.511 126.822C122.015 129.846 125.696 132.134 129.391 127.597C132.895 123.277 130.47 119.858 126.864 116.808C120.326 111.268 113.902 105.588 106.044 98.7636H325V98.7763ZM265.967 162.454C259.632 162.454 253.284 162.454 246.949 162.454C241.224 162.454 238.393 165.275 238.469 171.057C238.532 176.979 238.443 182.901 238.507 188.835C238.558 193.689 241.173 196.46 245.908 196.523C259.01 196.688 272.111 196.714 285.213 196.523C290.405 196.447 293.363 193.588 293.274 188.035C293.186 182.532 293.363 177.03 293.224 171.527C293.071 165.237 290.57 162.657 284.35 162.492C278.23 162.327 272.099 162.454 265.967 162.454Z" fill="#011760"/>
<path d="M325.001 14.8806V86.0687H148.777C149.234 84.2896 149.349 83.6796 149.552 83.0951C154.795 68.3288 149.983 54.9096 137.161 48.5685C124.136 42.1257 110.945 46.1922 102.071 59.3573C100.154 62.2038 98.2373 65.0503 96.3203 67.8968C95.8379 67.7062 95.3555 67.5028 94.873 67.3122V0.177908C110.526 0.127078 126.18 0.0381247 141.833 0.0381247C194.062 0.0254171 246.315 0.0762476 298.557 1.88887e-06C309.183 -0.0127057 317.447 3.71063 322.602 13.3938C322.982 14.1182 324.176 14.3977 324.988 14.8806H325.001Z" fill="#011760"/>
<path d="M81.707 0.20332C86.0996 0.20332 90.4795 0.20332 94.8721 0.190613C94.8721 22.5687 94.8721 44.9468 94.8721 67.3122C95.3545 67.5028 95.8369 67.7062 96.3193 67.8968C98.2363 65.0503 100.153 62.2038 102.07 59.3573C110.944 46.1795 124.135 42.1257 137.16 48.5685C149.995 54.9096 154.807 68.3288 149.551 83.0951C149.348 83.6796 149.233 84.2896 148.776 86.0687H325V98.7763H106.044C113.902 105.6 120.326 111.281 126.864 116.821C130.457 119.871 132.895 123.289 129.391 127.61C125.709 132.146 122.027 129.859 118.511 126.835C111.186 120.506 103.771 114.292 94.8594 106.719C94.8594 148.222 94.8594 188.047 94.8594 227.873C90.4795 227.873 86.0996 227.873 81.7197 227.86C81.7197 188.06 81.7197 148.26 81.7197 106.782C72.833 114.343 65.4443 120.583 58.1191 126.886C54.5771 129.923 50.7812 131.93 47.1504 127.572C43.5068 123.2 46.2998 119.833 49.791 116.834C56.291 111.268 62.7402 105.638 70.6494 98.7763H0V86.0687H27.498C27.3203 84.4929 27.3457 84.0609 27.2188 83.6796C21.8867 68.2399 26.4824 54.9986 39.4316 48.5558C52.4824 42.0495 65.7744 46.2938 74.8516 59.8529C76.6416 62.5215 78.4443 65.1901 80.2471 67.8587C80.7295 67.6553 81.2246 67.4647 81.707 67.2614V0.20332ZM76.0957 85.5604C70.9668 77.7579 66.8027 71.1753 62.3594 64.7707C58.5762 59.3319 52.1523 57.5528 46.0967 59.8656C40.5742 61.975 37.5146 67.1852 38.0225 73.5644C38.5049 79.6767 42.8086 84.9123 49.2959 85.3952C57.624 86.0178 66.041 85.5477 76.0957 85.5477V85.5604ZM100.725 85.2427C110.906 85.2427 119.729 85.8399 128.438 85.0394C134.494 84.4802 137.871 79.7911 138.48 73.6279C139.115 67.2106 136.03 62.064 130.495 59.9037C124.935 57.7307 118.32 59.0777 114.994 63.7287C110.208 70.4129 105.879 77.4148 100.725 85.2554V85.2427Z" fill="#EEE4E4"/>
<rect x="213.461" y="150.076" width="94.2308" height="55.7975" fill="#011760"/>
<path d="M0.000976562 98.7763H70.6377C62.7285 105.626 56.2793 111.268 49.7793 116.834C46.2881 119.82 43.4951 123.188 47.1387 127.572C50.7695 131.943 54.5654 129.935 58.1074 126.886C65.4326 120.583 72.8213 114.343 81.708 106.782C81.708 148.26 81.708 188.06 81.708 227.86C62.5889 227.911 43.4697 228.064 24.3506 227.975C14.7783 227.924 7.45312 223.679 2.6416 215.229C2.13379 214.327 0.889648 213.844 -0.0117188 213.17C-0.0117188 175.035 -0.0117188 136.899 -0.0117188 98.7763H0.000976562Z" fill="#011760"/>
<path d="M81.707 0.203322V67.2614C81.2246 67.4647 80.7295 67.6553 80.2471 67.8587C78.4443 65.1901 76.6416 62.5342 74.8516 59.8529C65.7871 46.2938 52.4951 42.0495 39.4316 48.5558C26.4824 54.9986 21.8867 68.2272 27.2188 83.6796C27.3457 84.0609 27.3203 84.4929 27.498 86.0687H0C0 61.9115 0 37.767 0 13.6099C1.18066 12.8728 2.76758 12.4153 3.46582 11.3733C8.4043 3.90124 15.3486 0.114369 24.1846 0.0762463C43.3545 0.0127082 62.5371 0.139784 81.707 0.203322Z" fill="#011760"/>
<path d="M286.192 188.038C291.14 188.038 296.089 187.935 301.027 188.069C306.057 188.204 308.076 190.304 308.188 195.427C308.291 199.908 308.157 204.389 308.229 208.869C308.301 213.381 305.914 215.71 301.724 215.782C291.151 215.948 280.578 215.927 270.005 215.782C266.183 215.73 264.062 213.474 264.032 209.521C263.98 204.699 264.052 199.866 264.001 195.044C263.95 190.335 266.224 188.038 270.845 188.038C275.957 188.038 281.08 188.038 286.192 188.038Z" fill="#FBDA5E"/>
<path d="M76.0966 85.5604C66.0419 85.5604 57.6249 86.0305 49.2968 85.4079C42.8095 84.925 38.5058 79.6894 38.0234 73.5771C37.5156 67.1852 40.5751 61.9877 46.0976 59.8783C52.1533 57.5528 58.5898 59.3318 62.3603 64.7834C66.8036 71.1753 70.9677 77.7706 76.0966 85.5731V85.5604Z" fill="#011760"/>
<path d="M100.725 85.2427C105.892 77.4021 110.221 70.4002 114.994 63.716C118.32 59.065 124.935 57.718 130.495 59.891C136.03 62.0513 139.115 67.1979 138.48 73.6152C137.871 79.7784 134.494 84.4802 128.438 85.0266C119.729 85.8272 110.906 85.23 100.725 85.23V85.2427Z" fill="#011760"/>
<path d="M165.073 137.216C163.633 137.216 162.301 137.072 161.113 136.82C160.861 135.416 160.789 131.348 160.789 130.052C160.753 126.02 160.753 126.272 160.681 122.24H155.605C152.545 122.24 150.493 122.132 149.737 122.06C149.449 121.376 149.377 120.8 149.377 119.72C149.377 119.18 149.449 118.316 149.557 117.992C149.665 117.668 149.917 117.452 150.277 117.344C150.601 117.236 152.653 117.2 156.469 117.2H158.377C161.041 117.2 163.057 117.272 164.137 117.632L165.685 118.136L165.829 123.284C165.937 126.92 166.189 129.98 166.405 132.464C166.549 133.904 166.621 134.912 166.621 135.452C166.621 136.892 166.261 137.216 165.073 137.216ZM151.069 130.592C151.069 128.144 151.141 127.208 151.465 125.804C152.509 125.624 153.157 125.552 154.165 125.624C155.785 125.768 156.217 125.804 156.757 125.912C156.937 127.1 157.009 128.108 157.009 131.636C157.009 134.66 156.829 136.532 156.757 136.892C156.721 137.072 156.505 137.144 156.361 137.144C156.145 137.144 155.857 137.072 155.209 136.928C154.957 136.856 154.201 136.748 153.049 136.604L151.465 136.388L151.249 134.228C151.141 133.256 151.069 132.32 151.069 130.592ZM172.062 127.676C171.522 127.676 171.198 127.46 171.126 127.1C170.946 126.308 170.874 125.948 170.766 124.544C170.658 123.248 170.334 120.836 170.406 118.1C171.198 117.74 171.81 117.488 173.07 117.272C174.15 117.092 174.87 116.984 175.194 116.984C175.878 116.984 176.346 117.308 176.526 117.992C176.634 118.532 176.706 119.972 176.742 122.384L176.814 126.956L175.446 127.28C174.474 127.496 173.538 127.676 172.062 127.676ZM182.539 127.676C181.999 127.676 181.675 127.46 181.603 127.1C181.423 126.308 181.351 125.948 181.243 124.544C181.135 123.248 180.811 120.836 180.883 118.1C181.675 117.74 182.287 117.488 183.547 117.272C184.627 117.092 185.347 116.984 185.671 116.984C186.355 116.984 186.823 117.308 187.003 117.992C187.111 118.532 187.183 119.972 187.219 122.384L187.291 126.956L185.923 127.28C184.951 127.496 184.015 127.676 182.539 127.676ZM189.638 136.28C189.314 134.732 189.278 133.184 189.458 131.888C189.602 130.988 190.646 130.592 191.51 130.592L195.326 130.52C195.398 129.26 195.506 126.956 195.506 126.164C195.506 125.264 195.47 124.364 195.434 123.212L195.398 122.384L194.822 122.456C193.418 122.636 192.914 122.636 192.518 122.564C192.05 122.456 191.618 122.276 191.366 121.952C190.718 121.088 190.898 118.964 191.114 117.848C191.87 117.632 192.626 117.488 194.606 117.344C196.19 117.236 197.81 117.164 199.07 117.128C199.61 117.848 200.15 119.108 200.294 120.008C200.474 121.196 201.662 133.58 201.626 134.228C201.59 135.308 201.41 135.668 200.438 135.992C199.826 136.208 195.902 136.748 193.346 136.928L189.818 137.18L189.638 136.28ZM218.09 134.804C217.694 134.804 216.866 134.444 215.894 133.832C214.706 133.112 214.382 132.644 214.022 131.852C214.994 129.836 216.002 127.856 216.002 125.696C216.002 124.22 215.714 123.356 215.426 122.42C212.87 122.42 210.386 122.564 208.478 122.816L206.498 123.068L205.922 121.592C205.598 120.728 205.238 118.784 205.562 118.172C205.778 117.776 206.93 117.452 209.162 117.164C210.782 116.948 213.05 116.804 215.966 116.768L220.142 116.732L220.574 117.92C221.258 119.828 221.762 123.212 221.726 125.156C221.654 128.9 221.474 130.124 220.394 132.5C219.638 134.192 219.026 134.804 218.09 134.804ZM206.246 127.172C206.246 126.236 206.354 125.66 206.534 125.48C206.786 125.228 207.614 125.12 209.09 125.12C210.17 125.12 211.214 125.228 211.754 125.372C211.934 126.596 212.042 128.828 212.114 130.232C212.258 132.86 212.402 135.596 212.762 138.512C212.978 140.276 213.05 141.464 213.086 142.004C213.194 143.156 212.222 143.336 210.422 144.092C209.738 144.416 209.126 144.488 208.802 144.488C207.938 144.488 207.398 144.128 207.074 142.832C206.786 141.608 206.246 131.204 206.246 127.172ZM235.097 127.676C234.557 127.676 234.233 127.46 234.161 127.1C233.981 126.308 233.909 125.948 233.801 124.544C233.693 123.248 233.369 120.836 233.441 118.1C234.233 117.74 234.845 117.488 236.105 117.272C237.185 117.092 237.905 116.984 238.229 116.984C238.913 116.984 239.381 117.308 239.561 117.992C239.669 118.532 239.741 119.972 239.777 122.384L239.849 126.956L238.481 127.28C237.509 127.496 236.573 127.676 235.097 127.676ZM247.194 137.072C246.006 137.072 245.322 136.784 245.214 135.668C245.07 134.66 245.034 133.076 244.962 131.24C244.854 128.108 244.782 125.408 244.566 123.14C244.386 121.124 244.242 119.72 244.17 117.416C244.674 117.272 245.574 117.164 246.834 117.164C248.094 117.164 248.958 117.164 249.426 117.596C249.75 117.848 249.858 118.208 249.93 118.712C250.074 119.72 250.11 120.188 250.218 122.168C250.434 124.796 250.65 126.632 250.83 127.712C251.37 131.42 251.658 134.012 251.658 135.488C250.578 136.316 248.454 137.072 247.194 137.072ZM258.584 137.072C257.396 137.072 256.712 136.784 256.604 135.668C256.46 134.66 256.424 133.076 256.352 131.24C256.244 128.108 256.172 125.408 255.956 123.14C255.776 121.124 255.632 119.72 255.56 117.416C256.064 117.272 256.964 117.164 258.224 117.164C259.484 117.164 260.348 117.164 260.816 117.596C261.14 117.848 261.248 118.208 261.32 118.712C261.464 119.72 261.5 120.188 261.608 122.168C261.824 124.796 262.04 126.632 262.22 127.712C262.76 131.42 263.048 134.012 263.048 135.488C261.968 136.316 259.844 137.072 258.584 137.072ZM283.151 136.316C283.043 135.812 282.683 133.724 282.467 129.944L282.071 123.464L280.883 123.428C279.119 123.392 278.327 123.428 277.571 123.5L276.167 123.644L276.347 127.892C276.491 131.024 276.779 133.04 276.851 135.452C276.887 136.172 276.383 136.784 275.627 136.856C274.475 137 272.891 137 270.875 137.036L267.023 137.072L266.843 136.28C266.663 135.488 266.375 134.048 266.303 133.22C266.231 132.212 266.591 131.924 267.383 131.78C267.995 131.672 268.391 131.636 269.471 131.636H271.163L270.947 125.048C270.875 123.104 270.839 121.16 270.803 119.216C272.783 118.568 274.547 118.28 276.311 117.992C278.723 117.596 280.847 117.38 282.611 117.236C284.159 117.092 285.059 117.056 285.311 117.056C286.283 117.056 286.751 117.488 286.895 118.028C286.967 118.244 287.111 118.928 287.219 119.936C287.471 122.6 287.795 125.804 288.191 129.512C288.335 130.592 288.767 135.668 288.083 136.424C287.831 136.748 286.967 137 285.563 137.036L283.295 137.108L283.151 136.316ZM146.474 178.18C145.322 178.18 144.998 177.892 144.926 177.1C144.854 176.452 144.098 168.064 144.098 165.256C144.098 162.628 144.242 161.008 144.386 159.604L146.078 159.316C148.238 158.956 150.038 158.74 151.694 158.632C153.422 158.524 157.382 158.128 158.21 158.128C159.218 158.128 160.082 158.416 160.154 159.172C160.226 160.108 160.298 161.368 160.478 163.708C160.766 167.416 161.126 171.232 161.234 173.032L161.414 175.912L160.658 176.272C158.498 177.316 148.13 178.18 146.474 178.18ZM150.074 172.312H152.162C153.962 172.312 154.718 172.204 155.006 171.844C155.15 171.664 155.33 171.232 155.33 170.332C155.33 167.992 155.078 164.14 155.006 163.672C154.934 163.204 154.394 163.096 153.494 163.096C152.954 163.06 152.09 163.168 150.83 163.276L150.074 163.348V172.312ZM166.63 168.676C166.09 168.676 165.766 168.46 165.694 168.1C165.514 167.308 165.442 166.948 165.334 165.544C165.226 164.248 164.902 161.836 164.974 159.1C165.766 158.74 166.378 158.488 167.638 158.272C168.718 158.092 169.438 157.984 169.762 157.984C170.446 157.984 170.914 158.308 171.094 158.992C171.202 159.532 171.274 160.972 171.31 163.384L171.382 167.956L170.014 168.28C169.042 168.496 168.106 168.676 166.63 168.676ZM177.107 168.676C176.567 168.676 176.243 168.46 176.171 168.1C175.991 167.308 175.919 166.948 175.811 165.544C175.703 164.248 175.379 161.836 175.451 159.1C176.243 158.74 176.855 158.488 178.115 158.272C179.195 158.092 179.915 157.984 180.239 157.984C180.923 157.984 181.391 158.308 181.571 158.992C181.679 159.532 181.751 160.972 181.787 163.384L181.859 167.956L180.491 168.28C179.519 168.496 178.583 168.676 177.107 168.676ZM188.412 177.964C187.62 177.928 187.008 177.352 186.936 176.56C186.9 175.948 186.828 175.156 186.756 173.788C186.612 171.448 185.748 163.492 185.532 160.36C186.108 159.64 186.936 158.812 187.62 158.416C188.52 157.948 189.276 157.768 189.816 157.768C190.248 157.768 190.68 157.912 190.968 158.416C191.364 159.1 191.508 160.612 191.58 161.98L192.192 172.348L192.228 172.96H195.504C197.052 172.96 197.988 172.924 198.348 172.888C199.14 172.78 199.248 172.384 199.248 171.088C199.248 170.044 198.996 166.768 198.852 165.796C198.78 165.364 198.492 165.256 198.096 165.508C197.592 165.868 196.296 166.696 195.072 167.596C194.532 167.344 193.164 165.58 193.164 164.752C193.164 164.356 193.308 163.888 193.776 163.42C194.244 162.952 194.964 162.304 196.188 161.296C198.492 159.424 200.4 157.876 201.444 157.876C202.128 157.876 202.884 158.236 203.496 158.776C203.928 161.296 204.324 170.98 204.432 174.256C204.468 175.3 204.54 176.812 204.468 177.604C203.064 177.748 201.3 177.82 195.864 177.928C193.812 177.964 190.788 178.036 188.412 177.964ZM211.709 178.648C210.341 178.648 209.873 178.612 209.261 178.54C208.829 176.128 208.397 171.34 208.217 169.072C208.001 166.192 207.749 160.648 207.749 160.108C207.749 159.028 207.965 158.632 209.081 158.38C210.269 158.092 211.277 157.984 212.033 157.984C213.329 157.984 213.689 158.668 213.797 159.604C213.941 160.756 214.013 161.296 214.085 161.584C217.469 159.676 220.349 158.38 221.645 158.38C222.761 158.38 223.229 158.596 223.697 159.028C226.541 161.656 228.413 166.696 228.413 168.496C228.413 169.54 228.233 170.656 227.837 171.844C227.477 172.96 227.225 173.392 226.109 174.4C224.921 175.444 222.257 177.208 220.061 178.36C218.909 177.172 217.973 175.624 217.505 174.004C217.145 172.744 218.081 172.096 219.377 171.556C220.349 171.124 221.789 170.584 222.329 169.972C222.617 169.684 222.761 169.072 222.617 168.388C222.437 167.452 221.681 164.788 220.565 163.276C219.449 163.636 215.525 165.544 215.129 165.796C214.301 166.336 213.725 167.056 213.797 168.388C213.977 171.124 214.517 174.112 214.769 176.848C214.841 177.46 214.661 177.892 214.373 178.108C213.977 178.432 212.825 178.648 211.709 178.648ZM234.52 178.072C233.332 178.072 232.648 177.784 232.54 176.668C232.396 175.66 232.36 174.076 232.288 172.24C232.18 169.108 232.108 166.408 231.892 164.14C231.712 162.124 231.568 160.72 231.496 158.416C232 158.272 232.9 158.164 234.16 158.164C235.42 158.164 236.284 158.164 236.752 158.596C237.076 158.848 237.184 159.208 237.256 159.712C237.4 160.72 237.436 161.188 237.544 163.168C237.76 165.796 237.976 167.632 238.156 168.712C238.696 172.42 238.984 175.012 238.984 176.488C237.904 177.316 235.78 178.072 234.52 178.072ZM245.119 177.964C244.327 177.928 243.715 177.352 243.643 176.56C243.607 175.948 243.535 175.156 243.463 173.788C243.319 171.448 242.455 163.492 242.239 160.36C242.815 159.64 243.643 158.812 244.327 158.416C245.227 157.948 245.983 157.768 246.523 157.768C246.955 157.768 247.387 157.912 247.675 158.416C248.071 159.1 248.215 160.612 248.287 161.98L248.899 172.348L248.935 172.96H252.211C253.759 172.96 254.695 172.924 255.055 172.888C255.847 172.78 255.955 172.384 255.955 171.088C255.955 170.044 255.703 166.768 255.559 165.796C255.487 165.364 255.199 165.256 254.803 165.508C254.299 165.868 253.003 166.696 251.779 167.596C251.239 167.344 249.871 165.58 249.871 164.752C249.871 164.356 250.015 163.888 250.483 163.42C250.951 162.952 251.671 162.304 252.895 161.296C255.199 159.424 257.107 157.876 258.151 157.876C258.835 157.876 259.591 158.236 260.203 158.776C260.635 161.296 261.031 170.98 261.139 174.256C261.175 175.3 261.247 176.812 261.175 177.604C259.771 177.748 258.007 177.82 252.571 177.928C250.519 177.964 247.495 178.036 245.119 177.964ZM268.164 178.072C266.976 178.072 266.292 177.784 266.184 176.668C266.04 175.66 266.004 174.076 265.932 172.24C265.824 169.108 265.752 166.408 265.536 164.14C265.356 162.124 265.212 160.72 265.14 158.416C265.644 158.272 266.544 158.164 267.804 158.164C269.064 158.164 269.928 158.164 270.396 158.596C270.72 158.848 270.828 159.208 270.9 159.712C271.044 160.72 271.08 161.188 271.188 163.168C271.404 165.796 271.62 167.632 271.8 168.712C272.34 172.42 272.628 175.012 272.628 176.488C271.548 177.316 269.424 178.072 268.164 178.072ZM292.515 178.18C291.543 177.352 289.491 175.48 288.627 174.58C287.583 173.536 283.551 169.36 282.543 168.424C282.003 170.512 281.787 171.88 281.175 175.912C280.959 176.956 280.815 177.532 280.527 177.82C280.311 178.036 279.987 178.144 279.447 178.144C278.547 178.144 277.719 178 276.459 177.604C275.847 177.424 275.631 177.028 275.631 175.336C275.631 171.988 276.999 166.624 278.079 164.356C277.899 164.032 277.395 163.456 276.891 162.808C276.495 162.268 276.171 161.908 276.171 161.368C276.171 160.324 277.035 159.928 277.827 159.388C278.799 158.74 279.051 158.596 279.447 158.452C280.491 159.028 281.571 159.82 283.623 161.728C285.711 163.636 286.719 164.608 287.223 165.112C287.475 164.428 288.303 160.252 288.411 159.28C288.483 158.704 288.555 158.38 288.807 158.344C288.987 158.236 289.743 158.2 291.075 158.2H291.759C292.623 158.2 293.091 158.308 293.271 158.596C293.451 158.956 293.559 159.388 293.559 160.036C293.559 162.808 292.551 166.48 292.263 168.316L292.011 169.864L293.235 171.196L295.107 173.248C295.503 173.68 295.719 174.148 295.719 174.616C295.719 175.3 295.251 176.128 294.351 177.028C293.451 177.784 292.839 178.18 292.515 178.18Z" fill="#EEE4E4"/>
</g>
<defs>
<clipPath id="clip0_24_4346">
<rect width="325" height="228" fill="white"/>
</clipPath>
</defs>
</svg>
