<svg width="325" height="228" viewBox="0 0 325 228" fill="none" xmlns="http://www.w3.org/2000/svg">
<g clip-path="url(#clip0_24_4383)">
<path d="M325 98.7763V213.17C324.099 213.844 322.842 214.327 322.334 215.229C317.484 223.743 310.096 227.975 300.46 227.975C231.931 227.975 163.389 227.911 94.8594 227.86C94.8594 188.035 94.8594 148.196 94.8594 106.706C103.771 114.267 111.186 120.494 118.511 126.822C122.015 129.846 125.696 132.134 129.391 127.597C132.895 123.277 130.47 119.858 126.864 116.808C120.326 111.268 113.902 105.588 106.044 98.7636H325V98.7763ZM265.967 162.454C259.632 162.454 253.284 162.454 246.949 162.454C241.224 162.454 238.393 165.275 238.469 171.057C238.532 176.979 238.443 182.901 238.507 188.835C238.558 193.689 241.173 196.46 245.908 196.523C259.01 196.688 272.111 196.714 285.213 196.523C290.405 196.447 293.363 193.588 293.274 188.035C293.186 182.532 293.363 177.03 293.224 171.527C293.071 165.237 290.57 162.657 284.35 162.492C278.23 162.327 272.099 162.454 265.967 162.454Z" fill="#B8E7FE"/>
<path d="M325.001 14.8806V86.0687H148.777C149.234 84.2896 149.349 83.6796 149.552 83.0951C154.795 68.3288 149.983 54.9096 137.161 48.5685C124.136 42.1257 110.945 46.1922 102.071 59.3573C100.154 62.2038 98.2373 65.0503 96.3203 67.8968C95.8379 67.7062 95.3555 67.5028 94.873 67.3122V0.177908C110.526 0.127078 126.18 0.0381247 141.833 0.0381247C194.062 0.0254171 246.315 0.0762476 298.557 1.88887e-06C309.183 -0.0127057 317.447 3.71063 322.602 13.3938C322.982 14.1182 324.176 14.3977 324.988 14.8806H325.001Z" fill="#B8E7FE"/>
<path d="M81.707 0.20332C86.0996 0.20332 90.4795 0.20332 94.8721 0.190613C94.8721 22.5687 94.8721 44.9468 94.8721 67.3122C95.3545 67.5028 95.8369 67.7062 96.3193 67.8968C98.2363 65.0503 100.153 62.2038 102.07 59.3573C110.944 46.1795 124.135 42.1257 137.16 48.5685C149.995 54.9096 154.807 68.3288 149.551 83.0951C149.348 83.6796 149.233 84.2896 148.776 86.0687H325V98.7763H106.044C113.902 105.6 120.326 111.281 126.864 116.821C130.457 119.871 132.895 123.289 129.391 127.61C125.709 132.146 122.027 129.859 118.511 126.835C111.186 120.506 103.771 114.292 94.8594 106.719C94.8594 148.222 94.8594 188.047 94.8594 227.873C90.4795 227.873 86.0996 227.873 81.7197 227.86C81.7197 188.06 81.7197 148.26 81.7197 106.782C72.833 114.343 65.4443 120.583 58.1191 126.886C54.5771 129.923 50.7812 131.93 47.1504 127.572C43.5068 123.2 46.2998 119.833 49.791 116.834C56.291 111.268 62.7402 105.638 70.6494 98.7763H0V86.0687H27.498C27.3203 84.4929 27.3457 84.0609 27.2188 83.6796C21.8867 68.2399 26.4824 54.9986 39.4316 48.5558C52.4824 42.0495 65.7744 46.2938 74.8516 59.8529C76.6416 62.5215 78.4443 65.1901 80.2471 67.8587C80.7295 67.6553 81.2246 67.4647 81.707 67.2614V0.20332ZM76.0957 85.5604C70.9668 77.7579 66.8027 71.1753 62.3594 64.7707C58.5762 59.3319 52.1523 57.5528 46.0967 59.8656C40.5742 61.975 37.5146 67.1852 38.0225 73.5644C38.5049 79.6767 42.8086 84.9123 49.2959 85.3952C57.624 86.0178 66.041 85.5477 76.0957 85.5477V85.5604ZM100.725 85.2427C110.906 85.2427 119.729 85.8399 128.438 85.0394C134.494 84.4802 137.871 79.7911 138.48 73.6279C139.115 67.2106 136.03 62.064 130.495 59.9037C124.935 57.7307 118.32 59.0777 114.994 63.7287C110.208 70.4129 105.879 77.4148 100.725 85.2554V85.2427Z" fill="#011760"/>
<rect x="213.461" y="150.076" width="94.2308" height="55.7975" fill="#B8E7FE"/>
<path d="M0.000976562 98.7763H70.6377C62.7285 105.626 56.2793 111.268 49.7793 116.834C46.2881 119.82 43.4951 123.188 47.1387 127.572C50.7695 131.943 54.5654 129.935 58.1074 126.886C65.4326 120.583 72.8213 114.343 81.708 106.782C81.708 148.26 81.708 188.06 81.708 227.86C62.5889 227.911 43.4697 228.064 24.3506 227.975C14.7783 227.924 7.45312 223.679 2.6416 215.229C2.13379 214.327 0.889648 213.844 -0.0117188 213.17C-0.0117188 175.035 -0.0117188 136.899 -0.0117188 98.7763H0.000976562Z" fill="#B8E7FE"/>
<path d="M81.707 0.203322V67.2614C81.2246 67.4647 80.7295 67.6553 80.2471 67.8587C78.4443 65.1901 76.6416 62.5342 74.8516 59.8529C65.7871 46.2938 52.4951 42.0495 39.4316 48.5558C26.4824 54.9986 21.8867 68.2272 27.2188 83.6796C27.3457 84.0609 27.3203 84.4929 27.498 86.0687H0C0 61.9115 0 37.767 0 13.6099C1.18066 12.8728 2.76758 12.4153 3.46582 11.3733C8.4043 3.90124 15.3486 0.114369 24.1846 0.0762463C43.3545 0.0127082 62.5371 0.139784 81.707 0.203322Z" fill="#B8E7FE"/>
<path d="M286.192 188.038C291.14 188.038 296.089 187.935 301.027 188.069C306.057 188.204 308.076 190.304 308.188 195.427C308.291 199.908 308.157 204.389 308.229 208.869C308.301 213.381 305.914 215.71 301.724 215.782C291.151 215.948 280.578 215.927 270.005 215.782C266.183 215.73 264.062 213.474 264.032 209.521C263.98 204.699 264.052 199.866 264.001 195.044C263.95 190.335 266.224 188.038 270.845 188.038C275.957 188.038 281.08 188.038 286.192 188.038Z" fill="#FBDA5E"/>
<path d="M76.0966 85.5604C66.0419 85.5604 57.6249 86.0305 49.2968 85.4079C42.8095 84.925 38.5058 79.6894 38.0234 73.5771C37.5156 67.1852 40.5751 61.9877 46.0976 59.8783C52.1533 57.5528 58.5898 59.3318 62.3603 64.7834C66.8036 71.1753 70.9677 77.7706 76.0966 85.5731V85.5604Z" fill="#B8E7FE"/>
<path d="M100.725 85.2427C105.892 77.4021 110.221 70.4002 114.994 63.716C118.32 59.065 124.935 57.718 130.495 59.891C136.03 62.0513 139.115 67.1979 138.48 73.6152C137.871 79.7784 134.494 84.4802 128.438 85.0266C119.729 85.8272 110.906 85.23 100.725 85.23V85.2427Z" fill="#B8E7FE"/>
<path d="M164.228 127.676C163.688 127.676 163.364 127.46 163.292 127.1C163.112 126.308 163.04 125.948 162.932 124.544C162.824 123.248 162.5 120.836 162.572 118.1C163.364 117.74 163.976 117.488 165.236 117.272C166.316 117.092 167.036 116.984 167.36 116.984C168.044 116.984 168.512 117.308 168.692 117.992C168.8 118.532 168.872 119.972 168.908 122.384L168.98 126.956L167.612 127.28C166.64 127.496 165.704 127.676 164.228 127.676ZM178.449 137.036C178.017 137.036 177.549 137 177.045 136.964C175.029 136.82 174.381 136.172 174.129 134.048C173.805 131.204 173.121 128.756 172.761 126.056C172.257 122.348 172.149 120.188 172.149 119.576C172.149 119.036 172.149 118.532 172.221 117.74C173.157 117.416 174.417 117.308 174.957 117.308H177.189L177.405 118.352C177.549 119.072 177.693 120.08 177.873 121.484C177.981 122.456 178.089 123.536 178.269 124.652C178.305 124.796 178.413 124.796 178.521 124.796C178.989 124.796 179.709 124.004 180.321 122.024C180.609 121.088 180.825 119.252 180.969 118.352C182.697 117.776 184.821 118.316 185.937 118.568C185.937 120.764 185.757 122.06 185.181 123.752C184.317 126.236 183.129 128.216 180.897 129.584C179.637 130.34 179.385 130.448 179.421 130.772C179.493 131.312 179.457 131.24 179.637 131.42C180.141 131.456 180.753 131.492 182.589 131.492C185.109 131.492 187.053 130.916 187.773 129.656C188.061 129.08 188.205 128.396 188.205 127.568L188.133 125.624C187.953 123.536 187.593 120.368 187.377 119.216L187.089 117.74L188.925 117.092C189.897 116.732 191.517 116.624 192.345 116.696C192.669 116.948 193.245 121.124 193.353 122.384C193.533 124.436 193.605 126.236 193.605 128.612C193.605 131.6 192.021 134.444 189.645 135.56C188.097 136.28 181.977 137.036 178.449 137.036ZM207.154 127.676C206.614 127.676 206.29 127.46 206.218 127.1C206.038 126.308 205.966 125.948 205.858 124.544C205.75 123.248 205.426 120.836 205.498 118.1C206.29 117.74 206.902 117.488 208.162 117.272C209.242 117.092 209.962 116.984 210.286 116.984C210.97 116.984 211.438 117.308 211.618 117.992C211.726 118.532 211.798 119.972 211.834 122.384L211.906 126.956L210.538 127.28C209.566 127.496 208.63 127.676 207.154 127.676ZM219.25 137.072C218.062 137.072 217.378 136.784 217.27 135.668C217.126 134.66 217.09 133.076 217.018 131.24C216.91 128.108 216.838 125.408 216.622 123.14C216.442 121.124 216.298 119.72 216.226 117.416C216.73 117.272 217.63 117.164 218.89 117.164C220.15 117.164 221.014 117.164 221.482 117.596C221.806 117.848 221.914 118.208 221.986 118.712C222.13 119.72 222.166 120.188 222.274 122.168C222.49 124.796 222.706 126.632 222.886 127.712C223.426 131.42 223.714 134.012 223.714 135.488C222.634 136.316 220.51 137.072 219.25 137.072ZM230.641 137.072C229.453 137.072 228.769 136.784 228.661 135.668C228.517 134.66 228.481 133.076 228.409 131.24C228.301 128.108 228.229 125.408 228.013 123.14C227.833 121.124 227.689 119.72 227.617 117.416C228.121 117.272 229.021 117.164 230.281 117.164C231.541 117.164 232.405 117.164 232.873 117.596C233.197 117.848 233.305 118.208 233.377 118.712C233.521 119.72 233.557 120.188 233.665 122.168C233.881 124.796 234.097 126.632 234.277 127.712C234.817 131.42 235.105 134.012 235.105 135.488C234.025 136.316 231.901 137.072 230.641 137.072ZM255.208 136.316C255.1 135.812 254.74 133.724 254.524 129.944L254.128 123.464L252.94 123.428C251.176 123.392 250.384 123.428 249.628 123.5L248.224 123.644L248.404 127.892C248.548 131.024 248.836 133.04 248.908 135.452C248.944 136.172 248.44 136.784 247.684 136.856C246.532 137 244.948 137 242.932 137.036L239.08 137.072L238.9 136.28C238.72 135.488 238.432 134.048 238.36 133.22C238.288 132.212 238.648 131.924 239.44 131.78C240.052 131.672 240.448 131.636 241.528 131.636H243.22L243.004 125.048C242.932 123.104 242.896 121.16 242.86 119.216C244.84 118.568 246.604 118.28 248.368 117.992C250.78 117.596 252.904 117.38 254.668 117.236C256.216 117.092 257.116 117.056 257.368 117.056C258.34 117.056 258.808 117.488 258.952 118.028C259.024 118.244 259.168 118.928 259.276 119.936C259.528 122.6 259.852 125.804 260.248 129.512C260.392 130.592 260.824 135.668 260.14 136.424C259.888 136.748 259.024 137 257.62 137.036L255.352 137.108L255.208 136.316ZM170.034 178.18C168.882 178.18 168.558 177.892 168.486 177.1C168.414 176.452 167.658 168.064 167.658 165.256C167.658 162.628 167.802 161.008 167.946 159.604L169.638 159.316C171.798 158.956 173.598 158.74 175.254 158.632C176.982 158.524 180.942 158.128 181.77 158.128C182.778 158.128 183.642 158.416 183.714 159.172C183.786 160.108 183.858 161.368 184.038 163.708C184.326 167.416 184.686 171.232 184.794 173.032L184.974 175.912L184.218 176.272C182.058 177.316 171.69 178.18 170.034 178.18ZM173.634 172.312H175.722C177.522 172.312 178.278 172.204 178.566 171.844C178.71 171.664 178.89 171.232 178.89 170.332C178.89 167.992 178.638 164.14 178.566 163.672C178.494 163.204 177.954 163.096 177.054 163.096C176.514 163.06 175.65 163.168 174.39 163.276L173.634 163.348V172.312ZM190.191 168.676C189.651 168.676 189.327 168.46 189.255 168.1C189.075 167.308 189.003 166.948 188.895 165.544C188.787 164.248 188.463 161.836 188.535 159.1C189.327 158.74 189.939 158.488 191.199 158.272C192.279 158.092 192.999 157.984 193.323 157.984C194.007 157.984 194.475 158.308 194.655 158.992C194.763 159.532 194.835 160.972 194.871 163.384L194.943 167.956L193.575 168.28C192.603 168.496 191.667 168.676 190.191 168.676ZM199.307 178.936C198.911 178.648 198.443 178.288 197.615 177.424C196.679 176.416 196.391 175.768 196.319 175.156C196.283 174.868 196.391 174.436 196.787 174.004C198.047 172.564 199.811 170.764 200.783 169.9C201.539 169.216 202.331 168.388 202.943 167.74C202.583 166.948 201.935 165.652 200.279 163.06C199.415 161.728 198.875 160.936 198.911 160.684C198.911 160.216 199.775 159.172 200.459 158.596C201.431 157.804 202.079 157.408 202.943 156.976C203.411 157.408 203.735 157.696 204.239 158.488C205.967 161.296 207.011 163.024 209.459 167.416C210.755 169.756 212.663 173.608 212.843 174.58C212.987 175.3 212.843 175.588 212.411 176.02C211.871 176.56 209.819 177.82 209.279 178C208.775 177.352 207.299 175.12 206.903 174.472C206.615 173.968 206.219 173.392 205.787 172.888C205.175 173.32 204.419 174.004 203.555 174.868C201.467 176.956 200.567 177.892 199.307 178.936ZM220.94 178.252C220.364 178.252 219.68 178.252 218.888 178.144L216.728 177.892L216.548 176.596C216.116 173.5 215.684 169.432 215.504 164.284C215.468 163.672 215.36 160.936 215.828 159.676C216.872 159.352 218.636 159.064 221.156 158.884C224.072 158.668 226.232 158.38 227.636 158.2C229.004 158.02 229.724 157.984 230.048 157.984C230.732 157.984 231.128 158.344 231.2 158.74C231.416 159.748 231.452 160.396 231.632 163.096C231.812 165.976 232.1 168.064 232.28 169.324C232.676 172.24 232.856 174.58 232.928 175.624C233 176.74 233 177.244 232.964 177.604C232.028 177.748 231.848 177.82 230.228 177.964C229.328 178 228.824 178 228.716 178C228.248 178 228.068 177.892 227.816 177.712C227.24 174.868 226.556 168.496 226.412 166.444L226.16 163.24L223.712 163.456C222.416 163.564 221.444 163.672 220.832 163.744C220.76 164.284 220.76 164.788 220.832 166.048C220.94 168.568 221.084 170.476 221.3 171.808C221.48 172.996 221.66 175.336 221.804 177.28C221.84 177.856 221.696 178.252 220.94 178.252ZM236.914 176.02V175.444C236.878 175.192 236.878 175.012 236.878 174.904C236.878 173.86 237.13 173.212 237.634 173.032C238.102 172.852 239.506 172.708 241.774 172.672L246.058 172.6L246.13 169.72V168.388C246.13 167.128 246.094 166.192 246.058 165.544C245.95 164.788 245.77 164.392 245.518 164.392C245.41 164.392 245.338 164.392 245.23 164.428C244.906 164.5 243.394 164.752 240.874 165.292C238.534 165.832 237.346 166.084 237.274 166.084C236.878 166.084 235.978 163.204 235.978 162.052V160.576L237.238 160.216C237.958 160 238.858 159.748 239.938 159.496L242.638 158.848C245.626 158.164 245.914 158.056 248.542 157.984L250.162 157.948L250.774 159.568C251.206 160.684 251.458 162.556 251.566 165.184C251.674 167.524 251.602 169.792 251.746 170.836L251.89 172.024L253.114 172.096C255.274 172.24 256.606 172.132 256.678 172.204L256.93 174.472L257.074 176.632L256.246 177.172C255.886 177.424 255.31 177.532 254.554 177.568C253.798 177.604 252.286 177.64 251.854 177.64C248.326 177.676 245.59 177.82 243.682 178C241.738 178.18 240.154 178.36 238.894 178.36H236.986L236.914 176.02Z" fill="#011760"/>
</g>
<defs>
<clipPath id="clip0_24_4383">
<rect width="325" height="228" fill="white"/>
</clipPath>
</defs>
</svg>
