<svg width="53" height="68" viewBox="0 0 53 68" fill="none" xmlns="http://www.w3.org/2000/svg">
<path d="M52.4724 65.461C52.4724 66.8633 51.3461 68 49.9566 68H2.5158C1.12636 68 0 66.8633 0 65.461V3.07445C0 1.6722 1.12636 0.535461 2.5158 0.535461H32.0063V4.16259H3.594V64.3729H48.8784V21.084H52.4724V65.461Z" fill="#F0F0C9"/>
<path d="M53.0081 21.4173H31.5908V0L53.0081 21.4173ZM35.2166 17.7916H44.2554L35.2166 8.75275V17.7916Z" fill="#F0F0C9"/>
<path d="M40.6937 28.9133V32.6614H11.7803V28.9133H40.6937Z" fill="#F0F0C9"/>
<path d="M40.6937 46.5827V49.7953H11.7803V46.5827H40.6937Z" fill="#F0F0C9"/>
<path d="M34.8039 37.4803V41.2284H11.7803V37.4803H34.8039Z" fill="#F0F0C9"/>
</svg>
