<svg width="350" height="321" viewBox="0 0 350 321" fill="none" xmlns="http://www.w3.org/2000/svg">
<path d="M22.7302 178.921C22.8454 176.559 22.9701 174.198 23.0852 171.828C25.8677 170.878 24.3709 169.918 23.0852 168.958C22.7782 162.883 22.4808 156.798 22.1737 150.722C22.6151 150.396 23.066 150.06 23.5074 149.734C23.0373 149.417 22.5767 149.11 22.1066 148.793C21.7324 144.628 21.3678 140.462 20.9936 136.297C20.7441 135.03 20.4946 133.763 20.2452 132.487C20.1684 131.21 20.1012 129.924 20.0245 128.648C19.8326 128.014 19.6407 127.39 19.4584 126.757C18.758 121.948 18.0576 117.13 17.3571 112.322C19.6887 109.654 19.919 100.67 17.6066 98.4722C17.1269 98.0115 16.1386 98.0883 15.3902 97.9251C14.7858 94.1244 14.1909 90.3237 13.5864 86.5134C14.5171 87.2908 15.4574 88.0683 16.2538 88.7209V79.8814C15.8508 79.8718 15.4574 79.8526 15.0544 79.843C14.5171 81.3882 13.9798 82.9239 13.4425 84.4691C13.0779 81.5994 12.7133 78.7296 12.3583 75.8503C12.3871 75.5528 12.3103 75.2841 12.128 75.0441C11.5715 71.4546 11.015 67.8554 10.4585 64.2658C10.4873 64.0163 10.4297 63.7955 10.2858 63.5844C10.0843 62.8742 9.87325 62.1639 9.67176 61.4441C10.2474 60.3596 11.322 59.275 11.3029 58.2001C11.2645 55.5991 12.3487 54.5049 14.8145 54.4953C15.3518 57.1539 15.8891 59.8125 16.4265 62.4615C16.3689 62.9318 16.2058 63.4212 16.2825 63.8819C19.8134 87.3676 23.3635 110.853 26.9136 134.339C27.5372 140.405 28.1609 146.471 28.7845 152.536C29.3506 157.345 30.4253 162.153 30.3485 166.952C30.2526 173.383 29.2643 179.794 28.6598 186.205C26.4914 197.703 24.3229 209.192 22.1545 220.69C21.4829 224.884 20.6578 229.05 20.1588 233.263C19.4104 239.665 18.8827 246.095 18.2591 252.516C17.8753 254.013 17.3955 255.491 17.1077 256.998C15.8892 263.496 14.7282 270.003 13.548 276.501C12.6941 274.524 11.8402 272.556 10.9191 270.425C10.6696 270.243 9.99798 269.773 9.33594 269.303C9.75811 265.598 10.1803 261.893 10.6025 258.179C11.6387 258.38 12.6845 258.572 14.5747 258.937C12.6845 253.802 17.8561 249.186 14.4116 243.782C13.1355 248.043 12.0512 251.623 10.9766 255.213C11.3316 252.641 11.6867 250.069 12.0417 247.496C12.1376 247.189 12.2239 246.873 12.3199 246.565C12.4062 244.991 12.483 243.417 12.5694 241.834C12.7996 241.143 13.0203 240.461 13.2506 239.77C13.3849 237.889 13.5193 236.018 13.6632 234.136C13.8263 233.724 13.9894 233.311 14.1621 232.898C14.3828 231.055 14.6035 229.213 14.8337 227.36C14.9585 227.034 15.0832 226.698 15.1983 226.372C15.6589 222.561 16.1194 218.742 16.5704 214.931C16.7335 214.528 16.887 214.135 17.0501 213.732C17.7697 208.712 18.4894 203.702 19.209 198.682C19.7655 199.824 20.3315 200.967 20.888 202.109C21.2335 202.003 21.5789 201.898 21.9339 201.782C21.3102 199.181 20.6961 196.571 20.0725 193.97C20.1396 192.962 20.2164 191.954 20.2836 190.946C20.4659 190.486 20.6482 190.016 20.8305 189.555C20.9936 188.096 21.1663 186.637 21.3294 185.178C21.5117 184.804 21.7036 184.439 21.8859 184.065L22.2313 180.379C22.3944 179.871 22.5575 179.372 22.711 178.863L22.7302 178.921ZM15.6301 235.614L17.4627 235.634L17.1653 231.727C16.6567 231.756 16.1386 231.785 15.6301 231.814V235.614ZM14.9968 240.337C14.8817 240.605 14.613 240.932 14.6898 241.124C14.7666 241.315 15.1791 241.373 15.4478 241.488C15.5629 241.219 15.8316 240.893 15.7548 240.701C15.6781 240.509 15.2655 240.452 14.9968 240.327V240.337ZM18.5373 217.312C18.6237 217.024 18.6812 216.841 18.7388 216.668C18.6141 216.707 18.4989 216.736 18.3742 216.774C18.4126 216.908 18.451 217.052 18.5373 217.321V217.312Z" fill="#02090B"/>
<path d="M111.328 17.2561C111.635 17.2561 111.913 17.3137 112.182 17.4577C113.486 18.0047 114.734 18.7917 116.087 19.0701C125.835 21.0952 135.583 23.0915 145.37 24.9439C148.642 25.5582 152 25.7021 155.32 26.0572C161.441 27.4297 167.543 28.9462 173.713 30.1075C176.188 30.5778 178.923 30.7889 181.341 30.2323C198.227 26.3644 215.066 22.2661 231.924 18.2831C232.673 18.1103 233.507 18.3023 234.304 18.3311C242.526 17.0833 250.788 16.0372 258.962 14.5016C263.52 13.6378 267.924 11.9581 272.395 10.6433C273.047 10.3553 273.7 10.0674 274.352 9.77946C276.175 10.0098 278.085 10.6817 279.821 10.3841C285.876 9.32837 291.892 8.07106 297.869 6.6314C302.225 5.58525 306.495 4.12639 310.793 2.85949L311.004 2.63874L311.283 2.78271C317.241 2.50437 323.209 2.22604 329.167 1.9381C331.211 1.84213 333.101 1.9381 332.842 4.79823C332.458 5.29731 332.065 5.806 331.681 6.30508C331.115 6.11312 330.539 5.91157 329.973 5.71962C328.735 5.10536 327.479 3.98242 326.25 4.00162C323.583 4.04001 320.897 4.5295 318.258 5.05737C302.57 8.21503 286.893 11.3919 271.224 14.6455C245.472 20.0107 219.72 25.3758 194.006 30.9137C190.638 31.6431 187.481 33.3515 184.219 34.6088C184.401 35.0695 184.584 35.5302 184.766 35.9909C178.827 35.0503 172.83 34.3881 166.968 33.1116C141.733 27.6313 116.557 21.8246 91.3034 16.4307C76.278 13.2251 61.1374 10.6049 46.064 7.61997C45.0662 7.41842 44.2219 6.45864 43.3008 5.85398C47.7815 5.73881 51.7058 6.16111 55.5725 6.90014C63.0276 8.3398 70.4348 10.0578 77.8995 11.4399C79.3195 11.699 80.9122 10.9792 82.4282 10.7008C83.0807 10.7872 83.7331 10.8736 84.3855 10.96C85.1531 11.6798 85.8248 12.8795 86.6883 13.0427C94.8918 14.5495 103.124 15.874 111.347 17.2465L111.328 17.2561Z" fill="#071C1E"/>
<path d="M82.4128 10.72C80.8968 10.9887 79.2945 11.7181 77.8841 11.459C70.4193 10.0769 63.0121 8.35891 55.557 6.91925C51.6903 6.17062 47.7661 5.74832 43.2853 5.87309C44.2064 6.47775 45.0508 7.43752 46.0486 7.63908C61.122 10.6144 76.2625 13.2442 91.2879 16.4498C116.541 21.8437 141.718 27.6504 166.952 33.1307C172.815 34.4072 178.811 35.0694 184.751 36.01L184.799 36.1444C184.578 36.5091 184.348 36.8738 184.127 37.2385C183.81 37.632 183.494 38.0159 183.177 38.4094C183.167 38.6974 183.158 38.9853 183.148 39.2732C181.316 38.8893 179.483 38.515 177.65 38.1311C176.173 37.5936 174.734 36.9026 173.208 36.5571C149.547 31.1631 125.935 25.5101 102.178 20.548C77.2604 15.3461 52.2276 10.6816 27.1853 6.14183C21.3229 5.07648 14.8177 4.35665 11.4403 11.5646C11.2004 12.2556 10.9702 12.9562 10.7303 13.6473C10.596 14.2327 10.4616 14.8278 10.3273 15.4132C7.54483 18.3406 8.1301 28.3894 11.2772 31.7102L11.5075 34.5607C10.0874 36.797 9.17593 38.9469 12.5725 40.2906C12.8123 40.2906 13.0522 40.3194 13.2921 40.3482C13.5224 43.2371 13.7526 46.1356 13.9733 49.0246C13.484 49.4565 12.9851 49.8883 12.4957 50.3298C13.0618 50.8385 13.6375 51.3568 14.2036 51.8655C14.4147 52.7581 14.6162 53.6411 14.8273 54.5337C12.3614 54.5337 11.2772 55.6374 11.3156 58.2384C11.3348 59.3133 10.2601 60.3979 9.68445 61.4824C7.83266 49.0629 5.77939 36.6723 4.24423 24.2144C3.72611 20.0298 3.97558 15.5572 4.90627 11.4398C6.47022 4.45262 12.9179 -0.528605 20.6033 0.191226C32.2609 1.28537 43.8418 3.2913 55.3939 5.25884C64.4418 6.80407 73.4033 8.89638 82.4032 10.7391L82.4128 10.72ZM17.1108 3.17612C21.5724 3.73279 26.034 4.28946 30.5819 4.86533C29.2578 1.67888 23.6544 0.651918 17.1108 3.17612ZM40.7523 6.52574L40.9634 4.90372H35.3408C35.3216 5.12447 35.2929 5.34522 35.2737 5.56596C37.0967 5.88269 38.9197 6.19941 40.7523 6.51614V6.52574Z" fill="#061114"/>
<path d="M332.819 4.79812C333.078 1.93799 331.188 1.84202 329.144 1.93799C323.186 2.21633 317.218 2.49466 311.26 2.7826C318.264 0.690287 325.306 -1.04691 332.666 0.747873C339.679 2.45627 344.41 7.28394 344.275 14.4439C344.093 24.4351 343.258 34.4552 341.992 44.3696C339.871 61.0601 337.194 77.6834 334.748 94.3451C334.057 99.0576 333.366 103.78 332.675 108.492C332.09 109.26 331.073 109.98 330.977 110.805C330.497 114.817 330.267 118.858 329.95 122.879C329.432 125.106 326.247 127.265 329.787 129.598C329.547 130.605 329.308 131.613 329.068 132.621C328.933 132.525 328.818 132.391 328.674 132.362C328.54 132.333 328.262 132.429 328.262 132.477C328.127 135.673 328.012 138.869 327.897 142.055C327.676 143.322 327.465 144.599 327.245 145.866C326.304 147.421 323.743 148.86 326.899 150.703C326.669 151.73 326.448 152.757 326.218 153.774C326.103 153.669 325.997 153.515 325.863 153.467C325.729 153.419 325.489 153.41 325.422 153.496C324.491 154.542 323.589 155.598 322.678 156.663C322.303 156.423 321.92 156.183 321.545 155.943C321.613 154.897 321.545 153.813 321.766 152.805C322.505 149.427 323.627 146.115 324.088 142.708C324.865 136.94 325.345 131.133 325.757 125.327C325.882 123.57 325.335 121.766 325.095 119.99C325.172 119.03 325.239 118.071 325.316 117.111C325.585 115.508 325.844 113.915 326.112 112.312C326.16 111.669 326.199 111.036 326.247 110.393C327.149 109.769 328.645 109.279 328.828 108.492C329.423 105.882 330.066 103.108 329.73 100.507C328.741 92.7327 332.196 85.6111 332.435 77.8849C332.79 66.8092 335.995 55.8293 337.77 44.7823C337.991 43.3811 336.964 41.7878 336.513 40.281C336.6 39.6571 336.686 39.0333 336.782 38.4094C337.578 37.2097 338.624 36.0964 339.094 34.7719C339.478 33.7065 338.653 31.9597 339.248 31.2591C341.589 28.4662 339.9 26.3163 338.595 24.0128C338.624 23.053 338.662 22.0933 338.691 21.1239C339.171 20.8168 339.651 20.5 340.121 20.1929C339.66 19.8762 339.19 19.5499 338.73 19.2331C338.605 18.8492 338.49 18.4653 338.365 18.0814C338.298 16.9201 338.231 15.7683 338.163 14.607C340.792 11.8813 339.219 10.5856 336.484 9.69297C336.245 9.67378 336.014 9.62579 335.784 9.5586C335.467 9.23228 335.16 8.91555 334.844 8.58923L333.721 6.96721C333.424 6.24738 333.126 5.52755 332.829 4.80772L332.819 4.79812Z" fill="#061114"/>
<path d="M327.18 173.709C328.437 181.829 329.819 189.939 330.912 198.087C333.158 214.778 335.288 231.487 337.389 248.197C338.224 254.819 338.415 261.547 339.73 268.064C340.968 274.178 343.299 280.081 345.141 286.07C343.29 286.703 341.438 287.327 339.576 287.96C338.866 286.386 338.147 284.822 337.437 283.248C336.247 280.34 335.057 277.432 333.868 274.524C333.772 273.919 333.676 273.324 333.589 272.719C335.019 269.36 336.266 266.01 332.879 262.997C332.822 262.382 332.764 261.768 332.707 261.144C333.954 258.706 335.316 256.259 331.929 254.349C331.862 253.735 331.795 253.13 331.728 252.516C333.282 250.337 334.069 248.255 330.97 246.671C330.893 246.066 330.826 245.452 330.749 244.847C332.323 241.373 331.363 233.58 329.08 231.315C328.955 230.412 328.83 229.51 328.706 228.598C330.318 227.024 330.97 225.585 328.168 224.596C328.072 223.665 327.976 222.734 327.871 221.794C329.281 219.922 330.126 218.137 327.151 216.908C327.046 216.313 326.95 215.718 326.844 215.123C328.331 213.261 329.185 211.476 326.201 210.19C326.096 209.278 325.99 208.357 325.885 207.445C327.372 205.593 328.207 203.817 325.261 202.521C325.136 201.609 325.012 200.698 324.887 199.786C326.412 197.914 327.276 196.129 324.263 194.833C324.186 194.219 324.119 193.615 324.043 193C325.962 188.768 325.194 183.518 322.354 181.397C322.268 180.782 322.181 180.178 322.095 179.563C322.738 178.661 323.381 177.749 324.023 176.847C323.16 176.444 322.296 176.041 321.442 175.638C321.289 174.736 321.145 173.843 320.991 172.941C322.642 171.357 323.304 169.908 320.454 168.92L320.07 166.127C320.915 165.128 321.759 164.13 322.891 162.787C324.34 165.061 325.568 166.981 326.796 168.9C326.844 169.543 326.883 170.186 326.931 170.83C326.393 171.271 325.846 171.703 325.309 172.144C325.933 172.653 326.547 173.162 327.17 173.67L327.18 173.709Z" fill="#061114"/>
<path d="M230.191 310.765C226.027 310.496 221.863 310.218 217.698 309.949C210.992 309.92 204.285 309.901 197.588 309.872C196.935 309.872 196.283 309.872 195.63 309.863C195.323 309.863 195.016 309.863 194.709 309.863C194.383 309.863 194.057 309.863 193.731 309.863C190.939 307.348 181.401 307.338 178.389 309.843C162.078 310.17 145.757 310.506 129.446 310.832C128.649 309.853 127.863 308.874 127.277 308.154C128.649 307.194 130.012 306.244 131.365 305.294C134.55 305.246 137.736 305.208 140.921 305.16C141.449 305.476 141.977 306.071 142.504 306.081C149.528 306.158 156.561 306.215 163.584 306.091C164.371 306.081 165.129 304.939 165.906 304.325H187.993C189.394 304.948 190.785 306.071 192.205 306.11C200.764 306.34 209.322 306.446 217.881 306.34C221.037 306.302 224.185 305.601 227.341 305.208C228.301 305.236 229.251 305.256 230.21 305.284C230.21 307.108 230.21 308.941 230.21 310.765H230.191Z" fill="#061114"/>
<path d="M230.188 310.765C230.188 308.941 230.188 307.108 230.188 305.284C245.52 306.167 260.852 307.05 276.185 307.943C276.866 307.972 277.538 308 278.219 308.029L283.957 308.96C281.069 309.162 278.181 309.469 275.293 309.536C271.32 309.632 267.348 309.565 263.385 309.565C264.959 311.081 266.734 311.436 268.442 311.974C269.795 312.396 271.08 313.03 272.395 313.567C268.154 313.164 263.913 312.761 259.672 312.358C258.943 312.262 258.214 312.166 257.485 312.07L230.197 310.774L230.188 310.765ZM258.367 311.273C258.981 310.573 259.605 310.179 259.634 309.738C259.663 309.296 259.097 308.816 258.789 308.356C258.271 308.768 257.6 309.095 257.293 309.632C257.168 309.843 257.849 310.505 258.367 311.273Z" fill="#02090B"/>
<path d="M344.257 316.082C339.758 320.007 334.615 321.457 328.752 320.036C328.205 319.892 327.649 319.758 327.102 319.623C325.807 319.547 324.511 319.47 323.216 319.383C322.545 319.163 321.873 318.942 321.201 318.712C319.964 318.635 318.726 318.558 317.488 318.481C318.735 315.324 317.977 313.702 314.274 313.807C312.422 313.865 310.551 313.135 308.68 313.097C307.481 313.078 306.272 313.663 304.324 314.181C306.848 315.688 308.325 316.571 309.803 317.454C309.457 317.387 309.121 317.32 308.776 317.243C308.181 317.061 307.596 316.888 307.001 316.706C302.818 316.341 298.644 315.967 294.461 315.602C295.247 315.237 296.025 314.623 296.84 314.556C298.75 314.402 300.678 314.508 302.607 314.508C302.683 314.037 302.77 313.558 302.846 313.087C301.398 312.703 299.949 312.31 298.5 311.936C294.921 311.014 291.333 310.093 287.754 309.171C290.93 309.392 294.106 309.613 297.282 309.824C303.806 310.745 310.311 311.964 316.874 312.511C323.36 313.049 329.904 312.915 336.428 313.078C337.177 312.713 337.925 312.348 338.673 311.974L338.625 312.012C339.566 311.331 340.506 310.659 341.437 309.978C341.648 309.862 341.859 309.786 342.099 309.747C343.471 311.628 339.23 315.429 344.257 316.053V316.082ZM329.232 318.376C329.232 318.251 329.232 318.136 329.232 318.011H327.802C327.802 318.136 327.802 318.251 327.802 318.376H329.232Z" fill="#02090B"/>
<path d="M79.5606 314.594C76.3943 314.882 73.2184 315.17 70.0522 315.458C70.9828 314.383 71.904 313.308 72.9018 312.156C70.7046 311.331 68.8816 310.64 67.0586 309.949C68.1428 309.699 69.2174 309.306 70.3112 309.21C78.2365 308.519 86.1618 307.741 94.1062 307.281C101.072 306.878 108.067 306.858 115.052 306.676C115.368 308.365 115.685 310.064 116.002 311.753C113.123 311.82 110.245 311.878 107.366 311.945C106.196 312.108 105.025 312.272 103.845 312.435C102.895 312.435 101.936 312.425 100.986 312.416C99.9783 311.302 98.9804 309.248 97.9634 309.248C93.5785 309.248 89.1937 309.824 84.1085 310.256C86.0275 311.897 87.1021 312.809 88.1767 313.721C86.2673 313.769 84.358 313.826 82.4486 313.874L79.5702 314.594H79.5606ZM109.986 311.216C110.024 310.909 110.072 310.602 110.11 310.294C108.057 309.68 105.994 309.066 103.941 308.461L103.557 310.352C105.697 310.64 107.846 310.937 109.986 311.225V311.216ZM80.9134 311.264C80.0211 310.861 79.4455 310.371 79.1288 310.506C78.6587 310.707 78.3708 311.341 77.9967 311.792C78.4284 312.099 78.8985 312.684 79.2919 312.646C79.7333 312.598 80.1171 311.984 80.9134 311.264Z" fill="#02090B"/>
<path d="M42.121 318.481C34.474 319.355 26.8366 320.478 19.1704 320.977C16.0041 321.178 12.7515 320.026 9.52764 319.499C12.9146 316.725 7.79098 315.141 8.58734 312.732C9.20141 312.819 9.81547 312.905 10.4199 313.001L10.4007 312.972C11.0532 313.298 11.7056 313.634 12.3677 313.961L12.3197 313.922C13.9796 314.239 15.6683 314.94 17.2994 314.824C24.5914 314.287 31.8642 313.51 39.1467 312.819C43.992 312.156 48.8374 311.484 53.6827 310.822L56.494 311.091C55.4194 311.705 54.4119 312.684 53.2701 312.857C49.7681 313.404 46.2084 313.644 42.4185 314.037C42.2937 315.765 42.1978 317.128 42.1019 318.491L42.121 318.481ZM31.6532 318.827C31.6819 318.155 31.7107 317.483 31.7395 316.802H13.8549C13.8549 317.368 13.8357 317.934 13.8261 318.5C19.6789 321.62 25.7524 317.09 31.6532 318.827Z" fill="#02090B"/>
<path d="M326.804 168.939C325.576 167.019 324.348 165.09 322.899 162.825C321.767 164.169 320.923 165.167 320.078 166.165C319.79 164.265 319.493 162.364 319.205 160.474C319.263 159.456 319.33 158.439 319.387 157.431C319.397 155.867 319.416 154.293 319.426 152.728C320.097 149.763 320.913 146.816 321.412 143.822C322.717 135.894 323.878 127.937 325.087 119.99C325.327 121.776 325.873 123.57 325.749 125.327C325.346 131.133 324.866 136.94 324.079 142.708C323.619 146.115 322.496 149.427 321.757 152.805C321.537 153.822 321.604 154.897 321.537 155.944C321.911 156.183 322.295 156.423 322.669 156.663C323.58 155.608 324.482 154.542 325.413 153.496C325.49 153.41 325.73 153.419 325.854 153.467C325.989 153.515 326.094 153.669 326.209 153.774C326.401 158.823 326.593 163.881 326.785 168.929L326.804 168.939Z" fill="#02090B"/>
<path d="M287.757 309.191C291.336 310.112 294.924 311.033 298.503 311.955C299.952 312.329 301.401 312.723 302.85 313.106C302.773 313.577 302.686 314.057 302.61 314.527C300.691 314.527 298.753 314.421 296.843 314.575C296.028 314.642 295.26 315.256 294.464 315.621C292.871 315.352 291.278 315.084 289.686 314.815C290.357 314.7 291.029 314.594 291.7 314.479C291.643 314.037 291.576 313.596 291.518 313.154C289.302 313.654 287.085 314.153 284.869 314.652C283.583 314.393 282.298 314.124 281.022 313.865C281.319 313.769 281.616 313.692 281.895 313.558C281.962 313.529 281.943 313.308 281.962 313.183C279.448 313.941 276.598 309.632 274.315 313.692C273.672 313.644 273.029 313.596 272.377 313.548C271.062 313.01 269.776 312.377 268.424 311.955C266.716 311.427 264.941 311.072 263.367 309.546C267.339 309.546 271.312 309.622 275.274 309.517C278.162 309.44 281.05 309.143 283.938 308.941C285.205 309.018 286.481 309.095 287.747 309.171L287.757 309.191Z" fill="#061114"/>
<path d="M0.316644 295.495C1.21855 292.663 2.12044 289.842 3.02235 287.01C4.27926 287.548 5.52658 288.085 6.50525 288.498C8.17474 285.974 9.73871 283.613 11.2931 281.252C11.3122 281.866 11.3314 282.49 11.3506 283.104C9.18221 289.707 6.70674 296.243 5.00847 302.971C4.47116 305.083 6.01592 307.713 6.6012 310.102C6.57242 310.381 6.59162 310.669 6.63959 310.947C5.92958 310.841 4.88374 310.995 4.56712 310.592C2.78249 308.25 1.43923 309.162 0.105558 310.985C0.0671786 306.522 0.0383791 302.059 0 297.597C0.527712 299.094 1.06502 300.601 1.59273 302.098C4.0394 299.142 4.04901 296.848 0.316644 295.514V295.495ZM3.8859 291.521C3.46373 292.366 2.95521 292.913 3.05116 293.335C3.14711 293.786 3.80912 294.122 4.22169 294.506C4.61508 293.969 5.17158 293.47 5.33469 292.874C5.40185 292.644 4.59591 292.164 3.8859 291.521Z" fill="#02090B"/>
<path d="M42.1211 318.481C42.217 317.118 42.313 315.755 42.4377 314.028C46.2373 313.644 49.7873 313.394 53.2894 312.847C54.4312 312.665 55.4386 311.686 56.5132 311.081C57.1369 311.024 57.7702 310.976 58.3938 310.918C60.8213 312.051 63.2871 313.471 65.1485 310.074C65.7818 310.035 66.4246 309.987 67.0579 309.949C68.8809 310.64 70.7039 311.321 72.9011 312.156C71.9033 313.318 70.9725 314.383 70.0514 315.458C69.0536 315.525 68.0462 315.583 67.0483 315.65C60.9077 313.999 55.0164 314.757 49.3076 317.435C48.7031 317.377 48.0986 317.31 47.5037 317.243C46.6786 317.406 45.8439 317.579 45.0187 317.752C44.0497 317.992 43.0902 318.241 42.1211 318.481Z" fill="#061114"/>
<path d="M11.2902 281.252C9.7263 283.613 8.17193 285.974 6.50244 288.498C5.52377 288.076 4.27645 287.548 3.01953 287.01C3.53765 285.715 4.05577 284.419 4.58348 283.123C4.99606 281.866 5.40864 280.609 5.82122 279.342C7.00137 276.002 8.18152 272.671 9.35208 269.331C10.0141 269.802 10.6857 270.281 10.9352 270.454C11.8563 272.575 12.7103 274.552 13.5642 276.53C13.4587 277.115 13.3435 277.701 13.238 278.286C12.9118 278.651 12.5759 279.025 12.2497 279.39C11.9811 279.735 11.722 280.09 11.4533 280.436C11.4533 280.714 11.3958 280.983 11.2902 281.242V281.252Z" fill="#061114"/>
<path d="M339.584 287.961C341.436 287.327 343.288 286.703 345.149 286.07C347.759 292.548 350.637 298.96 349.802 306.225C349.639 306.657 349.467 307.089 349.303 307.521C348.929 308.653 348.555 309.795 348.181 310.928C348.181 307.406 348.392 303.864 348.114 300.37C347.826 296.656 346.329 296.205 343.192 298.585C342.395 296.57 341.608 294.545 340.812 292.529C340.447 291.608 340.083 290.677 339.728 289.755C339.68 289.16 339.642 288.556 339.594 287.961H339.584ZM344.765 291.723C344.209 292.404 343.595 292.827 343.633 293.182C343.681 293.652 344.18 294.305 344.612 294.42C344.938 294.506 345.792 293.892 345.801 293.575C345.811 293.095 345.293 292.596 344.765 291.732V291.723Z" fill="#02090B"/>
<path d="M155.331 26.0571C152.012 25.702 148.653 25.558 145.382 24.9438C135.605 23.101 125.847 21.1047 116.098 19.0699C114.746 18.7916 113.489 18.0046 112.193 17.4575C120.426 18.8012 128.687 19.9625 136.871 21.5558C143.079 22.7651 149.181 24.5311 155.331 26.0571Z" fill="#061114"/>
<path d="M343.177 298.585C346.324 296.205 347.821 296.647 348.109 300.37C348.378 303.874 348.167 307.406 348.176 310.928L348.167 310.976C347.908 311.446 347.648 311.907 347.38 312.377C346.344 313.615 345.307 314.844 344.271 316.082C339.243 315.458 343.484 311.648 342.112 309.776L342.227 309.863C345.893 307.636 346.468 303.394 343.513 300.438C343.408 299.814 343.292 299.2 343.187 298.576L343.177 298.585Z" fill="#061114"/>
<path d="M272.384 10.6432C267.913 11.958 263.509 13.6377 258.951 14.5015C250.786 16.0371 242.516 17.0832 234.293 18.331C246.987 15.7684 259.681 13.2058 272.384 10.6432Z" fill="#061114"/>
<path d="M310.781 2.85939C306.473 4.13589 302.213 5.58515 297.857 6.6313C291.889 8.07097 285.863 9.32827 279.809 10.384C278.072 10.6816 276.172 10.0097 274.34 9.77936C284.923 7.62947 295.496 5.45078 306.089 3.33928C307.624 3.03215 309.217 3.00336 310.781 2.84979V2.85939Z" fill="#061114"/>
<path d="M0.103516 310.966C1.43719 309.152 2.78045 308.241 4.56508 310.573C4.8817 310.985 5.92754 310.822 6.63755 310.928C6.92539 310.985 7.20363 311.024 7.50107 311.043C7.86567 311.6 8.22069 312.156 8.58529 312.713C7.77933 315.122 12.9125 316.715 9.52558 319.489C5.05442 318.117 1.85934 315.343 0.11309 310.957L0.103516 310.966Z" fill="#061114"/>
<path d="M131.354 305.294C130.001 306.244 128.638 307.194 127.266 308.154C127.852 308.874 128.648 309.853 129.435 310.832C125.607 311.091 121.769 311.341 117.94 311.6C119.821 310.688 121.701 309.776 123.582 308.855C123.572 308.48 123.553 308.106 123.544 307.732C120.742 307.386 117.931 307.05 115.139 306.715C115.465 306.263 115.791 305.812 116.117 305.371C119.946 305.284 123.764 305.198 127.593 305.112C128.85 305.179 130.097 305.236 131.354 305.304V305.294Z" fill="#02090B"/>
<path d="M309.805 317.473C308.327 316.59 306.85 315.707 304.326 314.201C306.274 313.692 307.483 313.097 308.682 313.116C310.553 313.154 312.424 313.874 314.276 313.826C317.989 313.721 318.737 315.343 317.49 318.5C315.888 318.193 314.276 317.896 312.674 317.589C312.367 317.589 312.06 317.579 311.743 317.569C311.1 317.541 310.448 317.512 309.805 317.473Z" fill="#061114"/>
<path d="M88.1756 313.73C87.101 312.819 86.0264 311.897 84.1074 310.266C89.1926 309.834 93.5775 309.248 97.9623 309.258C98.9697 309.258 99.9772 311.312 100.985 312.425H100.726C97.1179 312.339 93.28 310.294 90.1042 313.711C89.4613 313.711 88.8184 313.73 88.1756 313.74V313.73Z" fill="#061114"/>
<path d="M111.33 17.2561C103.108 15.8836 94.8658 14.5495 86.6718 13.0523C85.8083 12.8891 85.1271 11.6894 84.3691 10.9696C93.3594 13.0619 102.35 15.1542 111.34 17.2561H111.33Z" fill="#061114"/>
<path d="M15.408 97.9251C16.1662 98.0979 17.1452 98.0211 17.6251 98.4722C19.9477 100.67 19.7174 109.654 17.3756 112.322C16.7133 107.523 16.0607 102.714 15.3984 97.9155L15.408 97.9251Z" fill="#061114"/>
<path d="M11.0031 255.242C12.0777 251.662 13.1523 248.072 14.438 243.811C17.8826 249.214 12.7206 253.821 14.6011 258.966C12.7014 258.611 11.6651 258.409 10.6289 258.207C10.7536 257.219 10.8784 256.23 11.0031 255.232V255.242Z" fill="#061114"/>
<path d="M115.126 306.705C117.927 307.05 120.739 307.386 123.54 307.732C123.55 308.106 123.569 308.481 123.579 308.855C121.698 309.767 119.817 310.678 117.937 311.6C117.294 311.657 116.642 311.705 115.999 311.763C115.682 310.074 115.365 308.375 115.049 306.686L115.126 306.705Z" fill="#061114"/>
<path d="M178.365 309.843C181.378 307.338 190.915 307.348 193.707 309.863L178.365 309.843Z" fill="#02090B"/>
<path d="M13.4629 84.469C14.0004 82.9237 14.5379 81.3881 15.0753 79.8429C15.4784 79.8525 15.8719 79.8717 16.2751 79.8813V88.7208C15.4784 88.0585 14.5475 87.2907 13.6069 86.5133C13.5589 85.8319 13.5109 85.1504 13.4629 84.469Z" fill="#061114"/>
<path d="M197.576 309.872C204.283 309.901 210.99 309.92 217.687 309.949C210.98 309.92 204.273 309.901 197.576 309.872Z" fill="#02090B"/>
<path d="M329.965 122.879C330.282 118.848 330.522 114.808 330.992 110.805C331.088 109.98 332.096 109.26 332.691 108.492L332.412 110.479C332.23 111.064 332.038 111.65 331.856 112.235C331.75 113.877 331.654 115.527 331.548 117.169C331.328 118.071 331.107 118.973 330.886 119.875C330.848 120.873 330.8 121.872 330.761 122.87C330.493 122.87 330.234 122.87 329.965 122.87V122.879Z" fill="#02090B"/>
<path d="M49.3047 317.435C55.004 314.757 60.9048 313.999 67.0455 315.65C65.5295 315.727 64.0231 315.804 62.5071 315.88C61.4709 316.111 60.4346 316.341 59.408 316.581L54.6106 316.763C52.9028 316.994 51.1949 317.224 49.4966 317.445H49.3143L49.3047 317.435Z" fill="#02090B"/>
<path d="M0.316742 295.495C4.05026 296.829 4.04065 299.113 1.59323 302.079C1.06535 300.581 0.527876 299.075 0 297.577L0.316742 295.495Z" fill="#061114"/>
<path d="M90.0938 313.702C93.2696 310.275 97.1171 312.329 100.715 312.416C99.1128 312.588 97.5009 312.761 95.8986 312.934C95.6299 312.876 95.3709 312.915 95.131 313.049C93.4519 313.27 91.7728 313.491 90.0938 313.711V313.702Z" fill="#02090B"/>
<path d="M20.0904 194.018C20.7142 196.619 21.3285 199.229 21.9523 201.83C21.6068 201.936 21.2613 202.041 20.9062 202.157C20.3495 201.014 19.7832 199.872 19.2266 198.73L20.0904 194.018Z" fill="#061114"/>
<path d="M327.914 142.056C328.029 138.859 328.144 135.663 328.279 132.477C328.279 132.429 328.557 132.333 328.692 132.362C328.836 132.391 328.96 132.535 329.085 132.621C328.96 134.502 328.835 136.393 328.711 138.274C328.49 138.907 328.279 139.541 328.058 140.174C328.01 140.798 327.962 141.432 327.914 142.056Z" fill="#02090B"/>
<path d="M274.312 313.702C276.606 309.642 279.455 313.951 281.96 313.193C281.94 313.327 281.96 313.538 281.892 313.567C281.614 313.702 281.307 313.778 281.019 313.874L274.312 313.702Z" fill="#02090B"/>
<path d="M284.865 314.661C287.082 314.162 289.298 313.663 291.514 313.164C291.572 313.606 291.639 314.047 291.697 314.489C291.025 314.604 290.353 314.709 289.682 314.825C288.079 314.767 286.468 314.719 284.865 314.661Z" fill="#02090B"/>
<path d="M329.801 129.588C326.26 127.265 329.446 125.096 329.965 122.87C329.945 124.108 329.936 125.336 329.917 126.574C329.878 127.573 329.84 128.58 329.801 129.578V129.588Z" fill="#02090B"/>
<path d="M5.81976 279.342C5.40719 280.599 4.99461 281.856 4.58203 283.122C4.99461 281.865 5.40719 280.608 5.81976 279.342Z" fill="#02090B"/>
<path d="M326.912 150.703C323.754 148.851 326.317 147.421 327.257 145.866C327.142 147.478 327.027 149.091 326.912 150.703Z" fill="#02090B"/>
<path d="M327.182 173.708C326.558 173.199 325.944 172.691 325.32 172.182C325.858 171.741 326.405 171.309 326.942 170.868C327.019 171.818 327.105 172.758 327.182 173.708Z" fill="#02090B"/>
<path d="M23.1016 168.958C24.3777 169.918 25.8744 170.877 23.1016 171.827C23.1016 170.867 23.1016 169.918 23.1016 168.958Z" fill="#061114"/>
<path d="M49.4883 317.435C51.1961 317.205 52.904 316.975 54.6023 316.754C52.8944 316.984 51.1866 317.214 49.4883 317.435Z" fill="#061114"/>
<path d="M20.2617 132.487C20.5112 133.753 20.7606 135.02 21.0101 136.296C20.7606 135.029 20.5112 133.763 20.2617 132.487Z" fill="#061114"/>
<path d="M22.123 148.784C22.5932 149.1 23.0538 149.407 23.5239 149.724C23.0825 150.05 22.6316 150.386 22.1902 150.712C22.171 150.069 22.1518 149.426 22.123 148.784Z" fill="#061114"/>
<path d="M329.916 126.583C329.935 125.345 329.945 124.117 329.964 122.879C330.233 122.879 330.492 122.879 330.76 122.879C330.482 124.117 330.204 125.355 329.916 126.592V126.583Z" fill="#061114"/>
<path d="M59.3965 316.581C60.4327 316.35 61.4689 316.12 62.4956 315.88C61.4593 316.111 60.4231 316.341 59.3965 316.581Z" fill="#061114"/>
<path d="M103.834 312.435C105.005 312.271 106.175 312.108 107.355 311.945C106.185 312.108 105.014 312.271 103.834 312.435Z" fill="#061114"/>
<path d="M45.0078 317.752C45.8426 317.579 46.6677 317.406 47.4929 317.243C46.6581 317.416 45.833 317.589 45.0078 317.752Z" fill="#02090B"/>
<path d="M19.4766 126.757C19.6685 127.39 19.8603 128.014 20.0427 128.647C19.8508 128.014 19.6589 127.39 19.4766 126.757Z" fill="#061114"/>
<path d="M321.201 318.721C321.873 318.942 322.544 319.163 323.216 319.393C322.544 319.172 321.873 318.951 321.201 318.721Z" fill="#061114"/>
<path d="M10.3031 63.594C10.4374 63.7955 10.495 64.0257 10.4758 64.2752C10.1592 64.1025 10.1016 63.8722 10.3031 63.594Z" fill="#061114"/>
<path d="M12.1451 75.0536C12.337 75.2935 12.4137 75.5621 12.3753 75.8596C12.2506 75.6868 12.1067 75.5333 12.0108 75.3414C11.982 75.2839 12.0875 75.1495 12.1355 75.0536H12.1451Z" fill="#061114"/>
<path d="M22.7278 178.921C22.5647 179.429 22.4016 179.928 22.248 180.437C22.4112 179.928 22.5743 179.429 22.7278 178.921Z" fill="#061114"/>
<path d="M194.697 309.862C195.004 309.862 195.311 309.862 195.618 309.862L195.158 309.987L194.697 309.853V309.862Z" fill="#02090B"/>
<path d="M95.1328 313.049C95.3727 312.924 95.6317 312.886 95.9004 312.934C95.6413 312.972 95.3919 313.01 95.1328 313.049Z" fill="#061114"/>
<path d="M14.1689 232.936C14.0058 233.349 13.8426 233.762 13.6699 234.174C13.833 233.762 13.9962 233.349 14.1689 232.936Z" fill="#061114"/>
<path d="M15.2142 226.42C15.0895 226.746 14.9647 227.082 14.8496 227.408C14.9743 227.082 15.0991 226.746 15.2142 226.42Z" fill="#061114"/>
<path d="M311.75 317.56C312.057 317.56 312.364 317.57 312.681 317.579L312.22 317.694L311.76 317.56H311.75Z" fill="#02090B"/>
<path d="M347.371 312.377C347.63 311.907 347.889 311.446 348.158 310.976C347.899 311.446 347.64 311.907 347.371 312.377Z" fill="#02090B"/>
<path d="M28.6779 186.224C29.2824 179.803 30.2706 173.392 30.3666 166.971C30.4434 162.172 29.3687 157.364 28.8026 152.555C28.486 146.518 28.179 140.472 27.8624 134.435C27.8432 133.801 27.824 133.158 27.8048 132.525C28.7355 131.565 30.5105 130.577 30.4626 129.665C29.8677 117.197 29.1289 104.73 28.2078 92.2816C27.5841 83.7876 26.3368 75.332 26.0106 66.838C25.9338 64.7649 28.3709 62.5958 29.6566 60.4747C36.2098 63.9778 37.1981 70.322 37.2269 76.6565C37.2748 89.3255 41.5829 101.131 44.0104 113.31C43.4635 117.668 43.1948 122.083 42.3217 126.373C40.729 134.166 40.0765 141.739 44.9603 148.716C47.215 151.941 49.4698 155.176 51.7246 158.4C51.5423 161.165 51.9356 163.478 55.5625 163.199C56.2053 163.842 56.8386 164.476 57.4814 165.119C57.7884 167.96 58.959 170.628 55.8023 173.143C50.909 177.039 46.4091 181.464 42.0243 185.946C36.5169 191.58 37.0158 197.415 43.0893 202.55L41.1511 212.148C38.7812 212.349 37.5723 211.812 37.1501 208.913C36.7087 205.909 35.0009 203.059 33.648 200.247C33.3218 199.575 31.9977 198.74 31.4988 198.932C30.7024 199.239 29.9732 200.247 29.6374 201.12C28.8698 203.145 28.3517 205.266 27.728 207.339L25.8379 206.37C26.7782 199.661 27.7281 192.943 28.6684 186.234L28.6779 186.224Z" fill="#035C71"/>
<path d="M29.6574 60.4651C28.3717 62.5862 25.9346 64.7553 26.0114 66.8284C26.3376 75.3224 27.5849 83.7876 28.2086 92.272C29.1297 104.72 29.8685 117.188 30.4634 129.655C30.5114 130.567 28.7363 131.565 27.8056 132.515C24.7353 111.074 21.7034 89.6327 18.5467 68.2009C18.2588 66.2334 17.165 64.381 16.4454 62.4711C15.9081 59.8125 15.3612 57.1635 14.8335 54.5049C14.632 53.6123 14.4209 52.7293 14.2098 51.8368C14.1331 50.8866 14.0563 49.946 13.9796 48.9958C13.7493 46.1069 13.519 43.2084 13.2983 40.3195C13.0297 36.1828 12.761 32.0462 12.502 27.9096C13.1064 25.8557 13.5958 23.7537 14.3442 21.7574C14.7951 20.5673 15.4668 19.2812 16.4166 18.5422C16.762 18.2734 18.2684 19.4444 19.1991 20.0298C20.7727 21.0184 22.3174 22.0549 23.8718 23.0723C25.8099 27.2281 27.7385 31.3744 29.6766 35.5302C29.0625 36.4228 27.796 37.4689 27.9591 38.1888C28.6499 41.2696 29.1489 44.6768 30.8663 47.1627C33.2267 50.5699 32.3056 53.3916 31.039 56.5492C30.5209 57.8353 30.1083 59.1598 29.6478 60.4651H29.6574Z" fill="#0B7282"/>
<path d="M25.8507 206.36C26.484 206.687 27.1076 207.013 27.7409 207.33C25.7739 225.853 24.0181 244.396 21.6866 262.882C21.1013 267.527 18.7026 271.932 17.1387 276.453C17.3018 272.95 17.4553 269.437 17.6184 265.934C17.8295 261.471 18.0598 256.998 18.2805 252.535C18.9041 246.114 19.4318 239.684 20.1802 233.282C20.6791 229.069 21.4947 224.894 22.1759 220.709C22.7516 219.768 23.6439 218.895 23.855 217.878C24.6418 214.067 25.2079 210.209 25.8507 206.36Z" fill="#06677A"/>
<path d="M16.4451 62.4806C17.1647 64.3906 18.2489 66.2429 18.5463 68.2105C21.703 89.6326 24.7349 111.084 27.8053 132.525C27.8245 133.158 27.8436 133.801 27.8628 134.435C27.5558 134.406 27.2392 134.377 26.9322 134.358C23.3821 110.872 19.832 87.3868 16.3011 63.9011C16.234 63.45 16.3971 62.9605 16.4451 62.4806Z" fill="#168E99"/>
<path d="M25.8525 206.36C25.2097 210.2 24.6436 214.058 23.8568 217.878C23.6457 218.895 22.7534 219.768 22.1777 220.709C24.3462 209.211 26.5145 197.722 28.683 186.224C27.7427 192.943 26.7928 199.652 25.8525 206.36Z" fill="#148794"/>
<path d="M18.2777 252.535C18.057 256.998 17.8363 261.471 17.6156 265.934C17.4429 269.437 17.2894 272.95 17.1359 276.453C16.8193 277.077 16.5026 277.701 16.1956 278.324C15.2361 278.324 14.2863 278.344 13.3268 278.353L13.25 278.286C13.3555 277.701 13.4611 277.115 13.5762 276.53C14.7564 270.032 15.9174 263.525 17.1359 257.027C17.4237 255.511 17.8939 254.032 18.2873 252.545L18.2777 252.535Z" fill="#168E99"/>
<path d="M26.9297 134.349C27.2368 134.377 27.5535 134.406 27.8606 134.425C28.1774 140.462 28.4845 146.509 28.8012 152.546C28.1773 146.48 27.5535 140.414 26.9297 134.349Z" fill="#0B7282"/>
<path d="M15.6289 235.613V231.814C16.1374 231.785 16.6556 231.756 17.1641 231.727L17.4615 235.632L15.6289 235.613Z" fill="#061114"/>
<path d="M14.9964 240.336C15.2651 240.452 15.6776 240.509 15.7544 240.711C15.8311 240.903 15.5625 241.229 15.4474 241.497C15.1787 241.382 14.7661 241.325 14.6894 241.133C14.6126 240.941 14.8813 240.615 14.9964 240.346V240.336Z" fill="#061114"/>
<path d="M18.5342 217.311C18.4575 217.043 18.4191 216.908 18.3711 216.764C18.4958 216.726 18.611 216.697 18.7357 216.659C18.6781 216.841 18.6206 217.023 18.5342 217.302V217.311Z" fill="#061114"/>
<path d="M184.199 34.6088C187.452 33.3515 190.618 31.6431 193.986 30.9137C219.7 25.3758 245.452 20.0011 271.205 14.6455C286.873 11.3823 302.551 8.21502 318.238 5.05737C320.877 4.52949 323.563 4.03041 326.231 4.00161C327.468 3.98242 328.716 5.11495 329.953 5.71961C309.775 9.52032 289.588 13.321 269.41 17.1217C266.858 17.88 264.306 18.6382 261.763 19.3964C259.864 19.358 257.897 18.9741 256.083 19.3388C244.301 21.7095 232.557 24.2241 220.803 26.7291C208.599 29.3301 196.404 31.979 184.209 34.5992L184.199 34.6088Z" fill="#02090B"/>
<path d="M184.199 34.6087C196.394 31.9789 208.589 29.3396 220.794 26.7386C232.547 24.2336 244.291 21.7189 256.074 19.3483C257.887 18.9836 259.854 19.3675 261.754 19.4059C253.272 21.2774 244.8 23.1586 236.318 25.011C221.427 28.255 206.536 31.4799 191.674 34.7047C192.873 36.1348 193.736 37.1713 194.59 38.1983C192.393 37.6128 190.196 37.0369 187.999 36.4515C186.934 36.3459 185.869 36.2307 184.804 36.1252L184.756 35.9908C184.573 35.5301 184.391 35.0694 184.209 34.6087H184.199Z" fill="#70E5E6"/>
<path d="M269.412 17.1312C289.59 13.3305 309.777 9.52983 329.955 5.72913C330.521 5.92108 331.097 6.12263 331.663 6.31459C332.344 6.53534 333.035 6.75609 333.716 6.96724L334.839 8.58925L334.752 8.67563C329.427 8.58925 323.968 7.69666 318.806 8.57966C304.337 11.0751 290.002 14.3479 275.581 17.1792C273.605 17.5631 271.465 17.16 269.402 17.1217L269.412 17.1312Z" fill="#70E5E6"/>
<path d="M333.727 6.96662C333.046 6.74594 332.355 6.52526 331.674 6.31418C332.058 5.81525 332.451 5.30673 332.835 4.8078C333.132 5.52741 333.43 6.24702 333.727 6.96662Z" fill="#02090B"/>
<path d="M11.4459 11.5358C14.8233 4.32788 21.3285 5.04771 27.1909 6.11306C52.2332 10.6528 77.266 15.3173 102.184 20.5193C125.94 25.4717 149.543 31.1344 173.214 36.5283C174.739 36.8738 176.178 37.5745 177.656 38.1023L177.416 38.3999C172.187 37.1618 166.987 35.7797 161.729 34.6952C117.919 25.7117 74.1189 16.6706 30.2612 7.90784C18.2678 5.50841 16.368 6.57375 12.3574 14.3383L12.3958 14.4535L11.3691 13.3498C11.3979 12.7451 11.4267 12.1404 11.4459 11.5358Z" fill="#70E5E6"/>
<path d="M187.998 36.4515C190.195 37.0369 192.392 37.6128 194.59 38.1983C198.476 39.8587 202.361 41.5095 206.257 43.1699C200.481 43.6306 204.76 46.2988 205.173 48.1223C198.111 45.5693 191.059 43.0259 183.997 40.4729C183.93 40.2234 183.939 39.9834 184.045 39.7531C183.757 39.302 183.469 38.8509 183.172 38.3902C183.489 37.9967 183.805 37.6128 184.122 37.2193C185.407 36.9602 186.703 36.7106 187.998 36.4515Z" fill="#0B7282"/>
<path d="M11.3705 13.3594C11.716 13.7241 12.052 14.0984 12.3975 14.4631C12.4359 18.9453 12.4647 23.437 12.5031 27.9192C12.7718 32.0558 13.0405 36.1924 13.2997 40.329C13.0597 40.2906 12.8198 40.2715 12.5799 40.2715C12.2247 38.3615 11.8696 36.4516 11.5145 34.5416L11.2842 31.6911C10.9674 26.2587 10.6507 20.8264 10.334 15.3941C10.4684 14.8086 10.6027 14.2136 10.7371 13.6281C10.9482 13.5321 11.1594 13.4458 11.3705 13.3594Z" fill="#35A9B0"/>
<path d="M17.1055 3.17611C23.6395 0.651905 29.2524 1.67886 30.5765 4.86532C26.0286 4.29905 21.567 3.73278 17.1055 3.17611Z" fill="#071C1E"/>
<path d="M10.3351 15.3941C10.6518 20.8264 10.9685 26.2587 11.2852 31.691C8.13718 28.3702 7.55173 18.3214 10.3351 15.3941Z" fill="#02090B"/>
<path d="M40.7482 6.52578C38.9252 6.20906 37.1021 5.89233 35.2695 5.57561C35.2887 5.35486 35.3175 5.13411 35.3367 4.91336H40.9593L40.7482 6.53538V6.52578Z" fill="#071C1E"/>
<path d="M184.04 39.7531C183.935 39.993 183.925 40.233 183.992 40.4729C181.795 39.7819 179.607 39.0908 177.41 38.3998L177.65 38.1023C179.483 38.4862 181.315 38.8605 183.148 39.2444C183.445 39.4076 183.743 39.5707 184.04 39.7435V39.7531Z" fill="#70E5E6"/>
<path d="M11.5164 34.5416C11.8715 36.4515 12.2266 38.3615 12.5817 40.2714C9.17454 38.9278 10.0959 36.7875 11.5164 34.5416Z" fill="#02090B"/>
<path d="M13.9796 49.0054C14.0563 49.9553 14.1331 50.8956 14.2098 51.8455C13.6437 51.337 13.068 50.8188 12.502 50.3103C12.9913 49.8786 13.4902 49.4468 13.9796 49.0054Z" fill="#02090B"/>
<path d="M11.3696 13.3588C11.1585 13.4451 10.9474 13.5315 10.7363 13.6274C10.9762 12.9366 11.2065 12.2362 11.4464 11.5454C11.4176 12.1498 11.3888 12.7543 11.3696 13.3588Z" fill="#02090B"/>
<path d="M187.997 36.4514C186.702 36.7105 185.416 36.96 184.121 37.219C184.342 36.8544 184.572 36.4898 184.793 36.1252C185.858 36.2308 186.923 36.3459 187.988 36.4514H187.997Z" fill="#071C1E"/>
<path d="M184.041 39.7527C183.743 39.5896 183.446 39.4265 183.148 39.2538C183.148 38.966 183.158 38.6781 183.177 38.3903C183.465 38.8412 183.753 39.2922 184.05 39.7527H184.041Z" fill="#071C1E"/>
<path d="M336.507 40.281C336.958 41.7879 337.994 43.3811 337.764 44.7823C335.989 55.839 332.784 66.8092 332.429 77.885C332.179 85.6112 328.735 92.7327 329.723 100.507C330.049 103.098 329.407 105.882 328.821 108.492C328.639 109.279 327.133 109.769 326.24 110.393L326.921 101.822C327.536 97.8195 328.217 93.8172 328.735 89.8054C329.79 81.6089 330.759 73.3932 331.767 65.1872C332.151 64.0162 332.678 62.8741 332.889 61.6744C334.137 54.5529 335.317 47.4121 336.516 40.281H336.507Z" fill="#02090B"/>
<path d="M336.509 40.2809C335.31 47.4121 334.13 54.5528 332.882 61.6743C332.671 62.874 332.144 64.0162 331.76 65.1871C331.798 62.6629 331.827 60.1387 331.865 57.6241C333.151 48.3431 334.427 39.062 335.713 29.781C336.039 27.9574 336.375 26.1243 336.701 24.3007L335.732 24.2431V29.7906C335.415 25.9419 335.099 22.0836 334.782 18.2349C335.195 18.0238 335.607 17.8126 336.02 17.6015C336.797 17.7646 337.584 17.9278 338.361 18.091C338.486 18.4749 338.601 18.8588 338.726 19.2427C338.716 19.8761 338.697 20.5096 338.687 21.143C338.658 22.1028 338.62 23.0626 338.591 24.032C337.987 28.8308 337.382 33.6297 336.778 38.419C336.692 39.0428 336.605 39.6667 336.509 40.2905V40.2809Z" fill="#18949E"/>
<path d="M326.925 101.822L326.244 110.393C326.196 111.036 326.158 111.669 326.11 112.312C325.841 113.915 325.582 115.508 325.313 117.111C325.236 118.071 325.169 119.03 325.093 119.99C323.874 127.937 322.713 135.894 321.418 143.821C320.928 146.816 320.103 149.762 319.432 152.728C319.624 150.05 319.691 147.353 320.017 144.685C321.37 133.696 322.694 122.697 324.267 111.746C324.747 108.387 326.004 105.133 326.906 101.831L326.925 101.822Z" fill="#148794"/>
<path d="M336.775 38.4095C337.38 33.6106 337.985 28.8118 338.589 24.0225C339.895 26.326 341.584 28.4758 339.242 31.2688C338.647 31.9694 339.472 33.7162 339.088 34.7816C338.618 36.1061 337.572 37.2194 336.775 38.4191V38.4095Z" fill="#02090B"/>
<path d="M338.37 18.0814C337.592 17.9183 336.805 17.7551 336.028 17.6015C335.922 14.9526 335.817 12.294 335.711 9.63541L335.788 9.55862C336.018 9.63541 336.248 9.6834 336.488 9.69299C337.045 11.3342 337.611 12.9658 338.168 14.607C338.235 15.7684 338.302 16.9201 338.37 18.0814Z" fill="#70E5E6"/>
<path d="M338.166 14.607C337.609 12.9658 337.043 11.3342 336.486 9.69296C339.222 10.5856 340.796 11.8717 338.166 14.607Z" fill="#02090B"/>
<path d="M338.682 21.133C338.691 20.4997 338.71 19.8665 338.72 19.2332C339.181 19.5498 339.651 19.8761 340.111 20.1927C339.632 20.4997 339.152 20.8164 338.682 21.1234V21.133Z" fill="#02090B"/>
<path d="M334.838 8.58923C335.155 8.91546 335.462 9.24168 335.779 9.5583L335.702 9.63506C335.385 9.31844 335.069 8.99221 334.752 8.67559L334.838 8.58923Z" fill="#70E5E6"/>
<path d="M324.898 199.815C325.023 200.727 325.147 201.638 325.272 202.55C325.483 204.191 325.685 205.833 325.896 207.474C326.001 208.386 326.107 209.307 326.212 210.219C326.423 211.86 326.634 213.501 326.855 215.152C326.961 215.747 327.057 216.342 327.162 216.937L327.882 221.822C327.978 222.753 328.074 223.684 328.179 224.625C328.361 225.959 328.534 227.293 328.716 228.627C328.841 229.529 328.966 230.432 329.091 231.343C329.35 234.539 329.609 237.745 329.877 240.941C329.57 240.941 329.273 240.941 328.966 240.941C328.659 239.914 328.218 238.906 328.074 237.86C327.143 230.979 326.193 224.097 325.416 217.196C324.312 207.464 323.353 197.722 322.336 187.981C322.912 189.67 323.478 191.35 324.053 193.039C324.13 193.653 324.197 194.258 324.274 194.872C324.485 196.523 324.696 198.174 324.898 199.824V199.815Z" fill="#148794"/>
<path d="M328.953 240.931C329.26 240.931 329.558 240.931 329.865 240.931C330.162 242.246 330.45 243.552 330.747 244.866C330.824 245.471 330.891 246.085 330.968 246.69C331.217 248.638 331.477 250.587 331.726 252.535C331.793 253.149 331.86 253.754 331.927 254.368C332.187 256.633 332.446 258.898 332.705 261.163C332.762 261.778 332.82 262.392 332.877 263.016C333.117 266.26 333.348 269.494 333.587 272.738C333.683 273.343 333.779 273.938 333.866 274.543C334.221 276.126 334.566 277.72 334.921 279.303C333.933 277.595 332.263 275.973 332.062 274.178C330.843 263.121 329.951 252.026 328.953 240.951V240.931Z" fill="#168E99"/>
<path d="M319.205 160.474C319.493 162.374 319.791 164.265 320.078 166.165C320.203 167.096 320.338 168.027 320.462 168.958C320.645 170.302 320.817 171.636 321 172.979C321.153 173.882 321.297 174.774 321.451 175.676C321.672 176.982 321.883 178.297 322.104 179.602C322.19 180.216 322.276 180.821 322.363 181.435C322.305 183.326 322.248 185.226 322.2 187.117C321.576 184.9 320.942 182.673 320.318 180.456C320.136 178.738 319.877 177.03 319.8 175.302C319.57 170.359 319.407 165.416 319.224 160.474H319.205Z" fill="#148794"/>
<path d="M330.75 244.867C330.453 243.552 330.165 242.246 329.867 240.931C329.608 237.735 329.339 234.53 329.08 231.334C331.364 233.599 332.324 241.392 330.75 244.867Z" fill="#02090B"/>
<path d="M322.193 187.107C322.251 185.217 322.308 183.316 322.356 181.426C325.197 183.547 325.965 188.797 324.046 193.029C323.47 191.34 322.903 189.66 322.328 187.971C322.328 187.674 322.289 187.386 322.184 187.107H322.193Z" fill="#02090B"/>
<path d="M333.587 272.729C333.347 269.485 333.117 266.25 332.877 263.006C336.265 266.02 335.008 269.36 333.587 272.729Z" fill="#02090B"/>
<path d="M334.925 279.294C334.57 277.71 334.224 276.117 333.869 274.533C335.059 277.441 336.249 280.349 337.44 283.258C337.209 283.19 336.988 283.114 336.768 283.018V283.162C336.432 282.499 336.096 281.847 335.76 281.184L335.798 281.232C335.472 280.58 335.136 279.918 334.81 279.265L334.925 279.294Z" fill="#02090B"/>
<path d="M332.705 261.164C332.446 258.898 332.187 256.633 331.928 254.368C335.316 256.269 333.962 258.726 332.705 261.164Z" fill="#02090B"/>
<path d="M331.721 252.535C331.472 250.587 331.212 248.638 330.963 246.69C334.063 248.274 333.276 250.356 331.721 252.535Z" fill="#02090B"/>
<path d="M336.762 283.008C336.982 283.104 337.203 283.181 337.434 283.248C338.144 284.822 338.864 286.386 339.574 287.96C339.622 288.555 339.66 289.16 339.708 289.755L339.564 289.87C338.633 287.586 337.693 285.292 336.762 283.008Z" fill="#168E99"/>
<path d="M322.108 179.591C321.887 178.286 321.676 176.972 321.455 175.667C322.319 176.07 323.182 176.473 324.036 176.876C323.393 177.778 322.75 178.689 322.108 179.591Z" fill="#02090B"/>
<path d="M326.846 215.152C326.635 213.511 326.424 211.87 326.203 210.219C329.188 211.505 328.334 213.28 326.846 215.152Z" fill="#02090B"/>
<path d="M325.886 207.474C325.674 205.833 325.473 204.191 325.262 202.55C328.208 203.846 327.373 205.621 325.886 207.474Z" fill="#02090B"/>
<path d="M327.882 221.822L327.162 216.937C330.137 218.156 329.293 219.951 327.882 221.822Z" fill="#02090B"/>
<path d="M324.899 199.815C324.688 198.164 324.477 196.513 324.275 194.862C327.289 196.158 326.425 197.943 324.899 199.815Z" fill="#02090B"/>
<path d="M328.707 228.626C328.525 227.292 328.352 225.959 328.17 224.625C330.972 225.604 330.319 227.053 328.707 228.626Z" fill="#02090B"/>
<path d="M321.002 172.978C320.82 171.635 320.647 170.301 320.465 168.958C323.314 169.946 322.652 171.395 321.002 172.978Z" fill="#02090B"/>
<path d="M131.353 305.294C130.096 305.227 128.849 305.169 127.592 305.102C128.954 304.507 130.298 303.432 131.67 303.384C145.678 302.942 159.686 302.482 173.695 302.415C182.599 302.367 191.493 303 200.397 303.288C221.227 303.95 242.067 304.564 262.897 305.275C266.534 305.399 270.18 305.793 273.787 306.273C274.641 306.388 275.39 307.357 276.186 307.943C260.853 307.06 245.521 306.177 230.189 305.284C229.229 305.255 228.279 305.236 227.32 305.208C214.204 304.92 201.088 304.632 187.972 304.334C180.612 304.334 173.244 304.334 165.884 304.325C157.556 304.603 149.228 304.881 140.909 305.16C137.724 305.208 134.538 305.246 131.353 305.294Z" fill="#06677A"/>
<path d="M187.969 304.344C201.085 304.632 214.201 304.92 227.317 305.217C224.16 305.611 221.013 306.311 217.856 306.35C209.298 306.446 200.739 306.35 192.181 306.119C190.761 306.081 189.379 304.968 187.969 304.353V304.344Z" fill="#02090B"/>
<path d="M140.91 305.169C149.238 304.891 157.566 304.613 165.885 304.334C165.118 304.948 164.35 306.091 163.563 306.1C156.54 306.225 149.507 306.167 142.484 306.091C141.956 306.091 141.428 305.496 140.9 305.169H140.91Z" fill="#02090B"/>
<path d="M276.17 307.943C275.373 307.367 274.634 306.388 273.771 306.273C270.163 305.793 266.517 305.4 262.881 305.275C242.051 304.565 221.211 303.96 200.381 303.288C191.477 303 182.573 302.376 173.678 302.415C159.67 302.482 145.662 302.942 131.653 303.384C130.281 303.432 128.938 304.497 127.575 305.102C123.747 305.188 119.928 305.275 116.1 305.361C113.884 305.313 111.648 305.092 109.451 305.246C91.8158 306.484 74.1806 307.761 56.555 309.133C55.5667 309.21 54.6456 310.227 53.6862 310.803C48.8408 311.465 43.9955 312.137 39.1501 312.799C37.164 312.54 35.1587 311.945 33.1918 312.08C26.226 312.559 19.2697 313.279 12.3135 313.913L12.3615 313.951C11.7091 313.625 11.0566 313.289 10.3946 312.963L10.4138 312.991C10.0972 312.339 9.78053 311.676 9.4735 311.024C9.15687 310.054 8.84983 309.085 8.5332 308.116C8.5332 307.156 8.55242 306.206 8.56202 305.246C10.0972 305.947 11.6707 306.551 13.1483 307.367C16.1899 309.047 19.145 307.866 20.9393 305.323C23.8273 301.224 27.3485 297.568 30.6012 293.719C34.3047 296.973 38.2194 297.788 43.3334 296.925C51.5945 295.533 60.1531 294.401 68.4525 295.015C83.1709 296.109 97.7358 295.994 112.176 293.153C125.11 290.6 137.928 287.452 150.785 284.515C158.663 282.71 166.53 280.868 174.369 278.919C179.79 277.576 185.125 275.867 190.565 274.629C192.359 274.216 194.374 274.764 196.293 274.879L196.706 276.568C193.683 278.113 190.709 279.774 187.62 281.194C179.512 284.918 171.318 288.479 163.23 292.26C161.733 292.961 160.562 294.372 159.248 295.447C159.468 295.975 159.689 296.512 159.919 297.04C166.338 296.435 172.786 296.042 179.176 295.178C191.122 293.565 202.99 290.581 214.955 290.168C230.028 289.65 245.179 291.051 260.29 291.771C279.681 292.692 299.072 293.748 318.463 294.746C320.238 296.023 322.388 297.001 323.74 298.633C328.212 304.046 333.853 307.377 340.56 309.085C340.55 309.402 340.531 309.728 340.522 310.045C339.898 310.717 339.284 311.379 338.66 312.051L338.708 312.012C337.96 312.377 337.212 312.742 336.463 313.116C329.939 312.953 323.395 313.087 316.909 312.55C310.346 312.003 303.841 310.784 297.316 309.862C295.177 307.933 282.272 306.705 278.242 308.048C277.561 308.02 276.889 307.991 276.208 307.962L276.17 307.943Z" fill="#015168"/>
<path d="M278.213 308.029C282.243 306.695 295.148 307.924 297.287 309.843C294.111 309.622 290.936 309.402 287.76 309.181C286.493 309.104 285.217 309.027 283.951 308.951C282.041 308.644 280.132 308.327 278.213 308.02V308.029Z" fill="#06677A"/>
<path d="M258.365 311.273C257.847 310.505 257.166 309.833 257.29 309.632C257.597 309.094 258.269 308.768 258.787 308.356C259.094 308.816 259.66 309.296 259.631 309.737C259.603 310.169 258.979 310.572 258.365 311.273Z" fill="#061114"/>
<path d="M340.49 310.035C340.5 309.719 340.519 309.392 340.528 309.075C340.922 306.58 341.651 304.085 341.623 301.599C341.594 298.643 340.922 295.696 340.528 292.75L340.797 292.529C341.594 294.545 342.381 296.57 343.177 298.585C343.283 299.209 343.398 299.823 343.504 300.447C343.072 303.586 342.64 306.724 342.218 309.872L342.102 309.786C341.872 309.824 341.651 309.901 341.44 310.016C341.124 310.016 340.807 310.035 340.48 310.045L340.49 310.035Z" fill="#168E99"/>
<path d="M340.489 310.035C340.805 310.026 341.122 310.016 341.448 310.006C340.508 310.688 339.567 311.359 338.637 312.041C339.26 311.369 339.874 310.707 340.498 310.035H340.489Z" fill="#06677A"/>
<path d="M329.234 318.376H327.805C327.805 318.251 327.805 318.136 327.805 318.011H329.234C329.234 318.136 329.234 318.251 329.234 318.376Z" fill="#061114"/>
<path d="M336.428 313.106C337.176 312.742 337.925 312.377 338.673 312.003C337.925 312.367 337.176 312.732 336.428 313.106Z" fill="#06677A"/>
<path d="M53.6914 310.803C54.6413 310.227 55.5624 309.21 56.5602 309.133C74.1858 307.761 91.821 306.474 109.456 305.246C111.663 305.092 113.889 305.313 116.105 305.361C115.779 305.812 115.453 306.263 115.127 306.714C115.127 306.714 115.05 306.695 115.04 306.686C108.055 306.868 101.061 306.887 94.095 307.29C86.1505 307.751 78.2252 308.528 70.2999 309.219C69.2061 309.315 68.1316 309.709 67.0474 309.958C66.4141 309.997 65.7712 310.045 65.138 310.083C62.8832 310.362 60.638 310.64 58.3833 310.928C57.7596 310.985 57.1263 311.033 56.5027 311.091C55.5624 311.005 54.6221 310.909 53.6914 310.822V310.803Z" fill="#06677A"/>
<path d="M109.987 311.216C107.847 310.928 105.698 310.63 103.559 310.342L103.942 308.452C105.996 309.066 108.058 309.68 110.112 310.285C110.073 310.592 110.025 310.899 109.987 311.206V311.216Z" fill="#061114"/>
<path d="M80.909 311.264C80.1126 311.983 79.7288 312.607 79.2875 312.645C78.8845 312.684 78.424 312.098 77.9922 311.791C78.3568 311.34 78.6446 310.697 79.1244 310.506C79.441 310.371 80.0263 310.861 80.909 311.264Z" fill="#061114"/>
<path d="M31.6513 318.827C25.7601 317.09 19.677 321.629 13.8242 318.5C13.8242 317.934 13.8434 317.368 13.853 316.802H31.7376C31.7088 317.473 31.6801 318.145 31.6513 318.827Z" fill="#061114"/>
<path d="M12.3184 313.913C19.2746 313.279 26.2308 312.559 33.1966 312.079C35.1539 311.945 37.1688 312.54 39.155 312.799C31.8725 313.49 24.5997 314.268 17.3077 314.805C15.6765 314.93 13.9879 314.229 12.328 313.903L12.3184 313.913Z" fill="#0B7282"/>
<path d="M9.47847 311.024C9.7951 311.676 10.1117 312.338 10.4188 312.991C9.8047 312.904 9.19064 312.818 8.58617 312.722C8.22157 312.166 7.86655 311.609 7.50195 311.053L7.59791 311.005C8.22157 311.005 8.85481 311.014 9.47847 311.024Z" fill="#0B7282"/>
<path d="M10.4023 312.963C11.0548 313.289 11.7072 313.625 12.3693 313.951C11.7168 313.625 11.0644 313.289 10.4023 312.963Z" fill="#0B7282"/>
<path d="M326.92 101.822C326.018 105.123 324.762 108.377 324.282 111.736C322.708 122.697 321.384 133.686 320.031 144.676C319.705 147.344 319.628 150.041 319.446 152.719C319.436 154.283 319.417 155.857 319.408 157.422C316.462 157.815 315.052 156.462 314.534 153.582C314.351 152.584 313.315 151.327 312.384 151.001C311.722 150.77 310.005 151.701 309.755 152.45C307.808 158.18 302.933 157.978 298.318 158.391C299.268 155.828 300.228 153.266 301.178 150.703C302.463 145.012 303.711 139.301 305.035 133.619C306.656 126.699 308.047 119.712 310.091 112.917C311.866 107.014 315.08 101.505 316.462 95.5449C318.928 84.8626 317.422 73.4413 323.236 63.2965C325.385 59.5438 327.285 56.9332 331.881 57.6242C331.842 60.1484 331.814 62.6726 331.775 65.1872C330.768 73.3933 329.799 81.5994 328.743 89.8055C328.225 93.8269 327.544 97.8196 326.93 101.822H326.92Z" fill="#06677A"/>
<path d="M298.307 158.391C302.922 157.988 307.796 158.18 309.744 152.45C310.003 151.701 311.711 150.77 312.373 151.001C313.304 151.327 314.34 152.584 314.522 153.582C315.04 156.462 316.451 157.815 319.396 157.422C319.339 158.439 319.272 159.456 319.214 160.464C319.396 165.407 319.559 170.35 319.79 175.293C319.866 177.01 320.135 178.728 320.317 180.446C319.703 181.541 318.533 182.654 318.552 183.739C318.686 190.649 319.08 197.559 319.396 204.46C316.086 205.833 313.332 204.71 310.809 202.541C310.243 200.41 309.466 198.308 309.149 196.139C307.921 187.76 305.273 179.967 300.792 172.701C299.055 169.879 298.451 166.376 297.338 163.18C297.338 161.904 297.357 160.627 297.367 159.351L298.317 158.391H298.307Z" fill="#035C71"/>
<path d="M6.59946 310.093C6.00458 307.703 4.46942 305.073 5.00672 302.962C6.705 296.234 9.18046 289.707 11.3489 283.104L11.4256 283.152C11.0226 285.254 10.3894 287.346 10.3031 289.467C10.2455 290.878 10.9939 292.308 11.3777 293.738C11.3777 294.343 11.3585 294.957 11.3489 295.562C7.38624 295.456 7.57813 297.731 8.5568 300.457C8.5472 300.773 8.53759 301.09 8.53759 301.407C7.93312 303.662 7.31906 305.918 6.71459 308.164C6.67621 308.768 6.62823 309.373 6.58985 309.987L6.60906 310.112L6.59946 310.093Z" fill="#148794"/>
<path d="M3.8856 291.521C4.6052 292.164 5.40155 292.634 5.33439 292.874C5.17127 293.479 4.61477 293.968 4.22139 294.505C3.80881 294.122 3.1564 293.786 3.05086 293.335C2.95491 292.922 3.46343 292.366 3.8856 291.521Z" fill="#061114"/>
<path d="M11.293 281.251C11.3985 280.992 11.4465 280.724 11.4561 280.445C11.7535 280.34 12.0413 280.196 12.3196 280.033C12.0221 281.069 11.7247 282.115 11.4273 283.151L11.3505 283.103C11.3313 282.489 11.3122 281.865 11.293 281.251Z" fill="#168E99"/>
<path d="M7.50312 311.052C7.21528 311.033 6.92744 310.995 6.6396 310.937C6.59162 310.659 6.57243 310.381 6.60121 310.093L6.58203 309.968C6.91785 310.313 7.25366 310.649 7.59907 310.995L7.50312 311.043V311.052Z" fill="#06677A"/>
<path d="M58.3828 310.918C60.6376 310.64 62.8827 310.362 65.1375 310.074C63.2761 313.471 60.8103 312.051 58.3828 310.918Z" fill="#02090B"/>
<path d="M12.2635 279.389C12.5897 279.025 12.9255 278.65 13.2517 278.286L13.3285 278.353C13.0407 278.66 12.7432 278.967 12.4554 279.265L12.2539 279.389H12.2635Z" fill="#168E99"/>
<path d="M12.3206 280.033C12.0423 280.196 11.7641 280.33 11.457 280.445C11.7257 280.1 11.9848 279.745 12.2534 279.399L12.4549 279.275C12.3398 279.514 12.2918 279.773 12.3206 280.042V280.033Z" fill="#02090B"/>
<path d="M344.765 291.723C345.292 292.596 345.811 293.085 345.801 293.565C345.801 293.881 344.928 294.495 344.611 294.409C344.179 294.294 343.69 293.642 343.633 293.171C343.594 292.816 344.208 292.394 344.765 291.713V291.723Z" fill="#061114"/>
<path d="M339.714 289.755C340.079 290.686 340.434 291.607 340.798 292.528L340.53 292.749C340.213 291.789 339.887 290.83 339.57 289.87L339.714 289.755Z" fill="#168E99"/>
<path d="M342.213 309.862C342.645 306.724 343.077 303.586 343.499 300.438C346.455 303.394 345.87 307.636 342.213 309.862Z" fill="#02090B"/>
<path d="M11.3505 295.552C11.3505 294.948 11.3697 294.333 11.3793 293.729C12.9816 288.594 14.5935 283.459 16.1959 278.324C16.5125 277.7 16.8291 277.077 17.1362 276.453C18.7001 271.932 21.0988 267.527 21.6841 262.882C24.006 244.406 25.7714 225.853 27.7384 207.33C28.362 205.247 28.8801 203.126 29.6477 201.11C29.9835 200.237 30.7127 199.22 31.5091 198.922C32.008 198.73 33.3321 199.565 33.6583 200.237C35.0112 203.059 36.7191 205.9 37.1604 208.904C37.5826 211.802 38.7915 212.34 41.1614 212.138C40.5282 213.415 39.8949 214.701 39.2617 215.977C38.1967 215.997 37.1316 216.006 36.0762 216.025C36.1818 217.926 36.2777 219.836 36.3833 221.736C35.299 225.162 34.0326 228.55 33.169 232.025C31.6339 238.225 35.0016 242.65 41.2286 243.916C43.6465 244.406 45.7765 246.373 48.0313 247.66C46.6976 249.253 45.3544 250.846 44.0207 252.439C42.1881 253.169 39.8949 253.437 38.6284 254.723C35.7404 257.651 33.3321 261.058 30.7895 264.321C22.9602 274.351 22.9122 283.939 30.6168 293.729C27.3642 297.577 23.8429 301.234 20.9549 305.332C19.1702 307.876 16.2054 309.056 13.1639 307.377C11.6959 306.561 10.1128 305.956 8.57761 305.256C8.56802 303.97 8.55842 302.683 8.54883 301.407C8.54883 301.09 8.54885 300.773 8.56804 300.457C9.49873 298.825 10.4294 297.194 11.3601 295.562L11.3505 295.552Z" fill="#02576D"/>
<path d="M29.6562 60.4651C30.1167 59.1598 30.5293 57.8257 31.0474 56.5492C32.3139 53.4012 33.235 50.5794 30.8747 47.1626C29.1573 44.6768 28.6583 41.2696 27.9675 38.1888C27.8044 37.4689 29.0709 36.4228 29.685 35.5302C37.7254 43.4291 45.7658 51.3281 53.8254 59.2078C56.771 62.0871 57.8552 65.2448 56.9821 69.5158C55.7827 75.38 55.351 81.4074 54.593 87.3676C53.6431 95.6793 52.6836 104 51.7337 112.312L44.0291 113.291C41.6016 101.112 37.2936 89.3159 37.2457 76.6373C37.2169 70.3028 36.2286 63.9491 29.6754 60.4555L29.6562 60.4651Z" fill="#0C7887"/>
<path d="M44.0078 113.301L51.7124 112.322C52.3265 114.616 52.9502 116.909 53.545 119.203C57.4693 134.224 65.9127 146.605 75.8529 158.218C78.549 161.366 80.2568 165.349 82.4253 168.939C81.485 169.908 80.5351 170.868 79.5948 171.837C77.2537 170.59 75.0373 168.872 72.5427 168.2C67.6014 166.866 62.5065 166.108 57.4789 165.109C56.836 164.466 56.2028 163.833 55.5599 163.19L51.722 158.391C49.4672 155.166 47.2125 151.932 44.9577 148.707C40.074 141.729 40.7264 134.157 42.3191 126.363C43.2019 122.073 43.4705 117.658 44.0078 113.301Z" fill="#0B7282"/>
<path d="M48.0201 247.66C45.7557 246.364 43.6353 244.406 41.2174 243.916C34.9904 242.65 31.6227 238.235 33.1578 232.025C34.0214 228.541 35.2878 225.162 36.372 221.736C37.3315 219.816 38.291 217.897 39.2505 215.977C39.8837 214.701 40.517 213.415 41.1502 212.138C41.7931 208.942 42.4359 205.737 43.0884 202.541C44.6619 201.322 46.1491 199.978 47.8186 198.922C49.68 197.751 51.7141 196.859 53.6714 195.841C53.6618 196.791 53.6522 197.751 53.633 198.701L52.7024 200.64C52.0595 210.871 53.3932 220.853 56.0989 230.748C58.1522 238.263 54.1224 246.181 48.0297 247.669L48.0201 247.66Z" fill="#0B7282"/>
<path d="M53.6618 195.841C51.7044 196.859 49.6703 197.751 47.8089 198.922C46.1394 199.968 44.6523 201.322 43.0787 202.54C37.0052 197.396 36.5063 191.561 42.0137 185.936C46.3985 181.454 50.8984 177.03 55.7918 173.133C58.9485 170.618 57.7875 167.95 57.4709 165.109C62.4985 166.107 67.6029 166.866 72.5347 168.2C75.0293 168.872 77.2457 170.59 79.5868 171.837C77.5335 173.498 75.6626 175.494 73.3886 176.761C65.0795 181.368 58.3248 187.501 53.6618 195.841Z" fill="#06677A"/>
<path d="M51.7159 158.391L55.555 163.19C51.927 163.468 51.5335 161.155 51.7159 158.391Z" fill="#06677A"/>
<path d="M54.5742 87.3676C55.3322 81.4074 55.764 75.3896 56.9633 69.5158C57.8364 65.2448 56.7522 62.0871 53.8066 59.2078C45.747 51.3281 37.7162 43.4195 29.6662 35.5302C27.7281 31.3744 25.7995 27.2281 23.8613 23.0723C22.6044 18.8973 23.7846 16.1427 28.3709 15.4517C29.4359 15.2885 30.5393 15.3461 31.6235 15.2981H31.5756C32.5062 15.3653 33.437 15.4325 34.3677 15.4901C36.9966 16.1331 39.6735 16.613 42.2353 17.448C64.3896 24.6559 87.1196 29.2725 110.128 32.6221C129.03 35.3766 147.845 38.4191 166.008 44.6576C176.706 48.3336 187.433 51.9423 198.313 55.004C203.533 56.4725 209.127 56.4629 215.287 54.0634C212.658 52.3838 210.854 51.2225 209.04 50.0612C208.388 49.7061 207.735 49.3509 207.073 48.9958L207.131 49.0342C206.469 48.7079 205.817 48.372 205.154 48.0457V48.1224C204.742 46.2989 200.453 43.6307 206.239 43.17L206.181 43.1508C206.776 43.2276 207.371 43.3044 207.956 43.3811C219.662 41.404 231.559 40.1659 243.044 37.2962C265.352 31.7295 287.468 25.3278 309.603 19.0893C316.435 17.1697 323.093 14.6455 329.829 12.3996C330.174 13.5993 330.999 14.895 330.798 15.9988C329.119 25.0207 328.179 34.2633 323.189 42.3446C319.428 48.4296 315.398 54.3994 312.261 60.8011C309.574 66.2718 307.406 72.1456 306.053 78.077C304.479 84.9778 305.305 92.6272 302.839 99.0865C299.078 108.924 293.628 118.157 288.418 127.381C285.491 132.563 281.606 137.218 278.142 142.104C278.458 138.629 279.216 135.126 278.909 131.709C278.756 130.01 276.847 127.4 275.369 127.112C271.742 126.411 268.134 121.919 264.124 126.344C263.942 126.546 263.184 126.114 262.771 126.229C259.106 127.304 255.383 128.264 251.814 129.607C249.329 130.538 247.17 132.592 244.647 133.101C240.07 134.022 235.013 132.573 230.984 136.124C230.715 136.364 230.024 136.278 229.592 136.153C223.835 134.435 218.491 136.806 212.619 137.506C210.46 133.706 207.246 135.28 203.859 137.228C203.188 132.755 200.587 133.11 197.488 133.878C195.876 134.281 194.015 134.118 192.355 133.763C188.479 132.928 184.43 130.5 180.87 131.114C173.712 132.352 167.14 131.45 160.759 128.676C154.84 126.104 150.608 126.315 147.25 129.962C142.309 128.878 137.559 127.803 132.791 126.795C127.926 125.768 123.071 124.559 118.159 123.868C111.922 122.975 105.513 123.033 99.3913 121.68C96.0524 120.941 92.7326 118.599 90.1612 116.17C83.8862 110.258 73.1497 109.759 70.2713 99.6911C69.9546 98.5682 68.3043 97.8579 67.3257 96.8982C65.1381 94.7675 62.653 92.8287 60.8875 90.3813C59.1893 88.0203 57.3663 86.8781 54.5358 87.358L54.5742 87.3676ZM252.418 55.983C260.689 63.7572 268.01 70.6387 275.743 77.9042C287.852 65.408 300.008 52.9981 311.925 40.3675C313.057 39.1677 312.769 36.6147 313.134 34.6856C311.34 34.3977 309.363 33.4763 307.799 33.937C298.636 36.6531 289.377 39.2061 280.531 42.7669C271.032 46.5868 261.946 51.4433 252.409 55.983H252.418ZM54.3248 36.7011C54.2 37.2002 54.0657 37.6993 53.9409 38.1984C60.1008 40.9145 66.0975 44.149 72.4684 46.2413C83.0707 49.7253 93.6249 54.5433 105.254 51.7504C107.614 51.1841 109.667 49.303 111.865 48.0265C110.166 45.7038 108.564 43.2948 106.703 41.0969C106.194 40.5018 104.956 40.4058 104.026 40.3003C89.7103 38.6974 75.4044 37.0562 61.0699 35.6454C58.8822 35.4342 56.5795 36.3268 54.3344 36.7107L54.3248 36.7011ZM51.6958 36.25C51.8205 36.1828 51.9548 36.1157 52.0796 36.0485C51.9644 35.9621 51.8589 35.8085 51.7438 35.7989C51.619 35.7893 51.4847 35.9141 51.36 35.9813C51.4751 36.0677 51.5807 36.1636 51.6958 36.25Z" fill="#18949E"/>
<path d="M31.6314 15.2981C30.5471 15.3461 29.4437 15.2885 28.3787 15.4517C23.802 16.1427 22.6219 18.9069 23.8692 23.0723C22.3148 22.0549 20.7701 21.0184 19.1965 20.0298C18.2658 19.4443 16.7595 18.283 16.4141 18.5421C15.4546 19.2812 14.783 20.5577 14.3416 21.7574C13.5932 23.7537 13.0943 25.8556 12.4994 27.9095C12.461 23.4274 12.4322 18.9357 12.3939 14.4535L12.3555 14.3383C18.9471 11.2958 25.3372 12.3612 31.6314 15.2981Z" fill="#148794"/>
<path d="M16.1942 278.324C14.5919 283.459 12.9799 288.594 11.3776 293.729C10.9938 292.308 10.255 290.869 10.303 289.458C10.3798 287.346 11.0226 285.244 11.4256 283.142C11.723 282.106 12.0204 281.06 12.3179 280.023C12.2891 279.754 12.3371 279.505 12.4522 279.255C12.7401 278.948 13.0375 278.641 13.3254 278.344C14.2848 278.344 15.2347 278.324 16.1942 278.315V278.324Z" fill="#06677A"/>
<path d="M329.86 12.3995C323.124 14.6454 316.456 17.16 309.634 19.0892C287.489 25.3277 265.383 31.7198 243.075 37.2961C231.59 40.1658 219.692 41.4039 207.987 43.3811C207.392 43.3043 206.797 43.2275 206.202 43.1507L206.26 43.1699C202.374 41.5095 198.488 39.8587 194.593 38.1983C193.729 37.1713 192.875 36.1348 191.676 34.7047C206.538 31.4799 221.439 28.255 236.32 25.011C244.802 23.1586 253.284 21.2774 261.756 19.4059C264.308 18.6477 266.86 17.8894 269.403 17.1312C271.466 17.1696 273.596 17.5727 275.582 17.1888C290.003 14.3575 304.338 11.075 318.806 8.58923C323.959 7.69664 329.428 8.59883 334.753 8.68521C335.07 9.00194 335.386 9.32826 335.703 9.64499C335.808 12.3036 335.914 14.9621 336.019 17.6111C335.607 17.8127 335.194 18.0238 334.782 18.235C334.024 15.5476 333.774 12.4187 329.86 12.4091V12.3995Z" fill="#52C0C3"/>
<path d="M31.6313 15.2981C25.3372 12.3612 18.9471 11.2958 12.3555 14.3383C16.3661 6.57376 18.2658 5.50841 30.2593 7.90784C74.117 16.6706 117.917 25.7117 161.727 34.6952C166.985 35.7701 172.185 37.1522 177.414 38.3999C179.611 39.0909 181.799 39.782 183.996 40.4634C191.058 43.0164 198.11 45.5598 205.172 48.1128V48.036C205.834 48.3623 206.486 48.6983 207.148 49.0246L207.091 48.9862C207.743 49.3413 208.396 49.6964 209.058 50.0515C210.871 51.2129 212.675 52.3742 215.304 54.0538C209.144 56.4532 203.55 56.4628 198.331 54.9944C187.45 51.9327 176.714 48.3239 166.025 44.648C147.862 38.4095 129.047 35.3574 110.145 32.6124C87.1371 29.2628 64.4071 24.6463 42.2528 17.4384C39.691 16.6034 37.014 16.1235 34.385 15.4805C33.4543 15.4229 32.5237 15.3557 31.593 15.2981H31.641H31.6313Z" fill="#55C1C4"/>
<path d="M329.854 12.3996C333.778 12.4188 334.018 15.5381 334.776 18.2254C335.093 22.0741 335.409 25.9324 335.726 29.7811H335.707C334.421 39.0526 333.145 48.3336 331.859 57.6146C327.254 56.9236 325.364 59.5341 323.215 63.2869C317.4 73.4317 318.906 84.8626 316.441 95.5353C315.069 101.495 311.845 107.005 310.07 112.907C308.026 119.702 306.635 126.69 305.013 133.61C303.68 139.291 302.432 144.992 301.156 150.694C298.278 150.175 296.551 151.759 296.186 154.254C295.946 155.857 296.915 157.642 297.337 159.341C297.337 160.618 297.318 161.894 297.309 163.171C293.327 163.555 289.623 163.43 288.664 158.362C287.714 153.861 284.807 151.106 280.556 149.82C274.224 147.901 274.022 147.402 278.129 142.094C281.583 137.199 285.469 132.554 288.405 127.371C293.615 118.148 299.074 108.915 302.826 99.0769C305.291 92.6176 304.466 84.9682 306.04 78.0674C307.393 72.136 309.561 66.2622 312.248 60.7914C315.395 54.3897 319.425 48.42 323.176 42.335C328.165 34.2537 329.106 25.011 330.785 15.9892C330.986 14.8854 330.171 13.5993 329.816 12.39L329.854 12.3996Z" fill="#0C7887"/>
<path d="M335.73 29.7907V24.2432L336.7 24.3008C336.373 26.1243 336.037 27.9575 335.711 29.7811L335.73 29.7907Z" fill="#0C7887"/>
<path d="M339.567 289.87C339.884 290.83 340.21 291.79 340.527 292.75C340.92 295.696 341.592 298.643 341.62 301.599C341.64 304.085 340.92 306.58 340.527 309.075C333.82 307.367 328.178 304.037 323.707 298.624C322.354 296.992 320.214 296.013 318.43 294.736C319.082 292.788 319.735 290.84 320.378 288.901C325.501 287.989 330.913 278.555 328.61 272.537C326.202 266.26 322.776 260.175 318.718 254.829C316.425 251.815 316.012 249.829 317.691 246.901C320.521 241.978 321.922 236.804 321.375 231.027C320.531 222.187 320.032 213.319 319.38 204.46C319.073 197.55 318.67 190.649 318.535 183.729C318.516 182.644 319.687 181.531 320.301 180.437C320.924 182.654 321.558 184.881 322.181 187.098C322.277 187.376 322.325 187.664 322.325 187.962C323.342 197.703 324.302 207.445 325.405 217.177C326.182 224.078 327.132 230.959 328.063 237.841C328.207 238.887 328.648 239.895 328.955 240.922C329.953 252.007 330.845 263.093 332.064 274.149C332.265 275.944 333.935 277.566 334.923 279.274L334.808 279.246C335.134 279.898 335.47 280.561 335.796 281.213L335.758 281.165C336.094 281.827 336.43 282.48 336.765 283.142V282.998C337.696 285.283 338.636 287.577 339.567 289.861V289.87Z" fill="#06677A"/>
<path d="M320.387 288.901C319.735 290.849 319.082 292.798 318.439 294.736C299.048 293.738 279.667 292.683 260.266 291.761C245.154 291.041 230.014 289.64 214.931 290.158C202.966 290.571 191.097 293.546 179.152 295.168C172.762 296.032 166.314 296.426 159.895 297.03C159.675 296.502 159.454 295.965 159.224 295.437C160.538 294.353 161.709 292.951 163.205 292.251C171.294 288.469 179.478 284.908 187.595 281.184C190.685 279.764 193.659 278.104 196.682 276.558L196.269 274.869C194.36 274.764 192.345 274.216 190.541 274.62C185.101 275.858 179.766 277.566 174.345 278.91C166.506 280.858 158.638 282.71 150.761 284.505C137.904 287.452 125.085 290.59 112.152 293.143C97.7116 295.994 83.1564 296.109 68.4284 295.005C60.1289 294.391 51.5704 295.523 43.3093 296.915C38.1953 297.779 34.2806 296.954 30.5771 293.709C22.8725 283.92 22.9204 274.332 30.7498 264.302C33.2924 261.039 35.7006 257.641 38.5887 254.704C39.8552 253.418 42.1579 253.149 43.9809 252.42C44.6046 253.101 45.4297 253.677 45.8231 254.474C48.8359 260.597 51.9062 266.692 54.6599 272.93C56.1375 276.29 58.4306 276.904 61.5969 276.184C67.0083 274.965 72.4774 273.967 77.8313 272.518C100.907 266.231 123.589 258.803 144.985 247.947C152.239 244.272 159.291 240.202 166.429 236.305C169.711 234.511 172.196 234.664 174.47 238.235C176.274 241.066 178.538 244.617 181.368 245.586C188.229 247.928 195.473 249.301 202.669 250.424C214.106 252.199 225.802 252.631 237.056 255.107C253.022 258.63 268.71 263.438 284.474 267.834C292.773 270.147 301.006 273.199 308.892 266.797C311.07 268.65 314.218 270.08 315.244 272.441C317.518 277.681 318.737 283.373 320.377 288.882L320.387 288.901Z" fill="#0B7282"/>
<path d="M8.53841 301.397C8.54801 302.683 8.55763 303.97 8.56723 305.246C8.56723 306.206 8.54801 307.156 8.53841 308.116C7.93375 308.125 7.3195 308.145 6.71484 308.154C7.3195 305.899 7.93375 303.643 8.53841 301.397Z" fill="#06677A"/>
<path d="M6.71634 308.154C7.32081 308.145 7.93487 308.125 8.53934 308.116C8.85597 309.085 9.16301 310.054 9.47964 311.023C8.85598 311.023 8.22273 311.013 7.59907 311.004C7.26326 310.658 6.92744 310.323 6.58203 309.977C6.62041 309.373 6.66839 308.768 6.70677 308.154H6.71634Z" fill="#02576D"/>
<path d="M297.349 159.351C296.927 157.652 295.958 155.867 296.198 154.264C296.562 151.778 298.289 150.194 301.168 150.703C300.218 153.266 299.259 155.828 298.309 158.391C297.992 158.708 297.675 159.024 297.359 159.351H297.349Z" fill="#0B7282"/>
<path d="M288.691 158.381C289.65 163.449 293.354 163.564 297.335 163.19C298.458 166.386 299.063 169.899 300.79 172.711C305.261 179.986 307.909 187.77 309.147 196.148C309.463 198.318 310.24 200.419 310.807 202.55C314.808 213.501 312.812 223.118 305.05 231.919C301.029 236.478 297.873 241.795 294.332 246.777C292.951 246.498 291.444 246.479 290.197 245.913C281.495 241.978 281.197 240.672 287.798 233.733C295.157 225.988 295.887 216.688 293.68 207.08C292.692 202.781 289.832 198.913 287.827 194.853C283.413 186.08 276.237 180.523 266.709 177.02C275.565 172.24 285.131 168.757 288.7 158.391L288.691 158.381Z" fill="#0B7282"/>
<path d="M294.318 246.777C297.859 241.795 301.015 236.478 305.036 231.919C312.798 223.118 314.793 213.501 310.792 202.55C313.316 204.729 316.07 205.842 319.38 204.47C320.023 213.328 320.531 222.197 321.375 231.036C321.922 236.814 320.521 241.987 317.691 246.911C316.012 249.829 316.425 251.825 318.718 254.839C322.786 260.185 326.211 266.27 328.61 272.547C330.913 278.564 325.501 287.999 320.378 288.911C318.727 283.402 317.518 277.701 315.244 272.47C314.218 270.118 311.08 268.679 308.893 266.826C309.382 260.876 305.573 257.305 301.687 253.754C299.192 251.47 296.765 249.109 294.309 246.786L294.318 246.777Z" fill="#02576D"/>
<path d="M11.3502 295.552C10.4192 297.184 9.48821 298.815 8.55723 300.447C7.57826 297.721 7.38631 295.456 11.3502 295.552Z" fill="#06677A"/>
<path d="M294.32 246.776C296.776 249.099 299.203 251.46 301.698 253.744C305.584 257.296 309.393 260.866 308.904 266.817C301.017 273.218 292.784 270.166 284.485 267.853C268.721 263.457 253.033 258.649 237.068 255.127C225.813 252.641 214.117 252.209 202.68 250.443C195.484 249.329 188.23 247.947 181.38 245.606C178.549 244.636 176.285 241.085 174.481 238.254C172.217 234.683 169.722 234.53 166.441 236.325C159.302 240.231 152.25 244.291 144.996 247.967C123.6 258.822 100.918 266.25 77.8425 272.537C72.4983 273.996 67.0196 274.984 61.6082 276.203C58.4419 276.913 56.1488 276.299 54.6712 272.95C51.9271 266.711 48.8471 260.616 45.8344 254.493C45.441 253.696 44.6158 253.121 43.9922 252.439C45.3259 250.846 46.6595 249.253 48.0028 247.659C54.0955 246.181 58.1253 238.263 56.072 230.739C53.3663 220.843 52.0326 210.871 52.6754 200.631C52.9825 199.987 53.2991 199.344 53.6062 198.692C53.6158 197.742 53.6253 196.782 53.6445 195.832C58.3076 187.491 65.0623 181.368 73.3714 176.751C75.6453 175.484 77.5163 173.488 79.5696 171.828C80.5195 170.858 81.4598 169.899 82.4001 168.929C83.3691 166.856 84.3477 164.783 85.3456 162.643C92.3402 163.804 93.3765 164.725 96.063 171.002C96.6771 172.432 98.0683 173.738 99.4212 174.573C101.11 175.619 103.326 175.849 104.986 176.934C110.148 180.302 115.147 181.617 120.434 177.164C120.856 176.809 122.612 177.337 123.159 177.961C126.632 182.001 134.509 183.93 139.479 181.579C142.204 185.38 146.138 185.706 150.465 185.063C152.25 184.794 154.15 184.842 155.934 185.149C158.669 185.629 161.298 186.723 164.032 187.098C168.12 187.654 172.648 186.867 176.275 188.384C180.929 190.323 187.012 188.518 190.495 193.768C191.013 194.546 193.335 194.286 194.803 194.21C195.858 194.152 196.875 193.365 197.931 193.317C200.377 193.211 202.834 193.365 205.28 193.413C208.264 194.43 211.085 195.995 213.781 191.849C214.117 191.34 215.806 191.052 216.314 191.417C221.572 195.265 227.837 192.876 233.537 194.181C237.116 194.997 241.318 193.115 245.233 192.444C248.313 192.3 251.412 192.098 254.348 191.292C259.817 189.785 265.104 187.539 270.63 186.339C274.977 185.399 279.016 186.311 281.741 190.879C282.844 192.732 285.713 193.528 287.786 194.805C289.791 198.865 292.65 202.742 293.638 207.032C295.845 216.64 295.116 225.94 287.757 233.685C281.165 240.624 281.463 241.93 290.156 245.865C291.412 246.431 292.909 246.46 294.291 246.728L294.32 246.776Z" fill="#148794"/>
<path d="M39.2431 215.977C38.2833 217.897 37.3235 219.816 36.3638 221.736C36.2582 219.836 36.1622 217.926 36.0566 216.025C37.122 216.006 38.1873 215.996 39.2431 215.977Z" fill="#035C71"/>
<path d="M287.811 194.843C285.748 193.567 282.87 192.77 281.767 190.918C279.042 186.349 275.002 185.437 270.656 186.378C265.129 187.568 259.843 189.824 254.374 191.33C251.438 192.137 248.348 192.338 245.259 192.482C241.334 193.154 237.141 195.035 233.563 194.219C227.863 192.914 221.588 195.304 216.34 191.455C215.831 191.081 214.143 191.369 213.807 191.887C211.111 196.024 208.29 194.469 205.306 193.452C202.859 193.404 200.403 193.26 197.956 193.356C196.901 193.404 195.884 194.191 194.828 194.248C193.36 194.325 191.029 194.584 190.52 193.807C187.028 188.566 180.954 190.361 176.301 188.422C172.674 186.915 168.145 187.702 164.058 187.136C161.324 186.762 158.685 185.668 155.96 185.188C154.185 184.871 152.276 184.833 150.491 185.101C146.164 185.745 142.23 185.418 139.505 181.618C134.535 183.959 126.658 182.03 123.184 177.999C122.647 177.366 120.882 176.847 120.459 177.203C115.173 181.656 110.174 180.341 105.012 176.972C103.352 175.888 101.136 175.667 99.4468 174.611C98.094 173.767 96.7027 172.461 96.0887 171.041C93.3926 164.764 92.3659 163.842 85.3713 162.681C84.3735 164.812 83.3948 166.885 82.4257 168.968C80.2669 165.369 78.5495 161.385 75.8534 158.247C65.9132 146.634 57.4698 134.253 53.5455 119.232C52.9411 116.938 52.327 114.644 51.7129 112.351C52.6628 104.039 53.6223 95.7177 54.5722 87.406C57.4026 86.9357 59.2256 88.0683 60.9239 90.4293C62.6893 92.8768 65.1648 94.8155 67.362 96.9462C68.3406 97.8964 69.9909 98.6162 70.3076 99.7391C73.186 109.807 83.9225 110.306 90.1975 116.218C92.7689 118.647 96.0887 120.989 99.4277 121.728C105.54 123.081 111.958 123.033 118.195 123.916C123.108 124.616 127.963 125.816 132.827 126.843C137.596 127.851 142.345 128.926 147.286 130.01C150.645 126.363 154.876 126.143 160.796 128.724C167.176 131.498 173.749 132.41 180.906 131.162C184.466 130.548 188.515 132.976 192.391 133.811C194.042 134.166 195.913 134.329 197.525 133.926C200.624 133.158 203.224 132.803 203.895 137.276C207.282 135.328 210.497 133.754 212.655 137.554C218.527 136.854 223.862 134.483 229.629 136.201C230.06 136.335 230.751 136.412 231.02 136.172C235.05 132.621 240.106 134.07 244.683 133.149C247.197 132.64 249.365 130.586 251.85 129.655C255.419 128.321 259.142 127.352 262.807 126.277C263.22 126.152 263.978 126.584 264.16 126.392C268.171 121.968 271.778 126.459 275.405 127.16C276.883 127.448 278.792 130.058 278.946 131.757C279.253 135.174 278.495 138.677 278.178 142.152C274.062 147.459 274.273 147.958 280.606 149.878C284.847 151.164 287.754 153.918 288.713 158.42C285.144 168.785 275.578 172.269 266.722 177.049C276.25 180.543 283.436 186.1 287.84 194.882L287.811 194.843Z" fill="#168E99"/>
<path d="M53.626 198.701C53.3189 199.344 53.0023 199.987 52.6953 200.64C53.0023 199.997 53.3189 199.354 53.626 198.701Z" fill="#06677A"/>
<path d="M252.416 55.983C261.953 51.4433 271.039 46.5868 280.538 42.7669C289.385 39.2157 298.644 36.6627 307.807 33.937C309.371 33.4763 311.357 34.3977 313.141 34.6856C312.767 36.6147 313.065 39.1677 311.932 40.3675C300.006 52.9981 287.859 65.408 275.75 77.9042C268.017 70.6387 260.696 63.7572 252.426 55.983H252.416Z" fill="#4CBBBE"/>
<path d="M54.327 36.7011C56.5722 36.3172 58.8749 35.4246 61.0625 35.6358C75.3971 37.0467 89.7029 38.6879 104.018 40.2907C104.949 40.3963 106.196 40.4923 106.695 41.0873C108.547 43.2852 110.159 45.6942 111.857 48.0169C109.66 49.2934 107.616 51.1745 105.246 51.7408C93.6176 54.5337 83.0633 49.7157 72.4611 46.2317C66.0902 44.1394 60.0934 40.905 53.9336 38.1888C54.0583 37.6897 54.1927 37.1906 54.3174 36.6915L54.327 36.7011Z" fill="#35A9B0"/>
<path d="M209.059 50.0608C208.406 49.7058 207.754 49.3508 207.092 48.9958C207.744 49.3508 208.397 49.7058 209.059 50.0608Z" fill="#0B7282"/>
<path d="M51.6972 36.2498C51.582 36.1635 51.4765 36.0675 51.3613 35.9812C51.4861 35.914 51.6204 35.7893 51.7451 35.7989C51.8603 35.8085 51.9754 35.962 52.0809 36.0483C51.9562 36.1155 51.8219 36.1827 51.6972 36.2498Z" fill="#35A9B0"/>
</svg>
