<svg width="287" height="261" viewBox="0 0 287 261" fill="none" xmlns="http://www.w3.org/2000/svg">
<path d="M138.52 250.231C133.1 250.278 127.658 250.052 122.261 250.41C105.451 251.53 88.6334 252.712 71.8543 254.189C61.1089 255.137 50.4101 256.638 39.6958 257.898C38.1874 257.719 36.609 257.159 35.1861 257.423C26.3612 259.087 17.5284 260.432 8.50912 259.771L8.59465 259.841C8.0426 259.569 7.48278 259.297 6.93074 259.025C6.93074 259.025 7.00849 259.095 7.00849 259.087C6.68193 258.955 6.36314 258.823 6.03658 258.698C6.03658 258.698 5.77222 258.559 5.78 258.551C5.38346 258.162 4.98692 257.781 4.59038 257.392C4.3649 257.175 4.14719 256.957 3.92171 256.739C3.54072 256.35 3.15195 255.962 2.77097 255.573C2.77097 255.573 2.59991 255.308 2.60768 255.308C2.71654 254.826 3.0431 254.243 2.88759 253.878C0.376179 247.961 0.904898 242.192 3.48629 236.438C3.92948 235.443 3.7973 234.183 3.93726 233.048C3.89838 232.838 3.93726 232.636 4.06166 232.465C4.25604 232.146 4.4582 231.819 4.65258 231.501L4.55928 231.594C5.38346 230 6.19986 228.406 7.01627 226.812C7.17177 226.353 7.33505 225.895 7.49056 225.436C9.62099 224.736 10.002 223.438 8.78126 221.603C8.95231 221.058 9.12337 220.522 9.29443 219.978C9.56656 219.721 10.0486 219.488 10.0797 219.2C11.1916 210.297 12.3346 201.402 13.2831 192.484C13.6019 189.514 13.392 186.489 13.4231 183.488C13.4386 183.216 13.462 182.944 13.4775 182.672C13.944 181.754 14.6516 180.891 14.8304 179.919C15.3747 176.887 15.6468 173.808 16.1522 170.768C17.7462 161.134 19.4412 151.516 20.9573 141.867C21.0817 141.051 20.1332 140.071 19.6822 139.169C19.6666 138.897 19.6589 138.625 19.6433 138.353C19.861 137.389 20.3664 136.386 20.2576 135.453C19.5345 129.209 18.788 122.965 17.8317 116.761C17.4196 114.086 16.4866 111.489 15.7868 108.853C15.5924 107.096 15.4058 105.331 15.2114 103.574C15.3591 101.84 15.8334 100.052 15.6002 98.3722C14.9315 93.5515 13.9751 88.7775 13.1276 83.9802C12.9877 83.4359 12.8477 82.8994 12.7155 82.3551C12.9099 80.3413 13.5242 78.2576 13.2287 76.3137C11.4015 63.9977 9.16225 51.7439 7.47501 39.4123C6.23874 30.323 5.50786 21.1481 4.85474 11.9966C4.69923 9.81177 5.74112 7.53362 6.23874 5.30211L6.19209 5.34876C6.57308 5.30989 7.08625 5.41874 7.32728 5.21658C12.2257 1.04126 17.7928 0.932403 23.7331 2.17645C25.8791 2.62741 28.1728 2.3475 30.3965 2.40193C41.0409 4.48571 51.6852 6.56948 62.3296 8.64548C65.6419 9.50076 68.9153 10.5271 72.2586 11.1647C79.062 12.4631 85.8965 13.5439 92.7232 14.7102C93.0031 14.7335 93.283 14.7568 93.5629 14.7802L93.8195 14.718L94.0761 14.788L94.1616 14.7957C103.741 16.8562 113.32 18.9166 122.899 20.9771L122.946 20.9848C123.194 21.016 123.443 21.0393 123.7 21.0704C124.221 21.1481 124.734 21.2259 125.255 21.3036C125.348 21.7002 125.356 22.4 125.543 22.4544C129.376 23.5274 133.271 25.5023 137.058 25.3001C142.415 25.0124 147.687 23.1231 152.989 21.879C153.122 21.8479 153.16 21.4203 153.238 21.1792C166.666 19.0255 180.117 16.9806 193.522 14.6713C204.127 12.8441 214.671 10.6982 225.253 8.71546C225.875 8.59883 226.528 8.6377 227.166 8.59883C229.599 8.33447 232.095 8.34225 234.451 7.76687C241.371 6.07186 248.237 4.15137 255.125 2.3164C261.867 0.411459 268.6 -1.68787 275.388 2.14535C276.01 2.51078 276.624 2.884 277.246 3.24944C277.246 3.24944 277.495 3.52157 277.487 3.52935C277.658 3.70818 277.837 3.88701 278.008 4.06584C278.008 4.06584 278.226 4.28355 278.218 4.29132C278.42 4.54013 278.63 4.78117 278.832 5.02998L278.887 5.09995C278.809 5.47317 278.537 5.94746 278.677 6.20404C283.039 14.3214 280.535 22.6177 279.415 30.8906C278.49 37.7173 277.751 44.5673 276.927 51.4017C276.43 54.7451 275.932 58.0885 275.442 61.4319C275.162 63.2746 274.882 65.1173 274.603 66.9601C274.579 67.4499 274.548 67.932 274.525 68.4218C273.771 73.8956 273.024 79.3694 272.27 84.8354C272.285 85.0687 272.262 85.2942 272.208 85.5197C271.982 87.1058 271.749 88.6842 271.523 90.2704L271.586 90.1848C271.306 92.0276 271.018 93.8703 270.738 95.7053L270.808 95.6198C270.52 97.7269 270.225 99.8262 269.937 101.933C269.953 102.167 269.937 102.392 269.875 102.618C269.378 106.28 268.88 109.934 268.382 113.596C268.398 113.845 268.351 114.078 268.242 114.296C267.239 121.667 266.197 129.03 265.288 136.409C265.179 137.272 265.84 138.221 266.135 139.13L266.073 139.052C266.563 142.792 266.897 146.563 267.597 150.264C268.032 152.574 269.012 154.774 269.751 157.029C270.334 161.399 270.909 165.761 271.492 170.13C271.951 173.808 272.317 177.493 272.915 181.148C273.133 182.477 273.903 183.721 274.424 185.004C274.439 185.541 274.447 186.07 274.463 186.606C274.245 187.702 273.739 188.83 273.841 189.903C274.812 200.267 275.854 210.616 276.997 220.965C277.106 221.976 278.047 222.901 278.599 223.865L278.537 223.78C278.926 224.409 279.307 225.047 279.695 225.677L279.835 225.965C280.45 227.341 281.072 228.709 281.694 230.085L281.624 230.015C281.833 230.568 282.043 231.112 282.246 231.664C282.386 231.858 282.432 232.068 282.386 232.301C282.673 232.861 282.969 233.429 283.256 233.989L283.179 233.903C283.56 235.52 283.824 237.169 284.329 238.747C285.674 242.946 286.048 247.067 283.894 251.125C283.101 251.125 282.308 251.125 281.515 251.125C283.28 244.05 282.837 237.425 277.549 231.796C277.565 231.283 277.79 230.645 277.565 230.28C274.019 224.518 273.498 218.197 273.701 211.635C273.809 208.182 273.444 204.676 272.939 201.247C270.971 187.905 268.989 174.57 266.781 161.266C265.21 151.796 263.266 142.388 261.493 132.957C261.696 132.506 262.03 132.07 262.084 131.596C263.453 120.384 264.798 109.164 266.151 97.9446C266.633 97.167 267.418 96.4362 267.535 95.6042C267.97 92.5563 268.063 89.454 268.499 86.3983C270.233 74.1989 272.122 62.015 273.786 49.8078C274.175 46.9776 273.895 44.0619 273.926 41.185C274.183 39.63 274.439 38.0749 274.696 36.5276C275.17 35.8045 275.963 35.1359 276.072 34.3583C276.927 28.5035 278.164 22.641 278.202 16.7706C278.218 13.8238 279.478 9.57851 275.1 7.79798C274.914 7.58027 274.727 7.37034 274.54 7.15263C273.996 6.60836 273.452 6.07186 272.9 5.52759C272.13 4.96777 271.376 3.95699 270.59 3.93366C267.511 3.86368 264.331 3.68485 261.346 4.30687C250.896 6.46063 240.555 9.15087 230.089 11.2346C215.479 14.1426 200.807 16.7706 186.135 19.3676C172.225 21.8246 158.284 24.0639 144.367 26.482C143.426 26.6453 142.602 27.5316 141.731 28.0759C141.132 28.8301 140.541 29.5843 139.942 30.3385C139.422 30.2374 138.901 30.1364 138.38 30.0353C135.79 29.1256 133.209 28.2081 130.62 27.2984C127.805 26.2176 125.084 24.7325 122.176 24.1338C100.296 19.6008 78.3856 15.2156 56.4748 10.8537C44.7653 8.52108 33.0557 6.14962 21.2839 4.1747C17.8472 3.59932 13.773 2.35528 11.0205 6.25069C10.5151 6.77164 10.0098 7.29258 9.50436 7.8213C8.68795 9.96728 7.00849 12.1832 7.20287 14.2359C8.05816 23.5429 9.37995 32.8033 10.6551 42.0636C12.2568 53.7421 13.9207 65.4128 15.6935 77.0679C16.1289 79.9215 17.1164 82.6895 17.8472 85.4963C17.9094 86.546 17.9716 87.5879 18.0416 88.6376C17.8939 89.6795 17.5518 90.7447 17.6373 91.771C17.9328 95.4798 18.3448 99.1886 18.7492 102.89C19.6822 111.442 20.623 119.995 21.5949 128.548C22.1625 133.524 23.7564 138.594 23.2199 143.438C21.8437 155.8 19.4023 168.046 17.6373 180.378C16.4943 188.379 15.7868 196.45 14.8848 204.489C14.1384 211.51 13.392 218.539 12.6456 225.56C11.8603 227.108 11.0827 228.663 10.3052 230.218C10.0642 230.746 9.81537 231.283 9.57434 231.812C9.30998 232.325 9.04562 232.838 8.78126 233.351C8.50912 233.856 8.24476 234.37 7.97263 234.875C6.39425 238.965 4.3027 242.946 3.46297 247.183C3.1053 248.979 5.36791 251.289 6.4409 253.365C6.68971 253.629 6.94629 253.886 7.1951 254.142C7.42836 254.43 7.66162 254.718 7.89488 254.997C8.43137 255.238 8.96009 255.48 9.49658 255.713C11.1061 256.265 12.77 257.408 14.325 257.276C22.2403 256.599 30.1399 255.674 38.0241 254.663C42.0284 254.15 45.9782 253.256 49.9591 252.533C54.4688 252.058 58.994 251.67 63.4881 251.071C66.9559 250.612 70.3926 249.889 73.8448 249.283C74.7312 249.578 75.6487 250.177 76.5117 250.115C92.1245 248.948 107.706 247.354 123.342 246.608C132.836 246.149 142.384 247.012 151.909 247.183C153.65 247.214 155.4 246.802 157.141 246.6C161.052 246.6 164.963 246.6 168.874 246.6C170.041 247.067 171.184 247.899 172.365 247.953C181.253 248.334 190.14 248.575 199.027 248.839C201.39 248.909 203.754 248.909 206.118 248.941C208.995 248.941 211.872 248.94 214.748 248.933C215.394 249.399 216.016 250.231 216.692 250.278C221.824 250.659 226.979 250.76 232.111 251.195C238.634 251.755 245.134 252.54 251.642 253.24C259.293 254.072 266.952 254.92 274.603 255.759C273.047 259.499 269.891 257.789 267.278 257.905C265.568 257.983 263.857 257.975 262.147 257.999C261.618 257.975 261.089 257.952 260.56 257.921C259.021 257.68 257.481 257.439 255.942 257.206C250.732 256.622 245.523 256.047 240.314 255.464C239.878 255.067 239.474 254.36 239.007 254.313C232.406 253.715 225.797 253.108 219.18 252.719C216.941 252.587 214.663 253.061 212.4 253.256C204.158 252.805 195.917 252.346 187.675 251.903C177.754 251.374 167.825 250.861 157.903 250.348C160.182 250.348 162.452 250.348 164.73 250.348C158.626 249.57 152.562 249.5 146.489 249.601C143.83 249.64 141.171 250.014 138.52 250.231Z" fill="#6A3A0D"/>
<path d="M6.23775 5.30212C5.74791 7.53362 4.69825 9.81178 4.85375 11.9966C5.50688 21.1559 6.23775 30.323 7.47402 39.4123C9.15348 51.7439 11.3928 63.9977 13.2277 76.3137C13.5154 78.2576 12.9089 80.3336 12.7146 82.3551C10.1487 65.5061 7.38072 48.6882 5.11811 31.808C4.16953 24.7481 4.1151 17.5404 4.02957 10.3949C4.00625 8.70769 5.468 6.99713 6.24553 5.29434L6.23775 5.30212Z" fill="#56240C"/>
<path d="M276.928 51.4018C277.752 44.5596 278.491 37.7095 279.416 30.8906C280.535 22.6099 283.039 14.3137 278.677 6.2041C278.537 5.94751 278.809 5.47322 278.887 5.10001C283.373 10.8926 282.487 17.4705 281.562 24.0095C280.326 32.7567 278.996 41.4805 277.674 50.2122C277.612 50.6398 277.184 51.0053 276.936 51.4018H276.928Z" fill="#56240C"/>
<path d="M19.6793 139.177C20.1302 140.079 21.0788 141.066 20.9544 141.875C19.4382 151.524 17.7432 161.142 16.1493 170.776C15.6439 173.816 15.3718 176.895 14.8275 179.927C14.6565 180.891 13.9411 181.762 13.4746 182.68C15.4107 170.371 17.3778 158.071 19.2516 145.755C19.5782 143.593 19.5393 141.37 19.6715 139.177H19.6793Z" fill="#56240C"/>
<path d="M281.513 251.133C282.306 251.133 283.099 251.133 283.892 251.133C283.845 252.012 283.799 252.898 283.752 253.777C283.713 253.917 283.62 254.026 283.495 254.088C283.122 254.422 282.757 254.764 282.384 255.099L282.415 255.067C282.049 255.441 281.684 255.822 281.318 256.195L281.07 256.374C280.727 256.521 280.378 256.669 280.035 256.817C275.401 260.137 270.239 259.01 265.161 258.559C264.143 258.465 263.148 258.193 262.137 258.007C263.847 257.975 265.558 257.983 267.268 257.913C269.873 257.797 273.038 259.507 274.585 255.767C275.013 255.169 275.44 254.562 275.868 253.963L275.883 253.987C276.412 253.722 276.949 253.45 277.477 253.186L277.431 253.225C278.784 252.533 280.144 251.841 281.497 251.149L281.513 251.133Z" fill="#56240C"/>
<path d="M278.59 223.873C278.038 222.909 277.097 221.991 276.988 220.973C275.846 210.632 274.804 200.275 273.832 189.911C273.731 188.838 274.228 187.718 274.454 186.614C275.83 199.031 277.214 211.448 278.59 223.865V223.873Z" fill="#56240C"/>
<path d="M13.4197 183.496C13.3886 186.497 13.5985 189.522 13.2797 192.492C12.3312 201.41 11.1882 210.305 10.0763 219.208C10.0374 219.496 9.56315 219.729 9.29102 219.985C10.6672 207.825 12.0435 195.664 13.4197 183.504V183.496Z" fill="#56240C"/>
<path d="M15.7754 108.861C16.4751 111.497 17.4082 114.086 17.8203 116.769C18.7766 122.981 19.5308 129.225 20.2461 135.46C20.355 136.393 19.8496 137.389 19.6319 138.361C18.3412 128.525 17.0583 118.697 15.7676 108.861H15.7754Z" fill="#56240C"/>
<path d="M153.235 21.187C153.157 21.4281 153.119 21.8557 152.986 21.8868C147.684 23.1309 142.412 25.028 137.055 25.3079C133.276 25.5101 129.373 23.5352 125.54 22.4622C125.353 22.4078 125.337 21.708 125.252 21.3114C126.737 21.7002 128.331 21.8635 129.699 22.5088C137.817 26.3498 145.437 22.3145 153.243 21.187H153.235Z" fill="#56240C"/>
<path d="M8.50586 259.771C17.5252 260.432 26.3579 259.087 35.1828 257.423C36.6057 257.159 38.1841 257.719 39.6925 257.898C32.6248 258.955 25.5882 260.292 18.4893 260.946C15.2237 261.249 11.8415 260.207 8.51363 259.779L8.50586 259.771Z" fill="#56240C"/>
<path d="M92.7295 14.718C85.9028 13.544 79.0683 12.4632 72.265 11.1725C68.9138 10.5349 65.6404 9.50083 62.3359 8.65332C72.4671 10.6749 82.5983 12.6965 92.7295 14.7258V14.718Z" fill="#56240C"/>
<path d="M255.116 2.32425C248.227 4.15922 241.362 6.07971 234.442 7.77472C232.086 8.35009 229.59 8.35009 227.156 8.60668C236.479 6.51512 245.794 4.4158 255.116 2.32425Z" fill="#56240C"/>
<path d="M266.133 139.138C265.83 138.228 265.177 137.272 265.286 136.417C266.187 129.038 267.237 121.675 268.24 114.304C267.704 120.928 267.167 127.553 266.623 134.17C266.483 135.826 266.304 137.482 266.141 139.138H266.133Z" fill="#56240C"/>
<path d="M212.404 253.256C214.667 253.061 216.945 252.587 219.184 252.719C225.801 253.108 232.41 253.715 239.011 254.313C239.478 254.352 239.882 255.06 240.318 255.464C231.018 254.725 221.711 253.994 212.412 253.256H212.404Z" fill="#56240C"/>
<path d="M30.3959 2.402C28.1721 2.34757 25.8784 2.61971 23.7324 2.17651C17.7921 0.93247 12.2172 1.04132 7.3266 5.21665C7.08556 5.41881 6.58017 5.30995 6.19141 5.34883C9.3715 0.240469 14.441 0.349324 19.4638 0.769189C23.126 1.07242 26.757 1.84218 30.3959 2.40977V2.402Z" fill="#56240C"/>
<path d="M3.92741 233.056C3.79523 234.191 3.92741 235.45 3.47644 236.446C0.895052 242.199 0.366332 247.969 2.87775 253.886C3.03325 254.259 2.69892 254.834 2.59784 255.316C-1.41421 249.337 -0.115735 243.195 2.06134 237.044C2.55119 235.668 3.29761 234.385 3.91964 233.056H3.92741Z" fill="#56240C"/>
<path d="M283.751 253.769C283.798 252.89 283.844 252.004 283.891 251.125C286.045 247.067 285.679 242.946 284.327 238.747C283.821 237.176 283.549 235.52 283.176 233.903C286.947 240.419 288.028 247.012 283.759 253.761L283.751 253.769Z" fill="#42190B"/>
<path d="M13.125 83.9879C13.9725 88.7852 14.9289 93.5593 15.5975 98.3799C15.8308 100.067 15.3565 101.848 15.2088 103.582C14.5168 97.0504 13.8248 90.5191 13.125 83.9879Z" fill="#56240C"/>
<path d="M138.52 250.231C141.179 250.014 143.83 249.64 146.489 249.601C152.562 249.508 158.626 249.57 164.73 250.348C162.452 250.348 160.181 250.348 157.903 250.348C151.442 250.309 144.981 250.27 138.52 250.231Z" fill="#42190B"/>
<path d="M269.742 157.045C269.004 154.79 268.024 152.589 267.588 150.28C266.889 146.579 266.554 142.808 266.064 139.068C267.293 145.063 268.514 151.058 269.742 157.045Z" fill="#56240C"/>
<path d="M272.26 84.8433C273.014 79.3695 273.76 73.8957 274.515 68.4297C273.76 73.9035 273.014 79.3773 272.26 84.8433Z" fill="#56240C"/>
<path d="M274.42 185.02C273.899 183.737 273.129 182.493 272.911 181.163C272.312 177.509 271.947 173.824 271.488 170.146C272.468 175.106 273.44 180.059 274.42 185.02Z" fill="#56240C"/>
<path d="M270.73 95.7131C271.01 93.8704 271.29 92.0277 271.578 90.1927C271.298 92.0354 271.018 93.8782 270.73 95.7131Z" fill="#56240C"/>
<path d="M281.682 230.085C281.06 228.717 280.446 227.341 279.824 225.965C280.446 227.333 281.06 228.709 281.682 230.085Z" fill="#56240C"/>
<path d="M255.939 257.206C257.479 257.447 259.018 257.688 260.558 257.921C259.018 257.68 257.479 257.439 255.939 257.206Z" fill="#56240C"/>
<path d="M8.77898 221.603C9.9997 223.438 9.61871 224.728 7.48828 225.436C7.91592 224.161 8.35134 222.878 8.77898 221.603Z" fill="#56240C"/>
<path d="M282.245 231.672C282.035 231.12 281.825 230.575 281.623 230.023C281.833 230.575 282.043 231.12 282.245 231.672Z" fill="#42190B"/>
<path d="M278.831 5.02228C278.621 4.77347 278.419 4.53244 278.217 4.28363C278.427 4.52466 278.629 4.77347 278.831 5.02228Z" fill="#56240C"/>
<path d="M278.005 4.06585C277.834 3.88702 277.655 3.70819 277.484 3.52936C277.718 3.64599 277.896 3.82482 278.005 4.06585Z" fill="#56240C"/>
<path d="M123.7 21.0782C123.451 21.0471 123.202 21.0238 122.945 20.9927C123.21 20.9071 123.458 20.9382 123.7 21.0782Z" fill="#56240C"/>
<path d="M94.0757 14.7879L93.8191 14.7257L93.5703 14.7879L93.8191 14.5935L94.0757 14.7879Z" fill="#56240C"/>
<path d="M6.04297 258.698C6.36953 258.831 6.68832 258.963 7.01488 259.087C6.68832 258.955 6.36953 258.823 6.04297 258.698Z" fill="#56240C"/>
<path d="M138.388 30.0509C138.908 30.1519 139.429 30.253 139.95 30.3541C140.518 30.7973 141.078 31.2482 141.645 31.6914L142.368 31.9091C142.897 32.1346 143.426 32.3523 143.955 32.5778C145.751 33.1532 147.547 33.7208 149.343 34.2962C149.864 34.3195 150.393 34.3428 150.913 34.3661C157.655 36.6287 164.396 38.8913 171.145 41.1617C172.358 42.4213 173.415 43.6809 170.647 44.2641C169.014 44.6062 167.358 44.8239 165.71 45.096C160.267 44.5829 154.832 44.0619 149.39 43.5487C148.869 43.5487 148.355 43.541 147.834 43.5332C147.314 43.2766 146.8 43.0278 146.279 42.7712L143.947 42.7479C143.426 42.4913 142.905 42.2347 142.384 41.9781C141.871 41.9781 141.35 41.9704 140.837 41.9626C140.316 41.706 139.795 41.4572 139.274 41.2006C138.753 41.2006 138.24 41.2006 137.719 41.1928C136.42 40.6797 135.13 40.1665 133.831 39.6533C133.31 39.6533 132.797 39.6378 132.276 39.6378C130.978 39.1246 129.679 38.6114 128.381 38.0983C127.868 38.0983 127.347 38.0905 126.833 38.0827C126.313 37.8261 125.792 37.5773 125.271 37.3207C124.493 37.3207 123.723 37.313 122.946 37.3052C113.095 35.237 103.243 33.1687 93.392 31.1005C92.8788 31.1005 92.3579 31.1005 91.8447 31.0927C91.0672 30.8362 90.2896 30.5796 89.5043 30.323C88.9912 30.323 88.478 30.3074 87.9648 30.3074C86.9229 30.0586 85.8811 29.802 84.847 29.5532C81.8379 28.9312 78.7589 28.5347 75.8199 27.6561C62.8896 23.784 49.9904 19.7953 37.0912 15.8065C31.2986 14.0182 25.506 12.2144 19.7834 10.2161C17.5286 9.43081 15.4604 8.10124 13.2988 7.0127C14.0919 6.75612 14.885 6.49953 15.6781 6.24295C15.9113 6.24295 16.1446 6.24295 16.3856 6.24295C17.9951 6.32847 20.0478 5.82308 21.1285 6.62394C23.2745 8.21009 24.7829 7.28483 26.5168 6.33625C27.0377 6.36735 27.5665 6.39845 28.0874 6.43733C29.3626 7.09823 30.5677 8.10124 31.9128 8.37337C45.6129 11.1025 59.3829 13.5284 73.0519 16.3897C91.7436 20.3084 110.373 24.546 129.034 28.6047C132.16 29.2889 135.332 29.7709 138.481 30.3541L138.38 30.0664L138.388 30.0509Z" fill="#FDF5DD"/>
<path d="M73.8262 249.283C70.374 249.889 66.9451 250.604 63.4696 251.071C58.9755 251.67 54.4502 252.058 49.9406 252.533C48.8987 252.432 47.8335 252.128 46.8227 252.253C39.5839 253.147 32.3529 254.119 25.1141 255.067C24.7642 254.904 24.4143 254.733 24.0645 254.57C24.3677 254.453 24.6709 254.344 24.9742 254.228C31.9719 253.194 38.9386 251.981 45.9596 251.164C58.4856 249.703 71.0194 248.28 83.5842 247.214C98.2173 245.97 112.874 244.656 127.546 244.26C141.355 243.887 155.202 244.625 169.035 244.96C175.962 245.131 182.89 245.341 189.802 245.776C204.202 246.693 218.594 247.704 232.978 248.824C239.517 249.337 246.033 250.13 252.541 250.954C258.155 251.662 263.722 252.859 269.351 253.31C272.298 253.544 275.338 252.634 278.332 252.237C278.036 252.564 277.733 252.883 277.437 253.209C277.437 253.209 277.484 253.17 277.492 253.17C276.963 253.435 276.427 253.707 275.898 253.971L275.882 253.948C266.031 253.233 256.18 252.595 246.336 251.779C235.801 250.908 225.273 249.881 214.745 248.917C211.869 248.917 208.992 248.917 206.115 248.925C205.166 248.622 204.225 248.101 203.261 248.054C191.801 247.525 180.332 247.059 168.863 246.585C164.953 246.585 161.042 246.585 157.123 246.585C153.694 246.274 150.257 245.659 146.828 245.69C132.11 245.854 117.383 245.932 102.68 246.577C93.039 246.997 83.4443 248.334 73.8262 249.259V249.283Z" fill="#F6EBB0"/>
<path d="M266.149 97.9524C264.804 109.172 263.459 120.392 262.083 131.604C262.028 132.07 261.694 132.514 261.492 132.964C262.611 140.981 263.684 149.013 264.851 157.021C267.067 172.339 269.477 187.632 271.514 202.973C272.455 210.095 272.704 217.303 273.271 224.48C272.634 222.987 272.004 221.502 271.366 220.017C271.343 219.006 271.32 217.995 271.304 216.984C270.744 209.302 270.534 201.581 269.547 193.954C268.147 183.154 266.289 172.408 264.415 161.679C263.055 153.888 261.367 146.151 259.828 138.384C259.812 137.093 259.789 135.81 259.773 134.52C259.781 133.991 259.789 133.47 259.797 132.941C260.349 129.069 260.893 125.197 261.445 121.317C262.961 110.548 264.493 99.7718 265.994 89.0031C267.712 76.6715 269.423 64.3399 271.086 52.0005C272.276 43.2222 273.388 34.4361 274.531 25.6578C275.619 23.8929 276.311 22.1823 273.8 20.9771C273.784 18.9011 273.769 16.8251 273.746 14.7569C274.515 16.3042 275.277 17.8592 276.047 19.4065C276.078 19.9586 276.102 20.5184 276.133 21.0704L274.694 36.5432C274.438 38.0983 274.181 39.6533 273.924 41.2006C272.455 51.394 270.947 61.5796 269.539 71.7808C268.342 80.4969 267.277 89.2285 266.149 97.9602V97.9524Z" fill="#FEEFC8"/>
<path d="M141.744 28.0837C142.623 27.5316 143.439 26.653 144.38 26.4898C158.29 24.0716 172.239 21.8324 186.149 19.3754C200.821 16.7784 215.485 14.1504 230.102 11.2424C240.568 9.15866 250.909 6.47619 261.359 4.31466C264.345 3.70041 267.517 3.87147 270.604 3.94145C271.381 3.957 272.143 4.97556 272.913 5.5276L272.796 5.64423C269.492 5.48095 266.063 4.67232 262.906 5.27102C253.203 7.11376 243.655 9.80401 233.943 11.6079C203.48 17.2605 172.962 22.6488 142.467 28.1459C142.234 28.0604 142.001 28.0448 141.76 28.0837H141.744Z" fill="#42190B"/>
<path d="M14.8671 204.481C15.769 196.442 16.4766 188.379 17.6196 180.37C19.3846 168.039 21.826 155.8 23.2022 143.43C23.7387 138.586 22.1448 133.516 21.5772 128.54C20.6053 119.987 19.6645 111.435 18.7314 102.882C18.3271 99.1808 17.915 95.4798 17.6196 91.7632C17.5418 90.7369 17.8761 89.6795 18.0239 88.6298C19.0813 97.4392 20.1388 106.249 21.1962 115.058C22.4325 122.841 23.6765 130.624 24.9128 138.407C24.6484 142.015 24.3841 145.623 24.1275 149.23C23.7931 150.505 23.3188 151.765 23.1322 153.064C21.375 165.255 19.6645 177.455 17.9383 189.654C17.6895 190.439 17.3552 191.209 17.1997 192.01C16.4066 196.17 15.6602 200.337 14.8982 204.505L14.8516 204.474L14.8671 204.481Z" fill="#42190B"/>
<path d="M28.0941 6.42176C27.5731 6.39066 27.0444 6.35956 26.5235 6.32068C21.3762 5.13884 16.2368 4.28356 11.0895 6.32068L11.0273 6.25848C13.7876 2.36307 17.854 3.60711 21.2907 4.18248C33.0625 6.1574 44.7721 8.52886 56.4816 10.8614C78.3924 15.2234 100.303 19.6164 122.183 24.1416C125.091 24.7403 127.82 26.2332 130.627 27.3062L130.557 27.3839C120.045 24.9814 109.587 22.3533 99.0202 20.2307C75.4067 15.4877 51.7387 11.0014 28.1019 6.41399L28.0941 6.42176Z" fill="#42190B"/>
<path d="M273.26 224.48C272.7 217.311 272.451 210.095 271.503 202.973C269.473 187.633 267.063 172.339 264.839 157.021C263.681 149.005 262.6 140.981 261.48 132.965C263.253 142.404 265.197 151.812 266.768 161.274C268.976 174.578 270.966 187.912 272.926 201.255C273.431 204.684 273.796 208.19 273.688 211.643C273.485 218.205 273.999 224.526 277.552 230.288C277.777 230.653 277.552 231.291 277.536 231.804L277.435 231.889C277.101 231.47 276.767 231.057 276.432 230.638C276.152 230.117 275.88 229.603 275.608 229.083C275.041 228.087 274.473 227.092 273.905 226.097L273.975 226.182L273.136 224.534L273.252 224.48H273.26Z" fill="#42190B"/>
<path d="M73.8262 249.283C83.4442 248.357 93.0389 247.02 102.68 246.6C117.383 245.955 132.11 245.869 146.828 245.714C150.257 245.675 153.694 246.289 157.123 246.608C155.381 246.81 153.632 247.222 151.89 247.191C142.365 247.012 132.817 246.157 123.324 246.616C107.695 247.362 92.1059 248.956 76.4931 250.122C75.63 250.185 74.7203 249.586 73.8262 249.29V249.283Z" fill="#42190B"/>
<path d="M17.8463 85.5041C17.1154 82.6973 16.1279 79.9293 15.6925 77.0757C13.912 65.4206 12.2558 53.7499 10.6541 42.0714C9.379 32.8111 8.06497 23.5429 7.20192 14.2437C7.01531 12.191 8.687 9.9673 9.5034 7.8291L9.57338 7.89908C7.66066 12.4165 7.62178 17.0506 8.7803 21.7469C10.8563 35.2292 12.9323 48.7115 15.0083 62.2016C15.9491 69.9691 16.8977 77.7444 17.8385 85.5119L17.8463 85.5041Z" fill="#42190B"/>
<path d="M214.738 248.925C225.266 249.889 235.794 250.915 246.329 251.786C256.173 252.595 266.032 253.24 275.875 253.956C275.448 254.554 275.02 255.161 274.592 255.759C266.941 254.92 259.291 254.072 251.632 253.24C245.124 252.533 238.624 251.747 232.1 251.195C226.969 250.76 221.814 250.659 216.682 250.278C216.006 250.231 215.384 249.399 214.738 248.933V248.925Z" fill="#42190B"/>
<path d="M266.148 97.9524C267.276 89.2285 268.341 80.4891 269.538 71.773C270.938 61.5718 272.454 51.3862 273.924 41.1928C273.893 44.0697 274.165 46.9854 273.784 49.8156C272.12 62.0228 270.238 74.2066 268.497 86.4061C268.061 89.454 267.968 92.5563 267.532 95.612C267.416 96.4362 266.631 97.1748 266.148 97.9524Z" fill="#42190B"/>
<path d="M17.8478 85.5042C16.907 77.7367 15.9584 69.9614 15.0176 62.1939C15.2586 62.1939 15.4996 62.1939 15.7329 62.1939C16.526 67.5977 17.4668 72.986 18.081 78.4131C19.4573 90.6281 20.678 102.859 21.9609 115.081C21.7121 115.081 21.4633 115.081 21.2145 115.081C20.157 106.272 19.0996 97.4626 18.0422 88.6532C17.98 87.6035 17.9178 86.5616 17.8478 85.512V85.5042Z" fill="#FEEFC8"/>
<path d="M25.1244 255.067C32.3554 254.119 39.5942 253.139 46.833 252.253C47.8437 252.128 48.909 252.424 49.9508 252.533C45.9777 253.256 42.0201 254.15 38.0158 254.663C30.1317 255.682 22.232 256.599 14.3167 257.276C12.7617 257.408 11.1055 256.265 9.48828 255.713L9.65156 255.511C14.8066 255.363 19.9694 255.207 25.1244 255.06V255.067Z" fill="#42190B"/>
<path d="M168.857 246.592C180.326 247.074 191.794 247.533 203.255 248.062C204.219 248.109 205.152 248.629 206.109 248.933C203.745 248.902 201.381 248.902 199.018 248.832C190.131 248.567 181.236 248.326 172.356 247.945C171.174 247.891 170.024 247.067 168.865 246.592H168.857Z" fill="#42190B"/>
<path d="M141.745 28.0837C141.986 28.0448 142.227 28.0603 142.453 28.1459C144.241 28.8301 146.029 29.5143 147.81 30.2063C148.595 30.4862 149.381 30.7739 150.166 31.0538C150.446 31.1083 150.726 31.1549 151.013 31.2093C152.359 31.9247 153.704 32.64 155.049 33.3553C153.665 33.6897 152.289 34.0162 150.905 34.3505C150.384 34.3272 149.855 34.3039 149.334 34.2806C147.538 33.7052 145.742 33.1376 143.946 32.5622C143.417 32.3368 142.888 32.119 142.36 31.8936C142.126 31.808 141.885 31.7381 141.636 31.6759C141.069 31.2327 140.509 30.7817 139.941 30.3385C140.54 29.5843 141.131 28.8301 141.73 28.0759L141.745 28.0837Z" fill="#F3C883"/>
<path d="M274.693 36.5354C275.175 31.3804 275.657 26.2254 276.132 21.0626C277.656 16.4985 277.275 12.0822 275.098 7.79797C279.475 9.57851 278.216 13.8316 278.2 16.7706C278.161 22.641 276.925 28.5113 276.07 34.3583C275.953 35.1281 275.168 35.8045 274.693 36.5276V36.5354Z" fill="#42190B"/>
<path d="M277.447 253.209C277.743 252.883 278.046 252.564 278.341 252.237L278.287 252.23C278.645 251.887 279.01 251.538 279.376 251.195C280.044 249.998 281.42 248.7 281.265 247.619C280.658 243.506 279.562 239.47 278.645 235.404C278.404 234.86 278.163 234.315 277.922 233.771C277.766 233.141 277.611 232.511 277.455 231.882L277.556 231.796C282.836 237.425 283.286 244.05 281.522 251.125C280.161 251.817 278.808 252.509 277.455 253.201L277.447 253.209Z" fill="#42190B"/>
<path d="M12.6348 225.553C13.3812 218.531 14.1276 211.503 14.874 204.482L14.9207 204.513C14.5708 210.5 14.2754 216.494 13.8322 222.481C13.7544 223.546 13.0935 224.565 12.7047 225.607L12.6348 225.553Z" fill="#42190B"/>
<path d="M6.43187 253.357C5.35889 251.281 3.09628 248.964 3.45394 247.176C4.29367 242.946 6.37745 238.957 7.9636 234.867L8.12689 235.007C7.97138 235.684 7.82365 236.368 7.66814 237.044L7.8081 237.052C6.78176 240.232 5.47552 243.366 4.84572 246.624C4.57358 248.015 5.70877 249.671 6.20639 251.211L5.98868 251.351C6.17529 251.981 6.3619 252.611 6.5485 253.248L6.43187 253.357Z" fill="#42190B"/>
<path d="M275.099 7.80572C277.276 12.0821 277.657 16.4985 276.133 21.0703C276.102 20.5183 276.079 19.9585 276.048 19.4064C275.807 16.5685 275.566 13.7383 275.333 10.9003C274.555 9.59404 273.785 8.29557 273.008 6.98932C273.163 6.79494 273.296 6.585 273.389 6.35175C273.778 6.62388 274.159 6.88824 274.547 7.16037C274.734 7.37808 274.921 7.58801 275.107 7.80572H275.099Z" fill="#FEF9E9"/>
<path d="M130.629 27.314C133.218 28.2237 135.807 29.1412 138.388 30.0509L138.489 30.3386C135.846 29.3511 133.202 28.3714 130.559 27.384L130.629 27.3062V27.314Z" fill="#42190B"/>
<path d="M10.2891 230.21C11.0666 228.655 11.8519 227.108 12.6294 225.552L12.6994 225.607C11.9141 227.154 11.1288 228.701 10.3435 230.249L10.2891 230.21Z" fill="#42190B"/>
<path d="M274.539 7.16043C274.158 6.8883 273.769 6.62394 273.388 6.3518C273.186 6.11855 272.991 5.88529 272.789 5.65203L272.906 5.5354C273.45 6.07967 273.994 6.61616 274.539 7.16043Z" fill="#42190B"/>
<path d="M9.50195 7.82128C10.0073 7.30033 10.5127 6.77939 11.0181 6.25067L11.0803 6.31287C10.5749 6.83382 10.0695 7.36254 9.57193 7.88348L9.50195 7.8135V7.82128Z" fill="#42190B"/>
<path d="M9.55664 231.804C9.79767 231.275 10.0465 230.739 10.2875 230.21L10.3419 230.249C10.1009 230.785 9.85988 231.314 9.61884 231.85L9.55664 231.804Z" fill="#42190B"/>
<path d="M8.76172 233.343C9.02608 232.83 9.29044 232.317 9.5548 231.804L9.617 231.85C9.35264 232.364 9.08828 232.884 8.8317 233.398L8.76172 233.343Z" fill="#42190B"/>
<path d="M9.48647 255.713C8.94998 255.472 8.42126 255.231 7.88477 254.997L8.1258 254.741C8.63119 254.997 9.13659 255.262 9.64198 255.518L9.4787 255.72L9.48647 255.713Z" fill="#42190B"/>
<path d="M7.95508 234.867C8.21944 234.362 8.49157 233.849 8.76371 233.343L8.83368 233.398C8.60043 233.934 8.35939 234.471 8.12613 235.007L7.96285 234.867H7.95508Z" fill="#42190B"/>
<path d="M7.18584 254.134C6.92926 253.878 6.68045 253.613 6.43164 253.357L6.54827 253.24C6.78153 253.512 7.00701 253.792 7.24027 254.064L7.18584 254.134Z" fill="#42190B"/>
<path d="M7.88337 254.997C7.65011 254.71 7.41685 254.43 7.18359 254.142L7.23802 254.072C7.48683 254.119 7.72786 254.165 7.97667 254.204C8.0311 254.383 8.08553 254.562 8.1244 254.741L7.88337 254.997Z" fill="#42190B"/>
<path d="M13.3056 6.99716C15.4593 8.07793 17.5275 9.4075 19.7901 10.2006C25.5127 12.1988 31.3053 13.9949 37.0979 15.791C49.9971 19.7797 62.8963 23.7684 75.8266 27.6405C78.7579 28.5191 81.8369 28.9235 84.8537 29.5377C85.8956 29.7865 86.9374 30.0431 87.9716 30.2919C88.4847 30.2919 88.9979 30.3074 89.5111 30.3074C90.2886 30.564 91.0661 30.8206 91.8514 31.0772C92.3646 31.0772 92.8855 31.0772 93.3987 31.085C97.1697 32.3834 100.91 33.7674 104.72 34.9337C107.083 35.6568 109.711 35.6646 111.927 36.6676C115.62 38.3393 119.197 38.4715 122.953 37.2896C123.73 37.2896 124.5 37.2974 125.277 37.3052C125.798 37.5618 126.319 37.8106 126.84 38.0672C127.353 38.0672 127.874 38.075 128.387 38.0827C129.686 38.5959 130.984 39.1091 132.283 39.6222C132.804 39.6222 133.317 39.6378 133.838 39.6378C135.136 40.151 136.427 40.6641 137.726 41.1773C138.247 41.1773 138.76 41.1773 139.281 41.1851C139.802 41.4417 140.323 41.6905 140.843 41.947C141.357 41.947 141.878 41.9548 142.391 41.9626C142.912 42.2192 143.433 42.4758 143.954 42.7323C144.731 42.7323 145.509 42.7479 146.286 42.7557C146.807 43.0123 147.32 43.2611 147.841 43.5177C148.362 43.5177 148.875 43.5254 149.396 43.5332C150.049 44.2252 150.71 45.5159 151.363 45.5159C156.145 45.5159 160.927 45.2593 165.717 45.0805C167.365 44.8083 169.021 44.5906 170.654 44.2485C173.422 43.6654 172.357 42.398 171.152 41.1462C170.141 40.4231 169.107 39.7155 168.111 38.9613C166.758 37.9272 165.444 36.8542 164.107 35.7968C167.497 35.2603 170.879 34.7238 174.269 34.1951C178.289 35.9134 182.13 34.8171 185.94 33.4098C188.016 33.1532 190.084 32.9044 192.16 32.6478H192.93C193.708 32.6478 194.485 32.64 195.263 32.6323L198.373 31.8703C198.886 31.8625 199.407 31.8547 199.92 31.847C200.962 31.5904 202.004 31.3416 203.038 31.085C203.551 31.085 204.072 31.0694 204.585 31.0694C206.179 32.5934 209.561 31.8547 211.591 29.5299C212.104 29.5299 212.617 29.5144 213.13 29.5144L217.803 27.9904C218.581 27.9826 219.35 27.9671 220.128 27.9593C220.649 27.7027 221.17 27.4539 221.691 27.1973C222.204 27.1896 222.717 27.1818 223.23 27.1662H246.261C246.315 27.5783 246.447 28.5425 246.572 29.5066C245.794 29.771 245.017 30.0431 244.239 30.3074C243.718 30.564 243.197 30.8206 242.676 31.0772C232.055 34.9959 221.395 38.7903 210.852 42.9034C207.781 44.1008 205.075 46.2234 201.739 48.1906C205.853 50.9197 209.064 52.8402 212.042 55.0717C215.128 57.3887 217.935 60.079 220.96 62.4816C225.47 66.066 226.239 65.7705 230.049 61.0276C235.43 54.3175 241.036 47.7863 246.541 41.1773C248.858 40.8818 250.164 41.846 250.459 44.2019C250.677 45.9513 251.214 47.7007 251.182 49.4346C251.128 52.2026 252.458 53.0501 254.946 52.8558C255.778 52.7858 256.625 52.8558 257.465 52.8558C252.185 63.2669 250.662 74.3 251.12 85.9007C251.455 94.1347 248.92 101.926 244.581 109.024C241.539 114.011 242.199 118.479 246.564 122.429C247.038 122.857 247.575 123.23 248.08 123.626C248.368 125.648 249.005 127.701 248.865 129.691C248.5 134.916 247.8 140.125 247.233 145.335C244.807 146.859 243.244 149.09 244.923 151.68C249.604 158.895 250.452 167.082 251.136 175.231C251.867 183.877 251.128 192.461 247.761 200.656C246.743 203.129 247.287 205.259 250.273 206.06C252.294 207.607 254.207 209.325 256.361 210.671C260.435 213.221 262.565 216.673 262.146 221.548C261.928 222.621 261.609 223.679 261.508 224.767C261.384 226.198 261.43 227.652 261.407 229.09C259.961 228.717 258.398 228.585 257.084 227.939C249.791 224.332 242.847 219.768 235.235 217.101C222.243 212.552 208.924 208.882 195.597 205.376C183.017 202.071 170.242 199.544 157.094 199.739C155.702 199.762 154.295 199.14 151.947 198.603C155.943 195.633 159.069 193.316 162.187 190.991C159.294 191.015 156.752 191.808 154.264 192.717C139.965 197.942 125.798 203.533 111.352 208.315C100.98 211.744 90.2419 213.843 79.2321 214.729C72.9419 215.235 66.7451 217.311 60.587 218.99C57.1193 219.939 53.8847 221.735 50.4325 222.761C44.7721 224.441 41.5143 222.831 40.9156 217.202C40.3635 212.031 41.1877 206.713 41.4054 201.457C44.0257 199.109 46.6537 196.768 49.274 194.42C51.3656 193.013 53.4493 191.598 56.2951 189.685C53.4726 188.527 51.9176 187.936 50.4014 187.251C47.2369 185.829 45.1298 183.535 46.2961 179.935C48.5042 173.116 46.817 166.437 46.2805 159.665C45.744 152.924 46.5449 145.063 54.1491 141.953C56.645 140.934 58.962 139.457 61.2713 138.042C64.8479 135.849 64.7935 133.851 61.419 131.301C58.5499 129.139 55.3309 127.187 53.1228 124.451C45.9851 115.594 44.881 104.662 43.6758 93.9015C42.8516 86.4838 42.6495 79.004 41.9108 71.5786C39.9592 51.9616 30.8932 35.237 20.1556 19.2666C18.6938 17.0972 16.4856 15.4256 14.6196 13.5206C14.2386 13.7383 13.8654 13.956 13.4844 14.1815C12.8157 17.4705 12.1393 20.7594 11.4395 24.1961C10.973 22.9987 10.5687 21.9801 10.1721 20.9616C9.92331 20.9616 9.6745 20.9616 9.42569 20.9616C9.42569 18.2635 9.20021 15.5422 9.48012 12.8675C9.74448 10.395 9.90776 7.57253 13.29 6.99716H13.3056ZM49.9193 29.8565C49.896 30.0042 49.8649 30.1519 49.8416 30.2997C48.9397 30.2997 47.9444 30.0586 47.1513 30.3541C45.9773 30.8051 44.4844 31.4115 44.0101 32.3834C43.6991 33.021 44.6866 34.8171 45.5574 35.408C52.9206 40.392 61.489 41.5738 70.0107 42.6546C73.3229 43.0745 75.1113 40.3842 75.2279 37.6473C75.2823 36.3955 72.9808 34.234 71.4258 33.8763C64.3192 32.259 57.0959 31.1472 49.9193 29.8487V29.8565Z" fill="#FEEFC8"/>
<path d="M130.554 27.384C133.198 28.3714 135.842 29.3511 138.485 30.3386C135.336 29.7632 132.164 29.2734 129.038 28.5891C110.378 24.5227 91.748 20.2851 73.0562 16.3742C59.3795 13.5129 45.6173 11.0792 31.9172 8.35786C30.5643 8.08572 29.3592 7.08271 28.0918 6.42181C51.7364 11.0092 75.3966 15.4956 99.0101 20.2385C109.577 22.3611 120.042 24.9892 130.547 27.3917L130.554 27.384Z" fill="#FEF9E9"/>
<path d="M122.952 37.2974C119.197 38.4793 115.612 38.3393 111.927 36.6754C109.719 35.6802 107.083 35.6646 104.719 34.9415C100.909 33.7752 97.1694 32.3834 93.3984 31.0927C103.25 33.161 113.101 35.2292 122.952 37.2974Z" fill="#FEEDC2"/>
<path d="M164.099 35.7968C165.429 36.8542 166.75 37.9272 168.103 38.9613C169.091 39.7155 170.125 40.423 171.143 41.1461C164.402 38.8835 157.661 36.6132 150.912 34.3506C152.288 34.0162 153.672 33.6897 155.049 33.3553C158.065 34.1639 161.082 34.9804 164.099 35.789V35.7968Z" fill="#FADB9D"/>
<path d="M13.3037 6.99712C9.92147 7.57249 9.75042 10.4027 9.49383 12.8675C9.21392 15.5344 9.43163 18.2557 9.43941 20.9615C9.2217 21.2181 9.00399 21.4747 8.78628 21.7391C7.62777 17.0428 7.66664 12.4165 9.57936 7.89128C10.0848 7.37034 10.5901 6.84162 11.0878 6.32068C16.235 4.28355 21.3745 5.13883 26.5217 6.32068C24.7878 7.26926 23.2716 8.19452 21.1334 6.60836C20.0527 5.80751 18 6.3129 16.3905 6.22737C16.1572 6.22737 15.924 6.22737 15.683 6.22737C14.8899 6.48396 14.0968 6.74054 13.3037 6.99712Z" fill="#FEF9E9"/>
<path d="M165.701 45.0805C160.919 45.2593 156.138 45.5159 151.348 45.5159C150.695 45.5159 150.034 44.2252 149.381 43.5332C154.824 44.0464 160.258 44.5673 165.701 45.0805Z" fill="#FEEDC2"/>
<path d="M143.953 32.57C145.749 33.1376 147.545 33.713 149.341 34.2883C147.545 33.7208 145.749 33.1454 143.953 32.57Z" fill="#FEF9E9"/>
<path d="M87.9714 30.2919C86.9295 30.0431 85.8876 29.7865 84.8535 29.5377C85.8954 29.7865 86.9373 30.0431 87.9714 30.2919Z" fill="#FEEDC2"/>
<path d="M91.8501 31.0772C91.0726 30.8206 90.2951 30.564 89.5098 30.3074C90.2873 30.564 91.0648 30.8206 91.8501 31.0772Z" fill="#FEEDC2"/>
<path d="M15.6855 6.23515C15.9188 6.23515 16.1521 6.22737 16.3931 6.23515C16.1598 6.23515 15.9266 6.23515 15.6855 6.23515Z" fill="#FEEFC8"/>
<path d="M141.645 31.6915C141.886 31.7537 142.127 31.8237 142.368 31.9092C142.127 31.8392 141.886 31.7693 141.645 31.6915Z" fill="#FEF9E9"/>
<path d="M49.2731 194.428C46.6528 196.776 44.0248 199.117 41.4045 201.465C40.9069 201.558 40.316 201.511 39.9195 201.76C30.2237 207.934 25.3408 217.132 23.4981 228.181C23.0393 230.917 25.1542 232.325 28.0311 231.275C29.4462 230.762 30.7913 230.054 32.1675 229.432C32.3774 229.829 32.5796 230.218 32.7895 230.614C31.2967 231.718 29.6094 232.636 28.3732 233.973C27.1291 235.318 25.5507 237.052 25.5119 238.654C25.4497 241.367 27.5956 243.132 30.3403 243.249C32.4707 243.342 34.6323 242.751 36.786 242.51C43.3561 241.772 49.9185 240.979 56.5041 240.38C57.997 240.24 59.5676 241.08 61.0604 240.971C74.916 239.968 88.9037 239.727 102.58 237.557C118.419 235.046 133.961 230.739 149.668 227.356C154.185 226.384 158.811 225.926 163.391 225.234L163.655 226.377C155.6 229.51 147.537 232.651 139.482 235.785C139.451 236.228 139.412 236.663 139.381 237.107C140.524 237.869 141.628 239.175 142.825 239.26C144.963 239.416 147.164 238.941 149.31 238.545C161.307 236.329 173.281 233.919 185.309 231.882C188.762 231.298 193.139 230.373 195.79 231.882C204.102 236.617 212.974 236.827 221.978 237.13C224.816 237.223 227.708 236.967 230.492 237.41C238.726 238.732 246.913 240.325 255.116 241.811C259.003 243.397 262.946 244.851 266.748 246.608C269.492 247.875 271.988 248.917 273.948 245.675C275.339 246.266 276.498 246.756 277.656 247.253C277.656 247.774 277.656 248.287 277.664 248.808C277.913 249.321 278.162 249.835 278.411 250.348C278.372 250.604 278.341 250.869 278.302 251.125C278.302 251.499 278.286 251.872 278.278 252.237L278.333 252.245C275.339 252.642 272.299 253.551 269.352 253.318C263.723 252.867 258.156 251.67 252.542 250.962C246.034 250.138 239.519 249.345 232.98 248.832C218.595 247.704 204.203 246.701 189.804 245.784C182.891 245.341 175.956 245.131 169.036 244.967C155.204 244.633 141.364 243.894 127.547 244.268C112.875 244.664 98.2263 245.986 83.5854 247.222C71.0206 248.287 58.4868 249.71 45.9608 251.172C38.9398 251.988 31.9653 253.201 24.9754 254.235C24.159 254.002 23.327 253.551 22.5184 253.575C17.8377 253.715 13.1569 253.971 8.47622 254.189C7.64427 253.248 6.81231 252.307 5.98036 251.366L6.19807 251.226C6.17474 249.244 5.31946 246.507 6.29915 245.426C8.75613 242.72 7.97861 239.945 7.792 237.06C7.792 237.06 7.65204 237.052 7.65982 237.06C8.16521 236.718 8.92719 236.492 9.13712 236.026C11.7107 230.396 15.8783 225.288 15.0619 218.516C18.7551 217.567 20.6601 215.001 21.0644 211.394C21.3132 209.162 20.8156 206.837 21.1344 204.629C22.0674 198.106 22.6195 191.435 24.4466 185.144C27.8989 173.256 25.644 161.243 26.5537 149.946C25.2864 149.58 24.711 149.417 24.1356 149.254C24.4 145.646 24.6644 142.038 24.9209 138.43C24.4622 134.558 23.9957 130.686 23.5369 126.814C24.0112 125.625 24.9443 124.419 24.8898 123.253C24.2056 108.581 23.7391 93.8781 22.4717 79.2528C21.632 69.5648 19.5327 59.9857 18.1098 50.3443C17.8299 48.4705 18.0709 46.5267 18.0709 44.6139C18.4441 44.5828 18.8251 44.5595 19.1983 44.5362C23.3348 50.3055 26.5304 56.4635 27.3157 63.7256C28.2021 71.8974 29.1896 80.0692 30.1693 88.2333C31.5299 99.5929 33.3649 110.914 34.1735 122.305C34.9744 133.649 31.7865 133.719 46.2719 136.152C47.9902 136.44 49.623 137.202 52.2277 138.049C47.4459 139.939 43.9237 141.463 40.316 142.722C32.4241 145.49 30.0682 149.067 31.7943 158.187C33.1938 165.605 34.0491 172.875 31.9187 180.308C30.5425 185.121 29.7105 190.082 28.5209 194.949C27.7667 198.044 29.4151 199.163 31.9809 198.945C33.9791 198.782 36.0318 198.09 37.8512 197.204C41.0624 195.633 44.1181 193.744 47.2826 191.955C48.0446 192.904 48.6589 193.674 49.2731 194.436V194.428Z" fill="#F3C883"/>
<path d="M8.48395 254.181C13.1647 253.963 17.8454 253.707 22.5261 253.567C23.3347 253.544 24.1667 253.995 24.9831 254.228C24.6799 254.344 24.3766 254.453 24.0734 254.57C24.4233 254.733 24.7732 254.904 25.123 255.068C19.968 255.215 14.8052 255.371 9.65024 255.518C9.14484 255.262 8.63945 254.998 8.13406 254.741C8.08741 254.562 8.04076 254.383 7.98633 254.204L8.23514 254.173H8.49172L8.48395 254.181Z" fill="#F9D99B"/>
<path d="M248.088 123.626C247.583 123.23 247.054 122.857 246.572 122.429C242.197 118.479 241.536 114.011 244.589 109.024C248.92 101.926 251.455 94.1425 251.128 85.9007C250.662 74.3 252.194 63.2669 257.473 52.8558C258.391 50.7642 259.362 48.6882 260.218 46.5733C263.437 38.5804 266.78 30.6262 269.711 22.5244C270.753 19.6475 270.753 16.3897 271.313 12.8053C272.433 13.6917 273.094 14.2126 273.762 14.7413C273.778 16.8173 273.793 18.8933 273.817 20.9616C274.058 22.5244 274.299 24.0795 274.548 25.6423C273.405 34.4206 272.293 43.2066 271.103 51.9849C269.431 64.3243 267.721 76.6559 266.01 88.9875C264.51 99.764 262.978 110.533 261.462 121.302C261.174 119.972 260.56 118.627 260.645 117.321C261.042 111.163 261.555 105.012 262.169 98.8699C262.978 90.8147 263.748 82.7517 264.875 74.7432C265.894 67.5044 267.433 60.3434 268.584 53.1201C268.817 51.6584 268.304 50.08 268.032 47.693C265.863 54.0376 263.794 59.3015 262.294 64.7208C260.303 71.8974 258.748 79.1906 257.061 86.4528C256.867 87.2925 256.851 88.2411 257.007 89.0963C257.916 94.0259 257.737 98.7066 255.397 103.364C254.386 105.378 254.829 108.076 254.161 110.323C253.391 112.904 252.139 115.346 251.058 117.826C250.677 118.705 250.156 119.529 249.721 120.392C249.177 121.457 248.656 122.538 248.119 123.611L248.088 123.626Z" fill="#FADB9D"/>
<path d="M248.088 123.626C248.624 122.553 249.145 121.48 249.689 120.407C250.125 119.544 250.638 118.72 251.027 117.842C252.107 115.361 253.359 112.92 254.129 110.338C254.798 108.091 254.355 105.393 255.365 103.38C257.706 98.7221 257.884 94.0414 256.975 89.1119C256.819 88.2566 256.835 87.308 257.029 86.4683C258.716 79.214 260.279 71.913 262.262 64.7364C263.763 59.317 265.839 54.0609 268 47.7085C268.264 50.1033 268.778 51.6817 268.552 53.1357C267.409 60.3589 265.862 67.5199 264.843 74.7587C263.716 82.7673 262.946 90.8302 262.138 98.8854C261.516 105.028 261.01 111.178 260.614 117.336C260.528 118.642 261.135 119.988 261.43 121.317C260.886 125.189 260.334 129.069 259.782 132.941C256.221 135.756 257.278 139.713 257.721 143.173C258.615 150.171 260.093 157.091 261.329 164.042C260.963 165.131 260.108 166.32 260.31 167.3C261.531 173.248 263.817 179.134 262.005 185.261C261.36 187.446 259.541 189.273 258.25 191.264C258.748 187.842 259.968 184.344 259.595 181.023C258.475 171.032 257.9 160.94 254.588 151.236C253.686 148.593 252.069 148.118 250.28 147.131C249.246 146.563 248.235 145.926 247.217 145.319C247.784 140.11 248.492 134.901 248.857 129.676C248.997 127.685 248.36 125.632 248.072 123.611L248.088 123.626Z" fill="#F5CE8D"/>
<path d="M273.746 14.7492C273.086 14.2282 272.417 13.6995 271.297 12.8131C270.745 16.3897 270.745 19.6476 269.696 22.5322C266.764 30.6341 263.421 38.5804 260.202 46.5812C259.347 48.7038 258.375 50.772 257.457 52.8636C256.618 52.8636 255.778 52.7936 254.946 52.8636C252.45 53.0657 251.128 52.2105 251.183 49.4425C251.214 47.7008 250.677 45.9591 250.459 44.2097C250.164 41.8616 248.858 40.8897 246.541 41.1851C247.676 39.6689 248.78 38.1217 249.97 36.6521C251.4 34.8716 253.08 33.2621 254.3 31.3494C254.884 30.4319 254.658 29.0013 254.806 27.8039C253.741 27.7883 252.629 27.555 251.626 27.8039C249.9 28.2237 248.251 28.9313 246.572 29.5144C246.44 28.5503 246.315 27.5861 246.261 27.1741C238.315 27.1741 230.772 27.1741 223.23 27.1741C223.783 26.8786 224.303 26.4587 224.894 26.311C239.248 22.7499 253.259 18.2636 266.337 11.1725C267.534 10.5194 269.035 10.1695 270.403 10.154C272.044 10.1306 273.684 10.6205 275.325 10.8926C275.566 13.7306 275.807 16.5608 276.04 19.3988C275.27 17.8515 274.508 16.2964 273.739 14.7492H273.746Z" fill="#FEEDC2"/>
<path d="M258.257 191.271C259.54 189.281 261.367 187.446 262.012 185.269C263.831 179.142 261.546 173.248 260.317 167.308C260.115 166.336 260.97 165.146 261.336 164.05C262.37 169.703 263.653 175.324 264.391 181.016C265.635 190.509 266.374 200.073 267.672 209.567C268.038 212.233 267.649 215.725 271.288 216.992C271.311 218.003 271.335 219.014 271.35 220.024C269.305 221.844 267.268 223.655 265.223 225.475C264.446 224.441 263.66 223.407 262.883 222.365C262.626 222.093 262.37 221.828 262.105 221.556H262.129C262.549 216.689 260.418 213.236 256.344 210.686C254.198 209.341 252.277 207.623 250.256 206.075C251.593 205.578 253.778 205.407 254.112 204.536C255.761 200.221 256.911 195.719 258.241 191.287L258.257 191.271Z" fill="#F3C883"/>
<path d="M265.239 225.459C267.284 223.64 269.321 221.828 271.366 220.009C271.995 221.494 272.633 222.987 273.263 224.472L273.146 224.526C273.426 225.078 273.706 225.622 273.986 226.167L273.916 226.081C273.869 226.913 273.823 227.737 273.776 228.561C273.722 229.471 273.442 230.435 273.644 231.283C274.927 236.609 276.311 241.912 277.664 247.222C276.505 246.732 275.347 246.235 273.955 245.644C272.003 248.886 269.507 247.844 266.755 246.577C262.953 244.82 259.003 243.366 255.123 241.779C255.869 240.792 256.406 239.462 257.386 238.879C262.51 235.808 265.534 231.625 265.239 225.444V225.459Z" fill="#F5CE8D"/>
<path d="M271.295 216.976C267.656 215.709 268.045 212.226 267.679 209.551C266.381 200.065 265.634 190.502 264.398 181C263.652 175.309 262.377 169.687 261.342 164.034C260.106 157.083 258.629 150.163 257.735 143.166C257.291 139.706 256.234 135.748 259.795 132.933C259.787 133.462 259.78 133.983 259.772 134.512C259.787 135.802 259.811 137.085 259.826 138.376C261.366 146.136 263.061 153.872 264.414 161.671C266.28 172.401 268.146 183.146 269.545 193.946C270.533 201.574 270.743 209.294 271.303 216.976H271.295Z" fill="#F9D99B"/>
<path d="M274.522 25.6579C274.281 24.095 274.04 22.54 273.791 20.9771C276.302 22.1823 275.61 23.8929 274.522 25.6579Z" fill="#FEEDC2"/>
<path d="M272.79 5.65206C272.992 5.88532 273.187 6.11858 273.389 6.35184C273.296 6.58509 273.163 6.79503 273.008 6.98941C267.713 5.16222 262.457 6.46846 257.302 7.51035C246.992 9.6019 236.791 12.2377 226.473 14.2826C211.762 17.1983 196.981 19.772 182.239 22.5089C180.023 22.921 177.838 23.5508 175.615 23.9006C166.79 25.2769 157.957 26.5442 149.148 28.006C148.596 28.0993 148.261 29.4522 147.818 30.2219C146.03 29.5377 144.241 28.8535 142.461 28.1615C172.956 22.6721 203.474 17.2761 233.937 11.6235C243.648 9.81961 253.196 7.12936 262.9 5.28662C266.057 4.68793 269.486 5.49655 272.79 5.65984V5.65206Z" fill="#FEF9E9"/>
<path d="M24.1421 149.238C24.7175 149.401 25.2929 149.565 26.5602 149.93C25.6583 161.22 27.9053 173.24 24.4531 185.129C22.6259 191.419 22.0739 198.082 21.1409 204.614C20.8221 206.83 21.3197 209.147 21.0709 211.378C20.6666 214.986 18.7616 217.552 15.0684 218.5C15.9781 211.324 16.9422 204.163 17.7586 196.978C18.0307 194.568 17.9063 192.111 17.9608 189.669C19.6869 177.47 21.3974 165.271 23.1546 153.079C23.3413 151.781 23.8078 150.529 24.1499 149.246L24.1421 149.238Z" fill="#F5CE8D"/>
<path d="M17.9547 189.662C17.9002 192.095 18.0246 194.56 17.7525 196.971C16.9439 204.155 15.972 211.324 15.0623 218.493C15.8787 225.273 11.7111 230.373 9.14527 236.002C8.92756 236.477 8.17336 236.702 7.66797 237.037C7.8157 236.36 7.9712 235.676 8.12671 234.999C8.35997 234.463 8.601 233.926 8.83426 233.39C9.09862 232.877 9.36298 232.356 9.61956 231.843C9.8606 231.306 10.1016 230.777 10.3427 230.241C11.128 228.694 11.9133 227.146 12.6986 225.599C13.0873 224.557 13.7482 223.539 13.826 222.473C14.2692 216.486 14.5646 210.5 14.9145 204.505C15.6765 200.337 16.4229 196.17 17.216 192.01C17.3715 191.209 17.7059 190.439 17.9547 189.654V189.662Z" fill="#FEEDC2"/>
<path d="M23.5455 126.799C24.0042 130.671 24.463 134.543 24.9295 138.415C23.6932 130.632 22.4492 122.849 21.2129 115.066C21.4617 115.074 21.7105 115.074 21.9593 115.066C22.488 118.977 23.0168 122.888 23.5455 126.791V126.799Z" fill="#F6EBB0"/>
<path d="M277.447 231.882C277.602 232.511 277.758 233.141 277.913 233.771L277.649 234.035C277.136 232.993 276.623 231.959 276.109 230.917C276.218 230.824 276.335 230.731 276.444 230.637C276.778 231.057 277.112 231.469 277.447 231.889V231.882Z" fill="#FEEFC8"/>
<path d="M273.775 228.577C273.822 227.753 273.869 226.921 273.915 226.097C274.483 227.092 275.051 228.087 275.618 229.083C275.525 229.176 275.432 229.269 275.33 229.362C274.81 229.098 274.296 228.841 273.775 228.577Z" fill="#FEEFC8"/>
<path d="M275.62 229.082C275.892 229.603 276.172 230.117 276.444 230.637C276.327 230.731 276.218 230.824 276.11 230.917C275.853 230.396 275.589 229.883 275.332 229.362C275.425 229.269 275.526 229.176 275.62 229.082Z" fill="#FEEFC8"/>
<path d="M8.7793 21.7391C8.997 21.4825 9.21471 21.2259 9.43242 20.9615C9.68123 20.9693 9.93004 20.9771 10.1788 20.9615C10.6065 24.6626 10.9642 28.3636 11.4773 32.0569C12.8613 42.1025 14.3075 52.1404 15.7304 62.1783C15.4894 62.1783 15.2483 62.1783 15.0151 62.1783C12.9391 48.696 10.8631 35.2136 8.78707 21.7235L8.7793 21.7391Z" fill="#FDF5DD"/>
<path d="M15.7312 62.186C14.3084 52.1481 12.8622 42.1102 11.4782 32.0646C10.9728 28.3791 10.6073 24.6703 10.1797 20.9693C10.5762 21.9878 10.9728 23.0064 11.4471 24.2038C12.1468 20.7671 12.8233 17.4782 13.492 14.1892C13.8729 13.9715 14.2462 13.7538 14.6271 13.5283C16.4932 15.4333 18.7014 17.0972 20.1631 19.2743C30.9008 35.2447 39.9668 51.9693 41.9184 71.5863C42.657 79.0117 42.8592 86.4993 43.6834 93.9092C44.8808 104.67 45.9926 115.602 53.1303 124.458C55.3385 127.195 58.5575 129.139 61.4266 131.308C64.801 133.859 64.8555 135.865 61.2788 138.049C58.9696 139.465 56.6448 140.942 54.1567 141.96C46.5524 145.063 45.7516 152.931 46.2881 159.672C46.8246 166.445 48.5118 173.124 46.3036 179.943C45.1373 183.543 47.2444 185.836 50.409 187.259C51.9252 187.936 53.4802 188.534 56.3026 189.693C53.4569 191.613 51.3653 193.021 49.2816 194.428C48.6673 193.658 48.0531 192.896 47.2911 191.948C44.1266 193.736 41.0709 195.625 37.8597 197.196C36.0403 198.082 33.9876 198.774 31.9893 198.938C29.4235 199.148 27.7751 198.036 28.5293 194.941C29.719 190.074 30.5509 185.105 31.9271 180.3C34.0576 172.867 33.2023 165.597 31.8027 158.18C30.0766 149.059 32.4325 145.483 40.3244 142.715C43.9399 141.447 47.4622 139.923 52.2362 138.042C49.6315 137.194 47.9986 136.432 46.2803 136.144C31.795 133.711 34.9906 133.641 34.182 122.297C33.3733 110.906 31.5384 99.5773 30.1777 88.2254C29.198 80.0614 28.2106 71.8973 27.3242 63.7178C26.5389 56.4556 23.3432 50.2898 19.2068 44.5284C18.8336 44.5517 18.4526 44.5828 18.0794 44.6061C18.0794 46.5188 17.8461 48.4627 18.1182 50.3365C19.5411 59.9778 21.6404 69.557 22.4802 79.245C23.7553 93.8703 24.2141 108.573 24.8983 123.245C24.9527 124.404 24.0197 125.617 23.5454 126.806C23.0167 122.895 22.488 118.984 21.9592 115.081C20.6763 102.859 19.4634 90.628 18.0794 78.413C17.4651 72.9859 16.5243 67.5976 15.7312 62.1938V62.186Z" fill="#FADB9D"/>
<path d="M147.809 30.2064C148.244 29.4366 148.586 28.0837 149.138 27.9904C157.948 26.5364 166.788 25.2691 175.605 23.8851C177.829 23.5352 180.014 22.9054 182.23 22.4933C196.972 19.7564 211.752 17.1828 226.463 14.2671C236.781 12.2222 246.982 9.58634 257.292 7.49479C262.447 6.4529 267.703 5.14665 272.998 6.97385C273.776 8.28009 274.546 9.57856 275.323 10.8848C273.683 10.6127 272.034 10.1306 270.401 10.1462C269.033 10.1617 267.532 10.5116 266.335 11.1647C253.257 18.2558 239.254 22.7421 224.893 26.3032C224.302 26.4509 223.781 26.8708 223.229 27.1662C222.716 27.174 222.202 27.1818 221.689 27.1973C221.168 27.4539 220.647 27.7027 220.126 27.9593C219.349 27.9671 218.579 27.9827 217.802 27.9904C216.247 28.4958 214.684 29.009 213.129 29.5144C212.616 29.5144 212.102 29.5299 211.589 29.5299C209.257 30.0431 206.916 30.5563 204.584 31.0694C204.071 31.0694 203.55 31.085 203.036 31.085C201.995 31.3416 200.953 31.5904 199.919 31.847C199.405 31.8547 198.884 31.8625 198.371 31.8703C197.337 32.1269 196.295 32.3757 195.261 32.6323C194.484 32.6323 193.706 32.64 192.929 32.6478C192.672 32.6478 192.415 32.6478 192.159 32.6478C190.083 32.9044 188.015 33.1532 185.939 33.4098C182.051 33.6742 178.156 33.9307 174.268 34.1951C170.878 34.7316 167.496 35.2681 164.106 35.7968C161.089 34.9882 158.072 34.1718 155.055 33.3631C153.71 32.6478 152.365 31.9325 151.02 31.2094C150.74 31.155 150.46 31.1083 150.18 31.0539C149.395 30.774 148.609 30.4863 147.824 30.2064H147.809Z" fill="#FDF5DD"/>
<path d="M150.164 31.0539C150.444 31.1083 150.724 31.1549 151.004 31.2094C150.724 31.1627 150.444 31.1083 150.164 31.0539Z" fill="#FEF9E9"/>
<path d="M278.309 251.11C278.347 250.853 278.379 250.589 278.417 250.332C278.697 249.819 278.977 249.306 279.249 248.793C279.498 247.603 280.058 246.375 279.926 245.232C279.576 241.997 278.946 238.802 278.425 235.583L278.635 235.404C279.553 239.47 280.649 243.506 281.255 247.619C281.411 248.692 280.035 249.998 279.366 251.195C279.016 251.172 278.658 251.141 278.309 251.118V251.11Z" fill="#FEEFC8"/>
<path d="M277.915 233.771C278.156 234.315 278.397 234.859 278.638 235.404L278.428 235.583C278.171 235.062 277.907 234.548 277.65 234.027L277.915 233.763V233.771Z" fill="#FEEFC8"/>
<path d="M278.31 251.11C278.66 251.133 279.018 251.164 279.368 251.188C279.002 251.53 278.637 251.88 278.279 252.222C278.295 251.849 278.303 251.483 278.31 251.11Z" fill="#F6EBB0"/>
<path d="M7.79888 237.052C7.97772 239.937 8.75524 242.712 6.30603 245.418C5.32635 246.491 6.18163 249.236 6.20495 251.219C5.70733 249.679 4.57214 248.023 4.84428 246.631C5.47407 243.373 6.77255 240.24 7.80666 237.06L7.79888 237.052Z" fill="#FEEDC2"/>
<path d="M8.48415 254.181H8.22756L7.97875 254.197C7.72994 254.158 7.48113 254.119 7.2401 254.064C7.00684 253.792 6.78136 253.512 6.5481 253.24C6.36149 252.611 6.18266 251.973 5.98828 251.343C6.82024 252.292 7.65219 253.233 8.48415 254.173V254.181Z" fill="#FEEDC2"/>
<path d="M265.239 225.459C265.535 231.64 262.51 235.831 257.386 238.895C256.407 239.486 255.87 240.815 255.124 241.795C246.921 240.31 238.734 238.716 230.5 237.394C227.716 236.951 224.824 237.208 221.986 237.114C212.982 236.811 204.11 236.601 195.798 231.866C193.147 230.35 188.77 231.275 185.317 231.866C173.289 233.911 161.315 236.313 149.318 238.529C147.172 238.926 144.964 239.4 142.833 239.245C141.636 239.159 140.532 237.845 139.389 237.091C139.42 236.648 139.459 236.212 139.49 235.769C147.545 232.636 155.608 229.494 163.663 226.361L163.399 225.218C158.819 225.91 154.193 226.369 149.676 227.341C133.969 230.723 118.427 235.023 102.588 237.542C88.9117 239.711 74.924 239.952 61.0684 240.955C59.5678 241.064 57.9972 240.224 56.5121 240.364C49.9342 240.971 43.3641 241.756 36.794 242.495C34.6402 242.736 32.4787 243.327 30.3483 243.233C27.6036 243.109 25.4576 241.352 25.5198 238.638C25.5587 237.044 27.1371 235.303 28.3811 233.958C29.6174 232.62 31.3046 231.703 32.7975 230.599C32.5876 230.202 32.3854 229.813 32.1755 229.417C30.7992 230.039 29.4541 230.746 28.039 231.259C25.1622 232.301 23.0473 230.894 23.506 228.165C25.3488 217.116 30.2317 207.918 39.9274 201.745C40.324 201.496 40.9071 201.542 41.4125 201.449C41.1948 206.705 40.3706 212.023 40.9227 217.194C41.5214 222.831 44.7792 224.441 50.4396 222.753C53.8918 221.727 57.1263 219.923 60.5941 218.982C66.7521 217.303 72.949 215.235 79.2392 214.721C90.249 213.835 100.979 211.736 111.359 208.307C125.798 203.533 139.972 197.935 154.271 192.71C156.767 191.8 159.301 191.007 162.194 190.984C159.068 193.301 155.95 195.625 151.954 198.596C154.31 199.14 155.709 199.754 157.101 199.731C170.241 199.529 183.016 202.056 195.604 205.368C208.931 208.867 222.25 212.537 235.242 217.093C242.854 219.76 249.798 224.324 257.091 227.932C258.397 228.577 259.968 228.717 261.414 229.082C261.437 227.636 261.391 226.19 261.515 224.759C261.608 223.679 261.927 222.613 262.153 221.54H262.129C262.23 222.1 262.332 222.66 262.44 223.22C262.596 222.932 262.751 222.644 262.907 222.349C263.684 223.383 264.47 224.417 265.247 225.459H265.239Z" fill="#F9D99B"/>
<path d="M246.571 29.5144C248.25 28.9313 249.906 28.2159 251.624 27.8038C252.627 27.5628 253.739 27.7883 254.805 27.8038C254.665 29.0012 254.89 30.4397 254.299 31.3494C253.078 33.2621 251.399 34.8716 249.968 36.6521C248.779 38.1294 247.682 39.6767 246.539 41.1851C241.027 47.7941 235.429 54.3253 230.048 61.0354C226.246 65.7783 225.468 66.0815 220.959 62.4894C217.934 60.0868 215.127 57.3966 212.041 55.0795C209.063 52.848 205.851 50.9197 201.738 48.1984C205.074 46.2313 207.78 44.1086 210.851 42.9112C221.394 38.7981 232.054 35.0037 242.675 31.085C243.196 30.8284 243.717 30.5718 244.238 30.3153C245.015 30.0509 245.793 29.7788 246.571 29.5144Z" fill="#FEF9E9"/>
<path d="M258.258 191.271C256.929 195.703 255.77 200.205 254.13 204.52C253.795 205.399 251.611 205.57 250.273 206.06C247.287 205.259 246.743 203.129 247.762 200.656C251.128 192.461 251.875 183.877 251.136 175.231C250.444 167.082 249.605 158.895 244.924 151.68C243.244 149.098 244.807 146.859 247.233 145.335C248.252 145.941 249.255 146.571 250.289 147.147C252.077 148.134 253.694 148.608 254.596 151.252C257.909 160.955 258.484 171.04 259.604 181.039C259.977 184.359 258.748 187.858 258.258 191.279V191.271Z" fill="#FADB9D"/>
<path d="M49.9209 29.8564C57.0975 31.1549 64.3207 32.2745 71.4273 33.884C72.9824 34.2339 75.2761 36.4032 75.2294 37.655C75.1128 40.3919 73.3245 43.0822 70.0122 42.6623C61.4905 41.5815 52.9222 40.3997 45.559 35.4157C44.6882 34.8248 43.7007 33.0287 44.0117 32.3912C44.4782 31.4192 45.9711 30.8128 47.1529 30.3618C47.9382 30.0586 48.9412 30.3074 49.8432 30.3074C49.8665 30.1596 49.8976 30.0119 49.9209 29.8642V29.8564Z" fill="#FEF9E9"/>
<path d="M174.26 34.1951C178.147 33.9307 182.043 33.6741 185.93 33.4098C182.121 34.8093 178.28 35.9134 174.26 34.1951Z" fill="#FEEDC2"/>
<path d="M204.576 31.0694C206.909 30.5563 209.249 30.0431 211.582 29.5299C209.552 31.847 206.17 32.5856 204.576 31.0694Z" fill="#FEEDC2"/>
<path d="M199.912 31.8469C200.954 31.5904 201.996 31.3415 203.03 31.085C201.988 31.3415 200.946 31.5904 199.912 31.8469Z" fill="#FEEDC2"/>
<path d="M277.647 234.035C277.903 234.556 278.168 235.069 278.424 235.59C278.945 238.802 279.575 242.005 279.925 245.239C280.049 246.39 279.49 247.611 279.241 248.801C278.712 248.801 278.183 248.801 277.662 248.801C277.662 248.28 277.662 247.766 277.655 247.246C276.302 241.935 274.918 236.632 273.635 231.306C273.433 230.459 273.713 229.495 273.767 228.585C274.288 228.849 274.801 229.106 275.322 229.37C275.579 229.891 275.843 230.404 276.1 230.925C276.613 231.967 277.126 233.001 277.639 234.043L277.647 234.035Z" fill="#FADB9D"/>
<path d="M277.672 248.793C278.201 248.793 278.729 248.793 279.25 248.793C278.97 249.306 278.69 249.819 278.418 250.332C278.17 249.819 277.921 249.306 277.672 248.793Z" fill="#F5CE8D"/>
<path d="M262.899 222.357C262.743 222.645 262.588 222.932 262.432 223.228C262.331 222.668 262.23 222.108 262.121 221.548C262.378 221.82 262.634 222.085 262.899 222.357Z" fill="#FEEFC8"/>
</svg>
