<?xml version="1.0" encoding="UTF-8"?>
<svg id="Layer_2" xmlns="http://www.w3.org/2000/svg" viewBox="0 0 512.86 1121.18">
  <defs>
    <style>
      .cls-1 {
        fill: #5c5f63;
      }

      .cls-2 {
        fill: #ed5e59;
      }

      .cls-3 {
        fill: #1d5faa;
      }

      .cls-4 {
        fill: #282c2f;
      }

      .cls-5 {
        fill: #e74844;
      }

      .cls-6 {
        fill: #f0f0f0;
      }

      .cls-7 {
        fill: #3b4044;
      }

      .cls-8 {
        fill: #1b5ca6;
      }

      .cls-9 {
        fill: #3b81cb;
      }

      .cls-10 {
        fill: #fafafb;
      }

      .cls-11 {
        fill: #10427d;
      }

      .cls-12 {
        fill: #f2f2f2;
      }

      .cls-13 {
        fill: #1c5fa9;
      }

      .cls-14 {
        fill: #143969;
      }

      .cls-15 {
        fill: #494d51;
      }

      .cls-16 {
        fill: #292d30;
      }

      .cls-17 {
        fill: #515559;
      }

      .cls-18 {
        fill: #111214;
      }

      .cls-19 {
        fill: #bf2e2b;
      }

      .cls-20 {
        fill: #151515;
      }

      .cls-21 {
        fill: #393e41;
      }

      .cls-22 {
        fill: #3c4145;
      }
    </style>
  </defs>
  <g id="Layer_1-2" data-name="Layer_1">
    <g>
      <path class="cls-20" d="M119.69,14.25c20.65-3.48,41.3-6.96,61.94-10.44,4.63-.49,9.26-.98,13.89-1.47,6.03-.41,12.07-.82,18.1-1.24,4.02-.2,8.03-.41,12.05-.61,1.64-.06,3.28-.11,4.92-.17,1.33-.05,2.67-.09,4-.14,9.56-.06,19.13-.13,28.69-.19,3.76.05,7.52.11,11.28.16,1.33,0,2.66.02,3.99.03,3.64.13,7.27.27,10.91.4,3.41.17,6.81.35,10.22.52,6.61.47,13.21.93,19.82,1.4,5,.55,10,1.09,15,1.64,2.67.33,5.34.65,8.01.98.66.04,1.32.08,1.99.12,2,.3,4,.59,6.01.89,1,.08,2,.16,3,.23,13.65,2.65,27.3,5.3,40.95,7.95,10.32,3.25,20.65,6.51,30.97,9.76,25.02,10.41,45.95,25.82,60.38,49.22,2.88,5.63,5.77,11.27,8.65,16.9.28.68.56,1.35.83,2.03.36.99.72,1.98,1.08,2.97,2.76,11.04,5.52,22.08,8.28,33.13,1.3,13.72,3.24,27.42,3.78,41.17,1.57,40.04,2.8,80.09,3.72,120.15.54,23.76.25,47.54.33,71.32-.37,1.7-1.07,3.4-1.07,5.11-.06,36.91-.06,73.83,0,110.74,0,1.7.71,3.4,1.09,5.1-.12,23.41,0,46.83-.41,70.23-.54,31.21-1.5,62.42-2.27,93.63-.8,18.98-1.6,37.96-2.4,56.94-.03,1-.06,2-.09,3-.61,11.24-1.22,22.47-1.83,33.71-.04.76-.09,1.51-.13,2.26-.06.67-.12,1.34-.19,2.02-.15,1.66-.3,3.33-.45,4.99-.1,2.33-.21,4.65-.31,6.98-.24,3.36-.48,6.71-.72,10.07-.42,6.97-.84,13.94-1.25,20.91-.26,2.53-.53,5.05-.79,7.58-.06,1.47-.12,2.94-.18,4.41-.76,9.99-1.52,19.98-2.27,29.97-.92,10.64-1.84,21.28-2.76,31.92-.64,6.35-1.27,12.7-1.91,19.05-.11.97-.22,1.95-.33,2.92-.22,1.69-.43,3.38-.65,5.07-.07,1-.15,1.99-.22,2.99-.99,8-1.97,15.99-2.96,23.99-.25.78-.58,1.54-.73,2.34-4.01,21.54-8,43.08-12,64.62-3.53,9.94-7.06,19.88-10.59,29.82-1.23,2.7-2.47,5.41-3.7,8.11-.32.67-.63,1.35-.95,2.02-5.8,9.26-11.16,18.82-17.49,27.7-13.1,18.4-30.19,32.53-49.52,44.02-2.79,1.46-5.59,2.92-8.38,4.39-1.05.52-2.1,1.03-3.15,1.55l-2.68,1.16c-.9.4-1.8.79-2.7,1.19-.67.29-1.35.59-2.02.88-4.76,1.74-9.51,3.48-14.27,5.22-9.59,2.54-19.17,5.09-28.76,7.63-9.96,1.45-19.93,2.9-29.89,4.34-.71.05-1.42.11-2.13.16-1.95.21-3.9.41-5.86.62-6.78.3-13.56.9-20.34.86-20.2-.14-40.4-.53-60.6-.83-.65-.06-1.29-.12-1.94-.18-2.35-.24-4.7-.48-7.05-.73-1.31-.12-2.62-.24-3.93-.36-1.02-.17-2.04-.34-3.06-.5-2.59-.09-5.18-.18-7.77-.27-.41-.31-.82-.62-1.23-.93-1.59-.02-3.18-.04-4.77-.07-.41-.3-.81-.6-1.22-.91-.63-.09-1.26-.17-1.89-.26-10.36-2.61-20.73-5.22-31.09-7.83-11.39-5.02-23.11-9.42-34.07-15.26-9.31-4.96-17.73-11.58-26.55-17.46,0,0-.07.04-.07.04l.02-.02c-1.1-1.06-2.2-2.12-3.31-3.18-5.26-5.54-10.69-10.92-15.74-16.64-11.44-12.93-19.6-27.97-27.19-43.33-5.55-18.6-11.08-37.21-16.65-55.8-.63-2.1-1.45-4.14-2.19-6.21-.12-2.31-.25-4.62-.37-6.93-.2-1.02-.41-2.04-.61-3.06-.25-1.99-.35-4-.78-5.95-.73-3.35-1.66-6.65-2.51-9.98.06-1.33.12-2.66.19-3.99-.3-3.18-.48-6.38-.93-9.55-1.02-7.15-2.18-14.28-3.29-21.43.03-.67.05-1.34.08-2.01-.1-.92-.21-1.84-.31-2.76h0c-.23-2.41-.45-4.82-.68-7.23-.19-4.4-.36-8.8-.62-13.19-.02-.32-.66-.6-1.02-.91-.15-1.3-.3-2.6-.45-3.9-.62-10.32-1.23-20.64-1.85-30.97-.04-.77-.07-1.53-.11-2.3-.06-.85-.11-1.7-.17-2.54-.26-3.05-.52-6.1-.78-9.15-.07-1.33-.13-2.65-.2-3.98-.28-3.33-.56-6.66-.84-9.98-.77-13.32-1.54-26.65-2.32-39.97-.11-1.33-.23-2.66-.34-3.99-.22-4.75-.43-9.49-.65-14.24-.99-22.77-1.99-45.54-2.96-68.31-.56-13.12-1.09-26.25-1.63-39.37-.14-11.27-.31-22.53-.42-33.8-.24-25.36-.46-50.72-.68-76.08.38-1.53,1.09-3.06,1.09-4.6.07-26.26.07-52.53,0-78.79,0-1.53-.71-3.06-1.09-4.59-.19-1.67-.38-3.35-.56-5.02.1-1.8.27-3.6.29-5.4.15-15.84.27-31.67.4-47.51.67-1.28,1.92-2.55,1.93-3.84.12-23.19.1-46.39.04-69.58,0-1.19-.74-2.37-1.14-3.55.06-4.32.12-8.64.18-12.96.67-1.27,1.91-2.54,1.92-3.82.15-12.54.12-25.08.04-37.62,0-1.19-.72-2.37-1.11-3.56.05-3.66.11-7.31.16-10.97.66-.96,1.87-1.89,1.91-2.87.77-21.02,1.45-42.04,2-63.06.03-1.32-1.13-2.67-1.74-4.01.3-2.33.59-4.67.89-7,.07-2.96.14-5.93.2-8.89.52-4.03,1.05-8.06,1.57-12.09.12-.97.24-1.94.36-2.92.3-.69.6-1.39.89-2.08-.05-1.33-.11-2.67-.16-4,.61-.93,1.51-1.78,1.78-2.79,2.5-9.38,4.9-18.78,7.33-28.18.68-1.49,1.42-2.96,2.04-4.48,6.35-15.44,15.38-29.01,27.45-40.62,12.33-11.86,27.06-19.73,42.52-26.49,9.95-3.12,19.9-6.24,29.85-9.35ZM471.46,73.18c-.34-.34-.67-.67-1.01-1.01,0,0,.02-.02.02-.02-.91-1.71-1.51-3.72-2.79-5.08-4.54-4.83-8.96-9.87-14.06-14.04-11.25-9.19-23.49-16.73-37.97-19.85-2.81-1.27-5.52-2.89-8.44-3.77-41.89-12.51-84.98-16.88-128.43-18.1-38.27-1.07-76.48.2-114.45,5.79-24.21,3.56-48.19,8.06-71.09,17.04-34.89,13.68-57.4,38.59-67.97,74.53-8.15,27.72-8.64,56.36-10.32,84.81-1.27,21.57-1.61,43.21-1.95,64.83-.39,24.3-.31,48.61-.44,72.91-.25,76.53-.51,153.06-.76,229.59.28,13.29.54,26.58.83,39.86.31,14.12.57,28.24,1.01,42.36.6,19.25,1.29,38.51,2.05,57.76.56,14.26,1.16,28.52,2,42.77,1.21,20.7,2.48,41.39,4.04,62.07,1.36,17.99,3.16,35.94,4.77,53.91.14,5.2-.11,10.44.47,15.59,2.14,18.8,4.56,37.57,6.87,56.34,3.61,16.8,6.56,33.78,10.98,50.37,9.07,34.06,26.41,63.16,53.74,86,16.19,13.53,34.67,22.69,54.44,29.4,25.95,8.8,53,11.94,80.13,12.85,21.52.72,43.14-.73,64.69-1.75,17.89-.85,35.48-4.03,52.73-8.95,33.35-9.5,61.74-26.67,83.49-54.05,12.52-15.76,21.65-33.47,28.22-52.36,7.25-20.84,11.87-42.35,14.42-64.33,2.23-19.2,5.49-38.27,7.61-57.48,2.14-19.4,3.55-38.88,5.08-58.33,1.47-18.65,2.77-37.31,4.01-55.97,1.11-16.69,2.11-33.39,3-50.1.79-14.9,1.45-29.81,2.01-44.73.75-19.9,1.44-39.81,1.98-59.71.47-17.28.9-34.56.99-51.84.17-32.56.2-65.13.06-97.69-.23-56.25-.58-112.5-1-168.74-.15-20.28-.39-40.56-1.04-60.83-.7-21.71-1.43-43.43-3.1-65.08-1.15-14.96-3.71-29.84-6.11-44.67-.59-3.62-3.02-6.94-4.61-10.39-.28-2.1-.04-4.46-.93-6.26-3.77-7.64-7.88-15.12-11.86-22.66-.43-.34-.87-.67-1.3-1.01,0,0,.02.01.02.01Z"/>
      <path class="cls-22" d="M472.73,74.18c3.98,7.54,8.09,15.01,11.86,22.66.89,1.8.65,4.16.93,6.26,0,7.29,0,14.57,0,21.86-.25,0-.5-.01-.74-.02l-3.11-9.36c-.43.12-.86.25-1.29.37.68,2.95,1.67,5.87,1.98,8.86,2.09,20.05,4.37,40.09,5.92,60.18,1.21,15.69,1.57,31.46,2.06,47.2.5,15.94.8,31.88,1.02,47.82.4,28.76.99,57.52.94,86.28-.07,47.74-.52,95.48-.92,143.21-.21,25.6-.6,51.19-1.01,76.79-.16,9.78-.6,19.57-.96,29.35-.65,17.57-1.38,35.13-1.99,52.7-.42,12.11-.64,24.23-1.06,36.34-.23,6.79-.58,13.58-1.06,20.35-1.24,17.49-2.62,34.97-3.88,52.46-.75,10.4-1.19,20.83-2.11,31.21-1.49,16.95-3.13,33.9-4.93,50.82-1.55,14.62-2.72,29.33-5.27,43.78-3.66,20.82-7.74,41.61-12.86,62.11-6.76,27.08-19,51.75-37.35,72.93-18.01,20.79-40.6,34.99-66.54,44.02-24.16,8.41-49.31,11.8-74.57,12.73-22.5.83-45.12-.67-67.66-1.74-21.65-1.03-42.5-6.35-62.77-13.89-19.89-7.4-37.38-18.83-52.45-33.57-13.48-13.19-23.44-29.17-32.29-45.76-1.62-3.03-2.62-6.39-3.9-9.59-.03-1.91.29-3.9-.15-5.72-3.44-14.3-7.55-28.46-10.41-42.88-2.79-14.07-4.57-28.36-6.36-42.6-1.69-13.44-2.88-26.94-4.18-40.42-1.36-14.14-2.71-28.29-3.85-42.45-.87-10.89-1.41-21.8-2.07-32.7-1-16.69-1.98-33.37-2.96-50.06.62-.45,1.77-.88,1.79-1.37.39-8.32.85-16.65.87-24.97.03-9.03-1.42-18.2-.19-27.03.7-5.04.67-9.63-.62-14.18-.59-2.09-3.17-3.61-4.85-5.38,0-1.33,0-2.66-.01-4,.74-.31,2.11-.59,2.12-.93.23-5.7,4.69-10.99,1.49-17.1-.69-1.32-.63-4.33.24-4.95,4.21-2.99,8.81-5.43,13.27-8.06,5.2,9.77,10.76,19.29,18.93,26.97,3.58,3.99,6.53,8.98,10.88,11.75,7.55,4.82,15.96,8.27,24.01,12.29-1.66.63-3.32,1.26-4.98,1.88-6.4,2.35-8.44,7.08-5.27,12.97-.33.2-.81.76-1.16.69-5.53-1.12-7.28,2.72-9.26,6.64-1,1.97-2.89,3.47-4.06,5.38-.56.91-.9,2.56-.45,3.38,1.41,2.56,3.24,4.89,4.91,7.3.48-.68.95-1.37,1.43-2.05,2.3-.71,4.61-1.42,6.91-2.13-.57.59-1.08,1.25-1.72,1.75-18.93,14.74-27.38,33.74-23.29,57.72,4.01,23.5,26.6,44.41,49.92,46.4.64.64,1.27,1.83,1.91,1.83,6.64.01,13.47.81,19.88-.48,18.68-3.77,31.04-15.53,38.33-32.86.41-.96-.11-2.31-.19-3.48,3.49-9.01,4.56-18.38,4.06-27.98,6.54,4.37,7.18,3.87,11.33-2.98,1.44-2.39,5.04-3.77,7.93-4.89,2.39-.92,5.18-.79,7.8-1.12-.06,1.16.02,2.35-.19,3.48-2.66,14.08-.61,27.42,6.78,39.72,9.18,15.27,22.35,25.01,40.2,27.87,4.38,1.29,8.77,3.71,13.14,3.67,19.02-.16,34.74-7.41,45.38-23.76,3.53-5.42,7.34-10.92,6.51-18,3.39-11.88,4.55-23.89-.16-35.59-2.69-6.7-6.6-12.9-9.97-19.33,3,.66,6.02,1.24,8.99,2.03,1.04.27,1.91,1.12,2.92,1.56,1.27.56,3.36,1.73,3.77,1.32,1.75-1.76,3.02-4.01,4.46-6.07-.39-.46-.78-.93-1.17-1.39-2.89,4.34-5.98,4.03-8.12.43-2.65-4.47,1.22-5.99,4.35-7.73,1.93,1.37,3.76,2.78,5.72,3.98.55.34,1.99.34,2.12.07.36-.76.59-1.92.25-2.61-2.74-5.52-9.78-6.27-13.67-1.31-1.65,2.11-3.53,4.03-5.48,1.76-1.5-1.75-1.64-4.85-1.9-7.39-.13-1.3.8-2.71,1.26-4.07-1.25.55-2.46,1.3-3.76,1.58-1.31.29-2.73.11-4.1.14.47-1.14.82-2.34,1.44-3.39.39-.66,1.6-1.02,1.7-1.64.88-5.24,4.67-6.73,9.16-7.55.46-.08.73-1.15,1.46-2.38-3.67,0-7.21-.97-9.56.28-2.17,1.16-3.06,4.71-4.99,8.02-2.29-3.36-4.14-6.08-6.54-9.6-3.64-.65-5.89,2.17-7.12,6.05-.9,2.83-2.44,4.58-5.38,3.55-2.69-.95-5.15-2.58-7.95-4.04,2-3.38,4.76-5.98,4.93-8.73.39-6.26,3.03-7.92,10.36-5.39-1.4-2.87-2.16-4.37-2.85-5.9-.58-1.29-1.07-2.61-1.6-3.92,1.67.16,3.93-.3,4.88.61,1.59,1.51,2.83,3.79,3.35,5.95.91,3.75,2.49,3,4.96,1.58,3.51-2.02,5.37-5.02,6.26-8.8,12.53,7.23,26.19,8.4,40.32,8.1,18.79-.39,37.59,0,56.38-.14,8.61-.07,17.27-.13,25.81-1.04,27.71-2.97,50.01-25.68,56.32-49.68,4.7-17.88,3.38-36.29,3.68-54.38.69-41.03-.31-82.08-.71-123.13-.05-4.95-.06-10.04-1.18-14.8-1.2-5.09-3.7-9.88-5.63-14.8-2.21-7.26-3.39-15.04-6.81-21.67-12.6-24.51-33.1-37.46-60.71-38.12-20.11-.48-40.24-.2-60.36-.05-10.11.08-20.33-.23-30.29,1.15-16.31,2.26-30.28,9.77-40.45,23.01-4.29,5.58-7.51,12-11.21,18.03-1.36-1.09-2.63-2.95-4.09-3.11-6.07-.67-9.44,3.21-10.16,11.09-1.17-2.5-2.59-4.91-3.47-7.51-8.4-24.85-32.85-42.62-59.07-42.68-27.95-.06-55.92-.4-83.86.24-8.08.19-16.6,2.16-24.04,5.36-27.6,11.83-41.06,33.88-43.26,63.34-2.44-.67-4.88-1.33-7.82-2.13.3,5.27,2.63,10.19-1.71,13.75-2.05-.61-3.74-1.12-5.42-1.62.31-23.2.68-46.4.91-69.6.12-12.12,0-24.23,0-36.35.33-13.11.73-26.22.98-39.34.4-20.6.66-41.21,1.08-61.81.16-7.79.5-15.58.94-23.36.93-16.53,1.94-33.07,3-49.59,1.11-17.23,3.93-34.08,9.98-50.39,7.54-20.32,19.44-37.33,36.7-50.42,14.39-10.91,30.92-17.72,48.31-21.61,19.17-4.28,38.62-7.53,58.1-10.11,16.54-2.19,33.28-3.55,49.96-3.93,29.54-.67,59.12-.89,88.54,2.82,16.72,2.11,33.55,3.76,50.05,7.02,15.22,3.01,30.06,7.91,45.07,11.98.81.55,1.56,1.26,2.45,1.62,17.39,7.21,32.24,17.76,43.08,33.34,4.7,6.76,8.83,13.92,13.22,20.9l.99-.31c-3.3-8.58-6.6-17.17-10.09-26.27,1.03-.33,2.7-.86,4.37-1.39,0,0-.02.02-.02.02.34.34.67.67,1.01,1.01,0,0-.02-.01-.02-.01.43.34.87.67,1.3,1.01ZM434.35,154.09c3.09-10.46,4.19-21,2.17-31.88-5.33-28.65-35.81-48.06-63.94-40.52-27.91,7.48-44.68,34.48-38.98,62.77,3.81,18.9,21.19,37.15,38.82,40.76,1.43.93,2.74,2.38,4.29,2.71,13.48,2.85,26.51,1.8,38.17-6.14,9.88-6.72,17.23-15.48,19.46-27.7ZM453.41,777.65c2.17-8.87,3.66-17.66,2.19-26.98-4.22-26.69-26.76-47.7-55.02-48.77-20.09-.76-36.27,7.9-48.47,23.85-8.2,10.71-11.78,23.14-11.32,36.35.45,12.97,5.75,24.58,14.23,34.33,9.07,10.43,20.35,17.46,34.38,19.32.91.86,1.75,2.36,2.75,2.48,5.08.6,10.3,1.67,15.28,1.05,14.77-1.83,27.67-7.62,36.87-20.01,4.81-6.48,9.27-13.07,9.11-21.63ZM123.63,194.21c3.93,1.63,7.76,4.36,11.8,4.71,21.34,1.86,39.24-5,51.71-23.03,3-4.33,4.35-9.8,6.46-14.75,7.23-18.4,7.63-36.66-2.16-54.23-11.27-20.23-29.15-30.94-51.98-31.34-18.63-.33-34.31,7.92-46.64,22.09-9.59,11.02-13.73,24.24-13.8,38.41-.06,11.52,3.2,22.59,9.87,32.33,8.62,12.58,19.91,21.58,34.74,25.81ZM342.43,294.98c.49-1.58,1.04-3.15,1.47-4.75,3.38-12.44,3.3-24.54-3.61-35.94-8.45-13.95-21.3-19.98-37.15-20.1-21.64-.17-43.28-.15-64.91-.01-11.45.07-22.93.19-34.34.99-15.88,1.11-31.28,15.45-34.22,31.13-4.59,24.45,7.87,44.2,31.97,50.71.94.68,1.85,1.89,2.83,1.95,13.46.78,26.93,1.88,40.39,1.94,21.07.09,42.15-.81,63.23-.75,9.57.03,17.74-3.04,24.39-9.33,4.5-4.25,10.11-8.4,9.95-15.83Z"/>
      <path class="cls-4" d="M58.73,990.51c1.28,3.21,2.29,6.56,3.9,9.59,8.85,16.6,18.81,32.57,32.29,45.76,15.07,14.74,32.56,26.17,52.45,33.57,20.27,7.55,41.12,12.86,62.77,13.89,22.54,1.08,45.16,2.58,67.66,1.74,25.26-.94,50.41-4.32,74.57-12.73,25.94-9.03,48.53-23.23,66.54-44.02,18.35-21.18,30.59-45.85,37.35-72.93,5.12-20.5,9.2-41.29,12.86-62.11,2.54-14.46,3.72-29.16,5.27-43.78,1.79-16.92,3.44-33.87,4.93-50.82.91-10.39,1.36-20.81,2.11-31.21,1.26-17.49,2.64-34.97,3.88-52.46.48-6.78.83-13.56,1.06-20.35.42-12.11.64-24.23,1.06-36.34.61-17.57,1.34-35.13,1.99-52.7.36-9.78.8-19.56.96-29.35.42-25.6.8-51.19,1.01-76.79.4-47.74.85-95.48.92-143.21.04-28.76-.54-57.52-.94-86.28-.22-15.94-.52-31.89-1.02-47.82-.5-15.74-.86-31.5-2.06-47.2-1.54-20.09-3.83-40.13-5.92-60.18-.31-2.99-1.31-5.91-1.98-8.86.43-.12.86-.25,1.29-.37l3.11,9.36c.25,0,.5.01.74.02,0-7.29,0-14.57,0-21.86,1.59,3.45,4.02,6.77,4.61,10.39,2.4,14.84,4.96,29.71,6.11,44.67,1.67,21.64,2.4,43.37,3.1,65.08.65,20.27.89,40.55,1.04,60.83.42,56.25.77,112.5,1,168.74.14,32.56.1,65.13-.06,97.69-.09,17.28-.52,34.56-.99,51.84-.54,19.91-1.23,39.81-1.98,59.71-.56,14.91-1.22,29.82-2.01,44.73-.89,16.71-1.89,33.41-3,50.1-1.24,18.66-2.54,37.32-4.01,55.97-1.54,19.46-2.94,38.94-5.08,58.33-2.12,19.21-5.38,38.28-7.61,57.48-2.55,21.98-7.17,43.49-14.42,64.33-6.57,18.89-15.7,36.6-28.22,52.36-21.75,27.38-50.14,44.56-83.49,54.05-17.25,4.91-34.84,8.1-52.73,8.95-21.55,1.02-43.17,2.48-64.69,1.75-27.13-.91-54.18-4.05-80.13-12.85-19.77-6.71-38.25-15.87-54.44-29.4-27.33-22.84-44.67-51.94-53.74-86-4.42-16.59-7.36-33.57-10.98-50.37,1.66-.34,3.32-.68,4.98-1.01,2.65,9.7,4.89,19.54,8.07,29.06,3.5,10.48,7.87,20.67,11.86,30.98Z"/>
      <path class="cls-1" d="M416.44,44.26c-15.01-4.07-29.85-8.97-45.07-11.98-16.5-3.27-33.33-4.92-50.05-7.02-29.41-3.71-59-3.49-88.54-2.82-16.68.38-33.42,1.74-49.96,3.93-19.48,2.58-38.93,5.82-58.1,10.11-17.39,3.89-33.92,10.69-48.31,21.61-17.26,13.09-29.16,30.1-36.7,50.42-6.05,16.31-8.87,33.16-9.98,50.39-1.06,16.53-2.07,33.06-3,49.59-.44,7.78-.78,15.57-.94,23.36-.42,20.6-.68,41.21-1.08,61.81-.26,13.11-.65,26.23-.98,39.34-6.27-2.29-8.6-6.47-6.66-13.16,1.06-3.65.23-6.08-3.29-9.14,0,4.23.16,7.36-.04,10.47-.22,3.37-.78,6.72-1.19,10.08.13-24.31.06-48.62.44-72.92.34-21.62.68-43.25,1.95-64.83,1.68-28.46,2.17-57.09,10.32-84.81,10.57-35.94,33.08-60.85,67.97-74.53,22.9-8.98,46.88-13.48,71.09-17.04,37.97-5.59,76.18-6.86,114.45-5.79,43.45,1.22,86.54,5.59,128.43,18.1,2.93.87,5.63,2.49,8.44,3.77-.97.28-1.94.56-1.58.46.89,3.95,1.64,7.28,2.38,10.61Z"/>
      <path class="cls-15" d="M58.73,990.51c-3.99-10.31-8.36-20.5-11.86-30.98-3.18-9.52-5.42-19.36-8.07-29.06-.07-1.65.03-3.33-.23-4.95-2.92-18.33-5.81-36.67-8.91-54.97-.63-3.74-2.1-7.33-3.18-11-1.61-17.97-3.41-35.92-4.77-53.91-1.56-20.67-2.83-41.37-4.04-62.07-.83-14.25-1.43-28.51-2-42.77-.76-19.25-1.45-38.5-2.05-57.76-.44-14.12-.7-28.24-1.01-42.36-.29-13.29-.56-26.58-.83-39.86.53-5.52,1.05-11.05,1.73-18.15,3.69,4.05,6.47,7.11,9.25,10.16.33,3.45.88,6.9.95,10.36.41,20.42.66,40.84,1.06,61.26.22,10.77.65,21.54.98,32.31,0,1.33,0,2.66.01,4,.33,15.92.51,31.85,1.07,47.76.3,8.41,1.26,16.79,1.93,25.18.99,16.69,1.96,33.37,2.96,50.06.66,10.9,1.2,21.82,2.07,32.7,1.13,14.16,2.48,28.31,3.85,42.45,1.3,13.48,2.49,26.98,4.18,40.42,1.79,14.25,3.57,28.53,6.36,42.6,2.85,14.41,6.97,28.58,10.41,42.88.44,1.81.12,3.81.15,5.72Z"/>
      <path class="cls-17" d="M22.76,552.83c-2.78-3.05-5.56-6.1-9.25-10.16-.68,7.1-1.2,12.62-1.73,18.15.25-76.53.51-153.06.76-229.58.41-3.35.97-6.7,1.19-10.07.2-3.11.04-6.24.04-10.47,3.52,3.05,4.35,5.48,3.29,9.14-1.94,6.69.39,10.87,6.66,13.16,0,12.12.12,24.23,0,36.35-.23,23.2-.6,46.4-.91,69.6-.02,37.97-.03,75.93-.05,113.9Z"/>
      <path class="cls-17" d="M416.44,44.26c-.75-3.33-1.5-6.67-2.38-10.61-.36.11.61-.18,1.58-.46,14.48,3.12,26.73,10.66,37.97,19.85,5.11,4.17,9.53,9.21,14.06,14.04,1.28,1.36,1.88,3.37,2.79,5.08-1.67.53-3.34,1.07-4.37,1.39,3.5,9.1,6.79,17.68,10.09,26.27l-.99.31c-4.39-6.98-8.52-14.14-13.22-20.9-10.84-15.58-25.69-26.13-43.08-33.34-.89-.37-1.64-1.07-2.45-1.62Z"/>
      <path class="cls-21" d="M26.48,859.55c1.08,3.66,2.54,7.26,3.18,11,3.1,18.3,5.99,36.64,8.91,54.97.26,1.62.16,3.3.23,4.95-1.66.34-3.32.67-4.98,1.01-2.31-18.78-4.73-37.55-6.87-56.34-.59-5.15-.34-10.39-.47-15.59Z"/>
      <path class="cls-18" d="M.77,378.97c.02-15.18.05-30.35.06-45.53,0-1.81-.1-3.62-.16-5.43.31-8.67.61-17.34.92-26.02.4,1.18,1.13,2.37,1.14,3.55.07,23.19.08,46.39-.04,69.58,0,1.28-1.26,2.56-1.93,3.84Z"/>
      <path class="cls-18" d="M4.05,175.13c.3-3.99.61-7.99.91-11.98.61,1.34,1.77,2.69,1.74,4.01-.55,21.02-1.23,42.04-2,63.06-.04.98-1.24,1.92-1.91,2.87-.06-8.33-.11-16.65-.17-24.98.11-3.33.23-6.66.34-9.99,2.75-1.62,2.69-3.29.1-5,.03-1.61.06-3.22.08-4.83.27-3.38.55-6.76.82-10.15.56-.56,1.12-1.13,1.69-1.69-.53-.44-1.06-.88-1.6-1.32Z"/>
      <path class="cls-18" d="M512.49,360.97c.13,25.05.33,50.11.37,75.16.02,15.26-.22,30.52-.34,45.78-.38-1.7-1.09-3.4-1.09-5.1-.06-36.91-.06-73.83,0-110.74,0-1.7.7-3.41,1.07-5.11Z"/>
      <path class="cls-18" d="M0,461.91c.22-8.34.43-16.67.65-25.01.38,1.53,1.09,3.06,1.09,4.59.07,26.26.07,52.53,0,78.79,0,1.53-.71,3.06-1.09,4.6-.2-.33-.4-.66-.61-.99,0-9.91-.02-19.81-.03-29.72,0-10.76,0-21.51-.01-32.27Z"/>
      <path class="cls-18" d="M1.98,248.13c.22-1.36.43-2.72.65-4.08.39,1.19,1.1,2.37,1.11,3.56.08,12.54.11,25.08-.04,37.62-.01,1.28-1.25,2.54-1.92,3.82.07-13.64.14-27.27.21-40.91Z"/>
      <path class="cls-17" d="M472.73,74.18c-.43-.34-.87-.67-1.3-1.01.43.34.87.67,1.3,1.01Z"/>
      <path class="cls-17" d="M471.46,73.18c-.34-.34-.67-.67-1.01-1.01.34.34.67.67,1.01,1.01Z"/>
      <path class="cls-7" d="M200.73,744.68c-2.61.33-5.41.2-7.8,1.12-2.89,1.12-6.48,2.5-7.93,4.89-4.15,6.85-4.79,7.35-11.33,2.98-.04-.98-.09-1.96-.13-2.94.32-1.47.63-2.94,1.05-4.86,3.36-2.1,7.15-4.46,11.62-7.25.03-3.01-.47-3.46-4.07-4.67-6.22-2.09-7.42,2.31-8.42,7-1.7-1.37-2.88-2.32-4.06-3.27-1.04-2.31-2.09-4.61-3.13-6.92,1.86-2.14,3.72-4.29,5.86-6.75.76.09,2.18.25,3.58.42,1.69-8.16-.15-9.94-7.58-7.46-3.27,1.09-6.45,2.47-9.67,3.72-.34-.35-.68-.7-1.03-1.04.64-3.68-1.96-8.36,3.25-10.88,2.4,2.15,4.8,4.53,6.69-.96-4.81-2.26-9.49-4.46-15.01-7.05-.89,7.66-6.36,5.68-10.08,7.01-.64-.3-1.28-.6-1.92-.9,1.19-3.72,2.56-7.39,3.51-11.16,1.01-3.98-1.1-7.47-3.97-6.85-5.21,1.14-10.46,2.24-15.48,3.98-5.27,1.83-11.47,2.56-13.97,8.89-6,1.66-11.99,3.31-17.99,4.97-.66.33-1.33.66-1.99,1-.28.06-.56.09-.85.08-1.7,1-3.4,2-5.1,2.99h.01c-2.3.72-4.61,1.43-6.91,2.14-.48.68-.95,1.37-1.43,2.05-1.67-2.42-3.51-4.74-4.91-7.3-.45-.82-.11-2.47.45-3.38,1.17-1.91,3.07-3.41,4.06-5.38,1.98-3.92,3.74-7.76,9.26-6.64.35.07.83-.49,1.16-.69-3.17-5.9-1.12-10.62,5.27-12.97,1.67-.61,3.32-1.25,4.98-1.88,13.05.34,26.11.65,39.16,1.06,1.61.05,3.2.61,4.8.94.26.52.51,1.05.77,1.57l1.23-1.57h13.98c.59.65,1.36,1.92,1.72,1.81.86-.26,1.53-1.17,2.28-1.81,2.33,0,4.66,0,6.99,0,1.32,1.24,2.82,3.64,3.92,3.47,1.83-.29,3.4-2.22,5.08-3.46,1.27-.32,2.52-.88,3.8-.93,10.05-.42,20.1-.74,30.16-1.1.16,5.63,3.65,7.94,8.59,5.61,1.31-.62,2.89-2.56,3.6-2.24,6.49,2.89,7.75-4.97,12.53-6.01,2.28-.5,4.07-4.54,5.5-7.29,1.63-3.12,1.4-5.93-3.23-6,4.32-6,8.65-12,12.97-18,2.75.52,5.51,1.04,8.26,1.56.59-3.4,1.75-6.82,1.63-10.19-.14-4.02-3.82-1.69-5.88-2.34.67-5.33,1.35-10.66,2.02-15.98,1.22,1.17,2.91,2.13,3.54,3.56.84,1.89,1.01,4.13,1.2,6.24.39,4.28,2.18,4.72,5.28,2.16.65,1.34,1.31,2.68,1.96,4.03-3.96,1.08-4.39,3.8-3.41,7.24.99,3.49,3.13,4.24,6.37,2.96.87-.34,1.94-.16,2.92-.21,3.7,4.32,7.41,8.65,11.11,12.97.49,1,.74,2.26,1.51,2.97,4.42,4.08,8.97,8.04,13.47,12.04-.89,3.78-2.75,6.79-6.26,8.8-2.47,1.42-4.04,2.16-4.96-1.58-.53-2.16-1.76-4.44-3.35-5.95-.96-.91-3.21-.45-4.88-.61.53,1.31,1.02,2.64,1.6,3.92.69,1.53,1.46,3.02,2.85,5.9-7.33-2.53-9.98-.88-10.36,5.39-.17,2.75-2.92,5.35-4.93,8.73,2.8,1.46,5.26,3.09,7.95,4.04,2.95,1.04,4.48-.71,5.38-3.55,1.23-3.88,3.48-6.7,7.12-6.05,2.4,3.53,4.25,6.24,6.54,9.6,1.93-3.31,2.82-6.86,4.99-8.02,2.35-1.26,5.89-.28,9.56-.28-.73,1.23-1,2.3-1.46,2.38-4.49.82-8.28,2.31-9.16,7.55-.1.62-1.32.98-1.7,1.64-.62,1.05-.97,2.25-1.44,3.39,1.37-.03,2.78.15,4.1-.14,1.31-.29,2.51-1.04,3.76-1.58-.45,1.36-1.39,2.77-1.26,4.07.26,2.55.4,5.64,1.9,7.39,1.95,2.27,3.83.36,5.48-1.76,3.88-4.97,10.93-4.21,13.67,1.31.34.69.1,1.85-.25,2.61-.13.27-1.57.28-2.12-.07-1.95-1.2-3.78-2.61-5.72-3.98-3.12,1.74-7,3.26-4.35,7.73,2.14,3.61,5.23,3.92,8.12-.43.39.46.78.93,1.17,1.39-1.44,2.07-2.71,4.32-4.46,6.07-.41.41-2.5-.76-3.77-1.32-1.01-.44-1.88-1.29-2.92-1.56-2.97-.78-5.99-1.37-8.99-2.03-.63-.66-1.27-1.32-1.9-1.98.37-1.42,1.03-2.85,1.03-4.27,0-1.4-.24-3.54-1.13-4.06-4.08-2.42-8.27-4.81-12.72-6.39-4.81-1.72-9.98-2.43-14.93-3.78-3.58-.97-7.39-1.74-8-6.61-.21-1.64-1.41-3.16-2.17-4.78-2.03.66-3.88,1.83-5.68,1.74-3.45-.17-4.9,1.27-6.17,4.32-.7,1.68-3.07,2.77-4.85,3.87-2.36,1.45-4.87,2.64-7.32,3.94-.99.35-1.98.69-2.97,1.04-1.34.65-2.68,1.3-4.02,1.95-.28.06-.56.09-.85.07-1.05.66-2.09,1.31-3.14,1.97-5.62,5-11.24,10-16.87,15-.7,1-1.4,1.99-2.09,2.99h.02c-.35.64-.71,1.3-1.06,1.95-2.3,5-4.59,10-6.89,14.99ZM183.67,728.12c-.16-.78-.32-1.56-.48-2.34-1.43.36-2.89.65-4.26,1.17-.15.06.2,1.42.32,2.17,1.47-.34,2.95-.67,4.42-1.01ZM171.27,689.78c-.07.69-.15,1.38-.22,2.06,1.43.11,2.85.21,4.28.32.05-.64.09-1.28.14-1.92-1.4-.15-2.8-.31-4.19-.46ZM182.7,694.8c.43.28.87.57,1.3.85.86-1.33,1.72-2.65,2.57-3.98-.43-.28-.86-.56-1.29-.85-.86,1.33-1.72,2.65-2.58,3.98ZM164.38,700.1c-.12.28-.4.61-.32.81.08.2.51.26.78.38.12-.27.4-.61.32-.81-.08-.2-.51-.26-.78-.38ZM158.28,691c-.11-.28-.15-.71-.35-.8-.2-.09-.54.17-.82.28.11.28.15.71.35.8.19.09.54-.17.82-.28Z"/>
      <path class="cls-16" d="M285.57,654.73c6.92,3.48,13.56,7.78,20.83,10.19,6.95,2.3,14.54,3.53,21.88,3.65,25.78.42,51.57.03,77.35.21,19.23.14,35.96-6.32,49.55-19.59,11.55-11.28,18.62-25.34,20.18-41.68.69-7.25.95-14.55,1.02-21.83.4-43.04.84-86.09.91-129.14.02-12.23-1.13-24.46-1.74-36.69,1.93,4.92,4.43,9.71,5.64,14.8,1.12,4.77,1.13,9.85,1.18,14.8.4,41.04,1.4,82.1.71,123.13-.3,18.09,1.02,36.5-3.68,54.38-6.31,24-28.61,46.71-56.32,49.68-8.54.92-17.2.98-25.81,1.04-18.79.15-37.6-.25-56.38.14-14.13.29-27.79-.88-40.32-8.1-4.5-4-9.05-7.95-13.47-12.04-.76-.71-1.02-1.96-1.51-2.97Z"/>
      <path class="cls-4" d="M61.82,652.68c8.17,4.27,16.06,9.29,24.62,12.56,6.18,2.36,13.24,3.25,19.93,3.34,26.45.36,52.91.38,79.36.1,27.75-.29,48.48-12.62,60.17-38.04,3.3-7.17,4.41-15.53,5.52-23.48.87-6.2.11-12.62.2-18.94.28-18.1.83-36.19.87-54.29.03-13.1-.66-26.21-.85-39.32-.15-10.67-.03-21.33-.03-32,0-15.56.01-31.13.02-46.69.91,1.24,2.41,2.38,2.63,3.72,1.27,7.81,3.17,15.66,3.17,23.5-.05,57.55-.5,115.1-.83,172.64-.67,5.33-1.35,10.66-2.02,15.98-1.34,3.66-2.68,7.32-4.02,10.97-4.32,6-8.65,12-12.97,18-.75.28-1.57.47-2.26.86-7.49,4.29-14.98,8.6-22.43,12.96-.88.52-1.54,1.4-2.31,2.12-10.05.35-20.11.68-30.16,1.1-1.28.05-2.53.61-3.8.93-3,0-6,0-9,0-2.33,0-4.66,0-6.99,0-1.33,0-2.67,0-4,0-4.66,0-9.32,0-13.98,0-.67,0-1.33,0-2,0-1.6-.32-3.19-.89-4.8-.94-13.05-.41-26.11-.72-39.16-1.06-8.05-4.02-16.47-7.47-24.01-12.29-4.35-2.78-7.3-7.76-10.88-11.75Z"/>
      <path class="cls-21" d="M37.77,428.93c-.32,44.57-.84,89.13-.85,133.7,0,15.58.94,31.18,2.05,46.72.39,5.52,2.56,10.91,3.92,16.35-4.46,2.63-9.06,5.07-13.27,8.06-.87.61-.93,3.63-.24,4.95,3.19,6.11-1.26,11.4-1.49,17.1-.01.34-1.39.62-2.12.93-.33-10.77-.76-21.54-.98-32.31-.41-20.42-.65-40.84-1.06-61.26-.07-3.46-.62-6.9-.95-10.36.02-37.97.03-75.93.05-113.9,1.69.5,3.37,1.01,5.42,1.62,4.35-3.56,2.01-8.48,1.71-13.75,2.94.8,5.38,1.47,7.82,2.13Z"/>
      <path class="cls-20" d="M201.64,317c-24.1-6.51-36.56-26.26-31.97-50.71,2.94-15.67,18.33-30.02,34.22-31.13,11.42-.8,22.89-.91,34.34-.99,21.64-.14,43.28-.16,64.91.01,15.85.12,28.7,6.15,37.15,20.1,6.91,11.4,6.99,23.51,3.61,35.94-.43,1.6-.98,3.17-1.47,4.75-.66.72-1.44,1.37-1.97,2.17-8.89,13.51-21.11,20.16-37.59,19.97-33.74-.38-67.49-.12-101.23-.13ZM333.55,255.01l.04.03c-5.7-9.78-14.84-14.62-25.52-14.77-33.77-.48-67.55-.5-101.32-.05-21.95.29-38.08,24.24-30.84,44.69,1.91,4.38,3.82,8.75,5.73,13.13,6.75,8.64,15.35,13.14,26.58,13.07,33.12-.19,66.24-.06,99.36-.09,1.98,0,3.99-.11,5.92-.52,20.66-4.31,33.36-29.16,24.05-48.4-.34-.36-.68-.71-1.01-1.07,0,0,.04,0,.04,0-.67-1.67-1.33-3.33-2-5l-1.02-1.02Z"/>
      <path class="cls-20" d="M123.63,194.21c-14.83-4.22-26.13-13.23-34.74-25.81-6.67-9.73-9.93-20.8-9.87-32.33.07-14.17,4.21-27.39,13.8-38.41,12.34-14.18,28.01-22.42,46.64-22.09,22.83.4,40.71,11.11,51.98,31.34,9.79,17.57,9.39,35.84,2.16,54.23-1.21,1.76-2.48,3.48-3.61,5.29-7.55,12.18-17.85,20.8-31.38,25.97-11.62,4.44-23.17,4.11-34.98,1.81ZM184.7,108.16c-.31-.44-.62-.88-.93-1.32-.6-.92-1.2-1.84-1.8-2.75-16.26-23.92-51.85-29.32-75.18-10.9-16.72,13.2-24.08,30.51-20.12,51.96.15,1.31.11,2.68.47,3.93,6.18,21.44,20.08,35.07,41.94,39.47,20.79,4.19,38.03-2.98,51.38-19.22,13.24-16.13,16.03-39.75,7.04-56.17-.58-1-1.16-2.01-1.74-3.01-.37-.68-.73-1.35-1.1-2.03,0,0,.04.05.04.05Z"/>
      <path class="cls-20" d="M210.75,724.74c5.62-5,11.24-10,16.87-15,1.05-.66,2.09-1.31,3.14-1.97.29.01.57-.01.85-.07,1.34-.65,2.68-1.3,4.02-1.95.99-.35,1.98-.69,2.97-1.04,12.54-3.65,25-4.04,37.53.26,9.48,3.26,17.3,8.92,24.4,15.77.63.66,1.27,1.32,1.9,1.98,3.36,6.43,7.27,12.63,9.97,19.33,4.71,11.7,3.55,23.71.16,35.59-.39.7-.86,1.36-1.16,2.1-11.1,27.16-38.61,40.57-63.87,35.99-17.86-2.86-31.02-12.6-40.2-27.87-7.39-12.29-9.44-25.63-6.78-39.72.21-1.13.13-2.32.19-3.48,2.3-5,4.59-10,6.89-14.99.35-.65.71-1.31,1.06-1.96,0,0-.02,0-.02,0,.7-1,1.4-1.99,2.09-2.99ZM296.57,726.65h.02c-.34-.32-.67-.66-1.01-1h.01c-.88-1.33-1.57-2.85-2.67-3.95-20.5-20.34-56.95-18.64-75.26,3.81-10.45,12.81-15.58,27.31-10.84,44.04,1.62,4.68,3.23,9.37,4.85,14.05,4.44,8.61,11.08,14.96,19.33,20.05,18.41,11.35,45.72,8.61,61.45-6.37,9.92-9.45,15.81-21.1,16.72-34.49.47-6.92-2.25-14.06-3.52-21.1-1.96-4-3.92-8.01-5.89-12.01-.41-.35-.81-.7-1.22-1.06l.07.06c-.35-.35-.7-.69-1.05-1.04l.03.02c-.34-.34-.68-.68-1.02-1.02Z"/>
      <path class="cls-20" d="M173.53,750.74c.04.98.09,1.96.13,2.94.5,9.59-.57,18.96-4.06,27.98-5.16,8.47-10.71,16.62-18.65,22.84-12.16,9.52-26.16,12.7-41.28,12.16-23.32-1.98-45.91-22.9-49.92-46.4-4.09-23.98,4.36-42.98,23.29-57.72.64-.5,1.15-1.16,1.72-1.75,0,0-.01,0-.01,0,1.7-1,3.4-2,5.1-2.99.29.01.57-.01.85-.08.66-.33,1.33-.66,1.99-1,6-1.66,11.99-3.31,17.99-4.97,10.39-.7,20.25,1.65,29.91,5.14.64.3,1.28.6,1.92.9,5.05,3.96,10.1,7.91,15.15,11.87.34.35.68.7,1.03,1.04,2.6,3.36,5.21,6.72,7.81,10.08,1.04,2.31,2.09,4.61,3.13,6.92,1.3,4.35,2.59,8.7,3.89,13.05ZM159.69,733.63l.03.05c-.78-1.77-1.28-3.74-2.38-5.28-20.78-29.08-66.52-27.25-85.17,3.23-6.83,11.17-8.59,23.19-7.24,35.92,1.42,5.76,1.64,12.03,6.74,16.27.73,1.81,1.04,3.97,2.25,5.35,3.38,3.82,6.82,7.69,10.79,10.84,11.82,9.37,25.59,12.87,40.19,9.85,23.78-4.93,38.11-20.1,42.26-43.91,1.89-10.84.82-21.86-6.34-31.25-.38-.36-.77-.71-1.15-1.07Z"/>
      <path class="cls-20" d="M389.39,815.76c-14.03-1.86-25.32-8.89-34.38-19.32-8.48-9.75-13.78-21.36-14.23-34.33-.46-13.2,3.13-25.64,11.32-36.35,12.2-15.95,28.39-24.61,48.47-23.85,28.27,1.07,50.8,22.07,55.02,48.77,1.47,9.32-.02,18.11-2.19,26.98-3.59,5.87-6.57,12.25-10.9,17.52-13.72,16.74-31.47,23.9-53.12,20.58ZM443.46,735.63l.02.05c-.34-.68-.69-1.36-1.03-2.04l.03.04c-.68-1.35-1.35-2.7-2.03-4.05l.03.05c-.35-.35-.69-.69-1.04-1.04,0,0,.04,0,.04,0-.54-.99-.93-2.12-1.65-2.96-18.51-21.7-51.07-24.28-72.96-5.8-14.92,12.6-21.72,33.47-16.17,49.66,1.59,4.37,3.19,8.74,4.78,13.11,2.14,3.63,3.74,7.75,6.51,10.81,15.39,17.01,41.25,22.95,63.93,10.61,22.69-12.35,33.2-43.22,21.53-66.41-.28-.33-.55-.66-.83-1-.39-.34-.78-.69-1.17-1.03Z"/>
      <path class="cls-20" d="M372.43,185.22c-17.63-3.61-35.01-21.86-38.82-40.76-5.7-28.29,11.06-55.29,38.98-62.77,28.13-7.54,58.61,11.87,63.94,40.52,2.03,10.88.92,21.41-2.17,31.88-1.02,1.47-2.16,2.87-3.05,4.41-7.51,13.02-17.8,23.02-32.87,25.86-8.42,1.59-17.32.65-26.01.86ZM425.46,111.14s.04.02.04.02c-.52-1.53-.75-3.25-1.61-4.57-13.05-20.14-39.51-26.95-60.58-15.71-22.71,12.11-30.2,38.73-21.77,59.2,2.13,7.19,6.08,13.26,11.69,18.15,15.81,13.79,37.21,16.17,55.96,5.67,19.22-10.76,28.63-37.76,19.39-57.72-.67-1.26-1.35-2.52-2.02-3.78-.37-.42-.73-.84-1.1-1.25Z"/>
      <path class="cls-21" d="M256.6,615.78c.33-57.55.78-115.1.83-172.64,0-7.84-1.89-15.7-3.17-23.5-.22-1.35-1.72-2.49-2.63-3.72-.05-1.91-.11-3.82-.16-5.73.71-7.88,4.09-11.76,10.16-11.09,1.46.16,2.73,2.03,4.09,3.11-8,57.43-2.5,115.18-3.97,172.77-.29,11.27.14,22.6,1,33.85.49,6.37,2.53,12.62,3.87,18.92-3.1,2.57-4.9,2.13-5.28-2.16-.19-2.11-.36-4.36-1.2-6.24-.64-1.43-2.32-2.39-3.54-3.56Z"/>
      <path class="cls-16" d="M201.64,317c33.74,0,67.49-.26,101.23.13,16.48.19,28.69-6.45,37.59-19.97.53-.81,1.31-1.45,1.97-2.17.15,7.43-5.45,11.58-9.95,15.83-6.65,6.28-14.82,9.35-24.39,9.33-21.07-.06-42.15.84-63.23.75-13.47-.06-26.94-1.16-40.39-1.94-.98-.06-1.89-1.27-2.83-1.95Z"/>
      <path class="cls-21" d="M28.77,733.68c-.67-8.39-1.63-16.77-1.93-25.18-.56-15.91-.73-31.84-1.07-47.76,1.68,1.78,4.26,3.3,4.85,5.38,1.29,4.56,1.32,9.14.62,14.18-1.23,8.83.22,18,.19,27.03-.03,8.33-.48,16.65-.87,24.97-.02.48-1.17.91-1.79,1.37Z"/>
      <path class="cls-16" d="M123.63,194.21c11.81,2.3,23.37,2.63,34.98-1.81,13.53-5.17,23.83-13.79,31.38-25.97,1.12-1.81,2.4-3.53,3.61-5.29-2.11,4.95-3.47,10.41-6.46,14.75-12.47,18.02-30.37,24.89-51.71,23.03-4.04-.35-7.87-3.08-11.8-4.71Z"/>
      <path class="cls-16" d="M247.52,815.74c25.26,4.58,52.77-8.83,63.87-35.99.3-.74.77-1.4,1.16-2.1.83,7.08-2.98,12.58-6.51,18-10.64,16.34-26.36,23.6-45.38,23.76-4.37.04-8.76-2.38-13.14-3.67Z"/>
      <path class="cls-16" d="M389.39,815.76c21.65,3.32,39.4-3.84,53.12-20.58,4.32-5.27,7.3-11.65,10.9-17.52.16,8.56-4.3,15.15-9.11,21.63-9.2,12.39-22.1,18.17-36.87,20.01-4.98.62-10.2-.45-15.28-1.05-1-.12-1.84-1.62-2.75-2.48Z"/>
      <path class="cls-16" d="M109.68,816.64c15.11.54,29.12-2.64,41.28-12.16,7.94-6.21,13.49-14.36,18.65-22.84.08,1.17.6,2.52.19,3.48-7.29,17.33-19.65,29.1-38.33,32.86-6.4,1.29-13.24.49-19.88.48-.64,0-1.27-1.19-1.91-1.83Z"/>
      <path class="cls-16" d="M372.43,185.22c8.69-.2,17.58.73,26.01-.86,15.07-2.84,25.35-12.84,32.87-25.86.89-1.54,2.03-2.94,3.05-4.41-2.23,12.22-9.58,20.98-19.46,27.7-11.66,7.93-24.69,8.99-38.17,6.14-1.55-.33-2.87-1.78-4.29-2.71Z"/>
      <path class="cls-20" d="M4.05,175.13c.53.44,1.06.88,1.6,1.32-.56.56-1.12,1.13-1.69,1.69.03-1,.06-2,.09-3Z"/>
      <path class="cls-20" d="M2.96,198.12c.03-1.67.06-3.34.1-5,2.59,1.72,2.66,3.39-.1,5Z"/>
      <path class="cls-22" d="M140.61,706.87c-9.66-3.49-19.53-5.84-29.91-5.14,2.5-6.33,8.7-7.06,13.97-8.89,5.02-1.74,10.28-2.84,15.48-3.98,2.87-.63,4.97,2.87,3.97,6.85-.95,3.78-2.32,7.45-3.51,11.16Z"/>
      <path class="cls-21" d="M210.6,676.68c.76-.72,1.43-1.6,2.31-2.12,7.45-4.36,14.94-8.67,22.43-12.96.69-.4,1.5-.58,2.26-.86,4.64.08,4.86,2.88,3.23,6-1.43,2.74-3.22,6.79-5.5,7.29-4.78,1.05-6.04,8.91-12.53,6.01-.72-.32-2.29,1.63-3.6,2.24-4.94,2.33-8.43.02-8.59-5.61Z"/>
      <path class="cls-22" d="M300.52,720.75c-7.1-6.86-14.92-12.52-24.4-15.77-12.53-4.3-24.99-3.91-37.53-.26,2.45-1.3,4.96-2.49,7.32-3.94,1.78-1.09,4.15-2.19,4.85-3.87,1.27-3.05,2.72-4.49,6.17-4.32,1.79.09,3.65-1.08,5.68-1.74.77,1.62,1.96,3.14,2.17,4.78.61,4.87,4.42,5.64,8,6.61,4.96,1.35,10.12,2.06,14.93,3.78,4.44,1.59,8.64,3.98,12.72,6.39.89.53,1.13,2.67,1.13,4.06,0,1.42-.66,2.85-1.03,4.27Z"/>
      <path class="cls-22" d="M157.68,719.64c-5.05-3.96-10.1-7.91-15.15-11.87,3.72-1.33,9.19.65,10.08-7.01,5.52,2.59,10.2,4.79,15.01,7.05-1.89,5.49-4.29,3.11-6.69.96-5.21,2.51-2.61,7.2-3.25,10.88Z"/>
      <path class="cls-22" d="M166.51,730.76c-2.6-3.36-5.21-6.72-7.81-10.08,3.22-1.25,6.4-2.63,9.67-3.72,7.43-2.48,9.28-.7,7.58,7.46-1.4-.16-2.82-.33-3.58-.42-2.14,2.47-4,4.61-5.86,6.75Z"/>
      <path class="cls-22" d="M173.53,750.74c-1.3-4.35-2.59-8.7-3.89-13.05,1.18.95,2.37,1.91,4.06,3.27,1-4.69,2.19-9.09,8.42-7,3.6,1.21,4.1,1.66,4.07,4.67-4.47,2.79-8.26,5.16-11.62,7.25-.41,1.92-.73,3.39-1.05,4.86Z"/>
      <path class="cls-21" d="M250.56,642.74c1.34-3.66,2.68-7.32,4.02-10.97,2.06.65,5.74-1.67,5.88,2.34.12,3.37-1.04,6.79-1.63,10.19-2.75-.52-5.51-1.04-8.26-1.56Z"/>
      <path class="cls-22" d="M268.58,631.77c1.96,3.33,3.92,6.66,5.88,9.99-.98.06-2.06-.13-2.92.21-3.24,1.28-5.37.53-6.37-2.96-.98-3.44-.55-6.16,3.41-7.24Z"/>
      <path class="cls-22" d="M167.65,678.71c3,0,6,0,9,0-1.68,1.24-3.25,3.18-5.08,3.46-1.1.17-2.6-2.22-3.92-3.47Z"/>
      <path class="cls-22" d="M183.67,728.12c-1.47.34-2.95.67-4.42,1.01-.12-.76-.46-2.12-.32-2.17,1.37-.52,2.83-.81,4.26-1.17.16.78.32,1.56.48,2.34Z"/>
      <path class="cls-22" d="M171.27,689.78c1.4.15,2.8.31,4.19.46-.05.64-.09,1.28-.14,1.92-1.43-.11-2.85-.21-4.28-.32.07-.69.15-1.38.22-2.06Z"/>
      <path class="cls-22" d="M182.7,694.8c.86-1.33,1.72-2.65,2.58-3.98.43.28.86.56,1.29.85-.86,1.33-1.72,2.65-2.57,3.98-.43-.28-.87-.57-1.3-.85Z"/>
      <path class="cls-22" d="M89.86,707.77c-1.7,1-3.4,1.99-5.1,2.99,1.7-1,3.4-1.99,5.1-2.99Z"/>
      <path class="cls-22" d="M235.62,705.75c-1.34.65-2.68,1.3-4.02,1.95,1.34-.65,2.68-1.3,4.02-1.95Z"/>
      <path class="cls-22" d="M156.66,678.71c1.33,0,2.67,0,4,0-.75.65-1.42,1.55-2.28,1.81-.36.11-1.13-1.17-1.72-1.81Z"/>
      <path class="cls-22" d="M230.75,707.77c-1.05.66-2.09,1.31-3.14,1.97,1.05-.66,2.09-1.31,3.14-1.97Z"/>
      <path class="cls-22" d="M210.75,724.74c-.7,1-1.4,1.99-2.09,2.99.7-1,1.4-1.99,2.09-2.99Z"/>
      <path class="cls-22" d="M164.38,700.1c.28.12.7.18.78.38.08.2-.2.53-.32.81-.28-.12-.7-.18-.78-.38-.08-.2.2-.53.32-.81Z"/>
      <path class="cls-22" d="M158.28,691c-.28.11-.63.37-.82.28-.2-.09-.24-.52-.35-.8.28-.11.63-.37.82-.28.2.09.24.52.35.8Z"/>
      <path class="cls-22" d="M140.67,678.71c.67,0,1.33,0,2,0-.41.52-.82,1.05-1.23,1.57-.26-.52-.51-1.05-.77-1.57Z"/>
      <path class="cls-22" d="M208.67,727.73c-.35.65-.71,1.31-1.06,1.96.35-.65.71-1.31,1.06-1.96Z"/>
      <path class="cls-22" d="M92.71,706.7c-.66.33-1.33.66-1.99,1,.66-.33,1.33-.66,1.99-1Z"/>
      <path class="cls-9" d="M457.47,395.87c-.26.13-.52.25-.78.38-.07-.46-.14-.93-.2-1.39.33.34.66.67.98,1.01Z"/>
      <path class="cls-13" d="M462.84,405.93c-.46-.67-.92-1.34-1.38-2.01.46.67.92,1.34,1.38,2.01Z"/>
      <path class="cls-8" d="M302.48,653.78c.69.38,1.37.76,2.06,1.14-.69-.38-1.37-.76-2.06-1.14Z"/>
      <path class="cls-13" d="M461.48,403.92c-.33-.67-.67-1.34-1-2,.33.67.67,1.34,1,2Z"/>
      <path class="cls-9" d="M455.5,393.94c-.35-.69-.69-1.38-1.04-2.07.35.69.69,1.38,1.04,2.07Z"/>
      <path class="cls-8" d="M301.49,652.79c.35.35.69.7,1.04,1.04-.35-.35-.69-.69-1.04-1.04Z"/>
      <path class="cls-9" d="M456.51,394.93c-.35-.35-.7-.7-1.06-1.05.35.35.7.7,1.06,1.05Z"/>
      <path class="cls-3" d="M242.67,416.94c-.35-1.05-.71-2.11-1.06-3.16.35,1.05.71,2.11,1.06,3.16Z"/>
      <path class="cls-8" d="M67.67,644.81c.42.05.85.11,1.27.16-.13.33-.26.66-.4.99-.29-.38-.58-.77-.87-1.15Z"/>
      <path class="cls-9" d="M230.66,388.98c-.34-.04-.68-.07-1.02-.11.34.04.68.07,1.02.11Z"/>
      <path class="cls-7" d="M334.57,256.03c.67,1.67,1.33,3.33,2,5-3.67,1.77-1.96,4.72-1.44,7.24,2.57,12.36-2.83,27.07-13.58,32.79-5.48,2.92-12.25,4.64-18.47,4.74-29.09.48-58.2.04-87.3.31-10.46.1-20.2-.96-27.95-8.93-.88-.9-2.2-1.36-3.47-2.12-.98,1.07-1.85,2.02-2.73,2.97-1.91-4.38-3.82-8.75-5.73-13.13,1.24.39,2.48.77,3.72,1.16.13.44.26.88.39,1.32.13-.09.26-.17.39-.26-.25-.36-.49-.73-.74-1.09-.02-4.41-.24-8.83-.03-13.23.82-17.06,17.15-27.82,30.97-27.76,31.76.14,63.53-.19,95.29.3,5.82.09,11.65,3.01,17.35,4.97,3.57,1.23,6.91,3.13,10.35,4.73,0,0-.04-.03-.04-.03.34.34.68.68,1.02,1.02ZM300.73,282.12c-.37.36-.75.72-1.12,1.09l.09-.07c-4.66.33-6.15-2.34-6.14-6.46.01-3.33.16-6.67-.07-9.98-.09-1.23-1.07-2.4-1.64-3.6-3.53-1.57-5.28-.73-5.07,3.43.19,3.78-.04,7.59.08,11.38.06,1.88,0,4.01.83,5.57,4.24,7.94,13.91,7.64,18.95-.45.6-.48,1.7-.94,1.71-1.43.15-5.75.23-11.51.05-17.26-.02-.76-1.62-1.46-2.49-2.19l-.34.07c-.26-.56-.53-1.12-.79-1.67-.42.56-.85,1.13-1.27,1.69-.52.3-1.05.6-1.57.9-.48,1.26-1.33,2.52-1.36,3.8-.11,5.08.03,10.18.08,15.26l.08-.09ZM239.61,264.05c0,3,0,6,0,9.01l.02,2.98c.12,4.09.23,8.19.35,12.28.53.22,1.06.45,1.59.67h1.03c4.58,0,9.16,0,14.64,0-2.09-8.04-8.32-2.65-11.66-5.5.07-1.39.16-3.1.24-4.51,2.89-.57,5.36-.88,7.69-1.61.76-.24,1.72-1.67,1.61-2.39-.11-.71-1.44-1.66-2.3-1.74-2.43-.24-4.9-.08-7.47-.08v-6.25c3.09,0,5.89.14,8.66-.09.82-.07,1.9-1.06,2.2-1.88.2-.53-.82-2.2-1.22-2.18-5.13.31-10.26.84-15.38,1.31ZM260.89,287.97c1.49.29,2.98.57,4.87.94v-18.92c3.36,6.03,6.16,10.68,8.58,15.52,1.57,3.14,3.63,3.97,6.98,2.69v-25.24c-3.05-1.02-4.63-.47-4.52,2.97.14,4.52.03,9.05.03,13.57-3.41-4.65-5.85-9.5-8.71-14.07-.9-1.44-2.96-2.15-4.5-3.19-.37,0-.73,0-1.1,0-.51.3-1.03.61-1.54.91-.47.77-1.33,1.53-1.34,2.31-.1,6.7-.09,13.41.02,20.11.01.81.8,1.6,1.23,2.4ZM234.26,262.82c-5-1.17-8.16-.02-9.07,5.79-.61,3.89-2.44,7.58-4.06,12.36-1.62-5.11-3.19-8.99-4.04-13.02-1.07-5.06-3.65-6.66-8.92-4.74,0,7.64-.12,15.42.15,23.19.03.95,2.16,1.83,3.32,2.75.44-.36.88-.72,1.32-1.08v-16.22c2.24,4.35,3.44,8.81,5.06,13.12.52,1.39,2.13,2.38,3.24,3.55,1.01-1.13,2.46-2.09,2.94-3.41,1.69-4.74,3.06-9.61,4.54-14.42.32.06.65.12.97.18v18.13c1.9-.36,3.32-.63,4.74-.9.37-7.59.78-15.19,1.04-22.78.03-.82-.81-1.66-1.24-2.5Z"/>
      <path class="cls-4" d="M181.64,298.04c.87-.95,1.75-1.9,2.73-2.97,1.27.76,2.59,1.22,3.47,2.12,7.75,7.96,17.49,9.02,27.95,8.93,29.1-.27,58.2.17,87.3-.31,6.22-.1,12.99-1.82,18.47-4.74,10.74-5.73,16.15-20.43,13.58-32.79-.52-2.52-2.23-5.47,1.44-7.24,0,0-.04,0-.04,0,.34.36.68.71,1.01,1.07,9.31,19.24-3.38,44.08-24.05,48.4-1.93.4-3.94.52-5.92.52-33.12.03-66.24-.1-99.36.09-11.22.07-19.82-4.43-26.58-13.07Z"/>
      <path class="cls-1" d="M333.59,255.04c-3.44-1.6-6.78-3.49-10.35-4.73-5.7-1.97-11.53-4.88-17.35-4.97-31.76-.5-63.53-.17-95.29-.3-13.82-.06-30.15,10.7-30.97,27.76-.21,4.4.01,8.82.03,13.23l-.04.03c-1.24-.39-2.48-.77-3.72-1.16-7.24-20.45,8.89-44.4,30.84-44.69,33.77-.45,67.55-.43,101.32.05,10.68.15,19.82,4.99,25.52,14.77Z"/>
      <path class="cls-1" d="M334.57,256.03c-.34-.34-.68-.68-1.02-1.02.34.34.68.68,1.02,1.02Z"/>
      <path class="cls-7" d="M337.54,262.1c-.34-.36-.68-.71-1.01-1.07.34.36.68.71,1.01,1.07Z"/>
      <path class="cls-5" d="M181.97,104.09c.6.92,1.2,1.84,1.8,2.75-.06.47-.11.93-.17,1.4-.99-.01-1.98-.03-2.97-.04-.13-.08-.26-.15-.4-.22.14.07.28.13.42.2.44,1.58.66,3.26,1.35,4.72,10.38,22.16,2.76,46.82-12.83,59.57-17.98,14.7-45.79,14.38-64.21-2.66-4.15-3.84-9.24-7.19-10.13-13.55-1.27-8.87-5.18-17.12-3.32-26.73,4.83-24.95,22.26-39.52,46.64-41.17,12.67-.86,23.86,4.17,34.04,11.69,2.76,2.03,6.5,2.74,9.78,4.05ZM135.39,135.04c1.88.6,4,2,5.56,1.52,1.18-.36,2.24-3.08,2.3-4.8.26-6.95.26-13.93.02-20.88-.06-1.67-1.38-4.62-2.23-4.66-1.9-.09-3.86,1.29-5.8,2.06-.5.74-1.43,1.48-1.44,2.22-.1,7.48-.09,14.95.04,22.43.01.71,1.02,1.4,1.56,2.1ZM139.98,163.34c7.63.22,14.84-3.27,20.54-10.07,9.74-11.62,7.67-30.13-4.41-38.53-1.95-1.36-4.28-3.62-6.48-.73-2.01,2.64-.88,5,1.9,6.6.43.25.8.6,1.17.93,6.36,5.86,8.3,15.92,4.52,23.37-3.88,7.63-12.9,12.01-21.27,10.62-8.05-1.33-13.5-5.85-15.78-13.45-2.52-8.44-.03-15.83,6.88-21.43,2.47-2,3.68-4.44,1.42-6.66-.92-.9-4.38-.31-5.94.73-9.36,6.24-13.21,18.05-9.85,29.11,3.6,11.85,13.66,19.39,27.3,19.51Z"/>
      <path class="cls-19" d="M94.82,156.25c.89,6.36,5.98,9.71,10.13,13.55,18.42,17.04,46.23,17.37,64.21,2.66,15.59-12.75,23.22-37.41,12.83-59.57-.69-1.46-.91-3.14-1.35-4.72l-.02.02c.99.01,1.98.03,2.97.04.37-.03.73-.05,1.1-.07,0,0-.04-.05-.04-.05-.01.69-.03,1.38-.04,2.07.96.99,1.92,1.98,2.88,2.97,8.99,16.42,6.2,40.04-7.04,56.17-13.34,16.24-30.58,23.41-51.38,19.22-21.86-4.4-35.77-18.03-41.94-39.47-.36-1.25-.32-2.62-.47-3.93.99,1.54,1.91,3.13,3,4.59,1.65,2.22,3.43,4.35,5.15,6.51Z"/>
      <path class="cls-2" d="M94.82,156.25c-1.72-2.17-3.5-4.29-5.15-6.51-1.09-1.46-2.01-3.06-3-4.59-3.96-21.45,3.4-38.76,20.12-51.96,23.33-18.42,58.91-13.02,75.18,10.9-3.29-1.31-7.03-2.02-9.78-4.05-10.19-7.52-21.37-12.55-34.04-11.69-24.38,1.65-41.8,16.22-46.64,41.17-1.86,9.61,2.05,17.86,3.32,26.73Z"/>
      <path class="cls-5" d="M187.5,113.16c-.96-.99-1.92-1.98-2.88-2.97.38-.02.76-.03,1.14-.05.58,1,1.16,2.01,1.74,3.01Z"/>
      <path class="cls-2" d="M185.76,110.14c-.38.02-.76.03-1.14.05.01-.69.02-1.38.04-2.07.37.68.73,1.35,1.1,2.03Z"/>
      <path class="cls-2" d="M184.7,108.16c-.37.02-.73.05-1.1.07.05-.46.11-.93.16-1.4.31.44.62.88.93,1.32Z"/>
      <path class="cls-22" d="M211.67,783.6c-1.62-4.68-3.23-9.37-4.85-14.05,2.1,2.43,4.2,4.85,6.41,7.41-.64-3.68-1.27-7.04-1.82-10.41-2.58-15.94,2.54-28.99,13.93-40.35,14.41-14.37,40.77-17.19,58.83-4.91,3.28,2.23,7.59,2.94,11.42,4.35,0,0-.01,0-.01,0,.34.34.67.67,1.01,1.01,0,0-.02-.01-.02-.01.34.34.68.68,1.02,1.02,0,0-.03-.02-.03-.02.35.35.7.69,1.05,1.04,0,0-.07-.06-.07-.06.41.35.81.7,1.22,1.06,1.96,4,3.92,8.01,5.88,12.01-4.37-.13-3.21,2.99-2.83,5.23,1.72,10.08,1.96,20.03-2.38,29.58-7.52,16.57-20.42,26.01-38.74,28.05-16.7,1.86-30.32-4.91-42.12-16.29-2.14-2.06-5.24-3.13-7.9-4.66ZM264.28,774.62c6.09,2.45,7.38,1.66,7.42-4.66.05-7.47.11-14.95,0-22.42-.03-1.67-.63-4.67-1.24-4.75-2.04-.25-4.22.56-6.34.96-.51.93-1.44,1.86-1.46,2.8-.12,8.49-.12,16.98,0,25.47.01.87,1.06,1.73,1.63,2.59ZM228.43,758.8h.05c0,4.32-.09,8.65.03,12.96.1,3.93,2.11,5.25,5.4,3.31,7.3-4.29,14.48-8.78,21.63-13.3,2.56-1.62,2.85-3.79.13-5.49-7.17-4.5-14.36-8.97-21.7-13.17-3.42-1.96-5.39-.67-5.51,3.22-.13,4.15-.03,8.31-.03,12.47ZM286.4,758.81h-.02c0-4.16-.09-8.32.03-12.47.07-2.59-.66-4.17-3.56-4.19-2.79-.01-4.3.93-4.25,4.07.14,8.48.13,16.96.02,25.44-.04,2.98,1.12,4.21,4.1,4.2,2.92,0,3.72-1.51,3.68-4.08-.06-4.32-.02-8.65-.02-12.97Z"/>
      <path class="cls-16" d="M211.67,783.6c2.66,1.53,5.76,2.59,7.9,4.66,11.8,11.38,25.42,18.15,42.12,16.29,18.32-2.04,31.22-11.47,38.74-28.05,4.33-9.55,4.1-19.5,2.38-29.58-.38-2.24-1.54-5.36,2.83-5.23,1.28,7.04,4,14.18,3.52,21.1-.92,13.39-6.81,25.04-16.72,34.49-15.73,14.98-43.04,17.72-61.45,6.37-8.25-5.08-14.89-11.43-19.33-20.05Z"/>
      <path class="cls-1" d="M295.59,725.65c-3.83-1.41-8.14-2.12-11.42-4.35-18.07-12.28-44.43-9.46-58.83,4.91-11.39,11.36-16.51,24.41-13.93,40.35.55,3.37,1.17,6.73,1.82,10.41-2.21-2.56-4.31-4.99-6.41-7.41-4.74-16.74.39-31.23,10.84-44.04,18.31-22.45,54.76-24.14,75.26-3.81,1.11,1.1,1.79,2.62,2.67,3.95Z"/>
      <path class="cls-1" d="M299.76,729.68c-.41-.35-.81-.7-1.22-1.06.41.35.81.7,1.22,1.06Z"/>
      <path class="cls-1" d="M298.61,728.69c-.35-.35-.7-.69-1.05-1.04.35.35.7.69,1.05,1.04Z"/>
      <path class="cls-1" d="M296.59,726.67c-.34-.34-.67-.67-1.01-1.01.34.34.67.67,1.01,1.01Z"/>
      <path class="cls-1" d="M297.59,727.67c-.34-.34-.68-.68-1.02-1.02.34.34.68.68,1.02,1.02Z"/>
      <path class="cls-7" d="M71.68,783.82c-5.1-4.24-5.32-10.5-6.74-16.27,1.01,1.14,2.17,2.19,3,3.45,1.33,2.02,2.45,4.18,3.65,6.28l1.12-.63c-.34-1.23-.63-2.49-1.04-3.7-5.93-17.75.97-37.63,15.34-48.93,14.79-11.64,30.99-13.5,48.56-6.5,9.32,3.71,16.55,10.12,24.15,16.17,0,0-.03-.05-.03-.05-.01.35-.02.71-.04,1.06-.39,1.2-1.48,3.01-1.06,3.49,2.73,3.07,2.36,6.83,2.89,10.41,1.75,11.76.63,22.78-5.8,33.34-11.33,18.61-33.4,27.1-54.16,20.66-10.26-3.19-18-9.58-25.37-16.86-1.07-1.06-2.97-1.29-4.48-1.91ZM103.84,754.72c.21-.36.42-.73.63-1.09,5.98,0,11.97-.08,17.95.02,6.84.11,11.15,3.98,11.35,10.01.19,5.93-4.07,10.29-10.71,10.82-2.15.17-4.43-.29-6.45.26-1.16.32-2.65,2.09-2.65,3.2,0,1.07,1.66,2.94,2.73,3.05,3.11.31,6.33.19,9.44-.25,7.84-1.1,13.57-7.2,14.44-14.99,1.17-10.43-6.21-18.76-17.02-19-6.5-.15-13-.03-20.73-.03,2.29-2.15,3.9-3.08,4.58-4.47.68-1.37.42-3.2.58-4.84-1.6.21-3.65-.13-4.72.73-3.6,2.94-7.05,6.13-10.12,9.61-.84.95-.84,3.91,0,4.83,3.23,3.56,6.84,6.81,10.58,9.85.87.71,2.79.14,4.23.16-.01-1.48.48-3.25-.17-4.36-.84-1.45-2.58-2.38-3.94-3.53Z"/>
      <path class="cls-16" d="M71.68,783.82c1.51.61,3.41.85,4.48,1.91,7.37,7.28,15.11,13.67,25.37,16.86,20.75,6.44,42.83-2.05,54.16-20.66,6.43-10.56,7.55-21.58,5.8-33.34-.53-3.58-.16-7.34-2.89-10.41-.42-.47.67-2.29,1.06-3.49.4,0,.79,0,1.19,0,7.16,9.39,8.23,20.41,6.34,31.25-4.15,23.81-18.48,38.98-42.26,43.91-14.61,3.03-28.37-.48-40.19-9.85-3.97-3.15-7.42-7.03-10.79-10.84-1.21-1.37-1.53-3.54-2.25-5.35Z"/>
      <path class="cls-1" d="M159.72,733.68c-7.6-6.05-14.83-12.45-24.15-16.17-17.58-7.01-33.77-5.14-48.56,6.5-14.36,11.31-21.27,31.18-15.34,48.93.41,1.21.69,2.47,1.04,3.7l-1.12.63c-1.21-2.1-2.32-4.26-3.65-6.28-.83-1.26-1.99-2.31-3-3.45-1.35-12.73.4-24.75,7.24-35.92,18.65-30.49,64.39-32.31,85.17-3.23,1.1,1.54,1.6,3.51,2.38,5.28Z"/>
      <path class="cls-1" d="M160.84,734.7c-.4,0-.79,0-1.19,0,.01-.35.02-.71.04-1.06.38.36.77.71,1.15,1.07Z"/>
      <path class="cls-22" d="M353.49,782.66c-1.59-4.37-3.19-8.74-4.78-13.11,2.06,2.82,4.12,5.65,6.18,8.47-6.97-18.25-2.87-34.52,9.02-49.07,10.6-12.97,31.92-19.2,48.55-13.27.85,6.11-3.68,9.94-6.4,14.45-.73,1.21-3.33,1.73-5.09,1.77-4.52.11-6.98,2.25-7.53,6.95-.15,1.27-.81,2.48-1.24,3.71-.46.03-.92.05-1.38.08-.89-1.81-1.72-3.65-2.67-5.42-2-3.73-4.41-4.19-6.72-1.36-1.13-.05-2.26-.1-3.39-.15-.72.39-1.44.78-2.16,1.16.98.51,1.97,1.02,2.95,1.53l-.06-.04c.54,1.55,1.02,3.13,1.65,4.64.64,1.56,1.43,3.06,2.16,4.59-2.01.06-4.03.12-6.04.17-.66.37-1.32.73-1.98,1.1-.21.31-.43.61-.64.92-.64.33-1.27.66-1.91.99.53.3,1.05.61,1.58.91.05,5.28.1,10.57.16,15.85-.24.51-.49,1.02-.73,1.53.6.12,1.2.24,1.81.36l-.09-.07c.95,1.06,1.77,2.27,2.87,3.12,1.19.92,2.65,1.5,3.99,2.23-.24,1.2-.48,2.39-.72,3.59.38.16.77.33,1.15.49,2.21-1.9,4.42-3.79,6.64-5.69.95.87,1.8,1.88,2.86,2.58,2.62,1.72,5.34,3.3,8.01,4.94l-.03-.02c.68,1.73,1.36,3.45,2.12,5.39-3.23,3.85-1.61,11.03,3.39,12.98-1.22-5.4,1.66-9.43,4.38-13.5.35-.6.7-1.2,1.06-1.81,1-2.69,2-5.37,2.9-7.76,1.38.36,2.96.78,4.54,1.19l.13.13c-.13,2.45-2.61,6.12,2.27,6.2,1.65.03,4.44-2.24,4.79-3.87.69-3.23.11-6.82-5-5.46,0,0-.06-.06-.06-.06,2.45-3.85,4.91-7.7,7.35-11.56.61-.96,1.05-2.04,1.74-2.94,2.34-3.04,1.28-4.45-2.19-4.86-2.65-.32-8.54-5.78-8.38-8.2.26-3.72-.9-6.08-4.15-6.34-4.1-7.25.27-11.4,4.67-15.53,1.44-1.35,2.94-2.63,4.41-3.94,5.34,2.67,10.68,5.33,16.01,8,0,0-.04,0-.04,0,.35.35.69.69,1.04,1.04,0,0-.03-.05-.03-.05.68,1.35,1.35,2.7,2.03,4.05,0,0-.03-.04-.03-.04.34.68.69,1.36,1.03,2.04l-.02-.05c0,.35-.01.7-.02,1.04l-.09.09c-2.24-.19-3.05.34-2.01,2.8,3.12,7.4,4.03,15.09,3.16,23.14-1.66,15.35-8.75,27.37-21.93,35.26-17.35,10.38-34.78,8.96-51.48-1.67-6.23-3.97-11.75-9.06-17.6-13.64Z"/>
      <path class="cls-16" d="M353.49,782.66c5.84,4.58,11.36,9.67,17.6,13.64,16.7,10.63,34.13,12.05,51.48,1.67,13.18-7.89,20.27-19.91,21.93-35.26.87-8.05-.04-15.74-3.16-23.14-1.04-2.46-.23-2.99,2.01-2.8.7.3,1.41.6,2.11.89,11.67,23.19,1.16,54.06-21.53,66.41-22.68,12.35-48.54,6.41-63.93-10.61-2.77-3.06-4.37-7.18-6.51-10.81Z"/>
      <path class="cls-1" d="M412.45,715.68c-16.62-5.93-37.95.3-48.55,13.27-11.89,14.56-15.99,30.83-9.02,49.07-2.06-2.82-4.12-5.65-6.18-8.47-5.54-16.19,1.26-37.07,16.18-49.66,21.88-18.48,54.45-15.9,72.96,5.8.72.84,1.11,1.97,1.65,2.96-5.34-2.67-10.68-5.33-16.01-8-3.67-1.66-7.35-3.32-11.02-4.98Z"/>
      <path class="cls-1" d="M442.49,733.68c-.68-1.35-1.35-2.7-2.03-4.05.68,1.35,1.35,2.7,2.03,4.05Z"/>
      <path class="cls-22" d="M445.46,737.66c-.7-.3-1.41-.6-2.11-.89,0,0,.09-.09.09-.09.4,0,.8,0,1.19,0,.28.33.55.66.83,1Z"/>
      <path class="cls-1" d="M443.49,735.68c-.34-.68-.69-1.36-1.03-2.04.34.68.69,1.36,1.03,2.04Z"/>
      <path class="cls-1" d="M444.63,736.67c-.4,0-.8,0-1.19,0,0-.35.02-.7.02-1.04.39.34.78.69,1.17,1.03Z"/>
      <path class="cls-1" d="M440.49,729.68c-.35-.35-.69-.69-1.04-1.04.35.35.69.69,1.04,1.04Z"/>
      <path class="cls-7" d="M426.56,112.4c.67,1.26,1.35,2.52,2.02,3.78-.85,2.4-2.31,4.77-2.44,7.21-.34,6.1,1.13,12.52-.26,18.3-6.45,26.75-31.9,39.27-55.99,30.28-10.12-3.78-19.28-9.49-24.37-19.82,0-1.51.08-3.02-.04-4.51-.59-7.05-2.92-14.44-1.57-21.09,6.35-31.33,39.37-45.11,65.2-28.14,5.77,3.79,10.95,8.49,16.39,12.77,0,0-.04-.02-.04-.02.37.42.73.84,1.1,1.25ZM380.37,153.51c0-2.86.11-5.49-.03-8.1-.17-3.2,1.6-4.07,4.34-3.99,2.64.07,5.14.27,5.06,3.91-.06,2.76-.01,5.53-.01,8.62,3.54,0,6.19-.16,8.82.04,4.04.31,5.79-1.2,5.58-5.42-.26-5.26-.06-10.55-.06-15.19,2.41-1.05,3.96-1.73,5.5-2.4-.51-.98-.82-2.18-1.58-2.9-6.67-6.27-13.34-12.55-20.23-18.58-.98-.86-3.77-1.18-4.6-.46-7.27,6.35-14.31,12.96-21.34,19.58-1.85,1.74-1.49,3.26,1.1,3.87,1.09.26,2.24.27,3.73.44,0,3.33,0,6.48,0,9.62q.03,12.32,13.7,10.95Z"/>
      <path class="cls-16" d="M345.51,152.15c5.09,10.33,14.25,16.05,24.37,19.82,24.1,8.99,49.55-3.53,55.99-30.28,1.39-5.78-.08-12.2.26-18.3.14-2.44,1.59-4.81,2.44-7.21,9.24,19.96-.17,46.96-19.39,57.72-18.75,10.5-40.15,8.12-55.96-5.67-5.6-4.89-9.56-10.96-11.69-18.15,2.56-1.68,3.14.42,3.97,2.06Z"/>
      <path class="cls-1" d="M345.51,152.15c-.83-1.64-1.41-3.75-3.97-2.06-8.43-20.47-.94-47.09,21.77-59.2,21.07-11.24,47.53-4.43,60.58,15.71.85,1.32,1.09,3.04,1.61,4.57-5.45-4.28-10.62-8.98-16.39-12.77-25.83-16.97-58.85-3.19-65.2,28.14-1.35,6.65.98,14.04,1.57,21.09.12,1.5.03,3.01.04,4.51Z"/>
      <path class="cls-1" d="M426.56,112.4c-.37-.42-.73-.84-1.1-1.25.37.42.73.84,1.1,1.25Z"/>
      <path class="cls-9" d="M447.43,391.96c.33.67.66,1.34.99,2.01,0,0,.02-.02.02-.02-.34-.66-.67-1.32-1.01-1.98,0,0,0,0,0,0Z"/>
      <path class="cls-9" d="M448.42,393.97c.14.13.28.26.42.39-.08-.02-.2-.02-.25-.07-.08-.09-.11-.22-.16-.34,0,0-.02.02-.02.02Z"/>
      <path class="cls-11" d="M453.43,397.95c-.14-.13-.28-.27-.41-.4.09.02.2.02.25.07.08.09.11.22.16.33h0Z"/>
      <path class="cls-11" d="M291.56,638.76c-.14-.13-.28-.26-.42-.39.09.02.2.02.25.07.08.09.11.22.16.33,0,0,0,0,0,0Z"/>
      <path class="cls-9" d="M228.6,395.96c.25.36.49.71.74,1.07-.24-.36-.49-.72-.73-1.08,0,0,0,0,0,0Z"/>
      <path class="cls-9" d="M227.6,394.96c-.33-.67-.67-1.33-1-2l1,2h0Z"/>
      <path class="cls-9" d="M225.61,391.96c.33.33.66.67,1,1-.33-.33-.67-.66-1-1,0,0,0,0,0,0Z"/>
      <path class="cls-9" d="M227.6,394.96c.33.33.67.67,1,1,0,0,0,0,0,0-.33-.33-.67-.66-1-1h0Z"/>
      <path class="cls-11" d="M231.62,398.94c-.14-.07-.27-.14-.41-.21.13.08.25.16.38.23,0,0,.03-.03.03-.03Z"/>
      <path class="cls-3" d="M209.58,518.88c0-6.01,0-12.02,0-18.03,0,6.01,0,12.02,0,18.03Z"/>
      <path class="cls-3" d="M209.57,559.86c0-6.01,0-12.03.01-18.04,0,6.01,0,12.03-.01,18.04Z"/>
      <path class="cls-11" d="M64.75,633.76c-.14-.07-.27-.13-.41-.2.13.08.26.15.39.23,0,0,.02-.02.02-.02Z"/>
      <path class="cls-6" d="M234.46,288.1c-1.42.27-2.84.54-4.74.9v-18.13c-.32-.06-.65-.12-.97-.18-1.49,4.82-2.85,9.68-4.54,14.42-.47,1.32-1.93,2.28-2.94,3.41-1.11-1.17-2.72-2.16-3.24-3.55-1.62-4.3-2.82-8.76-5.06-13.12v16.22c-.44.36-.88.72-1.32,1.08-1.16-.91-3.28-1.79-3.32-2.75-.27-7.77-.15-15.55-.15-23.19,5.26-1.92,7.85-.31,8.92,4.74.85,4.03,2.42,7.91,4.04,13.02,1.62-4.77,3.46-8.47,4.06-12.36.91-5.81,4.07-6.96,9.07-5.78.07,8.43.13,16.85.2,25.28Z"/>
      <path class="cls-6" d="M260.98,263.15c.51-.3,1.03-.61,1.54-.91.37,0,.73,0,1.1,0,1.53,1.04,3.59,1.75,4.5,3.19,2.87,4.58,5.3,9.43,8.71,14.07,0-4.53.11-9.05-.03-13.57-.11-3.44,1.47-3.99,4.52-2.97v25.24c-3.35,1.28-5.41.46-6.98-2.69-2.42-4.84-5.21-9.49-8.58-15.52v18.92c-1.89-.36-3.38-.65-4.87-.94.03-8.27.06-16.55.09-24.82Z"/>
      <path class="cls-6" d="M241.58,288.99c-.53-.22-1.06-.45-1.59-.67-.12-4.1-.23-8.19-.35-12.28,0-.99-.02-1.98-.02-2.98,0-3,0-6,0-9.01,5.12-.47,10.25-1,15.38-1.31.4-.02,1.42,1.64,1.22,2.18-.31.82-1.38,1.81-2.2,1.88-2.77.23-5.57.09-8.66.09v6.25c2.57,0,5.04-.15,7.47.08.87.08,2.19,1.03,2.3,1.74.12.73-.84,2.15-1.61,2.39-2.33.73-4.8,1.04-7.69,1.61-.08,1.41-.17,3.12-.24,4.51,3.34,2.86,9.57-2.53,11.66,5.5-5.48,0-10.06,0-14.64,0-.34,0-.68,0-1.03,0Z"/>
      <path class="cls-6" d="M305.57,262.23s.34-.07.34-.07c.24,6.96.49,13.92.73,20.87-5.04,8.08-14.71,8.38-18.95.45-.84-1.56-.77-3.69-.83-5.57-.12-3.79.11-7.59-.08-11.38-.2-4.16,1.54-5,5.07-3.43,0,5.46-.21,10.93.14,16.36.11,1.69,1.35,3.95,2.74,4.7,1.14.62,3.28-.61,4.97-1.02,0,0-.09.07-.09.07.37-.36.75-.72,1.12-1.09,0,0-.08.09-.08.09.39-1.47,1.05-2.94,1.1-4.42.18-4.88.13-9.76.17-14.64l1.57-.91c.69,0,1.38-.01,2.07-.02Z"/>
      <path class="cls-16" d="M299.7,283.14c-1.7.41-3.84,1.64-4.97,1.02-1.39-.76-2.63-3.02-2.74-4.7-.34-5.44-.13-10.91-.14-16.36.57,1.2,1.55,2.37,1.64,3.6.23,3.31.09,6.65.07,9.98-.01,4.12,1.48,6.79,6.14,6.46Z"/>
      <path class="cls-4" d="M306.64,283.03c-.24-6.96-.48-13.92-.73-20.87.87.73,2.47,1.43,2.49,2.19.18,5.75.1,11.51-.05,17.26-.01.49-1.12.95-1.71,1.43Z"/>
      <path class="cls-4" d="M234.46,288.1c-.07-8.42-.13-16.85-.2-25.28.43.83,1.27,1.68,1.24,2.49-.26,7.6-.67,15.19-1.04,22.78Z"/>
      <path class="cls-4" d="M260.98,263.15c-.03,8.27-.06,16.55-.09,24.82-.43-.8-1.22-1.6-1.23-2.4-.11-6.7-.12-13.41-.02-20.11.01-.78.88-1.54,1.34-2.31Z"/>
      <path class="cls-16" d="M301.93,263.15c-.04,4.88,0,9.76-.17,14.64-.05,1.48-.72,2.95-1.1,4.42-.05-5.09-.19-10.18-.08-15.26.03-1.27.88-2.53,1.36-3.8Z"/>
      <path class="cls-4" d="M239.64,276.04c.12,4.09.23,8.18.35,12.28-.12-4.09-.23-8.18-.35-12.28Z"/>
      <path class="cls-4" d="M239.61,264.05c0,3,0,6,0,9.01,0-3,0-6,0-9.01Z"/>
      <path class="cls-4" d="M305.57,262.23c-.69,0-1.38.01-2.07.02.42-.56.85-1.13,1.27-1.69.26.56.53,1.12.79,1.67Z"/>
      <path class="cls-1" d="M179.66,286.03c.25.36.49.73.74,1.09-.13.09-.26.17-.39.26-.13-.44-.26-.88-.39-1.32,0,0,.04-.03.04-.03Z"/>
      <path class="cls-4" d="M263.63,262.23c-.37,0-.73,0-1.1,0,.37,0,.73,0,1.1,0Z"/>
      <path class="cls-16" d="M300.73,282.12c-.37.36-.75.72-1.12,1.09.37-.36.75-.72,1.12-1.09Z"/>
      <path class="cls-4" d="M241.58,288.99c.34,0,.68,0,1.03,0-.34,0-.68,0-1.03,0Z"/>
      <path class="cls-12" d="M139.98,163.34c-13.64-.11-23.7-7.66-27.3-19.51-3.36-11.06.48-22.87,9.85-29.11,1.56-1.04,5.02-1.63,5.94-.73,2.27,2.22,1.05,4.66-1.42,6.66-6.91,5.6-9.4,12.99-6.88,21.43,2.27,7.6,7.73,12.12,15.78,13.45,8.37,1.38,17.39-2.99,21.27-10.62,3.78-7.45,1.84-17.51-4.52-23.37-.37-.34-.74-.69-1.17-.93-2.78-1.6-3.91-3.96-1.9-6.6,2.2-2.89,4.53-.63,6.48.73,12.07,8.41,14.15,26.91,4.41,38.53-5.7,6.8-12.91,10.29-20.54,10.07Z"/>
      <path class="cls-12" d="M135.23,108.29c1.94-.78,3.9-2.15,5.8-2.06.85.04,2.17,2.99,2.23,4.66.25,6.95.24,13.93-.02,20.88-.06,1.71-1.12,4.44-2.3,4.8-1.55.47-3.68-.93-5.56-1.52-.05-8.92-.11-17.83-.16-26.75Z"/>
      <path class="cls-19" d="M135.23,108.29c.05,8.92.11,17.83.16,26.75-.55-.7-1.55-1.39-1.56-2.1-.13-7.48-.13-14.95-.04-22.43,0-.75.94-1.48,1.44-2.22Z"/>
      <path class="cls-19" d="M180.65,108.18c-.14-.07-.28-.13-.42-.2.13.07.26.15.4.22,0,0,.02-.02.02-.02Z"/>
      <path class="cls-10" d="M228.43,758.8c0-4.16-.1-8.31.03-12.47.12-3.89,2.09-5.18,5.51-3.22,7.34,4.2,14.54,8.67,21.7,13.17,2.72,1.71,2.43,3.87-.13,5.49-7.16,4.52-14.34,9.02-21.63,13.3-3.3,1.94-5.3.62-5.4-3.31-.11-4.32-.03-8.64-.03-12.96h-.05Z"/>
      <path class="cls-6" d="M286.4,758.81c0,4.32-.05,8.65.02,12.97.04,2.57-.75,4.08-3.68,4.08-2.98,0-4.14-1.22-4.1-4.2.1-8.48.11-16.96-.02-25.44-.05-3.14,1.45-4.09,4.25-4.07,2.89.01,3.63,1.6,3.56,4.19-.12,4.15-.03,8.31-.03,12.47h.02Z"/>
      <path class="cls-12" d="M264.11,743.76c2.12-.4,4.3-1.21,6.34-.96.62.07,1.22,3.08,1.24,4.75.12,7.47.06,14.95,0,22.42-.04,6.32-1.33,7.11-7.42,4.66-.06-10.29-.12-20.57-.18-30.86Z"/>
      <path class="cls-4" d="M264.11,743.76c.06,10.29.12,20.57.18,30.86-.57-.86-1.62-1.72-1.63-2.59-.12-8.49-.12-16.98,0-25.47.01-.94.95-1.87,1.46-2.8Z"/>
      <path class="cls-12" d="M103.84,754.72c1.35,1.15,3.1,2.08,3.94,3.53.64,1.11.15,2.88.17,4.36-1.44-.02-3.35.55-4.23-.16-3.74-3.04-7.35-6.29-10.58-9.85-.84-.93-.84-3.88,0-4.83,3.07-3.48,6.51-6.68,10.12-9.61,1.06-.87,3.12-.52,4.72-.73-.15,1.63.1,3.46-.58,4.84-.68,1.39-2.29,2.31-4.58,4.47,7.72,0,14.23-.12,20.73.03,10.81.25,18.19,8.58,17.02,19-.88,7.79-6.61,13.89-14.44,14.99-3.11.44-6.33.56-9.44.25-1.07-.11-2.73-1.98-2.73-3.05,0-1.12,1.49-2.89,2.65-3.2,2.02-.55,4.3-.09,6.45-.26,6.64-.53,10.9-4.88,10.71-10.82-.2-6.03-4.5-9.9-11.35-10.01-5.98-.09-11.97-.02-17.95-.02-.21.36-.42.73-.63,1.09Z"/>
      <path class="cls-12" d="M376.53,747.77c2.01-.06,4.03-.12,6.04-.18,1.58.12,3.16.24,6.3.48-4.08-3.92-7.1-6.81-10.11-9.7,0,0,.05.04.05.04-.26-.9-.53-1.79-.79-2.69,1.13.05,2.26.1,3.39.15,8.29,8.42,16.58,16.83,25.11,25.49.78-1.35,1.31-2.04,1.21-2.14-4.7-5.02-9.46-10-14.65-15.43,3.86-3.41,7.7-6.92,11.71-10.24,1.01-.84,3.23-1.77,3.74-1.33,1.03.89,1.73,2.68,1.77,4.13.17,5.47.62,11.04-.15,16.41-1.33,9.24,2.08,15.91,9.42,21.03.14.09.29.16.43.25,0,0,.06.06.06.06,1.08,1.37,2.16,2.74,3.24,4.11-.28.5-.57.99-.85,1.49-1.48-.82-2.97-1.64-4.45-2.46,0,0-.13-.13-.13-.13-2.31-2.16-4.63-4.33-7.44-6.95,0,4.88,0,9.2,0,13.52-.35.6-.7,1.2-1.06,1.81-4.85,1.53-6.46-3.5-9.89-4.86l.03.02c-2.35-2.03-4.7-4.07-7.4-6.4,4.21-4.41,7.73-8.1,11.24-11.79-.57-.55-1.15-1.11-1.72-1.66-4.33,4.11-8.67,8.22-13,12.33-2.21,1.9-4.42,3.79-6.64,5.69-.38-.17-.77-.33-1.15-.49.24-1.2.48-2.39.72-3.59.96-1.15,1.92-2.3,2.86-3.44-3.56-.7-6.64-1.31-9.72-1.91,0,0,.09.07.09.07-.36-.63-.72-1.26-1.08-1.89-.05-5.28-.1-10.57-.16-15.85.11-.63.22-1.27.33-1.9.21-.31.43-.61.64-.92.66-.37,1.32-.73,1.98-1.1Z"/>
      <path class="cls-21" d="M420.01,774.02c-.14-.08-.3-.15-.43-.25-7.34-5.13-10.75-11.79-9.42-21.03.77-5.37.32-10.94.15-16.41-.04-1.44-.74-3.24-1.77-4.13-.51-.44-2.73.5-3.74,1.33-4.01,3.31-7.85,6.83-11.71,10.24,5.19,5.44,9.95,10.41,14.65,15.43.1.1-.44.79-1.21,2.14-8.53-8.66-16.82-17.07-25.11-25.49,2.31-2.84,4.72-2.37,6.72,1.36.95,1.77,1.78,3.61,2.67,5.42.46-.03.92-.05,1.38-.08.43-1.24,1.09-2.44,1.24-3.71.55-4.71,3.02-6.85,7.53-6.95,1.76-.04,4.37-.57,5.09-1.77,2.71-4.51,7.25-8.34,6.4-14.45,3.67,1.66,7.35,3.32,11.02,4.98-1.47,1.31-2.97,2.59-4.41,3.94-4.4,4.12-8.78,8.27-4.67,15.53,3.25.27,4.41,2.62,4.15,6.34-.17,2.42,5.72,7.89,8.38,8.2,3.47.41,4.53,1.81,2.19,4.86-.69.9-1.13,1.97-1.74,2.94-2.44,3.86-4.9,7.71-7.35,11.56ZM416.24,767.91c4.92-3.25,5.03-7.84,4.08-12.44-.78-3.77-3.4-6.11-6.26-6.55.71,6.19,1.41,12.31,2.18,19Z"/>
      <path class="cls-21" d="M399.5,780.59c3.43,1.36,5.04,6.4,9.89,4.86-2.73,4.08-5.6,8.1-4.38,13.5-5-1.95-6.61-9.13-3.39-12.98-.76-1.93-1.44-3.66-2.12-5.39Z"/>
      <path class="cls-21" d="M388.65,773.1c4.33-4.11,8.67-8.22,13-12.33.57.55,1.15,1.11,1.72,1.66-3.52,3.69-7.03,7.37-11.24,11.79,2.69,2.33,5.05,4.36,7.4,6.4-2.68-1.64-5.39-3.21-8.01-4.94-1.06-.7-1.92-1.71-2.86-2.58Z"/>
      <path class="cls-21" d="M418.01,777.21c1.48.82,2.97,1.64,4.45,2.46.28-.5.57-.99.85-1.49-1.08-1.37-2.16-2.74-3.24-4.11,5.11-1.36,5.68,2.23,4.99,5.46-.35,1.63-3.13,3.9-4.79,3.87-4.88-.08-2.4-3.74-2.27-6.2Z"/>
      <path class="cls-21" d="M410.44,783.65c0-4.32,0-8.64,0-13.52,2.81,2.62,5.12,4.79,7.44,6.95-1.58-.42-3.16-.83-4.54-1.19-.89,2.39-1.89,5.08-2.9,7.76Z"/>
      <path class="cls-16" d="M374.71,769.35c3.08.61,6.17,1.21,9.72,1.91-.94,1.13-1.9,2.29-2.86,3.44-1.34-.73-2.8-1.31-3.99-2.23-1.1-.85-1.93-2.07-2.87-3.12Z"/>
      <path class="cls-16" d="M378.76,738.37c3.01,2.89,6.03,5.78,10.11,9.7-3.15-.24-4.73-.36-6.3-.48-.72-1.52-1.51-3.02-2.16-4.58-.63-1.51-1.11-3.09-1.65-4.64Z"/>
      <path class="cls-16" d="M378.02,735.72c.26.9.53,1.79.79,2.69-.98-.51-1.97-1.02-2.95-1.53.72-.39,1.44-.78,2.16-1.16Z"/>
      <path class="cls-16" d="M376.53,747.77c-.66.37-1.32.73-1.98,1.1.66-.37,1.32-.73,1.98-1.1Z"/>
      <path class="cls-16" d="M373.9,749.79c-.11.63-.22,1.27-.33,1.9-.53-.3-1.05-.61-1.58-.91.64-.33,1.27-.66,1.91-.99Z"/>
      <path class="cls-16" d="M373.73,767.54c.36.63.72,1.26,1.08,1.89-.6-.12-1.2-.24-1.81-.36.24-.51.49-1.02.73-1.53Z"/>
      <path class="cls-10" d="M380.37,153.51q-13.67,1.37-13.7-10.95c0-3.14,0-6.28,0-9.62-1.48-.17-2.63-.18-3.73-.44-2.59-.61-2.95-2.13-1.1-3.87,7.03-6.62,14.07-13.23,21.34-19.58.82-.72,3.61-.4,4.6.46,6.89,6.03,13.56,12.3,20.23,18.58.76.72,1.06,1.92,1.58,2.9-1.54.67-3.09,1.35-5.5,2.4,0,4.63-.2,9.92.06,15.19.21,4.22-1.54,5.73-5.58,5.42-2.63-.2-5.28-.04-8.82-.04,0-3.09-.05-5.86.01-8.62.08-3.64-2.43-3.84-5.06-3.91-2.74-.08-4.51.79-4.34,3.99.14,2.61.03,5.24.03,8.1Z"/>
      <g>
        <path class="cls-18" d="M285.57,654.73c-3.7-4.32-7.41-8.65-11.11-12.97-1.96-3.33-3.92-6.66-5.88-9.99-.65-1.34-1.31-2.68-1.96-4.03-1.34-6.3-3.39-12.55-3.87-18.92-.86-11.25-1.29-22.58-1-33.85,1.46-57.58-4.03-115.33,3.97-172.76,3.7-6.04,6.92-12.45,11.21-18.03,10.18-13.25,24.15-20.75,40.45-23.01,9.96-1.38,20.18-1.07,30.29-1.15,20.12-.15,40.25-.43,60.36.05,27.62.66,48.12,13.61,60.71,38.12,3.41,6.64,4.6,14.42,6.8,21.68.61,12.23,1.77,24.46,1.74,36.69-.07,43.05-.51,86.09-.91,129.14-.07,7.28-.33,14.59-1.02,21.83-1.56,16.34-8.62,30.4-20.18,41.68-13.59,13.27-30.32,19.72-49.55,19.59-25.78-.19-51.57.21-77.35-.21-7.34-.12-14.93-1.35-21.88-3.65-7.27-2.41-13.91-6.71-20.83-10.19ZM455.45,393.88s.05.05.05.05c-.35-.69-.69-1.38-1.04-2.07,0,0,.06.04.06.04-11.33-15.57-27.13-22.73-45.87-23.06-27.12-.47-54.26-.59-81.38-.13-32.64.56-56.48,24.22-56.62,56.21-.27,59.75-.2,119.5,0,179.24.04,10.39,2.62,20.42,8.85,29.13,3.46,4.18,6.52,8.78,10.49,12.4,3.28,2.99,7.63,4.81,11.5,7.15l-.02-.07c.35.35.69.69,1.04,1.04l-.04-.04c.69.38,1.37.76,2.06,1.14,1.16.61,2.26,1.56,3.48,1.77,7.97,1.39,15.95,3.57,23.96,3.74,24.12.49,48.26.25,72.4.11,4.78-.03,9.64-.52,14.32-1.47,30.13-6.08,49.01-31.42,49.36-61.29.66-56.08.43-112.18-.01-168.26-.06-7.88-3.39-15.73-5.21-23.59-.46-.67-.92-1.34-1.38-2.01,0,0,.02.01.02.01-.33-.67-.67-1.34-1-2l.06-.12c-1.02-1.98-2.04-3.96-3.06-5.93-.33-.34-.66-.67-.98-1.01l.02.08c-.35-.35-.7-.7-1.06-1.05Z"/>
        <path class="cls-13" d="M457.47,395.87c1.02,1.98,2.04,3.96,3.06,5.93-2.37-1.28-4.74-2.56-7.11-3.85-.05-.11-.08-.24-.16-.33-.05-.05-.16-.05-.25-.07.14.13.28.27.41.4,1.67,5.86,4.25,11.63,4.83,17.6,1.51,15.4,2.14,30.89,3.12,46.35-.84,1.06-1.96,2-2.46,3.2-1.26,3.01-2.25,6.14-3.34,9.22-2.88,8.1-1.54,10.55,5.82,10.56,0,4.33,0,8.65,0,12.98-2.18.81-6,1.26-6.26,2.49-1,4.62-4.5,6.32-7.74,8.53-3.09-3.07-6.12-6.2-9.3-9.18-2.14-2.01-4.48-3.8-6.73-5.69,1.53-2.88,5.76-5.04,3.35-9.01-1.49-2.46-3.86-4.57-6.26-6.23-1.03-.71-4.15-.42-4.57.36-1.27,2.37-1.69,5.2-2.45,7.85-6.02-4.35-12.04-8.71-18.06-13.06,4.11-.02,5.14-2.26,3.25-5.47-2.49-4.23-5.33-8.28-8.31-12.19-3.42-4.49-5.93-4.3-8.71.56-1.03,1.81-1.44,3.97-2.13,5.98-4.67-3.44-9.86-4.26-15.01-1.73-5.17,2.54-5.05,7.69-5,12.62.07,5.9.02,11.8.02,18.74-3.36-2.13-5.77-3.49-8.01-5.09-11.2-8.02-22.39-16.05-33.49-24.21-4.85-3.57-10.18-4.83-15.38-2.02-4.93,2.67-6.09,7.8-6.07,13.32.08,26.8,0,53.6-.03,80.39-3.25-.76-3.87-2.88-3.56-5.96.22-2.18-.44-4.44-.8-7.54-4.01,4.43-6.46,7.77-1.97,12.04.93.89,1.72,3.12,1.25,4.07-2.94,5.98-2.19,10.97,1.89,16.39,2.04,2.7,1.92,7.03,2.54,9.67-2.66.23-6.25.08-9.55.97-3.5.94-6.72,2.88-10.24,4.46-.29-.35-.96-1.16-1.44-1.73-1.83,1.7-3.41,3.16-4.98,4.62,0-5.33-.02-10.67-.03-16,1.31-2.85,2.95-5.61,3.72-8.6.19-.76-2.39-2.23-3.7-3.38-.02-44.46-.06-88.91-.01-133.37,0-3.79.44-7.6.91-11.37,3.03-24.1,22.18-42.74,49.81-43.04,26.47-.29,52.95-.31,79.42.06,11.77.17,22.94,3.23,32.4,10.91,2.27,1.84,4.85,3.3,7.28,4.94.34.66.67,1.32,1.01,1.99.05.11.08.24.16.34.05.05.16.05.25.07-.14-.13-.28-.26-.42-.39-.33-.67-.66-1.34-.99-2.01,2.37-.02,4.73-.03,7.1-.05,0,0-.06-.04-.06-.04.35.69.69,1.38,1.04,2.07,0,0-.05-.05-.05-.05.35.35.7.7,1.06,1.05,0,0-.02-.08-.02-.08.07.46.14.93.2,1.39.26-.13.52-.25.78-.38ZM442.14,493.61c.32.5.64.99.97,1.49h6.91c.25-.46.51-.91.76-1.37-1.74-1.93-3.49-3.87-5.23-5.8-1.14,1.89-2.27,3.79-3.41,5.68ZM417.03,477.88c.53-.39,1.06-.77,1.59-1.16-.67-.91-1.25-1.91-2.07-2.65-.17-.16-1.2.63-1.83.98.77.94,1.54,1.89,2.32,2.83Z"/>
        <path class="cls-8" d="M447.38,508.88c3.24-2.21,6.74-3.9,7.74-8.53.26-1.22,4.08-1.68,6.26-2.49-.32,31.24-.61,62.47-1,93.71-.06,4.45-.34,8.94-.96,13.35-3.71,26.66-25.67,47.05-53.1,46.88-26.57-.17-53.14.39-79.69-.3-7.86-.2-15.79-3.06-23.38-5.6-4.22-1.41-7.81-4.7-11.69-7.14-.05-.11-.08-.24-.16-.33-.05-.05-.16-.05-.25-.07.14.13.28.26.42.39,3.32,4.7,6.63,9.39,9.95,14.09-3.87-2.34-8.22-4.16-11.5-7.15-3.97-3.62-7.03-8.22-10.49-12.4,0-2.23,0-4.46,0-7.67,1.92,1.77,3.02,2.79,4.12,3.8-3.59-10.02-6.55-19.97-6-30.63,1.25-.43,2.5-.87,3.75-1.3-1.24-1.23-2.49-2.47-3.73-3.7,0-.66,0-1.33-.01-1.99,1.57-1.46,3.14-2.92,4.98-4.62.48.57,1.15,1.38,1.44,1.73,3.51-1.58,6.74-3.51,10.24-4.46,3.31-.89,6.89-.73,9.55-.97-.63-2.63-.5-6.97-2.54-9.67-4.08-5.41-4.83-10.4-1.89-16.39.47-.96-.32-3.19-1.25-4.07-4.49-4.28-2.04-7.62,1.97-12.04.37,3.1,1.02,5.36.8,7.54-.31,3.09.31,5.2,3.56,5.96-.39,5.79,1.62,10.64,6.63,13.55,5.29,3.07,10.12,1.09,14.71-2.34,7.04-5.26,14.26-10.26,21.42-15.36,6.41-4.57,12.83-9.12,20.24-14.37,0,7.44.08,13.84-.03,20.23-.09,5.16,1.07,9.48,6.22,11.95,5.22,2.5,9.58.84,13.87-2.24,17.23-12.36,34.47-24.7,51.76-36.98,8-5.68,10.47-11.71,8.05-20.4ZM289.85,637.22c-.77-.56-1.25-1.17-1.71-1.16-.45.01-.9.65-1.34,1.01.47.49.88,1.15,1.45,1.4.24.11.85-.65,1.59-1.25Z"/>
        <path class="cls-11" d="M301.51,652.85c-3.32-4.7-6.63-9.39-9.95-14.09h0c3.88,2.45,7.47,5.73,11.69,7.15,7.59,2.54,15.53,5.4,23.38,5.6,26.55.68,53.13.13,79.69.3,27.43.17,49.39-20.22,53.1-46.88.61-4.41.9-8.89.96-13.35.39-31.24.68-62.47,1-93.71,0-4.33,0-8.65,0-12.98,0-7.66,0-15.32-.01-22.99-.98-15.46-1.61-30.95-3.12-46.35-.58-5.97-3.16-11.74-4.83-17.6h0c2.37,1.28,4.74,2.57,7.11,3.85,0,0-.05.12-.05.12.33.67.67,1.34,1,2,0,0-.02-.01-.02-.01.46.67.92,1.34,1.38,2.01,1.82,7.86,5.15,15.72,5.21,23.59.44,56.08.67,112.18.01,168.26-.35,29.87-19.23,55.21-49.36,61.29-4.69.95-9.54,1.44-14.32,1.47-24.13.15-48.27.38-72.4-.11-8.01-.16-15.99-2.34-23.96-3.74-1.23-.21-2.33-1.16-3.48-1.77-.69-.38-1.37-.76-2.06-1.14,0,0,.04.04.04.04-.35-.35-.69-.69-1.04-1.04l.02.07Z"/>
        <path class="cls-9" d="M277.63,598.8c-.55,10.66,2.41,20.61,6,30.63-1.1-1.01-2.2-2.03-4.12-3.8,0,3.22,0,5.45,0,7.67-6.23-8.71-8.82-18.73-8.85-29.13-.21-59.75-.27-119.5,0-179.24.14-31.99,23.98-55.65,56.62-56.21,27.12-.46,54.26-.34,81.38.13,18.74.33,34.54,7.49,45.87,23.06-2.36.02-4.73.03-7.1.05h0c-2.44-1.63-5.01-3.09-7.28-4.94-9.46-7.68-20.63-10.74-32.4-10.91-26.47-.37-52.95-.35-79.42-.06-27.62.3-46.78,18.94-49.81,43.04-.47,3.77-.91,7.58-.91,11.37-.05,44.46,0,88.91.01,133.37,0,3.99,0,7.98-.01,11.98,0,5.33.02,10.67.03,16,0,.66,0,1.33.01,1.99,0,1.67,0,3.34-.01,5.01Z"/>
        <path class="cls-14" d="M447.38,508.88c2.43,8.68-.05,14.72-8.05,20.4-17.29,12.27-34.53,24.62-51.76,36.98-4.29,3.08-8.65,4.74-13.87,2.24-5.15-2.47-6.31-6.79-6.22-11.95.11-6.4.03-12.79.03-20.23-7.4,5.25-13.82,9.8-20.24,14.37-7.15,5.1-14.38,10.1-21.42,15.36-4.59,3.43-9.43,5.41-14.71,2.34-5.01-2.91-7.02-7.76-6.63-13.55.03-26.8.11-53.6.03-80.39-.02-5.51,1.15-10.65,6.07-13.32,5.2-2.82,10.53-1.55,15.38,2.02,11.09,8.16,22.29,16.18,33.49,24.21,2.24,1.6,4.65,2.97,8.01,5.09,0-6.94.05-12.84-.02-18.74-.05-4.93-.17-10.08,5-12.62,5.15-2.53,10.33-1.71,15.01,1.73,5.3,3.71,10.6,7.41,15.9,11.12,6.02,4.35,12.04,8.71,18.06,13.06,3.31,2.35,6.61,4.69,9.92,7.04,2.25,1.89,4.59,3.68,6.73,5.69,3.17,2.98,6.21,6.11,9.3,9.18ZM373.67,505.46c-2.66-1.84-4.44-3.02-6.18-4.26-14.21-10.17-28.37-20.41-42.65-30.48-3.1-2.19-5.97-6.17-10.54-3.82-4.41,2.27-2.74,6.77-2.75,10.37-.11,25.97-.11,51.95.07,77.92.02,2.36,1.06,6.35,2.39,6.7,2.4.63,5.86-.21,8.01-1.68,13.87-9.49,27.49-19.34,41.21-29.04,3.19-2.25,6.44-4.41,10.48-7.16,0,11.34-.15,21.62.12,31.88.06,2.18,1.1,5.39,2.68,6.2,1.65.85,4.97.05,6.73-1.2,18.09-12.75,36.05-25.68,53.95-38.68,6.12-4.44,6.21-10.38.21-14.79-17.83-13.11-35.71-26.15-53.74-38.99-1.87-1.34-5.39-2.25-7.12-1.36-1.65.85-2.68,4.29-2.74,6.62-.28,10.27-.12,20.56-.12,31.79Z"/>
        <path class="cls-8" d="M403.37,473.92c-5.3-3.71-10.6-7.41-15.9-11.12.69-2,1.09-4.17,2.13-5.98,2.78-4.87,5.29-5.05,8.71-.56,2.98,3.91,5.82,7.96,8.31,12.19,1.89,3.21.86,5.44-3.25,5.47Z"/>
        <path class="cls-8" d="M431.35,494.01c-3.31-2.35-6.61-4.69-9.92-7.04.75-2.65,1.17-5.48,2.45-7.85.42-.78,3.54-1.07,4.57-.36,2.4,1.66,4.76,3.77,6.26,6.23,2.41,3.98-1.82,6.13-3.35,9.01Z"/>
        <path class="cls-8" d="M461.37,461.9c0,7.66,0,15.32.01,22.99-7.35-.02-8.7-2.46-5.82-10.56,1.1-3.08,2.08-6.21,3.34-9.22.5-1.2,1.62-2.14,2.46-3.2Z"/>
        <path class="cls-8" d="M442.14,493.61c1.14-1.89,2.27-3.79,3.41-5.68,1.74,1.93,3.49,3.87,5.23,5.8-.25.46-.51.91-.76,1.37h-6.91c-.32-.5-.64-.99-.97-1.49Z"/>
        <path class="cls-8" d="M277.6,575.81c0-3.99,0-7.98.01-11.98,1.31,1.15,3.9,2.62,3.7,3.38-.76,2.99-2.4,5.75-3.72,8.6Z"/>
        <path class="cls-8" d="M417.03,477.88c-.77-.94-1.54-1.89-2.32-2.83.63-.35,1.66-1.14,1.83-.98.82.74,1.4,1.74,2.07,2.65-.53.39-1.06.77-1.59,1.16Z"/>
        <path class="cls-13" d="M277.63,598.8c0-1.67,0-3.34.01-5.01,1.25,1.23,2.49,2.47,3.73,3.7-1.25.43-2.5.87-3.75,1.3Z"/>
        <path class="cls-11" d="M289.85,637.22c-.74.6-1.35,1.35-1.59,1.25-.58-.25-.98-.91-1.45-1.4.45-.36.89-1,1.34-1.01.46-.01.93.6,1.71,1.16Z"/>
        <path class="cls-10" d="M373.67,505.46c0-11.23-.16-21.51.12-31.79.06-2.33,1.09-5.77,2.74-6.62,1.73-.89,5.25.03,7.12,1.36,18.02,12.84,35.91,25.88,53.74,38.99,6,4.41,5.92,10.34-.21,14.79-17.91,13-35.87,25.93-53.95,38.68-1.77,1.25-5.09,2.04-6.73,1.2-1.58-.81-2.62-4.02-2.68-6.2-.27-10.26-.12-20.53-.12-31.88-4.03,2.75-7.29,4.91-10.48,7.16-13.72,9.7-27.35,19.55-41.21,29.04-2.16,1.48-5.61,2.31-8.01,1.68-1.32-.35-2.37-4.34-2.39-6.7-.18-25.97-.18-51.95-.07-77.92.02-3.6-1.66-8.1,2.75-10.37,4.57-2.35,7.44,1.63,10.54,3.82,14.28,10.07,28.44,20.31,42.65,30.48,1.74,1.24,3.51,2.43,6.18,4.26Z"/>
      </g>
      <g>
        <path class="cls-18" d="M61.82,652.68c-8.17-7.68-13.73-17.2-18.93-26.97-1.36-5.45-3.52-10.84-3.92-16.35-1.11-15.55-2.06-31.15-2.05-46.72.01-44.57.53-89.13.85-133.7,2.2-29.46,15.66-51.51,43.26-63.34,7.45-3.19,15.96-5.17,24.04-5.36,27.94-.64,55.9-.3,83.86-.24,26.22.06,50.67,17.83,59.07,42.68.88,2.6,2.3,5.01,3.47,7.51.06,1.91.11,3.82.16,5.73,0,15.56-.01,31.13-.02,46.69,0,10.67-.12,21.34.03,32,.19,13.11.88,26.21.85,39.32-.05,18.1-.59,36.19-.87,54.29-.1,6.32.66,12.74-.2,18.94-1.11,7.95-2.22,16.3-5.52,23.48-11.69,25.42-32.42,37.75-60.17,38.04-26.45.28-52.91.27-79.36-.1-6.69-.09-13.75-.98-19.93-3.34-8.56-3.27-16.44-8.29-24.62-12.56ZM229.63,388.87s.05.03.05.03c-.86-1.32-1.52-2.83-2.6-3.93-10.99-11.17-24.59-16.2-40.03-16.28-26.8-.14-53.61-.29-80.4.05-32.36.41-58.49,24.9-59.85,56.67-2.51,58.73-2.17,117.48-.06,176.22.42,11.62,3.95,22.56,11.1,32.04,3.26,3.75,6.52,7.51,9.78,11.26l.05-.12c.29.38.58.77.87,1.15,10.92,10.21,24.36,14.38,38.79,14.5,28.28.24,56.6.46,84.83-.86,28.71-1.34,51.24-26.1,51.35-55.07.23-60.78.09-121.56.06-182.33,0-1.75-.58-3.5-.89-5.25-.35-1.05-.71-2.11-1.06-3.16.04-.28.03-.57-.04-.84-1.26-9.07-4.41-17.28-10.93-23.96-.34-.04-.68-.07-1.02-.11Z"/>
        <path class="cls-3" d="M230.66,388.98c6.52,6.68,9.67,14.89,10.93,23.96-1.19-1.41-3.58-3.04-3.37-4.2,1.02-5.7-3.53-7.15-6.62-9.76-.13-.08-.25-.16-.38-.23.14.07.27.14.41.21.53,2.41,1.09,4.8,1.57,7.22,1.16,5.81,3.13,11.62,3.25,17.45.39,20.42.14,40.84.12,61.27-6.08,5.22-11.87,1.64-18.35-.74,7.73-1.08,8.79-6.42,8.65-12.1-1.36-2.02-2.22-4.26-3.36-6.37-.56-1.03-1.49-2.37-2.46-2.58-5.5-1.19-10.29,3.07-10.47,8.74-.17,5.36-.66,10.71-1.01,16.06,0-4.66-.07-9.32-.01-13.97.06-5.09-1.07-9.68-5.8-12.37-5.12-2.92-10.29-2.29-15.04.97-6.15,4.23-12.15,8.68-18.22,13.02-7.61,5.43-15.23,10.85-23.85,16.98,0-8.42-.09-15.67.03-22.93.09-5.24-3.06-8.54-7.39-9.29-3.58-.62-8.37,0-11.26,2.01-18.76,13.1-37.23,26.61-55.62,40.23-8.06,5.97-8.55,15.68-1.57,22.88,2.17,2.25,4.62,4.23,6.94,6.33-1.67,1.55-3.5,2.96-4.95,4.7-1.35,1.61-2.29,3.56-3.41,5.36,2.46.61,3.71.19,4.97.12,1.29-.08,2.74-.13,3.88.36,5.6,2.38,6.84,1.97,9.47-3.59,2.67,2.01,5.33,4.02,8,6.03-3.12,4.97-6.27,9.93-9.36,14.93-.79,1.29-1.39,2.7-2.07,4.05h5.34c.24.81.62,2.11,1.19,4.09-4.04-.43-7.3-.78-10.54-1.12-.17,2.93-.37,6.21-.6,10.18.51.53,1.65,1.73,2.79,2.93-4.28-.18-8.05-1.25-11.88-2.06-1.08-.23-2.98-.13-3.39.52-3.25,5.12-8.12,5.86-13.51,5.55-.32-4.29-.92-8.58-.93-12.87-.07-40.44-.14-80.88.06-121.32.04-8.75.9-17.52,1.84-26.23,2.98-27.62,26.51-47.31,54.97-47.38,25.3-.07,50.59-.11,75.89.04,8.85.05,17.58,1.38,25.33,6.07,5.05,3.05,9.82,6.55,14.72,9.85.33.33.67.66,1,1,.33.67.67,1.33,1,2,.33.33.67.66,1,1,.24.36.49.72.73,1.08-.25-.36-.49-.71-.74-1.07-.33-.33-.67-.67-1-1l-1-2c-.33-.33-.66-.67-1-1-.09-.9-.19-1.79-.32-3.05h4.39s-.05-.03-.05-.03c.34.04.68.07,1.02.11Z"/>
        <path class="cls-8" d="M209.57,487.89c.35-5.35.84-10.7,1.01-16.06.18-5.67,4.97-9.92,10.47-8.74.97.21,1.91,1.55,2.46,2.58,1.13,2.1,2,4.35,3.36,6.37.14,5.68-.93,11.02-8.65,12.1,6.48,2.39,12.27,5.96,18.35.74,0,36.25-.08,72.51.09,108.76.04,9.59-1.56,18.73-4.74,27.73-5.46,15.45-24.69,29.93-41.04,30.34-18.34.46-36.69.86-55.04.95-10.44.05-20.88-.59-31.32-.89-9.83-.28-18.99-2.62-27.02-8.55-4.26-3.14-8.51-6.29-12.77-9.44-.13-.08-.26-.15-.39-.23.14.07.27.13.41.2.96,3.73,1.92,7.45,2.87,11.18-3.26-3.75-6.52-7.51-9.78-11.26.19-2.39.38-4.78.6-7.46,1.23,1.16,2.32,2.2,3.41,3.23-1.32-4.9-3.52-9.26-5.09-13.84-3.54-10.33-3.18-21.09-3.04-31.81,5.38.31,10.26-.44,13.51-5.55.41-.65,2.31-.75,3.39-.52,3.83.82,7.6,1.89,11.88,2.06-1.14-1.2-2.29-2.4-2.79-2.93.23-3.97.43-7.25.6-10.18,3.24.34,6.5.69,10.54,1.12-.58-1.98-.96-3.28-1.19-4.09h-5.34c.69-1.35,1.28-2.76,2.07-4.05,3.08-5,6.23-9.95,9.36-14.93.75.31,1.59.5,2.23.96,10.26,7.35,20.49,14.74,30.73,22.12-1.84,5.06,1,8.71,6.06,8.19,3.36-.34,6.78-.07,11.54-.07,2.23-2.59-.69-6.36-1.67-10.2.69-5.85,1.54-11.68,2.02-17.55.3-3.64.06-7.33.06-11.71,14.65,10.46,28.19,20.28,41.91,29.85,9.16,6.38,16.38,4.01,20.94-6.47,0-6.01,0-12.03.01-18.04,0-7.65,0-15.29,0-22.94,0-6.01,0-12.02,0-18.03,0-4.32,0-8.64,0-12.96ZM114.85,590.98c-.19.7-.39,1.41-.58,2.11,7.41.7,1.77,5.98,3.08,8.44,3.67-3,7-5.46,9.92-8.33.62-.61-.25-2.73-.43-4.16-4,.65-7.99,1.3-11.99,1.94ZM104.73,567.75c-2.89,1.99-5.09,3.56-7.34,5.04-1.42.94-3.05,1.62-4.28,2.75-.29.27.37,2.43,1.05,2.75,2.14,1,6.16,2.61,6.5,2.08,2.06-3.19,3.4-6.87,4.73-10.48.27-.74-.57-1.88-.65-2.14Z"/>
        <path class="cls-11" d="M67.62,644.94c-.96-3.73-1.92-7.45-2.87-11.18,0,0-.02.02-.02.02,4.26,3.15,8.51,6.3,12.77,9.44,8.03,5.93,17.19,8.27,27.02,8.55,10.44.29,20.88.94,31.32.89,18.35-.09,36.69-.49,55.04-.95,16.35-.41,35.58-14.89,41.04-30.34,3.18-9,4.79-18.14,4.74-27.73-.17-36.25-.08-72.51-.09-108.76.01-20.42.27-40.85-.13-61.27-.11-5.84-2.09-11.64-3.25-17.45-.48-2.42-1.05-4.81-1.57-7.22l-.03.03c3.1,2.61,7.64,4.06,6.62,9.76-.21,1.16,2.18,2.79,3.37,4.2.07.28.08.56.04.85.35,1.06.71,2.11,1.06,3.16.31,1.75.89,3.5.89,5.25.04,60.78.17,121.56-.06,182.33-.11,28.98-22.63,53.73-51.35,55.07-28.23,1.32-56.56,1.09-84.83.86-14.42-.12-27.87-4.29-38.79-14.5.13-.33.26-.66.4-.99-.42-.05-.85-.11-1.27-.16,0,0-.05.12-.05.12Z"/>
        <path class="cls-9" d="M53.72,583.8c-.14,10.72-.5,21.49,3.04,31.81,1.57,4.58,3.78,8.94,5.09,13.84-1.09-1.04-2.19-2.07-3.41-3.23-.21,2.68-.41,5.07-.6,7.46-7.16-9.48-10.69-20.43-11.1-32.05-2.11-58.73-2.45-117.49.06-176.22,1.36-31.77,27.49-56.26,59.85-56.67,26.8-.34,53.6-.19,80.4-.05,15.44.08,29.04,5.12,40.03,16.28,1.08,1.1,1.74,2.61,2.6,3.93h-4.39c.13,1.26.22,2.16.32,3.05h0c-4.9-3.29-9.67-6.79-14.72-9.85-7.75-4.69-16.49-6.02-25.33-6.07-25.3-.16-50.59-.11-75.89-.04-28.46.07-51.99,19.76-54.97,47.38-.94,8.71-1.8,17.48-1.84,26.23-.2,40.44-.13,80.88-.06,121.32,0,4.29.61,8.58.93,12.87Z"/>
        <path class="cls-14" d="M128.7,567.81c-10.24-7.38-20.47-14.77-30.73-22.12-.64-.46-1.48-.64-2.23-.96-2.67-2.01-5.33-4.02-8-6.03-3.32-2.31-6.65-4.63-9.97-6.95-2.32-2.1-4.77-4.09-6.94-6.33-6.97-7.21-6.49-16.91,1.57-22.88,18.39-13.62,36.86-27.14,55.62-40.23,2.89-2.02,7.67-2.63,11.26-2.01,4.34.75,7.48,4.05,7.39,9.29-.12,7.25-.03,14.51-.03,22.93,8.61-6.13,16.24-11.54,23.85-16.98,6.08-4.34,12.07-8.79,18.22-13.02,4.74-3.26,9.91-3.89,15.04-.97,4.73,2.69,5.86,7.29,5.8,12.37-.06,4.66,0,9.32.01,13.97,0,4.32,0,8.64,0,12.96,0,6.01,0,12.02,0,18.03,0,7.65,0,15.29,0,22.94,0,6.01,0,12.03-.01,18.04-4.56,10.48-11.78,12.85-20.94,6.47-13.72-9.57-27.26-19.39-41.91-29.85,0,4.39.24,8.07-.06,11.71-.48,5.86-1.33,11.7-2.02,17.55-4.89,3.93-10.05,5.77-15.94,2.07ZM140.21,524.09c1.95,1.32,3.19,2.12,4.39,2.97,15.9,11.22,31.74,22.52,47.76,33.55,1.93,1.33,5.4,2.3,7.17,1.43,1.65-.81,2.79-4.28,2.8-6.59.19-27.29.19-54.59,0-81.88-.02-2.29-1.18-5.74-2.82-6.54-1.8-.87-5.22.08-7.18,1.37-7.9,5.23-15.53,10.88-23.23,16.41-9.4,6.76-18.78,13.55-28.93,20.87,0-11.48.12-22.06-.1-32.63-.04-2.07-.84-5.23-2.24-5.9-1.77-.85-5.07-.43-6.75.77-18.4,13.15-36.68,26.49-54.86,39.95-5.28,3.91-5.18,10,.08,13.83,17.88,13.02,35.82,25.97,53.88,38.73,1.92,1.36,5.38,2.44,7.14,1.59,1.64-.79,2.68-4.29,2.75-6.64.29-10.1.12-20.22.12-31.31Z"/>
        <path class="cls-8" d="M77.78,531.76c3.32,2.32,6.65,4.63,9.97,6.95-2.64,5.56-3.88,5.97-9.47,3.59-1.15-.49-2.59-.43-3.88-.36-1.27.07-2.51.5-4.97-.12,1.12-1.8,2.06-3.75,3.41-5.36,1.45-1.73,3.28-3.14,4.95-4.7Z"/>
        <path class="cls-3" d="M128.7,567.81c5.88,3.7,11.05,1.86,15.94-2.07.98,3.83,3.89,7.61,1.67,10.2-4.76,0-8.18-.28-11.54.07-5.06.52-7.9-3.13-6.06-8.19Z"/>
        <path class="cls-3" d="M114.85,590.98c4-.65,7.99-1.3,11.99-1.94.18,1.43,1.05,3.55.43,4.16-2.92,2.87-6.25,5.33-9.92,8.33-1.3-2.45,4.34-7.74-3.08-8.44.19-.7.39-1.41.58-2.11Z"/>
        <path class="cls-3" d="M104.73,567.75c.09.26.92,1.4.65,2.14-1.32,3.61-2.66,7.29-4.73,10.48-.34.53-4.36-1.08-6.5-2.08-.68-.32-1.34-2.48-1.05-2.75,1.23-1.13,2.86-1.81,4.28-2.75,2.25-1.49,4.45-3.05,7.34-5.04Z"/>
        <path class="cls-10" d="M140.21,524.09c0,11.09.17,21.2-.12,31.31-.07,2.35-1.11,5.85-2.75,6.64-1.76.85-5.21-.23-7.14-1.59-18.07-12.76-36-25.71-53.88-38.73-5.27-3.83-5.36-9.92-.08-13.83,18.18-13.46,36.45-26.8,54.86-39.95,1.69-1.2,4.98-1.62,6.75-.77,1.4.67,2.2,3.83,2.24,5.9.22,10.57.1,21.15.1,32.63,10.15-7.33,19.52-14.12,28.93-20.87,7.7-5.53,15.33-11.18,23.23-16.41,1.96-1.3,5.38-2.24,7.18-1.37,1.65.79,2.81,4.25,2.82,6.54.19,27.29.18,54.59,0,81.88-.02,2.31-1.15,5.79-2.8,6.59-1.78.87-5.24-.1-7.17-1.43-16.03-11.03-31.86-22.34-47.76-33.55-1.2-.85-2.44-1.65-4.39-2.97Z"/>
      </g>
      <path class="cls-6" d="M416.24,767.91c-.77-6.69-1.47-12.81-2.18-19,2.86.45,5.47,2.79,6.26,6.55.96,4.6.84,9.19-4.08,12.44Z"/>
    </g>
  </g>
</svg>