<?xml version="1.0" encoding="UTF-8"?>
<svg id="Layer_2" xmlns="http://www.w3.org/2000/svg" viewBox="0 0 738.83 177.63">
  <defs>
    <style>
      .cls-1 {
        fill: #190f04;
      }

      .cls-2 {
        fill: #86531e;
      }

      .cls-3 {
        fill: #f2b142;
      }

      .cls-4 {
        fill: #2d1f10;
      }

      .cls-5 {
        fill: #d7902a;
      }

      .cls-6 {
        fill: #face7a;
      }

      .cls-7 {
        fill: #775127;
      }

      .cls-8 {
        fill: #de9a30;
      }

      .cls-9 {
        fill: #f5b442;
      }

      .cls-10 {
        fill: #734519;
      }

      .cls-11 {
        fill: #b37223;
      }

      .cls-12 {
        fill: #eaa232;
      }

      .cls-13 {
        fill: #302111;
      }

      .cls-14 {
        fill: #ba7629;
      }

      .cls-15 {
        fill: #d6994a;
      }
    </style>
  </defs>
  <g id="Layer_1-2" data-name="Layer_1">
    <g>
      <path class="cls-4" d="M738.01,16.79c-.02,3.14-.12,6.29-.06,9.43.09,4.37.28,8.74.46,13.11.1,2.37.28,4.73.42,7.1,0,.42-.02.83-.02,1.25-.3.55-.61,1.1-.91,1.65-1.51.56-3,1.18-4.54,1.65-.42.13-.97-.2-1.46-.31-.13-2.17-.27-4.33-.4-6.5.01-3.81.02-7.62.03-11.43-.02-1.69-.05-3.38-.07-5.07.07-2.6.13-5.2.2-7.8,2.12-1.02,4.24-2.05,6.35-3.07Z"/>
      <path class="cls-4" d="M737.9,55.57c.28.03.57.06.85.09.02.92.03,1.84.05,2.76-.37.53-.74,1.05-1.11,1.58-1.93.24-3.86.48-5.79.72,0-.72.02-1.44.02-2.15,2.71.44,4.91-.15,5.98-2.98Z"/>
      <path class="cls-4" d="M.04,58.58c-.01-.96-.03-1.91-.04-2.87,0-3.13.02-6.26.03-9.39.06-6.92.13-13.84.19-20.76.08-2.13.06-4.27.25-6.39C1.29,9.97,7.45,3.04,16.49,1.09c1.15-.25,2.3-.52,3.44-.78,9.57-.07,19.15-.14,28.72-.21,3.6,0,7.2,0,10.8-.01,7.65,0,15.29,0,22.94,0,.96,0,1.92-.01,2.88-.02.95,0,1.9,0,2.85-.01,5.03,0,10.06.02,15.08.03,6.69,0,13.38,0,20.07,0,1.92,0,3.84,0,5.77,0,1.91,0,3.82,0,5.72,0h6.48c8.13,0,16.26,0,24.38,0,6.43,0,12.86.01,19.28.02,6.7-.01,13.4-.02,20.1-.03,6.97,0,13.94.01,20.91.02,6.7,0,13.39,0,20.09,0,4.79,0,9.58-.01,14.37-.02.47,0,.95,0,1.42,0,1.68,0,3.36.01,5.04.02,6.7,0,13.39-.01,20.09-.02,5.75,0,11.5-.02,17.26-.02,9.31,0,18.62-.02,27.93-.02,5.52.02,11.03.05,16.55.07,6.95,0,13.89.02,20.84.03,5.73,0,11.47-.01,17.2-.02,8.83-.02,17.65-.04,26.48-.05,4.81.01,9.61.03,14.42.04,7.65,0,15.31,0,22.96,0,.46,0,.93,0,1.39,0l.33.13.33-.12c4.1,0,8.21,0,12.31,0,1.67,0,3.34,0,5.01,0,.49,0,.97,0,1.46.01,7.64,0,15.27-.02,22.91-.03,1.69,0,3.38.02,5.07.03,4.28,0,8.56,0,12.84-.01,6.98,0,13.96,0,20.95.01.65,0,1.3,0,1.94-.01,1.48,0,2.96,0,4.44-.01,4.55,0,9.11.01,13.66.02,6.93,0,13.85,0,20.78,0,3.81,0,7.62-.01,11.43-.02,10.3,0,20.61,0,30.91.01,3.6,0,7.19-.01,10.79-.02,1.91,0,3.82.01,5.72.02.73,0,1.45,0,2.18,0,7.88,0,15.77,0,23.65,0,2.4,0,4.8,0,7.2,0,.95,0,1.9,0,2.86,0,2.4,0,4.8,0,7.2,0,6.73.01,13.45.02,20.18.03.87,0,1.73,0,2.6-.01,6.76.06,13.53.12,20.29.19.49.07.97.14,1.46.21,3.83,1.83,7.66,3.67,11.49,5.5,1.1,3.19-.67,5.11-3,6.78-2.87-3.21-6.64-4.62-10.73-5.39-1.58-.41-3.16-1.18-4.75-1.18-174.7-.05-349.4-.05-524.09-.05-54.88,0-109.77,0-164.65.05-1.34,0-2.68.77-4.03,1.18-9.54,2.67-13.27,6.25-13.44,14.18-.25,11.1.02,22.21.07,33.31-.08,2.29-.15,4.58-.23,6.87-2.21.6-4.44,1.53-6.53-.32-.18-.95-.36-1.89-.54-2.84Z"/>
      <path class="cls-13" d="M728.96,12.77c2.33-1.67,4.1-3.59,3-6.78,3.57,2.73,5.36,6.45,6.05,10.8-2.12,1.02-4.24,2.05-6.35,3.07-.34-.97-.68-1.94-1.02-2.91-.56-1.39-1.12-2.79-1.67-4.18Z"/>
      <path class="cls-13" d="M.58,61.42c2.09,1.86,4.32.92,6.53.33,1.16,2.18,2.32,4.36,3.48,6.54,2.71,5.04,7.56,5.32,12.35,5.32,83.81.06,167.62.06,251.43.07,146.46,0,292.92,0,439.38.02,11.53,0,14.79-2.28,18.14-12.99,1.93-.24,3.86-.48,5.79-.72.11,1.94.22,3.89.33,5.83-.04.32-.08.65-.11.97-3.71,9.63-11.24,13.7-21.05,14.45-6.95.03-13.9.06-20.85.09-6.21.02-12.42.04-18.63.05h-4.14c0,1.94,0,3.55,0,5.16-.61,7.18-1.22,14.36-1.82,21.54-.41,4.54-.83,9.08-1.24,13.61-.24.79-.61,1.56-.69,2.37-.84,8.27-1.64,16.55-2.45,24.82-.14,1.22-.27,2.45-.41,3.67-.07.69-.14,1.38-.22,2.08-1.19,4.07-2.39,8.13-3.58,12.2-2.83,2.87-5.66,5.73-8.49,8.6-6.44.73-12.89,1.46-19.33,2.19-.48,0-.96,0-1.44,0-3.11-.21-6.22-.42-9.33-.63-3.51-2.17-7.02-4.34-10.53-6.51-.25-.25-.5-.5-.75-.75l-1.5-4.9c-.08-.49-.17-.97-.25-1.46-.14-.71-.28-1.42-.42-2.13-.11-5.29-.22-10.58-.34-15.87-.04-3.1-.08-6.2-.13-9.31-.05-1.91-.09-3.82-.14-5.73-.1-5.27-.2-10.54-.29-15.8,0-.96,0-1.92-.01-2.87-.03-1.43-.07-2.86-.1-4.29-.07-3.11-.14-6.22-.21-9.33-.05-3.6-.11-7.19-.16-10.79-.03-1.2-.05-2.4-.08-3.6.83-3.19-1.21-2.64-3.06-2.36-3.09,0-6.19.02-9.28.02-4.98-.08-9.96-.25-14.94-.24-10.09.02-20.18.14-30.27.22-6.47-.01-12.93-.02-19.4-.03-1.3-.08-2.61-.22-3.91-.22-114.02,0-228.03,0-342.05.02-7.16,0-14.32.14-21.48.22-5.26,0-10.52.02-15.78.02-6.23,0-12.45,0-18.68,0-.37.3-.73.6-1.1.91-.05,6.39-.09,12.77-.14,19.16-.02,1.52-.04,3.04-.07,4.56-.03,2.86-.07,5.72-.1,8.58-.01,1.92-.02,3.83-.03,5.75-.06,3.59-.12,7.18-.18,10.77-.08,5.98-.16,11.95-.24,17.93-.02,1.92-.03,3.84-.05,5.76-.01.47-.03.94-.04,1.41-.04,1.21-.08,2.41-.11,3.62-.06.49-.12.97-.18,1.46-.55,2.09-1.09,4.18-1.64,6.27-1.11,1.67-2.23,3.35-3.34,5.02-3.37,1.57-6.73,3.14-10.1,4.71l-.69.1c-6.43.08-12.85.16-19.28.23-.68-.12-1.36-.24-2.05-.37-.52-.08-1.03-.16-1.55-.24-2.03-.77-4.06-1.54-6.1-2.31-1.87-1.62-3.73-3.24-5.6-4.86-1.54-3.8-3.44-7.5-4.51-11.43-1.08-3.96-1.34-8.15-1.95-12.23-1.26-12.82-2.56-25.63-3.75-38.45-.81-8.75-1.48-17.52-2.23-26.59-1.49,0-2.78,0-4.07,0-12.65,0-25.3,0-37.96,0-8.98,0-16.3-3.1-21-11.14-.44-1.15-.87-2.3-1.31-3.45-.18-1.69-.35-3.37-.53-5.06ZM634.35,169.61c.41-.03.83-.06,1.24-.1.94.17,1.88.34,2.81.51,10.66,1.5,18.53-2.29,20.29-13.16.57-3.51,1.03-7.05,1.43-10.59.95-8.5,1.92-17,2.73-25.52.82-8.75,1.46-17.53,2.17-26.29.3-4.21.6-8.42.92-13.02-1.92,0-3.21,0-4.5,0-8.37,0-16.73.01-25.1,0q-9.43,0-9.19,9.41c-.02,5.49-.05,10.98-.07,16.46-.16,1.53-.42,3.05-.48,4.58-.6,15.92-1.18,31.84-1.76,47.77-.42-1.19-1.21-2.39-1.22-3.58-.11-20.67-.08-41.35-.2-62.02-.02-4.12-.57-8.23-.87-12.31h-5.83c.11,1.59.27,2.89.29,4.19.26,23.13.49,46.27.74,69.4.02,1.79-.08,3.59.06,5.38.48,6.17,4.93,9.66,10.99,8.73,1.36.06,2.71.12,4.07.18.49,0,.99-.01,1.48-.02ZM114.1,160.96c-.8-23.36-1.6-46.72-2.4-70.07-.19-2.36-.51-4.71-.52-7.07,0-1.99-.98-2.37-2.67-2.37-9.49.03-18.98-.1-28.47.05-7.21.11-7.21.26-6.89,7.62.02.36.09.71.14,1.06.55,5.48,1.1,10.97,1.66,16.45,1.79,16.98,3.41,33.98,5.46,50.93.91,7.53,5.61,11.59,12.77,12.23,3.54.13,7.08.26,10.62.39,2.44-.15,4.88-.29,7.31-.44,5.83,0,9.95-4.27,10.08-10.62.27-13.01.52-26.02.65-39.03.12-11.6.07-23.19.07-34.79,0-1.15-.12-2.31-.19-3.57h-5.59c0,1.63.01,3.04,0,4.44-.22,23.65-.42,47.3-.72,70.95-.02,1.28-.85,2.56-1.31,3.83Z"/>
      <path class="cls-9" d="M730.64,16.95c.34.97.68,1.94,1.02,2.91-.07,2.6-.13,5.2-.19,7.8-11.34,1.21-22.67,2.41-34.01,3.62-1.2.24-2.4.47-3.6.71-8.52.7-17.04,1.45-25.56,2.08-7.83.58-15.68.88-23.49,1.61-10.99,1.02-21.95,2.25-32.91,3.5-10.26,1.17-20.5,2.45-30.75,3.72-11.06,1.37-22.1,3-33.19,4.1-10.28,1.02-20.62,1.49-30.94,2.2-13.75.96-27.49,2.16-41.26,2.82-15.83.75-31.69,1.44-47.53,1.43-52.11-.03-104.22-.51-156.33-.58-26.52-.04-53.04.38-79.55.68-10.26.11-20.51.52-30.76.68-18.51.29-37.01.54-55.52.72-10.52.1-21.05.04-31.57.06-9.26-.48-18.52-1.21-27.78-1.39-11.7-.22-23.4,0-35.1.03-.05-4.84-.1-9.67-.15-14.51.22,0,.44,0,.66-.05,4.71-.2,9.41-.45,14.12-.59,16.57-.51,33.14-.98,49.71-1.47,1.36.24,2.72.67,4.09.68,23.05.28,46.11.6,69.16.71,21.23.1,42.46-.04,63.69-.14.9,0,1.8-.68,2.7-1.04-.77-.74-1.42-.91-2.07-.92-11.09-.25-22.19-.48-33.28-.73-10.38-.23-20.75-.45-31.13-.73-7.39-.19-14.77-.49-22.16-.7-9.42-.26-18.84-.63-28.26-.7-16.86-.11-33.73-.05-50.59,0-1.24,0-2.48.45-3.72.69-10.78-.26-21.56-.51-32.34-.77.02-1.43-.11-2.89.07-4.3.97-7.83,3.1-12.41,12.71-12.29,24.33.31,48.67.17,73,.08,19.34-.08,38.68-.38,58.02-.51,2.55-.02,5.11.36,7.67.55.68.48,1.34,1.34,2.05,1.39,15.88,1.03,31.75,2.36,47.65,2.81,12.85.36,25.74-.14,38.6-.68,7.21-.3,14.39-1.37,21.56-2.26,1.21-.15,2.32-1.19,3.47-1.81,3.32.18,6.64.5,9.96.51,26.62.04,53.24.02,79.86.03,31.33.01,62.67.04,94,.06-.58.46-1.14,1.27-1.76,1.33-8.99.8-17.99,1.53-26.98,2.22-6.99.54-14,.89-20.98,1.53-3.66.34-7.28,1.11-10.92,1.69,1.7,1.09,3.37,1.65,5.07,1.76,12.46.78,24.92,1.96,37.39,2.08,19.45.19,38.9-.37,58.36-.61.48,0,.95-.06,1.43-.11,9.33-.92,18.65-1.84,27.98-2.75h14.01c.05.42.1.84.15,1.27-.77.29-1.53.75-2.32.86-5.76.8-11.52,1.59-17.3,2.26-16.62,1.92-33.21,4.1-49.87,5.57-13.62,1.2-27.32,1.59-40.99,2.23-11.78.56-23.56,1.05-35.34,1.43-10.97.35-21.95.68-32.92.71-36.24.09-72.48.04-108.72.04-1.2,0-2.4,0-3.61,0,2.07.98,4.16,1.35,6.25,1.41,9.9.29,19.79.5,29.69.74,9.9.24,19.79.65,29.69.64,4.18,0,8.36-1.24,12.54-1.26,7.98-.04,15.97.62,23.95.58,17.55-.09,35.11-.32,52.66-.69,14.77-.32,29.55-.8,44.31-1.44,12.12-.53,24.23-1.34,36.33-2.16,5.33-.36,10.64-1.03,15.95-1.61,9.9-1.1,19.8-2.28,29.71-3.35,5.9-.64,11.84-.96,17.73-1.73,6.94-.92,13.8-2.46,20.75-3.23,12.9-1.43,25.57-3.88,38.01-7.51.98-.29,1.76-1.28,2.63-1.95,2.56,0,5.13,0,7.69.01,24.48.03,48.95.06,73.43.08-2.46.7-4.89,1.64-7.4,2.06-5.75.97-11.55,1.69-18.07,2.62,5.13,1.8,56.81-.24,59.8-1.88-1.12-.85-2.35-1.79-3.59-2.73,1.76-.03,3.52-.07,5.28-.1ZM250.54,38.93c0-.24.01-.48.02-.72h-13.35c0,.24,0,.48.01.72h13.31Z"/>
      <path class="cls-3" d="M693.85,31.99c1.2-.24,2.4-.47,3.6-.71,1.13.72,2.28,2.08,3.38,2.04,6.12-.22,12.23-.97,18.35-1.16,4.1-.13,8.23.36,12.34.58-.01,3.81-.02,7.62-.03,11.43-31.04,0-61.75,3.55-92.33,8.96.83.6,1.68,1.01,2.56,1.11,7.19.76,14.36,1.78,21.57,2.1,11.9.52,23.81.53,35.72.82,2.6.06,5.2.71,7.79.6,7.23-.3,14.44-.85,21.66-1.3-1.41,1.37-2.58,3.42-4.26,3.99-3.55,1.2-7.37,2.27-11.08,2.28-55.96.14-111.92.09-167.89.09-173.27,0-346.53.03-519.8-.07-3.47,0-6.94-1.35-10.41-2.07,2.77-.46,5.52-1.25,8.3-1.32,15.61-.37,31.23-.56,46.85-.82,1.21,0,2.43,0,3.64,0,1.17-.01,2.34-.02,3.51-.03,7.23-.46,14.47-1.31,21.7-1.3,30.82.07,61.64.36,92.46.66,13.01.13,26.01.53,39.01.68,24.84.29,49.68.65,74.53.68,19.1.02,38.21-.34,57.31-.68,21.71-.38,43.41-.88,65.11-1.43,14.29-.37,28.59-.82,42.87-1.45,12.71-.56,25.41-1.36,38.12-2.12,15.55-.93,31.11-1.72,46.63-2.95,8.86-.7,17.66-2.07,26.47-3.31,15.27-2.15,30.5-4.53,45.78-6.63,7.4-1.02,14.87-1.6,22.3-2.39,8.37-.89,16.74-1.82,25.13-2.65,5.67-.56,11.36-.9,17.02-1.54.76-.09,1.39-1.35,2.08-2.07Z"/>
      <path class="cls-12" d="M728.47,56.44c-7.22.45-14.44,1.01-21.67,1.3-2.58.11-5.19-.54-7.79-.6-11.91-.3-23.82-.31-35.72-.82-7.21-.31-14.39-1.34-21.57-2.1-.88-.09-1.73-.51-2.56-1.11,30.58-5.41,61.28-8.95,92.33-8.96.13,2.17.27,4.33.4,6.5-.15.91-.31,1.82-.46,2.74-.99,1.02-1.97,2.03-2.96,3.05ZM725.28,49.15c-4.42-3.23-62.18,0-65.84,3.79.62.21,1.13.53,1.65.55,5.82.28,11.66.82,17.48.69,12.61-.28,25.23-.7,37.81-1.53,3.01-.2,7.16.73,8.9-3.5Z"/>
      <path class="cls-12" d="M731.53,32.74c-4.11-.21-8.24-.71-12.34-.58-6.12.19-12.23.94-18.35,1.16-1.1.04-2.25-1.32-3.38-2.04,11.34-1.21,22.67-2.41,34.01-3.62.02,1.69.05,3.38.07,5.07Z"/>
      <path class="cls-13" d="M731.43,53.39c.15-.91.31-1.82.46-2.74.49.12,1.05.44,1.46.31,1.54-.47,3.03-1.09,4.54-1.65v6.25c-1.08,2.83-3.27,3.42-5.98,2.98-.16-1.72-.32-3.44-.48-5.16Z"/>
      <path class="cls-11" d="M731.43,53.39c.16,1.72.32,3.44.48,5.16,0,.72-.02,1.44-.02,2.15-3.35,10.71-6.61,13-18.14,12.99-146.46-.02-292.92-.01-439.38-.02-83.81,0-167.62-.01-251.43-.07-4.79,0-9.65-.28-12.35-5.32.5-3,1-6.01,1.49-9.01.99.46,1.97.92,2.96,1.38,3.47.72,6.94,2.07,10.41,2.07,173.27.1,346.53.08,519.8.07,55.96,0,111.92.04,167.89-.09,3.71,0,7.52-1.08,11.08-2.28,1.68-.57,2.85-2.61,4.26-3.99.99-1.02,1.98-2.03,2.96-3.05Z"/>
      <path class="cls-6" d="M694.62,16.98c-24.48-.03-48.95-.06-73.43-.08-2.56,0-5.13,0-7.69-.01-1.39-.2-2.79-.6-4.18-.58-7.71.13-15.41.37-23.12.56-1.25-.21-2.5-.62-3.75-.6-11.17.17-22.35.57-33.52.59-11.77.02-23.53-.32-35.3-.5-17.66.2-35.33.4-52.99.6-31.33-.02-62.67-.05-94-.06-26.62-.01-53.24.02-79.86-.03-3.32,0-6.64-.33-9.96-.51-4.13.03-8.26.07-12.4.07-5.64,0-11.27-.03-16.91-.05-6.18-.02-12.37-.11-18.55-.03-6.35.08-12.7.36-19.05.47-1.75.03-3.5-.28-5.26-.32-2.82-.06-5.64-.07-8.46-.02-6.35.12-12.71.28-19.06.43-4.54,0-9.09,0-13.63.01-2.56-.19-5.11-.57-7.67-.55-19.34.13-38.68.44-58.02.51-24.33.1-48.67.23-73-.08-9.61-.12-11.75,4.46-12.71,12.29-.17,1.41-.05,2.87-.07,4.3-.03.91-.07,1.83-.1,2.74-2.9.56-1.89,1.75-.48,3.01.05,4.84.1,9.67.14,14.51.13,1.36.26,2.73.39,4.09-1.55-.95-3.1-1.91-4.65-2.86-.05-11.1-.32-22.21-.07-33.31.18-7.92,3.91-11.5,13.44-14.18,1.55.04,3.11.11,4.66.11,209.79,0,419.57-.02,629.36-.04,21.17,0,42.33-.06,63.5-.09,4.09.77,7.86,2.18,10.73,5.39.56,1.39,1.12,2.79,1.67,4.18-1.76.03-3.52.07-5.28.1-10.25-.03-20.49-.05-30.74-.08Z"/>
      <path class="cls-1" d="M718.23,7.38c-21.17.03-42.33.08-63.5.09-209.79.02-419.57.03-629.36.04-1.55,0-3.11-.07-4.66-.11,1.34-.41,2.68-1.18,4.03-1.18,54.88-.06,109.77-.05,164.65-.05,174.7,0,349.4,0,524.09.05,1.58,0,3.16.77,4.75,1.18Z"/>
      <path class="cls-15" d="M7.34,54.88c1.55.95,3.1,1.91,4.65,2.86.03.51.06,1.02.09,1.54-.5,3-1,6.01-1.49,9.01-1.16-2.18-2.32-4.36-3.48-6.54.08-2.29.15-4.58.23-6.87Z"/>
      <path class="cls-14" d="M103.79,170.18c-3.54-.13-7.08-.26-10.62-.39.6-.76,1.2-1.53,2.07-2.64-6.27-1.72-9.18-6.28-9.88-12.25-1.83-15.8-3.47-31.62-5.19-47.44,8-.03,16-.12,24-.04,1.94.02,4.05.09,4.09,3.19.11,8.46.38,16.91.76,25.36.18,4.02.96,8.02,1.14,12.04.33,7.55,1.76,15.5-5.94,20.82-.31.21-.3.88-.44,1.33Z"/>
      <path class="cls-14" d="M638.4,170.03c-.94-.17-1.88-.34-2.81-.51-.65-1.19-1.05-2.62-1.99-3.52-2.6-2.5-3.79-5.45-3.6-8.98.1-1.77.55-3.53.61-5.3.51-14.76.97-29.51,1.44-44.27,7.03-.03,14.07-.07,21.1-.1,6.84-.02,7.06.32,6.23,7.29-1.48,12.46-2.74,24.96-4.34,37.4-1.01,7.83-4.07,15.54-14.7,16.39-.69.05-1.3,1.03-1.94,1.58Z"/>
      <path class="cls-2" d="M638.4,170.03c.65-.55,1.26-1.53,1.94-1.58,10.62-.85,13.69-8.57,14.7-16.39,1.61-12.45,2.86-24.94,4.34-37.4.83-6.97.61-7.32-6.23-7.29-7.03.02-14.07.07-21.1.1-1.66-.04-3.32-.09-4.97-.13.02-5.49.05-10.98.07-16.46,6.17.51,12.34.95,18.5,1.54,6.46.62,12.91,1.38,19.37,2.08-.72,8.76-1.35,17.54-2.17,26.29-.8,8.52-1.77,17.02-2.73,25.52-.4,3.54-.86,7.08-1.43,10.59-1.77,10.86-9.64,14.65-20.29,13.16Z"/>
      <path class="cls-2" d="M103.79,170.18c.14-.45.13-1.12.44-1.33,7.7-5.32,6.27-13.26,5.94-20.82-.17-4.02-.95-8.02-1.14-12.04-.38-8.45-.65-16.91-.76-25.36-.04-3.1-2.15-3.17-4.09-3.19-8-.09-16,0-24,.04-1.74-.28-3.49-.56-5.23-.83-.55-5.48-1.1-10.97-1.66-16.45,1.77.07,3.56.04,5.32.25,4.68.56,9.34,1.72,14.01,1.73,6.36.02,12.73-.81,19.09-1.27.8,23.36,1.6,46.72,2.4,70.08-1,2.93-2,5.85-2.99,8.78-2.44.15-4.88.29-7.31.44Z"/>
      <path class="cls-7" d="M628.8,169.45c-6.06.93-10.51-2.56-10.99-8.73-.14-1.78-.04-3.58-.06-5.38-.24-23.13-.48-46.27-.74-69.4-.01-1.3-.17-2.6-.29-4.19h5.83c.3,4.08.84,8.19.87,12.31.12,20.67.09,41.35.2,62.02,0,1.2.79,2.39,1.22,3.58,1.32,3.26,2.64,6.52,3.95,9.78Z"/>
      <path class="cls-7" d="M111.1,169.74c1-2.93,1.99-5.85,2.99-8.78.46-1.28,1.29-2.55,1.31-3.84.3-23.65.5-47.3.72-70.95.01-1.4,0-2.81,0-4.44h5.59c.07,1.26.19,2.42.19,3.57,0,11.6.05,23.19-.07,34.79-.13,13.01-.39,26.02-.65,39.03-.13,6.35-4.25,10.61-10.08,10.62Z"/>
      <path class="cls-10" d="M665.02,94.47c-6.45-.7-12.9-1.46-19.37-2.08-6.16-.59-12.33-1.03-18.5-1.54q-.24-9.42,9.19-9.4c8.37,0,16.73,0,25.1,0,1.29,0,2.58,0,4.5,0-.33,4.61-.63,8.82-.92,13.02Z"/>
      <path class="cls-10" d="M111.69,90.89c-6.36.46-12.73,1.29-19.09,1.27-4.67-.01-9.33-1.17-14.01-1.73-1.76-.21-3.54-.17-5.32-.25-.05-.35-.12-.71-.14-1.06-.31-7.36-.32-7.51,6.89-7.62,9.49-.15,18.98-.02,28.47-.05,1.69,0,2.67.38,2.67,2.37,0,2.36.33,4.71.52,7.07Z"/>
      <path class="cls-15" d="M74.94,106.64c1.74.28,3.49.56,5.23.83,1.72,15.82,3.36,31.64,5.19,47.44.69,5.97,3.61,10.52,9.88,12.25-.87,1.11-1.47,1.87-2.07,2.64-7.16-.64-11.86-4.7-12.77-12.23-2.04-16.95-3.66-33.95-5.46-50.93Z"/>
      <path class="cls-15" d="M628.8,169.45c-1.32-3.26-2.64-6.52-3.95-9.78.58-15.92,1.15-31.85,1.76-47.77.06-1.53.31-3.05.48-4.58,1.66.04,3.32.08,4.97.13-.47,14.76-.93,29.52-1.44,44.27-.06,1.77-.51,3.53-.61,5.3-.2,3.53,1,6.48,3.6,8.98.93.89,1.34,2.33,1.99,3.52-.41.03-.83.06-1.24.1-.49,0-.99.01-1.48.01-1.36-.06-2.71-.12-4.07-.18Z"/>
      <path class="cls-14" d="M632.87,169.63c.49,0,.99,0,1.48-.01-.49,0-.99,0-1.48.01Z"/>
      <path class="cls-12" d="M693.85,31.99c-.69.72-1.32,1.98-2.08,2.07-5.66.64-11.35.98-17.02,1.54-8.38.83-16.75,1.77-25.13,2.65-7.44.79-14.9,1.37-22.3,2.39-15.28,2.1-30.51,4.47-45.78,6.63-8.81,1.24-17.61,2.61-26.47,3.31-15.52,1.23-31.08,2.02-46.63,2.95-12.7.76-25.4,1.57-38.12,2.12-14.28.62-28.58,1.08-42.87,1.45-21.7.56-43.41,1.05-65.11,1.43-19.1.34-38.21.7-57.31.68-24.84-.03-49.69-.39-74.53-.68-13.01-.15-26.01-.56-39.01-.68-30.82-.3-61.64-.59-92.46-.66-7.23-.02-14.47.84-21.7,1.3-.95-1.16-1.9-2.32-2.85-3.48,10.52-.01,21.05.05,31.57-.06,18.51-.18,37.01-.43,55.52-.72,10.26-.16,20.51-.57,30.76-.68,26.52-.3,53.04-.72,79.55-.68,52.11.07,104.22.55,156.33.58,15.85.01,31.7-.68,47.53-1.43,13.77-.66,27.51-1.86,41.26-2.82,10.31-.72,20.65-1.18,30.94-2.2,11.09-1.1,22.13-2.73,33.19-4.1,10.25-1.27,20.49-2.55,30.75-3.72,10.96-1.25,21.93-2.48,32.91-3.5,7.81-.72,15.66-1.02,23.49-1.61,8.52-.64,17.04-1.38,25.56-2.08Z"/>
      <path class="cls-12" d="M586.21,16.87c7.71-.2,15.41-.43,23.12-.56,1.39-.02,2.79.38,4.18.58-.87.67-1.65,1.66-2.63,1.95-12.44,3.63-25.12,6.08-38.01,7.51-6.95.77-13.81,2.31-20.75,3.23-5.88.78-11.82,1.1-17.73,1.73-9.91,1.07-19.8,2.25-29.71,3.35-5.31.59-10.62,1.25-15.95,1.61-12.1.82-24.21,1.63-36.33,2.16-14.76.64-29.54,1.12-44.31,1.44-17.55.38-35.1.61-52.66.69-7.98.04-15.97-.62-23.95-.58-4.18.02-8.36,1.26-12.54,1.26-9.9,0-19.79-.4-29.69-.64-9.9-.24-19.8-.45-29.69-.74-2.09-.06-4.17-.43-6.25-1.41,1.2,0,2.4,0,3.61,0,36.24,0,72.48.05,108.72-.04,10.97-.03,21.95-.36,32.92-.71,11.78-.38,23.57-.87,35.34-1.43,13.67-.65,27.37-1.03,40.99-2.23,16.66-1.47,33.25-3.65,49.87-5.57,5.78-.67,11.54-1.46,17.3-2.26.8-.11,1.55-.56,2.32-.86-.05-.42-.1-.84-.15-1.27-4.67,0-9.34,0-14.01,0,0-.71,0-1.42,0-2.14,7.38-.96,14.74-2.32,22.15-2.78,10.34-.63,20.73-.54,31.1-.88.93-.03,1.82-.93,2.73-1.43Z"/>
      <path class="cls-8" d="M530.23,21.96c0,.71,0,1.42,0,2.14-9.33.92-18.65,1.84-27.98,2.75-.47.05-.95.11-1.43.11-19.45.24-38.91.8-58.36.61-12.47-.12-24.93-1.3-37.39-2.08-1.7-.11-3.37-.67-5.07-1.76,3.64-.58,7.26-1.35,10.92-1.69,6.98-.64,13.99-1,20.98-1.53,9-.69,18-1.42,26.98-2.22.62-.06,1.17-.87,1.76-1.33,17.66-.2,35.33-.4,52.99-.6-.59.42-1.16,1.17-1.79,1.23-10.87,1.02-21.73,2.14-32.62,2.88-13.4.91-26.82,1.49-40.23,2.24-.59.03-1.17.37-1.75.56,1.38.93,2.74,1.51,4.09,1.5,14.67-.16,29.34-.22,43.99-.69,14.97-.48,29.93-1.39,44.89-2.12Z"/>
      <path class="cls-12" d="M44.37,34.15c1.24-.24,2.48-.68,3.72-.69,16.86-.04,33.73-.11,50.59,0,9.42.06,18.84.43,28.26.7,7.39.21,14.77.5,22.16.7,10.37.27,20.75.49,31.13.73,11.09.25,22.19.48,33.28.73.65.01,1.3.18,2.07.92-.9.36-1.8,1.04-2.7,1.04-21.23.1-42.46.24-63.69.14-23.05-.11-46.11-.43-69.16-.71-1.36-.02-2.72-.44-4.09-.68-1.15-.48-2.29-1.33-3.46-1.38-8.61-.35-17.23-.53-25.85-.81-.76-.03-1.51-.45-2.27-.68Z"/>
      <path class="cls-5" d="M74.48,55.01c.95,1.16,1.9,2.32,2.85,3.48-1.17,0-2.34.02-3.51.03-1.22-2.23-2.43-2.24-3.64,0-15.62.25-31.23.45-46.85.82-2.78.07-5.53.86-8.3,1.32-.98-.46-1.97-.92-2.95-1.38-.03-.51-.06-1.02-.09-1.54-.13-1.37-.27-2.73-.4-4.1,11.7-.03,23.41-.26,35.11-.03,9.27.18,18.52.91,27.78,1.39Z"/>
      <path class="cls-12" d="M247.52,16.37c5.64.02,11.27.06,16.91.05,4.13,0,8.26-.05,12.4-.07-1.16.63-2.26,1.66-3.47,1.81-7.17.9-14.36,1.96-21.56,2.26-12.86.53-25.75,1.04-38.6.68-15.9-.45-31.77-1.78-47.65-2.81-.71-.05-1.37-.91-2.05-1.39,4.54,0,9.09,0,13.63,0,.88.25,1.75.67,2.64.71,6.19.29,12.38.67,18.57.71,15.31.1,30.62.07,45.93-.05,1.09,0,2.17-1.24,3.26-1.9Z"/>
      <path class="cls-5" d="M44.37,34.15c.76.24,1.5.66,2.27.68,8.62.29,17.24.46,25.85.81,1.17.05,2.31.9,3.46,1.38-16.57.49-33.14.96-49.71,1.47-4.71.14-9.42.39-14.13.59-.06-.99-.12-1.98-.17-2.96.03-.91.07-1.83.1-2.74,10.78.26,21.56.51,32.34.77Z"/>
      <path class="cls-5" d="M694.62,16.98c10.25.02,20.49.05,30.74.08,1.23.94,2.47,1.88,3.58,2.73-2.99,1.63-54.67,3.67-59.8,1.88,6.52-.93,12.32-1.65,18.07-2.62,2.51-.42,4.94-1.36,7.4-2.06Z"/>
      <path class="cls-12" d="M250.54,38.93h-13.31c0-.24,0-.48-.01-.72h13.35c0,.24-.01.48-.02.72Z"/>
      <path class="cls-15" d="M11.93,36.13c.06.99.12,1.98.17,2.96-.22.04-.44.05-.66.05-1.41-1.26-2.42-2.45.48-3.01Z"/>
      <path class="cls-12" d="M70.19,58.53c1.21-2.25,2.42-2.24,3.64,0-1.21,0-2.43,0-3.64,0Z"/>
      <path class="cls-3" d="M725.28,49.15c-1.73,4.23-5.89,3.31-8.9,3.5-12.58.83-25.2,1.25-37.81,1.53-5.82.13-11.65-.41-17.48-.69-.52-.03-1.04-.34-1.65-.55,3.66-3.79,61.43-7.01,65.84-3.79Z"/>
      <path class="cls-3" d="M530.23,21.96c-14.96.72-29.92,1.64-44.89,2.12-14.66.47-29.33.53-43.99.69-1.35.01-2.71-.57-4.09-1.5.58-.19,1.16-.53,1.75-.56,13.41-.75,26.83-1.33,40.23-2.24,10.89-.74,21.75-1.85,32.62-2.88.63-.06,1.2-.8,1.79-1.23,11.76.18,23.53.52,35.3.5,11.17-.02,22.35-.42,33.52-.59,1.25-.02,2.5.39,3.75.6-.91.5-1.81,1.4-2.73,1.43-10.36.34-20.75.25-31.1.88-7.41.45-14.77,1.82-22.15,2.78Z"/>
      <path class="cls-9" d="M247.52,16.37c-1.09.66-2.17,1.89-3.26,1.9-15.31.13-30.62.15-45.93.05-6.19-.04-12.38-.42-18.57-.71-.89-.04-1.76-.47-2.64-.71,6.35-.15,12.71-.32,19.06-.43,2.82-.05,5.64-.04,8.46.02,1.75.04,3.51.35,5.26.32,6.35-.11,12.7-.39,19.05-.47,6.18-.08,12.37.01,18.55.03Z"/>
    </g>
  </g>
</svg>