<svg width="858" height="401" viewBox="0 0 858 401" fill="none" xmlns="http://www.w3.org/2000/svg">
<ellipse cx="430" cy="226.5" rx="420" ry="146.5" fill="#F0F0C9"/>
<path d="M290.873 89.8566C286.245 90.8951 281.646 92.0576 277.004 92.9721C221.727 103.745 167.308 117.974 115.288 141.487C91.9495 152.027 69.3533 164.225 50.0995 182.329C42.9864 189.025 36.3161 196.713 30.9884 205.114C18.2477 225.218 19.6189 244.531 33.9879 263.347C49.2425 283.311 69.2248 296.238 90.4497 307.011C129.843 327.006 171.465 339.406 213.957 348.69C308.256 369.305 403.568 374.544 499.409 369.848C574.139 366.19 648.141 356.378 720.143 333.051C753.494 322.247 785.989 309.088 814.284 286.38C821.854 280.304 828.839 273.004 834.909 265.176C850.792 244.717 851.163 220.63 836.523 198.31C821.654 175.633 800.615 161.048 778.861 147.501C777.219 146.478 775.533 145.532 773.891 144.509C773.491 144.261 773.177 143.858 771.32 142.091C774.862 143.409 776.733 143.967 778.49 144.788C800.029 154.848 820.583 166.752 837.223 185.057C864.161 214.709 864.875 251.536 839.537 282.691C819.554 307.274 794.03 323.115 766.949 336.213C715.172 361.261 660.667 376.094 604.919 385.998C528.318 399.607 451.131 403.343 373.759 399.669C283.888 395.407 195.275 382.371 110.618 347.016C81.2227 334.74 53.1989 319.566 29.5887 296.269C18.162 285.001 8.49225 272.151 3.59308 256.14C-4.84834 228.519 2.0362 204.246 19.5047 183.197C39.9155 158.614 66.2396 143.734 93.9634 131.505C139.599 111.371 187.29 99.9316 235.968 92.9411C251.522 90.7091 267.134 88.9886 282.717 87.1441C285.231 86.8496 287.816 87.0976 290.359 87.0976C290.53 88.0276 290.687 88.9576 290.859 89.8876L290.873 89.8566Z" fill="#502009"/>
<path d="M324.591 104.286L324.045 103.719C324.085 103.429 324.099 103.134 324.169 102.853C325.304 98.2435 326.451 93.6357 327.584 89.0249C328.271 86.2332 328.942 83.4384 329.634 80.5841C328.645 80.4436 327.743 80.3409 326.848 80.1812C323.888 79.6541 321.032 78.8644 318.683 76.8384C317.867 76.1346 317.853 75.9465 318.7 75.2717C320.241 74.0459 321.994 73.2387 323.907 72.8477C325.821 72.4568 327.759 72.1873 329.734 71.8573C329.706 71.6745 329.682 71.4514 329.638 71.2335C328.753 66.9018 327.859 62.5726 326.979 58.241C326.328 55.0366 325.69 51.8297 325.049 48.6241C325.237 48.4424 325.427 48.2594 325.615 48.0777C327.404 48.1897 329.192 48.3141 330.981 48.4066C332.227 48.4711 333.12 49.051 333.816 50.0768C338.067 56.3334 342.345 62.571 346.59 68.8303C347 69.4348 347.412 69.6886 348.176 69.6706C356.761 69.4625 365.348 69.2991 373.934 69.1203C374.668 69.1044 375.402 69.058 376.171 69.0247C376.123 68.7204 376.096 68.5279 376.063 68.3352C372.954 50.4219 369.843 32.5071 366.735 14.5923C366.449 12.9463 366.825 12.5343 368.462 12.7437C370.965 13.0635 373.47 13.3792 375.964 13.7628C376.372 13.8259 376.895 14.1444 377.086 14.4958C381.023 21.7432 384.923 29.0107 388.823 36.2796C394.487 46.8344 400.148 57.3919 405.797 67.9562C406.065 68.4552 406.365 68.6332 406.937 68.6228C414.539 68.49 422.143 68.4102 429.748 68.2539C432.425 68.1983 435.043 68.4924 437.634 69.1186C440.494 69.8082 443.134 70.9906 445.549 72.6726C446.14 73.286 446.733 73.9008 447.325 74.5142C447.489 74.8261 447.627 75.1571 447.823 75.4473C449.018 77.2226 449.093 79.036 448.031 80.894C447.758 81.3705 447.464 81.8342 447.181 82.3036L445.34 84.0792C445.246 84.1011 445.136 84.1005 445.061 84.1506C440.738 87.089 435.842 88.0838 430.761 87.9229C422.737 87.6694 414.721 87.1433 406.703 86.7062C406.11 86.6745 405.765 86.7851 405.451 87.3291C401.699 93.7779 397.918 100.209 394.153 106.65C387.711 117.667 381.276 128.687 374.824 139.697C374.658 139.981 374.344 140.339 374.068 140.37C371.201 140.677 368.33 140.954 365.455 141.17C364.59 141.237 364.233 140.725 364.336 139.836C364.365 139.578 364.433 139.321 364.486 139.065C368.011 122.4 371.54 105.735 375.065 89.0698C375.334 87.7985 375.598 86.5244 375.874 85.2003C375.619 85.1706 375.464 85.1427 375.308 85.1343C366.213 84.6011 357.117 84.0803 348.023 83.5164C347.194 83.4651 346.721 83.7111 346.243 84.3663C341.78 90.4709 337.3 96.5641 332.771 102.62C332.315 103.23 331.539 103.891 330.843 103.974C328.777 104.224 326.679 104.2 324.593 104.282L324.591 104.286Z" fill="#502009"/>
</svg>
